<?xml version="1.0" standalone="no"?>
<!DOCTYPE svg PUBLIC "-//W3C//DTD SVG 1.1//EN" "http://www.w3.org/Graphics/SVG/1.1/DTD/svg11.dtd" >
<svg xmlns="http://www.w3.org/2000/svg" xmlns:xlink="http://www.w3.org/1999/xlink" version="1.1">
<metadata>
Created by FontForge 20200427 at Thu Aug 22 05:08:38 2019
 By www
Copyright (c) 2019 by Martin Va'cha. All rights reserved.
</metadata>
<defs>
<font id="RoobertTWHINT-Regular" horiz-adv-x="566" >
  <font-face 
    font-family="Roobert TWHINT"
    font-weight="400"
    font-stretch="normal"
    units-per-em="975"
    panose-1="0 0 5 0 0 0 0 0 0 0"
    ascent="780"
    descent="-195"
    x-height="504"
    cap-height="700"
    bbox="-730 -246 1074 1103"
    underline-thickness="50"
    underline-position="-150"
    unicode-range="U+000D-FEFF"
  />
<missing-glyph horiz-adv-x="1083" 
d="M525 796v-1000q-132 4 -243 72.5t-175.5 181.5t-64.5 245q0 131 65 244.5t176 183t242 73.5zM559 -201v994q41 -12 76 -82.5t55.5 -180.5t20.5 -235t-20.5 -234.5t-55.5 -179.5t-76 -82zM743 295q0 106 -14 200.5t-39.5 167.5t-59.5 115q73 -28 131 -99.5t90.5 -171.5
t32.5 -212q0 -113 -32.5 -213t-90.5 -170.5t-131 -97.5q34 42 59.5 114.5t39.5 166.5t14 200zM728 -168q57 46 100 118t66 160.5t23 184.5t-23.5 185t-66.5 161t-102 119q93 -37 165 -107.5t112 -163.5t40 -194t-39.5 -193.5t-111 -162.5t-163.5 -107z" />
    <glyph glyph-name="f_f.liga" unicode="ff" horiz-adv-x="672" 
d="M16 433v71h105v51q0 48 19 83t54.5 54t83.5 19h80v-71h-76q-37 0 -59 -23t-22 -63v-50h157v-71h-157v-433h-80v433h-105zM309 433v71h105v51q0 48 19 83t54.5 54t83.5 19h80v-71h-76q-37 0 -59 -23t-22 -63v-50h157v-71h-157v-433h-80v433h-105z" />
    <glyph glyph-name="f_f_i.liga" unicode="ffi" horiz-adv-x="855" 
d="M795 0h-80v433h-220v-433h-80v433h-214v-433h-80v433h-105v71h105v51q0 48 19 83t54.5 54t83.5 19h80v-71h-76q-37 0 -59 -23t-22 -63v-50h214v51q0 48 19 83t54.5 54t83.5 19h79v-71h-76q-37 0 -58.5 -23t-21.5 -63v-50h300v-504z" />
    <glyph glyph-name="f_f_l.liga" unicode="ffl" horiz-adv-x="858" 
d="M788 0h-80v433h-213v-433h-80v433h-214v-433h-80v433h-105v71h105v51q0 48 19 83t54.5 54t83.5 19h80v-71h-76q-37 0 -59 -23t-22 -63v-50h214v51q0 48 19 83t54.5 54t83.5 19h57v-71h-54q-37 0 -58.5 -23t-21.5 -63v-50h213v207h80v-711z" />
    <glyph glyph-name="f_i.liga" unicode="fi" horiz-adv-x="555" 
d="M495 0h-80v433h-214v-433h-80v433h-105v71h105v51q0 48 19 83t54.5 54t83.5 19h80v-71h-76q-37 0 -59 -23t-22 -63v-50h294v-504z" />
    <glyph glyph-name="f_l.liga" unicode="fl" horiz-adv-x="565" 
d="M495 0h-80v433h-214v-433h-80v433h-105v71h105v51q0 48 19 83t54.5 54t83.5 19h58v-71h-54q-37 0 -59 -23t-22 -63v-50h214v207h80v-711z" />
    <glyph glyph-name="r_f.liga" unicode="rf" horiz-adv-x="646" 
d="M407 638q19 35 54.5 54t83.5 19h80v-71h-76q-37 0 -59 -23t-22 -63v-50h157v-71h-157v-433h-80v555q0 48 19 83zM175.5 377q-29.5 -56 -29.5 -155v-222h-80v504h80v-102q16 52 49 77t88 25h59v-71h-65q-72 0 -101.5 -56z" />
    <glyph glyph-name="r_t.liga" unicode="rt" horiz-adv-x="644" 
d="M468 504h155v-71h-155v-273q0 -42 22 -65.5t59 -23.5h74v-71h-77q-48 0 -83.5 19t-55 55t-19.5 84v507h80v-161zM175.5 377q-29.5 -56 -29.5 -155v-222h-80v504h80v-102q16 52 49 77t88 25h59v-71h-65q-72 0 -101.5 -56z" />
    <glyph glyph-name="t_t.liga" unicode="tt" horiz-adv-x="690" 
d="M201 504h155v-71h-155v-273q0 -42 22 -65.5t59 -23.5h74v-71h-77q-48 0 -83.5 19t-55 55t-19.5 84v275h-105v71h105v161h80v-161zM514 504h155v-71h-155v-273q0 -42 22 -65.5t59 -23.5h74v-71h-77q-48 0 -83.5 19t-55 55t-19.5 84v275h-105v71h105v161h80v-161z" />
    <glyph glyph-name=".notdef" horiz-adv-x="1083" 
d="M525 796v-1000q-132 4 -243 72.5t-175.5 181.5t-64.5 245q0 131 65 244.5t176 183t242 73.5zM559 -201v994q41 -12 76 -82.5t55.5 -180.5t20.5 -235t-20.5 -234.5t-55.5 -179.5t-76 -82zM743 295q0 106 -14 200.5t-39.5 167.5t-59.5 115q73 -28 131 -99.5t90.5 -171.5
t32.5 -212q0 -113 -32.5 -213t-90.5 -170.5t-131 -97.5q34 42 59.5 114.5t39.5 166.5t14 200zM728 -168q57 46 100 118t66 160.5t23 184.5t-23.5 185t-66.5 161t-102 119q93 -37 165 -107.5t112 -163.5t40 -194t-39.5 -193.5t-111 -162.5t-163.5 -107z" />
    <glyph glyph-name=".null" horiz-adv-x="0" 
 />
    <glyph glyph-name="nonmarkingreturn" unicode="&#xd;" horiz-adv-x="238" 
d="M0 0z" />
    <glyph glyph-name="space" unicode=" " horiz-adv-x="238" 
d="M0 0z" />
    <glyph glyph-name="exclam" unicode="!" horiz-adv-x="256" 
d="M180 700l-23 -542h-58l-23 542h104zM83 0v93h91v-93h-91z" />
    <glyph glyph-name="quotedbl" unicode="&#x22;" horiz-adv-x="382" 
d="M315 711l-17 -208h-52l-16 208h85zM153 711l-17 -208h-52l-16 208h85z" />
    <glyph glyph-name="numbersign" unicode="#" horiz-adv-x="728" 
d="M56 209v65h140l34 153h-131v64h145l47 209h69l-46 -209h163l47 209h69l-47 -209h127v-64h-140l-35 -153h131v-65h-145l-46 -209h-69l46 209h-164l-46 -209h-69l47 209h-127zM464 427h-165l-34 -153h165z" />
    <glyph glyph-name="dollar" unicode="$" horiz-adv-x="591" 
d="M528.5 91q-28.5 -43 -79 -68t-115.5 -30v-111l-75 1v111q-66 8 -115 39t-77 81t-32 115h84q7 -74 54.5 -117t127.5 -43q76 0 121.5 30.5t45.5 91.5q0 39 -23.5 63.5t-58.5 38t-97 30.5q-75 21 -120.5 40.5t-77.5 57.5t-32 101q0 50 25 89.5t70 64t105 30.5v109h75v-109
q59 -6 104.5 -33t73 -71.5t31.5 -100.5h-84q-4 39 -25 68.5t-56.5 45.5t-81.5 16q-71 0 -111 -29t-40 -80q0 -38 23 -61.5t58 -36.5t95 -28q76 -20 123 -39t80 -59t33 -107q0 -57 -28.5 -100z" />
    <glyph glyph-name="percent" unicode="%" horiz-adv-x="746" 
d="M663 700l-509 -700h-74l508 700h75zM123 409.5q-35 21.5 -54.5 58t-19.5 80.5t19.5 80.5t54.5 58t78 21.5t77 -21.5t53.5 -58t19.5 -80.5t-19.5 -80.5t-53.5 -58t-77 -21.5t-78 21.5zM246.5 460q19.5 13 30.5 36.5t11 51.5q0 29 -11 52t-30.5 36.5t-45.5 13.5t-46 -13.5
t-31 -36.5t-11 -52t11 -52t31 -36t46 -13t45.5 13zM467 13.5q-35 21.5 -54.5 58t-19.5 80.5t19.5 80.5t54.5 58t78 21.5t77 -21.5t53.5 -58t19.5 -80.5t-19.5 -80.5t-53.5 -58t-77 -21.5t-78 21.5zM590.5 64q19.5 13 30.5 36.5t11 51.5q0 29 -11 52t-30.5 36.5t-45.5 13.5
t-46 -13.5t-31 -36.5t-11 -52t11 -52t31 -36t46 -13t45.5 13z" />
    <glyph glyph-name="ampersand" unicode="&#x26;" horiz-adv-x="672" 
d="M551 0l-78 83q-39 -47 -92 -69t-109 -22q-67 0 -116 23.5t-75.5 67.5t-26.5 105q0 47 19.5 82.5t51 60.5t75.5 48q-39 44 -62 85t-23 80q0 47 22.5 84.5t63 58.5t91.5 21t91 -20t62 -56t22 -81q0 -49 -20 -85t-52 -61.5t-77 -48.5l145 -159l26 39q23 37 47 56.5
t47.5 25.5t52.5 6v-77q-31 0 -57 -15.5t-41 -40.5l-26 -47l131 -144h-92zM212 481.5q20 -30.5 55 -68.5q40 20 66 38t42 42t16 56q0 27 -12.5 48.5t-35 33.5t-51.5 12t-52 -13t-35.5 -36t-12.5 -52q0 -30 20 -60.5zM352.5 81.5q39.5 17.5 70.5 56.5l-171 184
q-38 -19 -63 -37t-40.5 -42.5t-15.5 -55.5q0 -59 36 -91t103 -32q41 0 80.5 17.5z" />
    <glyph glyph-name="quotesingle" unicode="'" horiz-adv-x="220" 
d="M153 711l-17 -208h-52l-16 208h85z" />
    <glyph glyph-name="parenleft" unicode="(" horiz-adv-x="274" 
d="M87 107q-39 112 -39 228t39 228t111 201l54 -42q-127 -184 -127 -387t127 -387l-54 -42q-72 89 -111 201z" />
    <glyph glyph-name="parenright" unicode=")" horiz-adv-x="274" 
d="M149 335q0 203 -127 387l54 42q72 -89 111 -201t39 -228t-39 -228t-111 -201l-54 42q127 184 127 387z" />
    <glyph glyph-name="asterisk" unicode="*" horiz-adv-x="462" 
d="M182 509l-140 47l19 58l140 -47v144h60v-144l139 47l20 -58l-141 -47l87 -115l-48 -36l-87 117l-87 -117l-49 36z" />
    <glyph glyph-name="plus" unicode="+" horiz-adv-x="608" 
d="M534 282h-195v-195h-70v195h-195v70h195v196h70v-196h195v-70z" />
    <glyph glyph-name="comma" unicode="," horiz-adv-x="255" 
d="M95 -50.5q13 14.5 13 37.5v106h81v-109q0 -35 -14 -61.5t-39 -41.5t-58 -15h-32v69h14q22 0 35 14.5z" />
    <glyph glyph-name="hyphen" unicode="-" horiz-adv-x="469" 
d="M417 352v-70h-365v70h365z" />
    <glyph glyph-name="period" unicode="." horiz-adv-x="223" 
d="M157 0h-91v93h91v-93z" />
    <glyph glyph-name="slash" unicode="/" horiz-adv-x="423" 
d="M404 700l-315 -701h-70l314 701h71z" />
    <glyph glyph-name="zero" unicode="0" horiz-adv-x="608" 
d="M105 75q-57 83 -57 247v56q0 164 57 247t181 83h35q125 0 182 -82.5t57 -247.5v-56q0 -165 -57 -247.5t-182 -82.5h-35q-124 0 -181 83zM438 129q37 60 37 183v76q0 123 -37 183t-118 60h-31q-81 0 -118 -60t-37 -183v-76q0 -123 37 -183t118 -60h31q81 0 118 60z" />
    <glyph glyph-name="one" unicode="1" horiz-adv-x="343" 
d="M185 0v554q-8 -12 -25 -18t-38 -6h-67v77h57q23 0 38.5 8t24.5 28.5t11 56.5h84v-700h-85z" />
    <glyph glyph-name="two" unicode="2" horiz-adv-x="560" 
d="M88.5 597q27.5 53 81 82t124.5 29q66 0 117.5 -26t80.5 -73.5t29 -109.5q0 -68 -41.5 -124.5t-121.5 -96.5l-100 -51q-50 -25 -85.5 -64t-35.5 -86h388v-77h-471v61q0 84 51 144t119 94l107 55q54 28 78 63.5t24 83.5q0 39 -18 69t-49.5 46.5t-71.5 16.5q-45 0 -78 -20
t-50 -56t-15 -84h-88q-2 71 25.5 124z" />
    <glyph glyph-name="three" unicode="3" horiz-adv-x="597" 
d="M180.5 20.5q-57.5 28.5 -90.5 80.5t-33 119h84q0 -45 22 -79t60 -53t85 -19q74 0 117 34t43 96q0 61 -42.5 93.5t-117.5 32.5h-56v75h55q41 0 71 15.5t46 43t16 62.5q0 51 -37.5 80.5t-100.5 29.5q-60 0 -96.5 -34t-40.5 -96h-83q2 62 31 109t78.5 72.5t111.5 25.5
q64 0 115 -23.5t80 -65.5t29 -95q0 -34 -13.5 -65.5t-36.5 -54.5t-51 -36q37 -12 66.5 -36.5t46 -58.5t16.5 -75q0 -65 -33.5 -111.5t-90 -70.5t-123.5 -24q-70 0 -127.5 28.5z" />
    <glyph glyph-name="four" unicode="4" horiz-adv-x="636" 
d="M33 175v77l361 448h100v-448h109v-77h-109v-175h-85v175h-376zM409 606l-285 -354h285v354z" />
    <glyph glyph-name="five" unicode="5" horiz-adv-x="598" 
d="M178.5 18.5q-51.5 26.5 -83.5 73t-38 105.5h82q8 -61 49 -94.5t105 -33.5q51 0 89.5 19t59 55.5t20.5 85.5q0 50 -20.5 87.5t-59 58t-88.5 20.5q-57 0 -97 -21.5t-56 -60.5h-70l54 387h375v-77h-310l-31 -211q26 25 66 41t79 16q72 0 128 -30.5t87 -85t31 -124.5
t-32.5 -124t-91 -83.5t-133.5 -29.5q-63 0 -114.5 26.5z" />
    <glyph glyph-name="six" unicode="6" horiz-adv-x="629" 
d="M448 437q56 -31 87.5 -85t31.5 -122t-32.5 -122.5t-89.5 -85t-128 -30.5q-79 0 -138 40t-90.5 112.5t-31.5 168.5q0 128 35.5 217t97 134t140.5 45q64 0 115.5 -23.5t84.5 -66t42 -97.5h-86q-11 51 -52 81t-103 30q-55 0 -97.5 -36t-67.5 -98.5t-29 -139.5q15 32 43.5 57
t65 38.5t75.5 13.5q71 0 127 -31zM401 90q37 21 57.5 58t20.5 83t-20.5 82.5t-57.5 57t-84 20.5q-46 0 -83 -20.5t-58 -57t-21 -82.5t21 -83t58 -58t83 -21q47 0 84 21z" />
    <glyph glyph-name="seven" unicode="7" horiz-adv-x="565" 
d="M189 113q8 52 31.5 114t68.5 135l161 261h-408v77h505v-70l-192 -317q-37 -63 -56.5 -116t-26 -98.5t-6.5 -98.5h-86q1 61 9 113z" />
    <glyph glyph-name="eight" unicode="8" horiz-adv-x="609" 
d="M179.5 16.5q-56.5 24.5 -90 71.5t-33.5 111q0 41 17 77t46.5 62t66.5 39q-45 22 -73.5 59.5t-28.5 87.5q0 53 28 95t78 65.5t115 23.5t115 -23.5t78 -65.5t28 -95q0 -50 -28.5 -87.5t-73.5 -59.5q37 -13 66 -39t46 -62t17 -77q0 -64 -33 -111t-89.5 -71.5t-125.5 -24.5
t-125.5 24.5zM377 423.5q31 13.5 47.5 39t16.5 60.5q0 51 -36.5 80.5t-99.5 29.5t-99.5 -29.5t-36.5 -80.5q0 -35 16.5 -60.5t47.5 -39t72 -13.5t72 13.5zM390.5 84.5q36.5 15.5 56 45t19.5 69.5q0 41 -19.5 71t-56 46t-85.5 16t-85.5 -16t-56.5 -46t-20 -71q0 -40 20 -69.5
t56.5 -45t85.5 -15.5t85.5 15.5z" />
    <glyph glyph-name="nine" unicode="9" horiz-adv-x="628" 
d="M180.5 263q-56.5 31 -88 85t-31.5 122t32.5 122.5t89.5 85t129 30.5q79 0 137.5 -40t90 -112.5t31.5 -168.5q0 -128 -35 -217t-97 -134t-140 -45q-64 0 -115.5 23.5t-84.5 66t-42 97.5h85q11 -51 52 -81t103 -30q55 0 98 36t68 98.5t28 139.5q-14 -32 -42.5 -56.5
t-65.5 -38.5t-75 -14q-71 0 -127.5 31zM227 610.5q-37 -20.5 -57.5 -57.5t-20.5 -84q0 -46 20.5 -82.5t57.5 -57t84 -20.5t84 20.5t57.5 57t20.5 82.5q0 47 -20.5 84t-57.5 57.5t-84 20.5t-84 -20.5z" />
    <glyph glyph-name="colon" unicode=":" horiz-adv-x="223" 
d="M157 366h-91v93h91v-93zM157 0h-91v93h91v-93z" />
    <glyph glyph-name="semicolon" unicode=";" horiz-adv-x="260" 
d="M95 -50.5q13 14.5 13 37.5v106h81v-109q0 -35 -14 -61.5t-39 -41.5t-58 -15h-32v69h14q22 0 35 14.5zM194 366h-91v93h91v-93z" />
    <glyph glyph-name="less" unicode="&#x3c;" horiz-adv-x="457" 
d="M41 349l372 186v-80l-300 -145l300 -145v-80l-372 186v78z" />
    <glyph glyph-name="equal" unicode="=" horiz-adv-x="608" 
d="M534 220v-70h-460v70h460zM534 444v-70h-460v70h460z" />
    <glyph glyph-name="greater" unicode="&#x3e;" horiz-adv-x="457" 
d="M343 310l-299 145v80l372 -186v-78l-372 -186v80z" />
    <glyph glyph-name="question" unicode="?" horiz-adv-x="587" 
d="M245 277q15 30 36.5 49.5t56.5 43.5q32 22 51.5 39.5t32.5 42.5t13 60q0 34 -18 61.5t-50 43.5t-71 16q-45 0 -78 -19.5t-50 -55.5t-16 -83h-88q-2 71 26 123.5t81.5 81t124.5 28.5q65 0 117 -25t81 -70t29 -101q0 -48 -17 -82.5t-41 -56t-63 -47.5q-32 -22 -50 -37
t-30 -36.5t-12 -49.5v-19h-80v21q0 42 15 72zM225 0v93h91v-93h-91z" />
    <glyph glyph-name="at" unicode="@" horiz-adv-x="903" 
d="M685 675q79 -43 122 -120t43 -176v-88q0 -57 -17.5 -100.5t-49.5 -67.5t-76 -24q-29 0 -55 9t-44.5 25.5t-24.5 36.5q-15 -33 -54 -53.5t-94 -20.5q-61 0 -105 27t-66.5 74t-22.5 106q0 60 22.5 106.5t66.5 73.5t105 27q40 0 77 -18t56 -47v59h72v-275q0 -26 18.5 -43
t47.5 -17q34 0 53.5 32.5t19.5 89.5v88q0 78 -34.5 139.5t-97.5 96t-146 34.5h-85q-86 0 -152.5 -35.5t-103 -99t-36.5 -145.5v-122q0 -86 34.5 -152t97.5 -102t144 -36h186v-69h-186q-103 0 -181.5 44.5t-122 125.5t-43.5 189v122q0 103 45 182.5t127.5 123t190.5 43.5h85
q105 0 184 -43zM511.5 174.5q29.5 18.5 45.5 51.5t16 77t-16 77.5t-45.5 51.5t-68.5 18t-68.5 -18t-46 -51.5t-16.5 -77.5t16.5 -77t46 -51.5t68.5 -18.5t68.5 18.5z" />
    <glyph glyph-name="A" unicode="A" horiz-adv-x="649" 
d="M481 189h-312l-73 -189h-89l279 700h77l279 -700h-89zM451 265l-126 330l-127 -330h253z" />
    <glyph glyph-name="B" unicode="B" horiz-adv-x="611" 
d="M324 700q66 0 114.5 -21.5t74 -62t25.5 -96.5q0 -31 -13 -58.5t-34.5 -48t-45.5 -30.5q57 -19 90.5 -64t33.5 -115q0 -63 -27.5 -109t-79 -70.5t-122.5 -24.5h-266v700h250zM419.5 437.5q33.5 27.5 33.5 80.5t-33.5 80t-97.5 27h-163v-215h163q64 0 97.5 27.5z
M442.5 109.5q39.5 32.5 39.5 95.5t-39.5 96t-116.5 33h-167v-257h167q77 0 116.5 32.5z" />
    <glyph glyph-name="C" unicode="C" horiz-adv-x="708" 
d="M211.5 32.5q-76.5 40.5 -123 121t-46.5 196.5t46.5 197t123.5 121t167 40q75 0 139.5 -29t106 -80.5t50.5 -116.5h-90q-6 42 -34.5 76t-73.5 53.5t-98 19.5q-74 0 -130 -32.5t-87.5 -96t-31.5 -152.5t31.5 -152.5t87.5 -96t130 -32.5q54 0 99.5 19.5t74 53.5t33.5 76h88
q-7 -65 -48 -116.5t-105.5 -80.5t-141.5 -29q-91 0 -167.5 40.5z" />
    <glyph glyph-name="D" unicode="D" horiz-adv-x="671" 
d="M280 700q99 0 178.5 -41.5t125 -120.5t45.5 -188t-45.5 -188t-125 -120.5t-178.5 -41.5h-206v700h206zM408.5 106q59.5 29 95.5 90.5t36 153.5t-36 153.5t-95.5 90.5t-130.5 29h-119v-546h119q71 0 130.5 29z" />
    <glyph glyph-name="E" unicode="E" 
d="M512 700v-77h-353v-223h287v-77h-287v-246h364v-77h-449v700h438z" />
    <glyph glyph-name="F" unicode="F" horiz-adv-x="555" 
d="M512 700v-77h-353v-231h287v-77h-287v-315h-85v700h438z" />
    <glyph glyph-name="G" unicode="G" horiz-adv-x="730" 
d="M212 33q-77 41 -123.5 121.5t-46.5 195.5t47 195.5t124 121.5t167 41q79 0 145 -29.5t107 -81.5t49 -118h-90q-8 44 -38 78.5t-75.5 54t-98.5 19.5q-73 0 -129.5 -32.5t-88.5 -96t-32 -152.5q0 -88 32 -152t88.5 -97.5t129.5 -33.5q58 0 107.5 20.5t79.5 58.5t30 87
q0 24 -15 38.5t-40 14.5h-158v74h173q27 0 56 -14t48.5 -41t19.5 -65v-240h-79v122q-16 -38 -49.5 -67.5t-78 -46t-95.5 -16.5q-89 0 -166 41z" />
    <glyph glyph-name="H" unicode="H" horiz-adv-x="689" 
d="M615 700v-700h-85v323h-371v-323h-85v700h85v-300h371v300h85z" />
    <glyph glyph-name="I" unicode="I" horiz-adv-x="233" 
d="M159 700v-700h-85v700h85z" />
    <glyph glyph-name="J" unicode="J" horiz-adv-x="316" 
d="M155 103q17 26 17 76v521h85v-523q0 -87 -37.5 -132t-108.5 -45h-93v77h87q33 0 50 26z" />
    <glyph glyph-name="K" unicode="K" horiz-adv-x="635" 
d="M263 358l-103 -106v-252h-86v700h86v-333l325 333h108l-272 -282l303 -418h-103z" />
    <glyph glyph-name="L" unicode="L" horiz-adv-x="523" 
d="M159 700v-623h350v-77h-435v700h85z" />
    <glyph glyph-name="M" unicode="M" horiz-adv-x="831" 
d="M185 700l231 -585l230 585h111v-700h-83v558l-221 -558h-75l-221 558v-558h-83v700h111z" />
    <glyph glyph-name="N" unicode="N" horiz-adv-x="691" 
d="M171 700l361 -570v570h85v-700h-98l-360 568v-568h-85v700h97z" />
    <glyph glyph-name="O" unicode="O" horiz-adv-x="770" 
d="M209.5 38.5q-78.5 46.5 -123 128t-44.5 183.5t44.5 183.5t123 128t175.5 46.5t175.5 -46.5t123.5 -128t45 -183.5t-45 -183.5t-123.5 -128t-175.5 -46.5t-175.5 46.5zM515.5 105.5q58.5 36.5 92 101t33.5 143.5t-33.5 143.5t-92 101t-130.5 36.5t-130.5 -36.5t-91.5 -101
t-33 -143.5t33 -143.5t91.5 -101t130.5 -36.5t130.5 36.5z" />
    <glyph glyph-name="P" unicode="P" horiz-adv-x="586" 
d="M337 700q68 0 118.5 -26t77.5 -73t27 -108t-27 -108t-77.5 -73t-118.5 -26h-178v-286h-85v700h263zM440 399q33 37 33 94t-33 94t-103 37h-178v-262h178q70 0 103 37z" />
    <glyph glyph-name="Q" unicode="Q" horiz-adv-x="770" 
d="M690 177.5q-39 -77.5 -108 -126t-157 -57.5v-40q0 -33 9.5 -52.5t30 -28t54.5 -8.5h88v-69h-89q-87 0 -129 37.5t-42 118.5v42q-88 9 -157.5 57t-108.5 126t-39 173q0 102 44.5 183.5t123 128t175.5 46.5t175.5 -46.5t123.5 -128t45 -183.5q0 -95 -39 -172.5zM163 206.5
q33 -64.5 91.5 -101t130.5 -36.5t130.5 36.5t92 101t33.5 143.5t-33.5 143.5t-92 101t-130.5 36.5t-130.5 -36.5t-91.5 -101t-33 -143.5t33 -143.5z" />
    <glyph glyph-name="R" unicode="R" horiz-adv-x="646" 
d="M517 268.5q24 -41.5 28 -94.5l12 -174h-82l-12 169q-2 34 -16.5 60.5t-40 41t-57.5 14.5h-190v-285h-85v700h265q68 0 118.5 -25.5t77.5 -72t27 -107.5q0 -56 -29.5 -97.5t-80.5 -65.5q41 -22 65 -63.5zM159 362h180q47 0 77 18t44 48t14 67q0 57 -33 93t-102 36h-180
v-262z" />
    <glyph glyph-name="S" unicode="S" horiz-adv-x="594" 
d="M165 21.5q-59 29.5 -92.5 83t-37.5 124.5h84q7 -74 54.5 -117t127.5 -43q76 0 121.5 30.5t45.5 91.5q0 39 -23.5 63.5t-58.5 38t-97 30.5q-75 21 -120.5 40.5t-77.5 57.5t-32 101q0 55 30 97t84 65.5t123 23.5t123.5 -25.5t86.5 -72.5t37 -109h-84q-4 39 -25 68.5
t-56.5 45.5t-81.5 16q-71 0 -111 -29t-40 -80q0 -38 23 -61.5t58 -36.5t95 -28q76 -20 123 -39t80 -59t33 -107q0 -62 -33 -107t-91 -68.5t-132 -23.5q-77 0 -136 29.5z" />
    <glyph glyph-name="T" unicode="T" horiz-adv-x="557" 
d="M12 623v77h533v-77h-223v-623h-86v623h-224z" />
    <glyph glyph-name="U" unicode="U" horiz-adv-x="652" 
d="M187 22q-60 30 -92.5 86t-32.5 132v460h84v-464q0 -51 22.5 -88.5t63 -58t94.5 -20.5t95 20.5t63.5 58t22.5 88.5v464h83v-460q0 -76 -32.5 -132t-92.5 -86t-139 -30t-139 30z" />
    <glyph glyph-name="V" unicode="V" horiz-adv-x="631" 
d="M95 700l220 -601l222 601h87l-265 -700h-87l-265 700h88z" />
    <glyph glyph-name="W" unicode="W" horiz-adv-x="996" 
d="M111 700l172 -571l177 571h76l176 -571l174 571h87l-214 -700h-88l-173 569l-174 -569h-85l-217 700h89z" />
    <glyph glyph-name="X" unicode="X" horiz-adv-x="605" 
d="M483 0l-180 284l-181 -284h-89l225 355l-219 345h89l175 -275l174 275h90l-220 -346l225 -354h-89z" />
    <glyph glyph-name="Y" unicode="Y" horiz-adv-x="590" 
d="M4 700h97l194 -325l193 325h97l-248 -407v-293h-85v293z" />
    <glyph glyph-name="Z" unicode="Z" horiz-adv-x="597" 
d="M461 623h-405v77h503v-77l-427 -546h428v-77h-527v77z" />
    <glyph glyph-name="bracketleft" unicode="[" horiz-adv-x="303" 
d="M271 756v-64h-124v-684h124v-64h-195v812h195z" />
    <glyph glyph-name="backslash" unicode="\" horiz-adv-x="423" 
d="M335 -1l-315 701h70l314 -701h-69z" />
    <glyph glyph-name="bracketright" unicode="]" horiz-adv-x="303" 
d="M32 -56v64h124v684h-124v64h195v-812h-195z" />
    <glyph glyph-name="asciicircum" unicode="^" horiz-adv-x="541" 
d="M302 700l201 -275h-86l-146 204l-147 -204h-86l201 275h63z" />
    <glyph glyph-name="underscore" unicode="_" horiz-adv-x="608" 
d="M534 0v-70h-460v70h460z" />
    <glyph glyph-name="grave" unicode="`" horiz-adv-x="280" 
d="M50 707h93l87 -148h-76z" />
    <glyph glyph-name="a" unicode="a" horiz-adv-x="526" 
d="M374 488.5q48 -23.5 74 -65.5t26 -98v-325h-80v87q-20 -43 -66.5 -69t-105.5 -26q-52 0 -92 19t-61.5 53t-21.5 80q0 48 25 83.5t70 54.5t106 19h114q16 0 24 7.5t8 19.5q0 35 -16 61t-46.5 40.5t-72.5 14.5q-36 0 -66.5 -13.5t-49 -37t-20.5 -50.5h-76q4 48 33.5 86.5
t77 60.5t103.5 22q65 0 113 -23.5zM320 80q36 20 55 57.5t19 89.5v13h-141q-57 0 -90.5 -25.5t-33.5 -69.5q0 -39 28.5 -62t76.5 -23q50 0 86 20z" />
    <glyph glyph-name="b" unicode="b" horiz-adv-x="597" 
d="M219 17q-46 25 -69 66v-83h-80v711h80v-289q23 41 68.5 65.5t98.5 24.5q76 0 131 -34t83.5 -93t28.5 -133t-28.5 -133t-83.5 -93t-131 -34q-52 0 -98 25zM399 87q38 23 58.5 66t20.5 99t-20.5 99t-58.5 66t-89 23q-50 0 -88 -23t-58.5 -66t-20.5 -99t20.5 -99t58.5 -66
t88 -23q51 0 89 23z" />
    <glyph glyph-name="c" unicode="c" horiz-adv-x="543" 
d="M150.5 28q-55.5 36 -84.5 95.5t-29 128.5t29 128.5t84.5 95.5t131.5 36q57 0 106.5 -21.5t82.5 -62t40 -94.5h-79q-5 30 -26 54t-53.5 38t-69.5 14q-53 0 -90 -25t-55 -67.5t-18 -95.5t18.5 -95.5t55 -67.5t89.5 -25q57 0 96 26.5t53 72.5h78q-9 -52 -38.5 -90.5
t-78 -59.5t-111.5 -21q-76 0 -131.5 36z" />
    <glyph glyph-name="d" unicode="d" horiz-adv-x="597" 
d="M149 26q-55 34 -83.5 93t-28.5 133t28.5 133t83.5 93t131 34q53 0 98.5 -24.5t68.5 -65.5v289h80v-711h-80v83q-23 -41 -68.5 -66t-98.5 -25q-76 0 -131 34zM375 87q38 23 58.5 66t20.5 99t-20.5 99t-58.5 66t-88 23t-88 -23t-59 -66t-21 -99t21 -99t59 -66t88 -23t88 23
z" />
    <glyph glyph-name="e" unicode="e" horiz-adv-x="554" 
d="M517 162q-8 -51 -39.5 -89.5t-80.5 -59.5t-111 -21q-73 0 -129.5 35.5t-88 95.5t-31.5 132q0 74 29.5 132.5t83.5 91.5t127 33q72 0 125 -30.5t81.5 -84.5t28.5 -121q0 -21 -2 -35h-394q3 -52 25.5 -92.5t60 -63t84.5 -22.5q61 0 99.5 25.5t50.5 73.5h81zM172 408
q-41 -36 -52 -103h310q-3 42 -22.5 73.5t-53 48.5t-77.5 17q-64 0 -105 -36z" />
    <glyph glyph-name="f" unicode="f" horiz-adv-x="379" 
d="M16 433v71h105v51q0 48 19 83t54.5 54t83.5 19h80v-71h-76q-37 0 -59 -23t-22 -63v-50h157v-71h-157v-433h-80v433h-105z" />
    <glyph glyph-name="g" unicode="g" horiz-adv-x="601" 
d="M531 504v-526q0 -53 -23.5 -94.5t-66 -64.5t-96.5 -23h-238v69h233q32 0 57.5 15t39.5 41.5t14 59.5v89q-18 -35 -64 -56.5t-103 -21.5q-76 0 -131 34t-83.5 93t-28.5 133t28.5 133t83.5 93t131 34q51 0 97.5 -23t69.5 -59v74h80zM379 87q38 23 58.5 66t20.5 99t-20.5 99
t-58.5 66t-88 23q-51 0 -89 -23t-58.5 -66t-20.5 -99t20.5 -99t58.5 -66t89 -23q50 0 88 23z" />
    <glyph glyph-name="h" unicode="h" horiz-adv-x="570" 
d="M150 711v-304q19 51 63 78t103 27q56 0 99 -25.5t66 -71.5t23 -107v-308h-80v295q0 43 -15.5 75.5t-44 50.5t-66.5 18q-43 0 -76.5 -21.5t-52.5 -59.5t-19 -86v-272h-80v711h80z" />
    <glyph glyph-name="i" unicode="i" horiz-adv-x="212" 
d="M146 504v-504h-80v504h80zM152 599h-92v112h92v-112z" />
    <glyph glyph-name="j" unicode="j" horiz-adv-x="212" 
d="M146 504v-543q0 -55 -13.5 -91t-45.5 -55t-86 -19h-46v69h41q32 0 46.5 10.5t19 30.5t4.5 58v540h80zM151 599h-92v112h92v-112z" />
    <glyph glyph-name="k" unicode="k" horiz-adv-x="525" 
d="M217 252l-66 -60v-192h-81v711h81v-420l237 213h106l-216 -197l236 -307h-101z" />
    <glyph glyph-name="l" unicode="l" horiz-adv-x="220" 
d="M150 711v-711h-80v711h80z" />
    <glyph glyph-name="m" unicode="m" horiz-adv-x="868" 
d="M146 504v-97q15 47 55.5 76t96.5 29q63 0 108 -28t58 -79q9 30 33.5 54.5t58 38.5t71.5 14q54 0 93.5 -23.5t60.5 -67t21 -104.5v-317h-80v296q0 43 -14 76t-39.5 51t-60.5 18q-41 0 -71.5 -18t-46.5 -51t-16 -76v-296h-80v296q0 43 -13.5 76t-39.5 51t-60 18
q-42 0 -72.5 -18t-46.5 -51t-16 -76v-296h-80v504h80z" />
    <glyph glyph-name="n" unicode="n" 
d="M146 504v-97q19 51 63 78t103 27q56 0 99 -25.5t66 -71.5t23 -107v-308h-80v295q0 43 -15.5 75.5t-44 50.5t-66.5 18q-43 0 -76.5 -21.5t-52.5 -59.5t-19 -86v-272h-80v504h80z" />
    <glyph glyph-name="o" unicode="o" horiz-adv-x="587" 
d="M161 25.5q-58 33.5 -91 92.5t-33 134t33 134t91 92.5t132 33.5t132.5 -33.5t91.5 -92.5t33 -134t-33 -134t-91.5 -92.5t-132.5 -33.5t-132 33.5zM384 88q40 24 62 67t22 97t-22 97t-62 67t-91 24t-90.5 -24t-61.5 -67t-22 -97t22 -97t61.5 -67t90.5 -24t91 24z" />
    <glyph glyph-name="p" unicode="p" horiz-adv-x="597" 
d="M150 504v-83q23 41 68.5 66t99.5 25q76 0 130.5 -34t83 -93t28.5 -133t-29 -133t-84 -93t-131 -34q-53 0 -98 24t-68 65v-285h-80v708h80zM398 87q38 23 58.5 66t20.5 99t-20.5 99t-58.5 66t-88 23t-88 -23t-58.5 -66t-20.5 -99t20.5 -99t58.5 -66t88 -23t88 23z" />
    <glyph glyph-name="q" unicode="q" horiz-adv-x="597" 
d="M447 -204v285q-22 -40 -67 -64.5t-98 -24.5q-76 0 -131.5 34t-84.5 93t-29 133t28.5 133t83 93t130.5 34q54 0 99.5 -25t68.5 -66v83h80v-708h-80zM375 87q38 23 59 66t21 99t-21 99t-59 66t-88 23t-88 -23t-58.5 -66t-20.5 -99t20.5 -99t58.5 -66t88 -23t88 23z" />
    <glyph glyph-name="r" unicode="r" horiz-adv-x="366" 
d="M175.5 377q-29.5 -56 -29.5 -155v-222h-80v504h80v-102q16 52 49 77t88 25h64v-71h-70q-72 0 -101.5 -56z" />
    <glyph glyph-name="s" unicode="s" horiz-adv-x="470" 
d="M139 12.5q-44 20.5 -69.5 59t-29.5 90.5h77q5 -49 37 -74.5t87 -25.5q31 0 55 10.5t37 27.5t13 38q0 32 -16.5 49t-41 24.5t-68.5 14.5q-53 8 -86.5 19t-57 41t-23.5 85q0 42 22.5 74t62.5 49.5t93 17.5q55 0 97.5 -19t67 -54t27.5 -81h-78q-3 30 -21.5 49.5t-44 28
t-50.5 8.5q-44 0 -71 -19.5t-27 -52.5q0 -28 15.5 -43t39 -21t64.5 -12q56 -8 91 -19.5t60 -43.5t25 -93q0 -44 -23 -78t-65 -52t-97 -18q-58 0 -102 20.5z" />
    <glyph glyph-name="t" unicode="t" horiz-adv-x="377" 
d="M201 504h155v-71h-155v-273q0 -42 22 -65.5t59 -23.5h74v-71h-77q-48 0 -83.5 19t-55 55t-19.5 84v275h-105v71h105v161h80v-161z" />
    <glyph glyph-name="u" unicode="u" 
d="M420 97q-19 -52 -62.5 -78.5t-103.5 -26.5q-56 0 -99 25.5t-66 71.5t-23 107v308h80v-295q0 -43 15.5 -75.5t44 -50.5t66.5 -18q43 0 76.5 21.5t52.5 59.5t19 86v272h80v-504h-80v97z" />
    <glyph glyph-name="v" unicode="v" horiz-adv-x="479" 
d="M96 504l143 -404l143 404h84l-185 -504h-83l-185 504h83z" />
    <glyph glyph-name="w" unicode="w" horiz-adv-x="743" 
d="M98 504l111 -400l124 400h78l122 -400l111 400h81l-153 -504h-77l-124 401l-123 -401h-77l-153 504h80z" />
    <glyph glyph-name="x" unicode="x" horiz-adv-x="484" 
d="M384 0l-142 203l-142 -203h-85l183 265l-167 239h89l122 -176l122 176h89l-167 -239l183 -265h-85z" />
    <glyph glyph-name="y" unicode="y" horiz-adv-x="479" 
d="M306 69l-92 -273h-77l64 196l-188 512h83l143 -400l143 400h84z" />
    <glyph glyph-name="z" unicode="z" horiz-adv-x="496" 
d="M353 433h-298v71h391v-71l-310 -362h324v-71h-419v71z" />
    <glyph glyph-name="braceleft" unicode="{" horiz-adv-x="316" 
d="M160.5 -22q-28.5 28 -28.5 75v181q0 44 -19.5 63.5t-65.5 19.5v66q46 0 65.5 20t19.5 64v180q0 47 28.5 75t74.5 28h58v-69h-32q-28 0 -40.5 -11.5t-12.5 -37.5v-185q0 -44 -17.5 -65t-52.5 -32q35 -11 52.5 -32t17.5 -65v-185q0 -26 12.5 -37.5t40.5 -11.5h32v-69h-58
q-46 0 -74.5 28z" />
    <glyph glyph-name="bar" unicode="|" horiz-adv-x="225" 
d="M152 750v-800h-78v800h78z" />
    <glyph glyph-name="braceright" unicode="}" horiz-adv-x="316" 
d="M23 19h32q28 0 40.5 11.5t12.5 37.5v185q0 44 17.5 65t52.5 32q-35 11 -52.5 32.5t-17.5 64.5v185q0 26 -12.5 37.5t-40.5 11.5h-32v69h58q46 0 74.5 -28t28.5 -75v-180q0 -44 20 -64t65 -20v-66q-46 0 -65.5 -19.5t-19.5 -63.5v-181q0 -47 -28.5 -75t-74.5 -28h-58v69z
" />
    <glyph glyph-name="asciitilde" unicode="~" horiz-adv-x="629" 
d="M355 264q-25 12 -57 34q-26 18 -43 26.5t-38 8.5q-30 0 -48.5 -21t-20.5 -55h-74q3 46 22 80.5t50 53t69 18.5q24 0 44 -6.5t35.5 -15.5t37.5 -24q26 -18 43 -26.5t38 -8.5q27 0 46 19.5t23 56.5h73q-4 -47 -23 -81t-49.5 -52.5t-68.5 -18.5q-34 0 -59 12z" />
    <glyph glyph-name="uni00A0" unicode="&#xa0;" horiz-adv-x="238" 
d="M0 0z" />
    <glyph glyph-name="exclamdown" unicode="&#xa1;" horiz-adv-x="280" 
d="M78 403v93h91v-93h-91zM152 338l23 -542h-104l23 542h58z" />
    <glyph glyph-name="cent" unicode="&#xa2;" horiz-adv-x="543" 
d="M379 90.5q39 26.5 53 72.5h78q-11 -69 -60 -113.5t-126 -54.5v-112h-76v111q-66 8 -114 45.5t-72.5 93t-24.5 119.5t24.5 119.5t72.5 93t114 45.5v112h76v-113q48 -7 88 -30t66.5 -60t32.5 -85h-79q-5 30 -26 54t-53.5 38t-69.5 14q-53 0 -90 -25t-55 -67.5t-18 -95.5
t18.5 -95.5t55 -67.5t89.5 -25q57 0 96 26.5z" />
    <glyph glyph-name="sterling" unicode="&#xa3;" horiz-adv-x="583" 
d="M539 178v-70q0 -53 -27.5 -80.5t-79.5 -27.5h-371v75q49 52 71.5 95.5t22.5 94.5q0 24 -8 50h-110v74h81q-14 34 -21.5 60.5t-7.5 54.5q0 63 27.5 109t76 70.5t110.5 24.5q56 0 104.5 -22.5t78.5 -68t33 -109.5h-86q-4 63 -40 93t-90 30q-37 0 -65.5 -14.5t-45 -43.5
t-16.5 -71q0 -28 7.5 -52t22.5 -61h210v-74h-183q7 -28 7 -50q0 -45 -23 -94.5t-60 -93.5h262q17 0 26 9.5t9 25.5v66h85z" />
    <glyph glyph-name="currency" unicode="&#xa4;" horiz-adv-x="659" 
d="M576 167.5q-12 -39.5 -35 -71.5l78 -77l-57 -56l-75 77q-32 -23 -71 -35.5t-84 -12.5t-85 13t-72 37l-78 -79l-56 56l79 79q-22 32 -33.5 71t-11.5 83q0 88 45 153l-79 81l55 55l79 -78q32 24 72 36.5t85 12.5q89 0 154 -48l77 77l56 -55l-77 -78q46 -68 46 -156
q0 -45 -12 -84.5zM422.5 88q39.5 24 61.5 66.5t22 97.5t-22 97.5t-61.5 66.5t-90.5 24t-90.5 -24t-61.5 -66.5t-22 -97.5t22 -97.5t61.5 -66.5t90.5 -24t90.5 24z" />
    <glyph glyph-name="yen" unicode="&#xa5;" horiz-adv-x="590" 
d="M377 359h149v-69h-189v-96h189v-69h-189v-125h-85v125h-188v69h188v96h-188v69h148l-208 341h97l194 -325l193 325h97z" />
    <glyph glyph-name="brokenbar" unicode="&#xa6;" horiz-adv-x="225" 
d="M152 750v-349h-78v349h78zM152 299v-349h-78v349h78z" />
    <glyph glyph-name="section" unicode="&#xa7;" horiz-adv-x="570" 
d="M510 50.5q12 -27.5 12 -65.5q0 -61 -30.5 -105.5t-84.5 -68t-124 -23.5q-72 0 -126.5 27.5t-85.5 78.5t-35 118h80q4 -45 25 -78t57.5 -51.5t84.5 -18.5q69 0 110.5 28t41.5 84q0 36 -22.5 58.5t-55.5 35t-90 27.5q-72 20 -115.5 38t-74.5 55t-31 97q0 36 18 67t49 56
q-56 44 -56 122q0 52 28 92t78.5 62t115.5 22t115.5 -24t80.5 -68.5t34 -103.5h-79q-3 36 -23 63t-53 42t-75 15q-64 0 -100.5 -27t-36.5 -73q0 -35 22 -56.5t54 -33t90 -26.5q73 -18 117.5 -36.5t76.5 -56t32 -101.5q0 -36 -16.5 -67.5t-43.5 -55.5q24 -21 36 -48.5z
M153 230q22 -22 55 -34t91 -26q64 -15 103 -30q20 15 32 36t12 46q0 35 -22 57.5t-55.5 35t-89.5 27.5q-60 16 -89 27q-28 -13 -43.5 -34.5t-15.5 -47.5q0 -35 22 -57z" />
    <glyph glyph-name="dieresis" unicode="&#xa8;" horiz-adv-x="340" 
d="M125 596h-76v93h76v-93zM289 596h-76v93h76v-93z" />
    <glyph glyph-name="copyright" unicode="&#xa9;" horiz-adv-x="924" 
d="M265.5 11.5q-89.5 51.5 -141 141t-51.5 197.5t51.5 197.5t141 141t197.5 51.5t197.5 -51.5t141 -141t51.5 -197.5t-51.5 -197.5t-141 -141t-197.5 -51.5t-197.5 51.5zM631 59q76 44 120 121t44 170t-44 170t-120 121t-168 44t-167.5 -44.5t-120 -121t-44.5 -169.5
t44.5 -169.5t120 -121t167.5 -44.5t168 44zM363.5 164.5q-46.5 24.5 -74.5 73t-28 117.5t28 117.5t75 73t102 24.5q48 0 87 -17.5t64 -49.5t31 -74h-66q-7 39 -38.5 62t-77.5 23q-41 0 -73 -18.5t-49.5 -54.5t-17.5 -86t17.5 -86t49.5 -54.5t73 -18.5q46 0 78 23.5t39 61.5
h65q-5 -42 -29.5 -74t-64.5 -49.5t-88 -17.5q-56 0 -102.5 24.5z" />
    <glyph glyph-name="ordfeminine" unicode="&#xaa;" horiz-adv-x="310" 
d="M218 694q30 -14 47 -39t17 -57v-197h-58v47q-12 -23 -38.5 -37.5t-59.5 -14.5q-30 0 -53 12t-36 32.5t-13 46.5q0 46 30 71t87 25h65q9 0 13.5 5t4.5 13v1q0 26 -20.5 43t-52.5 17q-20 0 -36.5 -8t-26 -21.5t-10.5 -28.5h-54q2 29 19 53t45 37.5t62 13.5q38 0 68 -14z
M201 467.5q23 24.5 23 66.5v9h-76q-65 0 -65 -54q0 -20 15.5 -33t39.5 -13q40 0 63 24.5z" />
    <glyph glyph-name="guillemotleft" unicode="&#xab;" horiz-adv-x="605" 
d="M280 335l292 201v-84l-210 -142l210 -142v-84l-292 201v50zM20 335l292 201v-84l-210 -142l210 -142v-84l-292 201v50z" />
    <glyph glyph-name="logicalnot" unicode="&#xac;" horiz-adv-x="577" 
d="M51 315v73h468v-250h-82v177h-386z" />
    <glyph glyph-name="uni00AD" unicode="&#xad;" horiz-adv-x="600" 
d="M417 352v-70h-365v70h365z" />
    <glyph glyph-name="registered" unicode="&#xae;" horiz-adv-x="924" 
d="M265.5 11.5q-89.5 51.5 -141 141t-51.5 197.5t51.5 197.5t141 141t197.5 51.5t197.5 -51.5t141 -141t51.5 -197.5t-51.5 -197.5t-141 -141t-197.5 -51.5t-197.5 51.5zM631 59q76 44 120 121t44 170t-44 170t-120 121t-168 44t-167.5 -44.5t-120 -121t-44.5 -169.5
t44.5 -169.5t120 -121t167.5 -44.5t168 44zM482 565q42 0 73 -16t47.5 -44.5t16.5 -65.5q0 -33 -16 -56.5t-45 -38.5q23 -14 36.5 -37.5t15.5 -53.5l8 -108h-62l-8 103q-2 27 -19.5 44.5t-43.5 17.5h-104v-165h-63v420h164zM536.5 387q18.5 21 18.5 52t-18.5 51t-55.5 20
h-100v-144h100q37 0 55.5 21z" />
    <glyph glyph-name="macron" unicode="&#xaf;" horiz-adv-x="366" 
d="M316 658v-67h-266v67h266z" />
    <glyph glyph-name="degree" unicode="&#xb0;" horiz-adv-x="342" 
d="M107 488q-28 15 -43.5 42t-15.5 60t15.5 59.5t43.5 41.5t63 15q36 0 64 -15t43.5 -41.5t15.5 -59.5t-15.5 -60t-43.5 -42t-64 -15q-35 0 -63 15zM216.5 546q17.5 17 17.5 44t-17.5 43.5t-46.5 16.5q-28 0 -46 -17t-18 -43q0 -27 18 -44t46 -17q29 0 46.5 17z" />
    <glyph glyph-name="plusminus" unicode="&#xb1;" horiz-adv-x="596" 
d="M534 371h-195v-195h-70v195h-195v70h195v196h70v-196h195v-70zM534 70v-70h-460v70h460z" />
    <glyph glyph-name="uni00B2" unicode="&#xb2;" horiz-adv-x="340" 
d="M50.5 677q17.5 33 50 50.5t76.5 17.5q41 0 73 -16t50 -45t18 -67q0 -41 -25 -74.5t-74 -58.5l-56 -28q-28 -14 -47.5 -34.5t-19.5 -45.5h223v-56h-288v45q0 49 30 84t70 55l65 33q30 15 44 35.5t14 45.5q0 33 -22 53t-55 20q-37 0 -58 -25t-20 -66h-65q-1 44 16.5 77z
" />
    <glyph glyph-name="uni00B3" unicode="&#xb3;" horiz-adv-x="363" 
d="M108 332q-35 17 -55 48t-20 72h62q0 -24 12 -42.5t32.5 -28.5t46.5 -10q40 0 63.5 19t23.5 52t-23.5 50.5t-63.5 17.5h-36v54h35q33 0 52.5 18.5t19.5 48.5q0 28 -20.5 44t-55.5 16q-32 0 -52.5 -19t-22.5 -52h-58q1 37 18.5 65.5t48 44t68.5 15.5q39 0 70 -14.5t49 -40
t18 -57.5q0 -28 -16 -53.5t-41 -38.5q34 -13 54 -38.5t20 -61.5q0 -39 -20.5 -67.5t-55 -43.5t-75.5 -15q-43 0 -78 17z" />
    <glyph glyph-name="acute" unicode="&#xb4;" horiz-adv-x="280" 
d="M230 707l-104 -148h-76l87 148h93z" />
    <glyph glyph-name="uni00B5" unicode="&#xb5;" 
d="M500 504v-504h-80v97q-18 -51 -60 -78t-100 -27q-32 0 -61 12.5t-53 35.5v-244h-80v708h80v-295q0 -43 15.5 -75.5t44 -50.5t66.5 -18q43 0 76.5 21.5t52.5 59.5t19 86v272h80z" />
    <glyph glyph-name="paragraph" unicode="&#xb6;" horiz-adv-x="677" 
d="M141 355.5q-45 24.5 -71 67t-26 92.5q0 51 26 93.5t71 67t99 24.5h388v-72h-64v-832h-80v832h-163v-832h-81v535q-54 0 -99 24.5z" />
    <glyph glyph-name="periodcentered" unicode="&#xb7;" horiz-adv-x="240" 
d="M125 294h-92v112h92v-112z" />
    <glyph glyph-name="cedilla" unicode="&#xb8;" horiz-adv-x="305" 
d="M168 17l-34 -77q6 1 17 1q30 0 54 -11.5t37 -31t13 -41.5q0 -26 -17 -46.5t-46.5 -32t-66.5 -11.5q-29 0 -75 14v50q25 -9 43 -12t33 -3q29 0 48 11.5t19 28.5q0 19 -17.5 30t-43.5 11q-20 0 -35 -5l-28 20l45 105h54z" />
    <glyph glyph-name="uni00B9" unicode="&#xb9;" horiz-adv-x="218" 
d="M110 320v322q-5 -7 -17 -11t-26 -4h-37v56h33q23 0 34.5 12.5t14.5 44.5h61v-420h-63z" />
    <glyph glyph-name="ordmasculine" unicode="&#xba;" horiz-adv-x="358" 
d="M98.5 416q-35.5 20 -55.5 55.5t-20 80.5t20 80.5t55.5 55.5t79.5 20q45 0 81 -20t56 -55.5t20 -80.5t-20 -80.5t-56 -55.5t-81 -20q-44 0 -79.5 20zM228.5 462q21.5 13 33.5 36.5t12 53.5q0 31 -12 54.5t-33.5 36.5t-50.5 13q-28 0 -49.5 -13t-33.5 -36.5t-12 -54.5
q0 -30 12 -53.5t33.5 -36.5t49.5 -13q29 0 50.5 13z" />
    <glyph glyph-name="guillemotright" unicode="&#xbb;" horiz-adv-x="605" 
d="M295 168l210 142l-210 142v84l293 -201v-50l-293 -201v84zM36 168l210 142l-210 142v84l293 -201v-50l-293 -201v84z" />
    <glyph glyph-name="onequarter" unicode="&#xbc;" horiz-adv-x="819" 
d="M110 280v322q-5 -7 -17 -11t-26 -4h-37v56h33q23 0 34.5 12.5t14.5 44.5h61v-420h-63zM665 700l-509 -700h-74l508 700h75zM448 98v56l213 266h71v-266h60v-56h-60v-98h-64v98h-220zM668 347l-155 -193h155v193z" />
    <glyph glyph-name="onehalf" unicode="&#xbd;" horiz-adv-x="811" 
d="M110 280v322q-5 -7 -17 -11t-26 -4h-37v56h33q23 0 34.5 12.5t14.5 44.5h61v-420h-63zM665 700l-509 -700h-74l508 700h75zM556.5 357q17.5 33 50 50.5t76.5 17.5q41 0 73 -16t50 -45t18 -67q0 -41 -25 -74.5t-74 -58.5l-56 -28q-28 -14 -47.5 -34.5t-19.5 -45.5h223v-56
h-288v45q0 49 30 84t70 55l65 33q30 15 44 35.5t14 45.5q0 33 -22 53t-55 20q-37 0 -58 -25t-20 -66h-65q-1 44 16.5 77z" />
    <glyph glyph-name="threequarters" unicode="&#xbe;" horiz-adv-x="942" 
d="M108 292q-35 17 -55 48t-20 72h62q0 -24 12 -42.5t32.5 -28.5t46.5 -10q40 0 63.5 19t23.5 52t-23.5 50.5t-63.5 17.5h-36v54h35q33 0 52.5 18.5t19.5 48.5q0 28 -20.5 44t-55.5 16q-32 0 -52.5 -19t-22.5 -52h-58q1 37 18.5 65.5t48 44t68.5 15.5q39 0 70 -14.5t49 -40
t18 -57.5q0 -28 -16 -53.5t-41 -38.5q34 -13 54 -38.5t20 -61.5q0 -39 -20.5 -67.5t-55 -43.5t-75.5 -15q-43 0 -78 17zM788 700l-509 -700h-74l508 700h75zM571 98v56l213 266h71v-266h60v-56h-60v-98h-64v98h-220zM791 347l-155 -193h155v193z" />
    <glyph glyph-name="questiondown" unicode="&#xbf;" horiz-adv-x="442" 
d="M247 403h-91v93h91v-93zM227 219q-15 -30 -36.5 -49.5t-56.5 -43.5q-32 -22 -51.5 -39.5t-32.5 -42.5t-13 -60q0 -34 18 -61.5t50 -43.5t71 -16q45 0 78 19.5t50 55.5t16 83h88q2 -71 -26 -123.5t-81.5 -81t-124.5 -28.5q-65 0 -117 25t-81 70t-29 101q0 48 17 82.5
t41 56t63 47.5q32 22 50 37t30 36.5t12 49.5v20h80v-22q0 -42 -15 -72z" />
    <glyph glyph-name="Agrave" unicode="&#xc0;" horiz-adv-x="649" 
d="M481 189h-312l-73 -189h-89l279 700h77l279 -700h-89zM451 265l-126 330l-127 -330h253zM183 903h93l87 -148h-76z" />
    <glyph glyph-name="Aacute" unicode="&#xc1;" horiz-adv-x="649" 
d="M481 189h-312l-73 -189h-89l279 700h77l279 -700h-89zM451 265l-126 330l-127 -330h253zM468 903l-104 -148h-76l87 148h93z" />
    <glyph glyph-name="Acircumflex" unicode="&#xc2;" horiz-adv-x="649" 
d="M481 189h-312l-73 -189h-89l279 700h77l279 -700h-89zM451 265l-126 330l-127 -330h253zM470 755h-76l-67 84l-69 -84h-74l109 140h67z" />
    <glyph glyph-name="Atilde" unicode="&#xc3;" horiz-adv-x="649" 
d="M481 189h-312l-73 -189h-89l279 700h77l279 -700h-89zM451 265l-126 330l-127 -330h253zM349 788q-16 6 -36 18q-11 6 -22.5 11t-21.5 5q-15 0 -25.5 -9.5t-13.5 -25.5h-62q2 30 15 53t33.5 36t45.5 13q22 0 37.5 -6t37.5 -18q2 -1 11 -6q10 -5 17.5 -7.5t14.5 -2.5
q15 0 25.5 9.5t14.5 25.5h61q-3 -46 -29 -74t-65 -28q-22 0 -38 6z" />
    <glyph glyph-name="Adieresis" unicode="&#xc4;" horiz-adv-x="649" 
d="M481 189h-312l-73 -189h-89l279 700h77l279 -700h-89zM451 265l-126 330l-127 -330h253zM280 792h-76v93h76v-93zM444 792h-76v93h76v-93z" />
    <glyph glyph-name="Aring" unicode="&#xc5;" horiz-adv-x="649" 
d="M481 189h-312l-73 -189h-89l279 700h77l279 -700h-89zM451 265l-126 330l-127 -330h253zM262.5 755.5q-27.5 14.5 -43 39.5t-15.5 57q0 31 15.5 55.5t43 39t61.5 14.5t61.5 -14.5t43.5 -39t16 -55.5q0 -32 -16 -57t-43.5 -39.5t-61.5 -14.5t-61.5 14.5zM370 809
q18 17 18 43t-18 42.5t-46 16.5q-27 0 -44.5 -16.5t-17.5 -42.5t17.5 -43t44.5 -17q28 0 46 17z" />
    <glyph glyph-name="AE" unicode="&#xc6;" horiz-adv-x="939" 
d="M895 77v-77h-399v189h-276l-119 -189h-94l452 700h425v-77h-302v-223h237v-77h-237v-246h313zM496 266v362l-228 -362h228z" />
    <glyph glyph-name="Ccedilla" unicode="&#xc7;" horiz-adv-x="708" 
d="M211.5 32.5q-76.5 40.5 -123 121t-46.5 196.5t46.5 197t123.5 121t167 40q75 0 139.5 -29t106 -80.5t50.5 -116.5h-90q-6 42 -34.5 76t-73.5 53.5t-98 19.5q-74 0 -130 -32.5t-87.5 -96t-31.5 -152.5t31.5 -152.5t87.5 -96t130 -32.5q54 0 99.5 19.5t74 53.5t33.5 76h88
q-7 -65 -48 -116.5t-105.5 -80.5t-141.5 -29q-91 0 -167.5 40.5zM393 17l-34 -77q6 1 17 1q30 0 54 -11.5t37 -31t13 -41.5q0 -26 -17 -46.5t-46.5 -32t-66.5 -11.5q-29 0 -75 14v50q25 -9 43 -12t33 -3q29 0 48 11.5t19 28.5q0 19 -17.5 30t-43.5 11q-20 0 -35 -5l-28 20
l45 105h54z" />
    <glyph glyph-name="Egrave" unicode="&#xc8;" 
d="M512 700v-77h-353v-223h287v-77h-287v-246h364v-77h-449v700h438zM151 903h93l87 -148h-76z" />
    <glyph glyph-name="Eacute" unicode="&#xc9;" 
d="M512 700v-77h-353v-223h287v-77h-287v-246h364v-77h-449v700h438zM436 903l-104 -148h-76l87 148h93z" />
    <glyph glyph-name="Ecircumflex" unicode="&#xca;" 
d="M512 700v-77h-353v-223h287v-77h-287v-246h364v-77h-449v700h438zM439 755h-76l-67 84l-69 -84h-74l109 140h67z" />
    <glyph glyph-name="Edieresis" unicode="&#xcb;" 
d="M512 700v-77h-353v-223h287v-77h-287v-246h364v-77h-449v700h438zM248 792h-76v93h76v-93zM412 792h-76v93h76v-93z" />
    <glyph glyph-name="Igrave" unicode="&#xcc;" horiz-adv-x="233" 
d="M159 700v-700h-85v700h85zM-26 903h93l87 -148h-76z" />
    <glyph glyph-name="Iacute" unicode="&#xcd;" horiz-adv-x="233" 
d="M159 700v-700h-85v700h85zM258 903l-104 -148h-76l87 148h93z" />
    <glyph glyph-name="Icircumflex" unicode="&#xce;" horiz-adv-x="233" 
d="M159 700v-700h-85v700h85zM261 755h-76l-67 84l-69 -84h-74l109 140h67z" />
    <glyph glyph-name="Idieresis" unicode="&#xcf;" horiz-adv-x="233" 
d="M159 700v-700h-85v700h85zM70 792h-76v93h76v-93zM234 792h-76v93h76v-93z" />
    <glyph glyph-name="Eth" unicode="&#xd0;" horiz-adv-x="751" 
d="M538.5 658.5q79.5 -41.5 125 -120.5t45.5 -188t-45.5 -188t-125 -120.5t-178.5 -41.5h-206v320h-100v65h100v315h206q99 0 178.5 -41.5zM488.5 106q59.5 29 95.5 90.5t36 153.5t-36 153.5t-95.5 90.5t-130.5 29h-119v-238h188v-65h-188v-243h119q71 0 130.5 29z" />
    <glyph glyph-name="Ntilde" unicode="&#xd1;" horiz-adv-x="691" 
d="M171 700l361 -570v570h85v-700h-98l-360 568v-568h-85v700h97zM370 788q-16 6 -36 18q-11 6 -22.5 11t-21.5 5q-15 0 -25.5 -9.5t-13.5 -25.5h-62q2 30 15 53t33.5 36t45.5 13q22 0 37.5 -6t37.5 -18q2 -1 11 -6q10 -5 17.5 -7.5t14.5 -2.5q15 0 25.5 9.5t14.5 25.5h61
q-3 -46 -29 -74t-65 -28q-22 0 -38 6z" />
    <glyph glyph-name="Ograve" unicode="&#xd2;" horiz-adv-x="770" 
d="M209.5 38.5q-78.5 46.5 -123 128t-44.5 183.5t44.5 183.5t123 128t175.5 46.5t175.5 -46.5t123.5 -128t45 -183.5t-45 -183.5t-123.5 -128t-175.5 -46.5t-175.5 46.5zM515.5 105.5q58.5 36.5 92 101t33.5 143.5t-33.5 143.5t-92 101t-130.5 36.5t-130.5 -36.5t-91.5 -101
t-33 -143.5t33 -143.5t91.5 -101t130.5 -36.5t130.5 36.5zM243 903h93l87 -148h-76z" />
    <glyph glyph-name="Oacute" unicode="&#xd3;" horiz-adv-x="770" 
d="M209.5 38.5q-78.5 46.5 -123 128t-44.5 183.5t44.5 183.5t123 128t175.5 46.5t175.5 -46.5t123.5 -128t45 -183.5t-45 -183.5t-123.5 -128t-175.5 -46.5t-175.5 46.5zM515.5 105.5q58.5 36.5 92 101t33.5 143.5t-33.5 143.5t-92 101t-130.5 36.5t-130.5 -36.5t-91.5 -101
t-33 -143.5t33 -143.5t91.5 -101t130.5 -36.5t130.5 36.5zM528 903l-104 -148h-76l87 148h93z" />
    <glyph glyph-name="Ocircumflex" unicode="&#xd4;" horiz-adv-x="770" 
d="M209.5 38.5q-78.5 46.5 -123 128t-44.5 183.5t44.5 183.5t123 128t175.5 46.5t175.5 -46.5t123.5 -128t45 -183.5t-45 -183.5t-123.5 -128t-175.5 -46.5t-175.5 46.5zM515.5 105.5q58.5 36.5 92 101t33.5 143.5t-33.5 143.5t-92 101t-130.5 36.5t-130.5 -36.5t-91.5 -101
t-33 -143.5t33 -143.5t91.5 -101t130.5 -36.5t130.5 36.5zM530 755h-76l-67 84l-69 -84h-74l109 140h67z" />
    <glyph glyph-name="Otilde" unicode="&#xd5;" horiz-adv-x="770" 
d="M209.5 38.5q-78.5 46.5 -123 128t-44.5 183.5t44.5 183.5t123 128t175.5 46.5t175.5 -46.5t123.5 -128t45 -183.5t-45 -183.5t-123.5 -128t-175.5 -46.5t-175.5 46.5zM515.5 105.5q58.5 36.5 92 101t33.5 143.5t-33.5 143.5t-92 101t-130.5 36.5t-130.5 -36.5t-91.5 -101
t-33 -143.5t33 -143.5t91.5 -101t130.5 -36.5t130.5 36.5zM409 788q-16 6 -36 18q-11 6 -22.5 11t-21.5 5q-15 0 -25.5 -9.5t-13.5 -25.5h-62q2 30 15 53t33.5 36t45.5 13q22 0 37.5 -6t37.5 -18q2 -1 11 -6q10 -5 17.5 -7.5t14.5 -2.5q15 0 25.5 9.5t14.5 25.5h61
q-3 -46 -29 -74t-65 -28q-22 0 -38 6z" />
    <glyph glyph-name="Odieresis" unicode="&#xd6;" horiz-adv-x="770" 
d="M209.5 38.5q-78.5 46.5 -123 128t-44.5 183.5t44.5 183.5t123 128t175.5 46.5t175.5 -46.5t123.5 -128t45 -183.5t-45 -183.5t-123.5 -128t-175.5 -46.5t-175.5 46.5zM515.5 105.5q58.5 36.5 92 101t33.5 143.5t-33.5 143.5t-92 101t-130.5 36.5t-130.5 -36.5t-91.5 -101
t-33 -143.5t33 -143.5t91.5 -101t130.5 -36.5t130.5 36.5zM340 792h-76v93h76v-93zM504 792h-76v93h76v-93z" />
    <glyph glyph-name="multiply" unicode="&#xd7;" horiz-adv-x="552" 
d="M326 331l151 -151l-50 -50l-151 151l-152 -151l-50 50l152 151l-152 152l50 50l152 -152l152 152l50 -50z" />
    <glyph glyph-name="Oslash" unicode="&#xd8;" horiz-adv-x="770" 
d="M703.5 491.5q25.5 -65.5 25.5 -141.5q0 -102 -45 -183.5t-123.5 -128t-175.5 -46.5q-56 0 -106 15.5t-92 45.5l-60 -74l-49 42l60 74q-46 49 -71 114.5t-25 140.5q0 102 44.5 183.5t123 128t175.5 46.5q56 0 106 -15.5t92 -45.5l59 74l49 -42l-59 -74q46 -48 71.5 -113.5
zM146 247q16 -48 46 -85l340 422q-64 47 -147 47q-72 0 -130.5 -36.5t-91.5 -101t-33 -143.5q0 -55 16 -103zM515.5 105.5q58.5 36.5 92 101t33.5 143.5q0 55 -16.5 103.5t-46.5 85.5l-340 -422q63 -48 147 -48q72 0 130.5 36.5z" />
    <glyph glyph-name="Ugrave" unicode="&#xd9;" horiz-adv-x="652" 
d="M187 22q-60 30 -92.5 86t-32.5 132v460h84v-464q0 -51 22.5 -88.5t63 -58t94.5 -20.5t95 20.5t63.5 58t22.5 88.5v464h83v-460q0 -76 -32.5 -132t-92.5 -86t-139 -30t-139 30zM184 903h93l87 -148h-76z" />
    <glyph glyph-name="Uacute" unicode="&#xda;" horiz-adv-x="652" 
d="M187 22q-60 30 -92.5 86t-32.5 132v460h84v-464q0 -51 22.5 -88.5t63 -58t94.5 -20.5t95 20.5t63.5 58t22.5 88.5v464h83v-460q0 -76 -32.5 -132t-92.5 -86t-139 -30t-139 30zM469 903l-104 -148h-76l87 148h93z" />
    <glyph glyph-name="Ucircumflex" unicode="&#xdb;" horiz-adv-x="652" 
d="M187 22q-60 30 -92.5 86t-32.5 132v460h84v-464q0 -51 22.5 -88.5t63 -58t94.5 -20.5t95 20.5t63.5 58t22.5 88.5v464h83v-460q0 -76 -32.5 -132t-92.5 -86t-139 -30t-139 30zM471 755h-76l-67 84l-69 -84h-74l109 140h67z" />
    <glyph glyph-name="Udieresis" unicode="&#xdc;" horiz-adv-x="652" 
d="M187 22q-60 30 -92.5 86t-32.5 132v460h84v-464q0 -51 22.5 -88.5t63 -58t94.5 -20.5t95 20.5t63.5 58t22.5 88.5v464h83v-460q0 -76 -32.5 -132t-92.5 -86t-139 -30t-139 30zM281 792h-76v93h76v-93zM445 792h-76v93h76v-93z" />
    <glyph glyph-name="Yacute" unicode="&#xdd;" horiz-adv-x="590" 
d="M4 700h97l194 -325l193 325h97l-248 -407v-293h-85v293zM437 903l-104 -148h-76l87 148h93z" />
    <glyph glyph-name="Thorn" unicode="&#xde;" horiz-adv-x="586" 
d="M159 700v-153h178q69 0 119.5 -23.5t77 -68t26.5 -105.5t-26.5 -105.5t-77 -68t-119.5 -23.5h-178v-153h-85v700h85zM440.5 262q32.5 33 32.5 88q0 56 -32.5 88.5t-103.5 32.5h-178v-242h178q71 0 103.5 33z" />
    <glyph glyph-name="germandbls" unicode="&#xdf;" horiz-adv-x="590" 
d="M516 319q32 -45 32 -115q0 -63 -26.5 -109t-76.5 -70.5t-119 -24.5h-91v77h76q75 0 115 32.5t40 95.5q0 64 -40 97.5t-115 33.5h-76v73h73q62 0 95 29t33 89q0 49 -31.5 79.5t-90.5 30.5q-48 0 -83 -23t-53 -64.5t-18 -96.5v-453h-81v336h-67v73h67v45q0 77 27.5 134.5
t80.5 88.5t127 31q65 0 111 -22.5t69.5 -63t23.5 -93.5q0 -35 -12.5 -64.5t-33 -50.5t-44.5 -31q56 -19 88 -64z" />
    <glyph glyph-name="agrave" unicode="&#xe0;" horiz-adv-x="526" 
d="M374 488.5q48 -23.5 74 -65.5t26 -98v-325h-80v87q-20 -43 -66.5 -69t-105.5 -26q-52 0 -92 19t-61.5 53t-21.5 80q0 48 25 83.5t70 54.5t106 19h114q16 0 24 7.5t8 19.5q0 35 -16 61t-46.5 40.5t-72.5 14.5q-36 0 -66.5 -13.5t-49 -37t-20.5 -50.5h-76q4 48 33.5 86.5
t77 60.5t103.5 22q65 0 113 -23.5zM320 80q36 20 55 57.5t19 89.5v13h-141q-57 0 -90.5 -25.5t-33.5 -69.5q0 -39 28.5 -62t76.5 -23q50 0 86 20zM126 707h93l87 -148h-76z" />
    <glyph glyph-name="aacute" unicode="&#xe1;" horiz-adv-x="526" 
d="M374 488.5q48 -23.5 74 -65.5t26 -98v-325h-80v87q-20 -43 -66.5 -69t-105.5 -26q-52 0 -92 19t-61.5 53t-21.5 80q0 48 25 83.5t70 54.5t106 19h114q16 0 24 7.5t8 19.5q0 35 -16 61t-46.5 40.5t-72.5 14.5q-36 0 -66.5 -13.5t-49 -37t-20.5 -50.5h-76q4 48 33.5 86.5
t77 60.5t103.5 22q65 0 113 -23.5zM320 80q36 20 55 57.5t19 89.5v13h-141q-57 0 -90.5 -25.5t-33.5 -69.5q0 -39 28.5 -62t76.5 -23q50 0 86 20zM410 707l-104 -148h-76l87 148h93z" />
    <glyph glyph-name="acircumflex" unicode="&#xe2;" horiz-adv-x="526" 
d="M374 488.5q48 -23.5 74 -65.5t26 -98v-325h-80v87q-20 -43 -66.5 -69t-105.5 -26q-52 0 -92 19t-61.5 53t-21.5 80q0 48 25 83.5t70 54.5t106 19h114q16 0 24 7.5t8 19.5q0 35 -16 61t-46.5 40.5t-72.5 14.5q-36 0 -66.5 -13.5t-49 -37t-20.5 -50.5h-76q4 48 33.5 86.5
t77 60.5t103.5 22q65 0 113 -23.5zM320 80q36 20 55 57.5t19 89.5v13h-141q-57 0 -90.5 -25.5t-33.5 -69.5q0 -39 28.5 -62t76.5 -23q50 0 86 20zM413 559h-76l-67 84l-69 -84h-74l109 140h67z" />
    <glyph glyph-name="atilde" unicode="&#xe3;" horiz-adv-x="526" 
d="M374 488.5q48 -23.5 74 -65.5t26 -98v-325h-80v87q-20 -43 -66.5 -69t-105.5 -26q-52 0 -92 19t-61.5 53t-21.5 80q0 48 25 83.5t70 54.5t106 19h114q16 0 24 7.5t8 19.5q0 35 -16 61t-46.5 40.5t-72.5 14.5q-36 0 -66.5 -13.5t-49 -37t-20.5 -50.5h-76q4 48 33.5 86.5
t77 60.5t103.5 22q65 0 113 -23.5zM320 80q36 20 55 57.5t19 89.5v13h-141q-57 0 -90.5 -25.5t-33.5 -69.5q0 -39 28.5 -62t76.5 -23q50 0 86 20zM292 592q-16 6 -36 18q-11 6 -22.5 11t-21.5 5q-15 0 -25.5 -9.5t-13.5 -25.5h-62q2 30 15 53t33.5 36t45.5 13q22 0 37.5 -6
t37.5 -18q2 -1 11 -6q10 -5 17.5 -7.5t14.5 -2.5q15 0 25.5 9.5t14.5 25.5h61q-3 -46 -29 -74t-65 -28q-22 0 -38 6z" />
    <glyph glyph-name="adieresis" unicode="&#xe4;" horiz-adv-x="526" 
d="M374 488.5q48 -23.5 74 -65.5t26 -98v-325h-80v87q-20 -43 -66.5 -69t-105.5 -26q-52 0 -92 19t-61.5 53t-21.5 80q0 48 25 83.5t70 54.5t106 19h114q16 0 24 7.5t8 19.5q0 35 -16 61t-46.5 40.5t-72.5 14.5q-36 0 -66.5 -13.5t-49 -37t-20.5 -50.5h-76q4 48 33.5 86.5
t77 60.5t103.5 22q65 0 113 -23.5zM320 80q36 20 55 57.5t19 89.5v13h-141q-57 0 -90.5 -25.5t-33.5 -69.5q0 -39 28.5 -62t76.5 -23q50 0 86 20zM222 596h-76v93h76v-93zM386 596h-76v93h76v-93z" />
    <glyph glyph-name="aring" unicode="&#xe5;" horiz-adv-x="526" 
d="M374 488.5q48 -23.5 74 -65.5t26 -98v-325h-80v87q-20 -43 -66.5 -69t-105.5 -26q-52 0 -92 19t-61.5 53t-21.5 80q0 48 25 83.5t70 54.5t106 19h114q16 0 24 7.5t8 19.5q0 35 -16 61t-46.5 40.5t-72.5 14.5q-36 0 -66.5 -13.5t-49 -37t-20.5 -50.5h-76q4 48 33.5 86.5
t77 60.5t103.5 22q65 0 113 -23.5zM320 80q36 20 55 57.5t19 89.5v13h-141q-57 0 -90.5 -25.5t-33.5 -69.5q0 -39 28.5 -62t76.5 -23q50 0 86 20zM205.5 559.5q-27.5 14.5 -43 39.5t-15.5 57q0 31 15.5 55.5t43 39t61.5 14.5t61.5 -14.5t43.5 -39t16 -55.5q0 -32 -16 -57
t-43.5 -39.5t-61.5 -14.5t-61.5 14.5zM313 613q18 17 18 43t-18 42.5t-46 16.5q-27 0 -44.5 -16.5t-17.5 -42.5t17.5 -43t44.5 -17q28 0 46 17z" />
    <glyph glyph-name="ae" unicode="&#xe6;" horiz-adv-x="911" 
d="M874 162q-8 -51 -39.5 -89.5t-80.5 -59.5t-111 -21q-69 0 -123.5 31.5t-86.5 85.5q-57 -117 -206 -117q-54 0 -95 19.5t-63 54t-22 77.5q0 78 50.5 120t150.5 42h117q14 0 21.5 7t7.5 19v1q0 34 -18 59.5t-49.5 39t-69.5 13.5q-36 0 -66 -14t-48 -37t-21 -51h-75
q4 48 33 87t75.5 61t100.5 22q62 0 112 -23.5t77 -65.5q32 42 80.5 65.5t108.5 23.5q72 0 125 -30.5t81.5 -84.5t28.5 -121q0 -21 -2 -35h-394q3 -52 25.5 -92.5t60 -63t84.5 -22.5q61 0 99.5 25.5t50.5 73.5h81zM529 408q-41 -36 -52 -103h310q-3 42 -22.5 73.5t-53 48.5
t-77.5 17q-64 0 -105 -36zM319.5 80q36.5 20 55.5 57.5t19 89.5v18h-141q-64 0 -94 -25.5t-30 -75.5q0 -24 13.5 -43t37 -30t53.5 -11q50 0 86.5 20z" />
    <glyph glyph-name="ccedilla" unicode="&#xe7;" horiz-adv-x="543" 
d="M150.5 28q-55.5 36 -84.5 95.5t-29 128.5t29 128.5t84.5 95.5t131.5 36q57 0 106.5 -21.5t82.5 -62t40 -94.5h-79q-5 30 -26 54t-53.5 38t-69.5 14q-53 0 -90 -25t-55 -67.5t-18 -95.5t18.5 -95.5t55 -67.5t89.5 -25q57 0 96 26.5t53 72.5h78q-9 -52 -38.5 -90.5
t-78 -59.5t-111.5 -21q-76 0 -131.5 36zM293 17l-34 -77q6 1 17 1q30 0 54 -11.5t37 -31t13 -41.5q0 -26 -17 -46.5t-46.5 -32t-66.5 -11.5q-29 0 -75 14v50q25 -9 43 -12t33 -3q29 0 48 11.5t19 28.5q0 19 -17.5 30t-43.5 11q-20 0 -35 -5l-28 20l45 105h54z" />
    <glyph glyph-name="egrave" unicode="&#xe8;" horiz-adv-x="554" 
d="M517 162q-8 -51 -39.5 -89.5t-80.5 -59.5t-111 -21q-73 0 -129.5 35.5t-88 95.5t-31.5 132q0 74 29.5 132.5t83.5 91.5t127 33q72 0 125 -30.5t81.5 -84.5t28.5 -121q0 -21 -2 -35h-394q3 -52 25.5 -92.5t60 -63t84.5 -22.5q61 0 99.5 25.5t50.5 73.5h81zM172 408
q-41 -36 -52 -103h310q-3 42 -22.5 73.5t-53 48.5t-77.5 17q-64 0 -105 -36zM135 707h93l87 -148h-76z" />
    <glyph glyph-name="eacute" unicode="&#xe9;" horiz-adv-x="554" 
d="M517 162q-8 -51 -39.5 -89.5t-80.5 -59.5t-111 -21q-73 0 -129.5 35.5t-88 95.5t-31.5 132q0 74 29.5 132.5t83.5 91.5t127 33q72 0 125 -30.5t81.5 -84.5t28.5 -121q0 -21 -2 -35h-394q3 -52 25.5 -92.5t60 -63t84.5 -22.5q61 0 99.5 25.5t50.5 73.5h81zM172 408
q-41 -36 -52 -103h310q-3 42 -22.5 73.5t-53 48.5t-77.5 17q-64 0 -105 -36zM420 707l-104 -148h-76l87 148h93z" />
    <glyph glyph-name="ecircumflex" unicode="&#xea;" horiz-adv-x="554" 
d="M517 162q-8 -51 -39.5 -89.5t-80.5 -59.5t-111 -21q-73 0 -129.5 35.5t-88 95.5t-31.5 132q0 74 29.5 132.5t83.5 91.5t127 33q72 0 125 -30.5t81.5 -84.5t28.5 -121q0 -21 -2 -35h-394q3 -52 25.5 -92.5t60 -63t84.5 -22.5q61 0 99.5 25.5t50.5 73.5h81zM172 408
q-41 -36 -52 -103h310q-3 42 -22.5 73.5t-53 48.5t-77.5 17q-64 0 -105 -36zM422 559h-76l-67 84l-69 -84h-74l109 140h67z" />
    <glyph glyph-name="edieresis" unicode="&#xeb;" horiz-adv-x="554" 
d="M517 162q-8 -51 -39.5 -89.5t-80.5 -59.5t-111 -21q-73 0 -129.5 35.5t-88 95.5t-31.5 132q0 74 29.5 132.5t83.5 91.5t127 33q72 0 125 -30.5t81.5 -84.5t28.5 -121q0 -21 -2 -35h-394q3 -52 25.5 -92.5t60 -63t84.5 -22.5q61 0 99.5 25.5t50.5 73.5h81zM172 408
q-41 -36 -52 -103h310q-3 42 -22.5 73.5t-53 48.5t-77.5 17q-64 0 -105 -36zM232 596h-76v93h76v-93zM396 596h-76v93h76v-93z" />
    <glyph glyph-name="igrave" unicode="&#xec;" horiz-adv-x="212" 
d="M146 504v-504h-80v504h80zM-37 707h93l87 -148h-76z" />
    <glyph glyph-name="iacute" unicode="&#xed;" horiz-adv-x="212" 
d="M146 504v-504h-80v504h80zM248 707l-104 -148h-76l87 148h93z" />
    <glyph glyph-name="icircumflex" unicode="&#xee;" horiz-adv-x="212" 
d="M146 504v-504h-80v504h80zM250 559h-76l-67 84l-69 -84h-74l109 140h67z" />
    <glyph glyph-name="idieresis" unicode="&#xef;" horiz-adv-x="212" 
d="M146 504v-504h-80v504h80zM60 596h-76v93h76v-93zM224 596h-76v93h76v-93z" />
    <glyph glyph-name="eth" unicode="&#xf0;" horiz-adv-x="565" 
d="M475.5 469.5q51.5 -88.5 51.5 -209.5q0 -74 -29.5 -135t-85 -97t-130.5 -36t-130.5 34t-84.5 90.5t-29 121.5q0 64 29 120.5t83.5 91t126.5 34.5q39 0 78 -14.5t70 -45.5q-43 83 -142 164l-73 -58l-39 44l63 51q-51 37 -124 80h105q23 -13 67 -41l64 51l39 -45l-52 -42
q91 -70 142.5 -158.5zM372 87.5q37 24.5 55 64.5t18 86t-18 86.5t-55 65t-90 24.5q-52 0 -88.5 -24.5t-55 -65t-18.5 -86.5t18.5 -86t55 -64.5t88.5 -24.5q53 0 90 24.5z" />
    <glyph glyph-name="ntilde" unicode="&#xf1;" 
d="M146 504v-97q19 51 63 78t103 27q56 0 99 -25.5t66 -71.5t23 -107v-308h-80v295q0 43 -15.5 75.5t-44 50.5t-66.5 18q-43 0 -76.5 -21.5t-52.5 -59.5t-19 -86v-272h-80v504h80zM305 592q-16 6 -36 18q-11 6 -22.5 11t-21.5 5q-15 0 -25.5 -9.5t-13.5 -25.5h-62
q2 30 15 53t33.5 36t45.5 13q22 0 37.5 -6t37.5 -18q2 -1 11 -6q10 -5 17.5 -7.5t14.5 -2.5q15 0 25.5 9.5t14.5 25.5h61q-3 -46 -29 -74t-65 -28q-22 0 -38 6z" />
    <glyph glyph-name="ograve" unicode="&#xf2;" horiz-adv-x="587" 
d="M161 25.5q-58 33.5 -91 92.5t-33 134t33 134t91 92.5t132 33.5t132.5 -33.5t91.5 -92.5t33 -134t-33 -134t-91.5 -92.5t-132.5 -33.5t-132 33.5zM384 88q40 24 62 67t22 97t-22 97t-62 67t-91 24t-90.5 -24t-61.5 -67t-22 -97t22 -97t61.5 -67t90.5 -24t91 24zM151 707
h93l87 -148h-76z" />
    <glyph glyph-name="oacute" unicode="&#xf3;" horiz-adv-x="587" 
d="M161 25.5q-58 33.5 -91 92.5t-33 134t33 134t91 92.5t132 33.5t132.5 -33.5t91.5 -92.5t33 -134t-33 -134t-91.5 -92.5t-132.5 -33.5t-132 33.5zM384 88q40 24 62 67t22 97t-22 97t-62 67t-91 24t-90.5 -24t-61.5 -67t-22 -97t22 -97t61.5 -67t90.5 -24t91 24zM436 707
l-104 -148h-76l87 148h93z" />
    <glyph glyph-name="ocircumflex" unicode="&#xf4;" horiz-adv-x="587" 
d="M161 25.5q-58 33.5 -91 92.5t-33 134t33 134t91 92.5t132 33.5t132.5 -33.5t91.5 -92.5t33 -134t-33 -134t-91.5 -92.5t-132.5 -33.5t-132 33.5zM384 88q40 24 62 67t22 97t-22 97t-62 67t-91 24t-90.5 -24t-61.5 -67t-22 -97t22 -97t61.5 -67t90.5 -24t91 24zM438 559
h-76l-67 84l-69 -84h-74l109 140h67z" />
    <glyph glyph-name="otilde" unicode="&#xf5;" horiz-adv-x="587" 
d="M161 25.5q-58 33.5 -91 92.5t-33 134t33 134t91 92.5t132 33.5t132.5 -33.5t91.5 -92.5t33 -134t-33 -134t-91.5 -92.5t-132.5 -33.5t-132 33.5zM384 88q40 24 62 67t22 97t-22 97t-62 67t-91 24t-90.5 -24t-61.5 -67t-22 -97t22 -97t61.5 -67t90.5 -24t91 24zM318 592
q-16 6 -36 18q-11 6 -22.5 11t-21.5 5q-15 0 -25.5 -9.5t-13.5 -25.5h-62q2 30 15 53t33.5 36t45.5 13q22 0 37.5 -6t37.5 -18q2 -1 11 -6q10 -5 17.5 -7.5t14.5 -2.5q15 0 25.5 9.5t14.5 25.5h61q-3 -46 -29 -74t-65 -28q-22 0 -38 6z" />
    <glyph glyph-name="odieresis" unicode="&#xf6;" horiz-adv-x="587" 
d="M161 25.5q-58 33.5 -91 92.5t-33 134t33 134t91 92.5t132 33.5t132.5 -33.5t91.5 -92.5t33 -134t-33 -134t-91.5 -92.5t-132.5 -33.5t-132 33.5zM384 88q40 24 62 67t22 97t-22 97t-62 67t-91 24t-90.5 -24t-61.5 -67t-22 -97t22 -97t61.5 -67t90.5 -24t91 24zM248 596
h-76v93h76v-93zM412 596h-76v93h76v-93z" />
    <glyph glyph-name="divide" unicode="&#xf7;" horiz-adv-x="608" 
d="M534 352v-70h-460v70h460zM336 75h-91v93h91v-93zM336 463h-91v93h91v-93z" />
    <glyph glyph-name="oslash" unicode="&#xf8;" horiz-adv-x="587" 
d="M532 354.5q18 -47.5 18 -102.5q0 -75 -33 -134t-91.5 -92.5t-132.5 -33.5q-80 0 -142 40l-51 -63l-42 36l50 62q-34 35 -52.5 82t-18.5 103q0 75 33 134t91 92.5t132 33.5q82 0 144 -40l50 62l42 -36l-49 -61q34 -35 52 -82.5zM129 184q10 -32 29 -56l231 285
q-43 27 -96 27q-51 0 -90.5 -24t-61.5 -67t-22 -97q0 -36 10 -68zM384 88q40 24 62 67t22 97q0 36 -10 67.5t-28 55.5l-231 -284q39 -27 94 -27q51 0 91 24z" />
    <glyph glyph-name="ugrave" unicode="&#xf9;" 
d="M420 97q-19 -52 -62.5 -78.5t-103.5 -26.5q-56 0 -99 25.5t-66 71.5t-23 107v308h80v-295q0 -43 15.5 -75.5t44 -50.5t66.5 -18q43 0 76.5 21.5t52.5 59.5t19 86v272h80v-504h-80v97zM140 707h93l87 -148h-76z" />
    <glyph glyph-name="uacute" unicode="&#xfa;" 
d="M420 97q-19 -52 -62.5 -78.5t-103.5 -26.5q-56 0 -99 25.5t-66 71.5t-23 107v308h80v-295q0 -43 15.5 -75.5t44 -50.5t66.5 -18q43 0 76.5 21.5t52.5 59.5t19 86v272h80v-504h-80v97zM425 707l-104 -148h-76l87 148h93z" />
    <glyph glyph-name="ucircumflex" unicode="&#xfb;" 
d="M420 97q-19 -52 -62.5 -78.5t-103.5 -26.5q-56 0 -99 25.5t-66 71.5t-23 107v308h80v-295q0 -43 15.5 -75.5t44 -50.5t66.5 -18q43 0 76.5 21.5t52.5 59.5t19 86v272h80v-504h-80v97zM427 559h-76l-67 84l-69 -84h-74l109 140h67z" />
    <glyph glyph-name="udieresis" unicode="&#xfc;" 
d="M420 97q-19 -52 -62.5 -78.5t-103.5 -26.5q-56 0 -99 25.5t-66 71.5t-23 107v308h80v-295q0 -43 15.5 -75.5t44 -50.5t66.5 -18q43 0 76.5 21.5t52.5 59.5t19 86v272h80v-504h-80v97zM237 596h-76v93h76v-93zM401 596h-76v93h76v-93z" />
    <glyph glyph-name="yacute" unicode="&#xfd;" horiz-adv-x="479" 
d="M306 69l-92 -273h-77l64 196l-188 512h83l143 -400l143 400h84zM386 707l-104 -148h-76l87 148h93z" />
    <glyph glyph-name="thorn" unicode="&#xfe;" horiz-adv-x="601" 
d="M152 707v-269q29 33 75 53.5t91 20.5q76 0 131 -34t83 -93t28 -133t-28.5 -133t-84 -93t-131.5 -34q-50 0 -96 19.5t-68 48.5v-264h-82v911h82zM401 88q38 24 57.5 66.5t19.5 97.5q0 54 -19.5 96.5t-57.5 67t-91 24.5t-90.5 -24.5t-57 -67t-19.5 -96.5q0 -55 19.5 -97.5
t57 -66.5t90.5 -24t91 24z" />
    <glyph glyph-name="ydieresis" unicode="&#xff;" horiz-adv-x="479" 
d="M306 69l-92 -273h-77l64 196l-188 512h83l143 -400l143 400h84zM198 596h-76v93h76v-93zM362 596h-76v93h76v-93z" />
    <glyph glyph-name="Amacron" unicode="&#x100;" horiz-adv-x="649" 
d="M481 189h-312l-73 -189h-89l279 700h77l279 -700h-89zM451 265l-126 330l-127 -330h253zM458 854v-67h-266v67h266z" />
    <glyph glyph-name="amacron" unicode="&#x101;" horiz-adv-x="526" 
d="M374 488.5q48 -23.5 74 -65.5t26 -98v-325h-80v87q-20 -43 -66.5 -69t-105.5 -26q-52 0 -92 19t-61.5 53t-21.5 80q0 48 25 83.5t70 54.5t106 19h114q16 0 24 7.5t8 19.5q0 35 -16 61t-46.5 40.5t-72.5 14.5q-36 0 -66.5 -13.5t-49 -37t-20.5 -50.5h-76q4 48 33.5 86.5
t77 60.5t103.5 22q65 0 113 -23.5zM320 80q36 20 55 57.5t19 89.5v13h-141q-57 0 -90.5 -25.5t-33.5 -69.5q0 -39 28.5 -62t76.5 -23q50 0 86 20zM401 658v-67h-266v67h266z" />
    <glyph glyph-name="Abreve" unicode="&#x102;" horiz-adv-x="649" 
d="M481 189h-312l-73 -189h-89l279 700h77l279 -700h-89zM451 265l-126 330l-127 -330h253zM253.5 775q-32.5 18 -50.5 49.5t-18 71.5h67q0 -34 21 -55t53 -21t53 21.5t21 54.5h66q0 -39 -18.5 -71t-50.5 -50t-71 -18q-40 0 -72.5 18z" />
    <glyph glyph-name="abreve" unicode="&#x103;" horiz-adv-x="526" 
d="M374 488.5q48 -23.5 74 -65.5t26 -98v-325h-80v87q-20 -43 -66.5 -69t-105.5 -26q-52 0 -92 19t-61.5 53t-21.5 80q0 48 25 83.5t70 54.5t106 19h114q16 0 24 7.5t8 19.5q0 35 -16 61t-46.5 40.5t-72.5 14.5q-36 0 -66.5 -13.5t-49 -37t-20.5 -50.5h-76q4 48 33.5 86.5
t77 60.5t103.5 22q65 0 113 -23.5zM320 80q36 20 55 57.5t19 89.5v13h-141q-57 0 -90.5 -25.5t-33.5 -69.5q0 -39 28.5 -62t76.5 -23q50 0 86 20zM195.5 579q-32.5 18 -50.5 49.5t-18 71.5h67q0 -34 21 -55t53 -21t53 21.5t21 54.5h66q0 -39 -18.5 -71t-50.5 -50t-71 -18
q-40 0 -72.5 18z" />
    <glyph glyph-name="Aogonek" unicode="&#x104;" horiz-adv-x="649" 
d="M481 189h-312l-73 -189h-89l279 700h77l279 -700h-89zM451 265l-126 330l-127 -330h253zM654 -166q-22 -10 -51 -10q-41 0 -65 22t-24 58q0 26 16.5 51.5t48.5 44.5h63q-32 -26 -46 -44t-14 -35q0 -15 9 -23.5t25 -8.5q13 0 23.5 6t22.5 19l34 -49q-20 -21 -42 -31z" />
    <glyph glyph-name="aogonek" unicode="&#x105;" horiz-adv-x="526" 
d="M374 488.5q48 -23.5 74 -65.5t26 -98v-325h-80v87q-20 -43 -66.5 -69t-105.5 -26q-52 0 -92 19t-61.5 53t-21.5 80q0 48 25 83.5t70 54.5t106 19h114q16 0 24 7.5t8 19.5q0 35 -16 61t-46.5 40.5t-72.5 14.5q-36 0 -66.5 -13.5t-49 -37t-20.5 -50.5h-76q4 48 33.5 86.5
t77 60.5t103.5 22q65 0 113 -23.5zM320 80q36 20 55 57.5t19 89.5v13h-141q-57 0 -90.5 -25.5t-33.5 -69.5q0 -39 28.5 -62t76.5 -23q50 0 86 20zM486 -166q-22 -10 -51 -10q-41 0 -65 22t-24 58q0 26 16.5 51.5t48.5 44.5h63q-32 -26 -46 -44t-14 -35q0 -15 9 -23.5
t25 -8.5q13 0 23.5 6t22.5 19l34 -49q-20 -21 -42 -31z" />
    <glyph glyph-name="Cacute" unicode="&#x106;" horiz-adv-x="708" 
d="M211.5 32.5q-76.5 40.5 -123 121t-46.5 196.5t46.5 197t123.5 121t167 40q75 0 139.5 -29t106 -80.5t50.5 -116.5h-90q-6 42 -34.5 76t-73.5 53.5t-98 19.5q-74 0 -130 -32.5t-87.5 -96t-31.5 -152.5t31.5 -152.5t87.5 -96t130 -32.5q54 0 99.5 19.5t74 53.5t33.5 76h88
q-7 -65 -48 -116.5t-105.5 -80.5t-141.5 -29q-91 0 -167.5 40.5zM512 903l-104 -148h-76l87 148h93z" />
    <glyph glyph-name="cacute" unicode="&#x107;" horiz-adv-x="543" 
d="M150.5 28q-55.5 36 -84.5 95.5t-29 128.5t29 128.5t84.5 95.5t131.5 36q57 0 106.5 -21.5t82.5 -62t40 -94.5h-79q-5 30 -26 54t-53.5 38t-69.5 14q-53 0 -90 -25t-55 -67.5t-18 -95.5t18.5 -95.5t55 -67.5t89.5 -25q57 0 96 26.5t53 72.5h78q-9 -52 -38.5 -90.5
t-78 -59.5t-111.5 -21q-76 0 -131.5 36zM423 707l-104 -148h-76l87 148h93z" />
    <glyph glyph-name="Ccircumflex" unicode="&#x108;" horiz-adv-x="708" 
d="M211.5 32.5q-76.5 40.5 -123 121t-46.5 196.5t46.5 197t123.5 121t167 40q75 0 139.5 -29t106 -80.5t50.5 -116.5h-90q-6 42 -34.5 76t-73.5 53.5t-98 19.5q-74 0 -130 -32.5t-87.5 -96t-31.5 -152.5t31.5 -152.5t87.5 -96t130 -32.5q54 0 99.5 19.5t74 53.5t33.5 76h88
q-7 -65 -48 -116.5t-105.5 -80.5t-141.5 -29q-91 0 -167.5 40.5zM514 755h-76l-67 84l-69 -84h-74l109 140h67z" />
    <glyph glyph-name="ccircumflex" unicode="&#x109;" horiz-adv-x="543" 
d="M150.5 28q-55.5 36 -84.5 95.5t-29 128.5t29 128.5t84.5 95.5t131.5 36q57 0 106.5 -21.5t82.5 -62t40 -94.5h-79q-5 30 -26 54t-53.5 38t-69.5 14q-53 0 -90 -25t-55 -67.5t-18 -95.5t18.5 -95.5t55 -67.5t89.5 -25q57 0 96 26.5t53 72.5h78q-9 -52 -38.5 -90.5
t-78 -59.5t-111.5 -21q-76 0 -131.5 36zM425 559h-76l-67 84l-69 -84h-74l109 140h67z" />
    <glyph glyph-name="Cdotaccent" unicode="&#x10a;" horiz-adv-x="708" 
d="M211.5 32.5q-76.5 40.5 -123 121t-46.5 196.5t46.5 197t123.5 121t167 40q75 0 139.5 -29t106 -80.5t50.5 -116.5h-90q-6 42 -34.5 76t-73.5 53.5t-98 19.5q-74 0 -130 -32.5t-87.5 -96t-31.5 -152.5t31.5 -152.5t87.5 -96t130 -32.5q54 0 99.5 19.5t74 53.5t33.5 76h88
q-7 -65 -48 -116.5t-105.5 -80.5t-141.5 -29q-91 0 -167.5 40.5zM416 795h-92v112h92v-112z" />
    <glyph glyph-name="cdotaccent" unicode="&#x10b;" horiz-adv-x="543" 
d="M150.5 28q-55.5 36 -84.5 95.5t-29 128.5t29 128.5t84.5 95.5t131.5 36q57 0 106.5 -21.5t82.5 -62t40 -94.5h-79q-5 30 -26 54t-53.5 38t-69.5 14q-53 0 -90 -25t-55 -67.5t-18 -95.5t18.5 -95.5t55 -67.5t89.5 -25q57 0 96 26.5t53 72.5h78q-9 -52 -38.5 -90.5
t-78 -59.5t-111.5 -21q-76 0 -131.5 36zM327 599h-92v112h92v-112z" />
    <glyph glyph-name="Ccaron" unicode="&#x10c;" horiz-adv-x="708" 
d="M211.5 32.5q-76.5 40.5 -123 121t-46.5 196.5t46.5 197t123.5 121t167 40q75 0 139.5 -29t106 -80.5t50.5 -116.5h-90q-6 42 -34.5 76t-73.5 53.5t-98 19.5q-74 0 -130 -32.5t-87.5 -96t-31.5 -152.5t31.5 -152.5t87.5 -96t130 -32.5q54 0 99.5 19.5t74 53.5t33.5 76h88
q-7 -65 -48 -116.5t-105.5 -80.5t-141.5 -29q-91 0 -167.5 40.5zM301 896l68 -83l68 83h75l-109 -140h-68l-109 140h75z" />
    <glyph glyph-name="ccaron" unicode="&#x10d;" horiz-adv-x="543" 
d="M150.5 28q-55.5 36 -84.5 95.5t-29 128.5t29 128.5t84.5 95.5t131.5 36q57 0 106.5 -21.5t82.5 -62t40 -94.5h-79q-5 30 -26 54t-53.5 38t-69.5 14q-53 0 -90 -25t-55 -67.5t-18 -95.5t18.5 -95.5t55 -67.5t89.5 -25q57 0 96 26.5t53 72.5h78q-9 -52 -38.5 -90.5
t-78 -59.5t-111.5 -21q-76 0 -131.5 36zM212 700l68 -83l68 83h75l-109 -140h-68l-109 140h75z" />
    <glyph glyph-name="Dcaron" unicode="&#x10e;" horiz-adv-x="671" 
d="M280 700q99 0 178.5 -41.5t125 -120.5t45.5 -188t-45.5 -188t-125 -120.5t-178.5 -41.5h-206v700h206zM408.5 106q59.5 29 95.5 90.5t36 153.5t-36 153.5t-95.5 90.5t-130.5 29h-119v-546h119q71 0 130.5 29zM218 896l68 -83l68 83h75l-109 -140h-68l-109 140h75z" />
    <glyph glyph-name="dcaron" unicode="&#x10f;" horiz-adv-x="672" 
d="M149 26q-55 34 -83.5 93t-28.5 133t28.5 133t83.5 93t131 34q53 0 98.5 -24.5t68.5 -65.5v289h80v-711h-80v83q-23 -41 -68.5 -66t-98.5 -25q-76 0 -131 34zM375 87q38 23 58.5 66t20.5 99t-20.5 99t-58.5 66t-88 23t-88 -23t-59 -66t-21 -99t21 -99t59 -66t88 -23t88 23
zM678 733l-51 -173h-61l33 173h79z" />
    <glyph glyph-name="Dcroat" unicode="&#x110;" horiz-adv-x="751" 
d="M538.5 658.5q79.5 -41.5 125 -120.5t45.5 -188t-45.5 -188t-125 -120.5t-178.5 -41.5h-206v320h-100v65h100v315h206q99 0 178.5 -41.5zM488.5 106q59.5 29 95.5 90.5t36 153.5t-36 153.5t-95.5 90.5t-130.5 29h-119v-238h188v-65h-188v-243h119q71 0 130.5 29z" />
    <glyph glyph-name="dcroat" unicode="&#x111;" horiz-adv-x="597" 
d="M613 577h-86v-577h-80v83q-23 -41 -68.5 -66t-98.5 -25q-76 0 -131 34t-83.5 93t-28.5 133t28.5 133t83.5 93t131 34q53 0 98.5 -24.5t68.5 -65.5v155h-174v62h174v72h80v-72h86v-62zM375 87q38 23 58.5 66t20.5 99t-20.5 99t-58.5 66t-88 23t-88 -23t-59 -66t-21 -99
t21 -99t59 -66t88 -23t88 23z" />
    <glyph glyph-name="Emacron" unicode="&#x112;" 
d="M512 700v-77h-353v-223h287v-77h-287v-246h364v-77h-449v700h438zM426 854v-67h-266v67h266z" />
    <glyph glyph-name="emacron" unicode="&#x113;" horiz-adv-x="554" 
d="M517 162q-8 -51 -39.5 -89.5t-80.5 -59.5t-111 -21q-73 0 -129.5 35.5t-88 95.5t-31.5 132q0 74 29.5 132.5t83.5 91.5t127 33q72 0 125 -30.5t81.5 -84.5t28.5 -121q0 -21 -2 -35h-394q3 -52 25.5 -92.5t60 -63t84.5 -22.5q61 0 99.5 25.5t50.5 73.5h81zM172 408
q-41 -36 -52 -103h310q-3 42 -22.5 73.5t-53 48.5t-77.5 17q-64 0 -105 -36zM410 658v-67h-266v67h266z" />
    <glyph glyph-name="Ebreve" unicode="&#x114;" 
d="M512 700v-77h-353v-223h287v-77h-287v-246h364v-77h-449v700h438zM221.5 775q-32.5 18 -50.5 49.5t-18 71.5h67q0 -34 21 -55t53 -21t53 21.5t21 54.5h66q0 -39 -18.5 -71t-50.5 -50t-71 -18q-40 0 -72.5 18z" />
    <glyph glyph-name="ebreve" unicode="&#x115;" horiz-adv-x="554" 
d="M517 162q-8 -51 -39.5 -89.5t-80.5 -59.5t-111 -21q-73 0 -129.5 35.5t-88 95.5t-31.5 132q0 74 29.5 132.5t83.5 91.5t127 33q72 0 125 -30.5t81.5 -84.5t28.5 -121q0 -21 -2 -35h-394q3 -52 25.5 -92.5t60 -63t84.5 -22.5q61 0 99.5 25.5t50.5 73.5h81zM172 408
q-41 -36 -52 -103h310q-3 42 -22.5 73.5t-53 48.5t-77.5 17q-64 0 -105 -36zM205.5 579q-32.5 18 -50.5 49.5t-18 71.5h67q0 -34 21 -55t53 -21t53 21.5t21 54.5h66q0 -39 -18.5 -71t-50.5 -50t-71 -18q-40 0 -72.5 18z" />
    <glyph glyph-name="Edotaccent" unicode="&#x116;" 
d="M512 700v-77h-353v-223h287v-77h-287v-246h364v-77h-449v700h438zM340 795h-92v112h92v-112z" />
    <glyph glyph-name="edotaccent" unicode="&#x117;" horiz-adv-x="554" 
d="M517 162q-8 -51 -39.5 -89.5t-80.5 -59.5t-111 -21q-73 0 -129.5 35.5t-88 95.5t-31.5 132q0 74 29.5 132.5t83.5 91.5t127 33q72 0 125 -30.5t81.5 -84.5t28.5 -121q0 -21 -2 -35h-394q3 -52 25.5 -92.5t60 -63t84.5 -22.5q61 0 99.5 25.5t50.5 73.5h81zM172 408
q-41 -36 -52 -103h310q-3 42 -22.5 73.5t-53 48.5t-77.5 17q-64 0 -105 -36zM324 599h-92v112h92v-112z" />
    <glyph glyph-name="Eogonek" unicode="&#x118;" 
d="M512 700v-77h-353v-223h287v-77h-287v-246h364v-77h-449v700h438zM534 -166q-22 -10 -51 -10q-41 0 -65 22t-24 58q0 26 16.5 51.5t48.5 44.5h63q-32 -26 -46 -44t-14 -35q0 -15 9 -23.5t25 -8.5q13 0 23.5 6t22.5 19l34 -49q-20 -21 -42 -31z" />
    <glyph glyph-name="eogonek" unicode="&#x119;" horiz-adv-x="554" 
d="M517 162q-8 -51 -39.5 -89.5t-80.5 -59.5t-111 -21q-73 0 -129.5 35.5t-88 95.5t-31.5 132q0 74 29.5 132.5t83.5 91.5t127 33q72 0 125 -30.5t81.5 -84.5t28.5 -121q0 -21 -2 -35h-394q3 -52 25.5 -92.5t60 -63t84.5 -22.5q61 0 99.5 25.5t50.5 73.5h81zM172 408
q-41 -36 -52 -103h310q-3 42 -22.5 73.5t-53 48.5t-77.5 17q-64 0 -105 -36zM362 -166q-22 -10 -51 -10q-41 0 -65 22t-24 58q0 26 16.5 51.5t48.5 44.5h63q-32 -26 -46 -44t-14 -35q0 -15 9 -23.5t25 -8.5q13 0 23.5 6t22.5 19l34 -49q-20 -21 -42 -31z" />
    <glyph glyph-name="Ecaron" unicode="&#x11a;" 
d="M512 700v-77h-353v-223h287v-77h-287v-246h364v-77h-449v700h438zM225 896l68 -83l68 83h75l-109 -140h-68l-109 140h75z" />
    <glyph glyph-name="ecaron" unicode="&#x11b;" horiz-adv-x="554" 
d="M517 162q-8 -51 -39.5 -89.5t-80.5 -59.5t-111 -21q-73 0 -129.5 35.5t-88 95.5t-31.5 132q0 74 29.5 132.5t83.5 91.5t127 33q72 0 125 -30.5t81.5 -84.5t28.5 -121q0 -21 -2 -35h-394q3 -52 25.5 -92.5t60 -63t84.5 -22.5q61 0 99.5 25.5t50.5 73.5h81zM172 408
q-41 -36 -52 -103h310q-3 42 -22.5 73.5t-53 48.5t-77.5 17q-64 0 -105 -36zM209 700l68 -83l68 83h75l-109 -140h-68l-109 140h75z" />
    <glyph glyph-name="Gcircumflex" unicode="&#x11c;" horiz-adv-x="730" 
d="M212 33q-77 41 -123.5 121.5t-46.5 195.5t47 195.5t124 121.5t167 41q79 0 145 -29.5t107 -81.5t49 -118h-90q-8 44 -38 78.5t-75.5 54t-98.5 19.5q-73 0 -129.5 -32.5t-88.5 -96t-32 -152.5q0 -88 32 -152t88.5 -97.5t129.5 -33.5q58 0 107.5 20.5t79.5 58.5t30 87
q0 24 -15 38.5t-40 14.5h-158v74h173q27 0 56 -14t48.5 -41t19.5 -65v-240h-79v122q-16 -38 -49.5 -67.5t-78 -46t-95.5 -16.5q-89 0 -166 41zM511 755h-76l-67 84l-69 -84h-74l109 140h67z" />
    <glyph glyph-name="gcircumflex" unicode="&#x11d;" horiz-adv-x="601" 
d="M531 504v-526q0 -53 -23.5 -94.5t-66 -64.5t-96.5 -23h-238v69h233q32 0 57.5 15t39.5 41.5t14 59.5v89q-18 -35 -64 -56.5t-103 -21.5q-76 0 -131 34t-83.5 93t-28.5 133t28.5 133t83.5 93t131 34q51 0 97.5 -23t69.5 -59v74h80zM379 87q38 23 58.5 66t20.5 99t-20.5 99
t-58.5 66t-88 23q-51 0 -89 -23t-58.5 -66t-20.5 -99t20.5 -99t58.5 -66t89 -23q50 0 88 23zM440 559h-76l-67 84l-69 -84h-74l109 140h67z" />
    <glyph glyph-name="Gbreve" unicode="&#x11e;" horiz-adv-x="730" 
d="M212 33q-77 41 -123.5 121.5t-46.5 195.5t47 195.5t124 121.5t167 41q79 0 145 -29.5t107 -81.5t49 -118h-90q-8 44 -38 78.5t-75.5 54t-98.5 19.5q-73 0 -129.5 -32.5t-88.5 -96t-32 -152.5q0 -88 32 -152t88.5 -97.5t129.5 -33.5q58 0 107.5 20.5t79.5 58.5t30 87
q0 24 -15 38.5t-40 14.5h-158v74h173q27 0 56 -14t48.5 -41t19.5 -65v-240h-79v122q-16 -38 -49.5 -67.5t-78 -46t-95.5 -16.5q-89 0 -166 41zM294.5 775q-32.5 18 -50.5 49.5t-18 71.5h67q0 -34 21 -55t53 -21t53 21.5t21 54.5h66q0 -39 -18.5 -71t-50.5 -50t-71 -18
q-40 0 -72.5 18z" />
    <glyph glyph-name="gbreve" unicode="&#x11f;" horiz-adv-x="601" 
d="M531 504v-526q0 -53 -23.5 -94.5t-66 -64.5t-96.5 -23h-238v69h233q32 0 57.5 15t39.5 41.5t14 59.5v89q-18 -35 -64 -56.5t-103 -21.5q-76 0 -131 34t-83.5 93t-28.5 133t28.5 133t83.5 93t131 34q51 0 97.5 -23t69.5 -59v74h80zM379 87q38 23 58.5 66t20.5 99t-20.5 99
t-58.5 66t-88 23q-51 0 -89 -23t-58.5 -66t-20.5 -99t20.5 -99t58.5 -66t89 -23q50 0 88 23zM223.5 579q-32.5 18 -50.5 49.5t-18 71.5h67q0 -34 21 -55t53 -21t53 21.5t21 54.5h66q0 -39 -18.5 -71t-50.5 -50t-71 -18q-40 0 -72.5 18z" />
    <glyph glyph-name="Gdotaccent" unicode="&#x120;" horiz-adv-x="730" 
d="M212 33q-77 41 -123.5 121.5t-46.5 195.5t47 195.5t124 121.5t167 41q79 0 145 -29.5t107 -81.5t49 -118h-90q-8 44 -38 78.5t-75.5 54t-98.5 19.5q-73 0 -129.5 -32.5t-88.5 -96t-32 -152.5q0 -88 32 -152t88.5 -97.5t129.5 -33.5q58 0 107.5 20.5t79.5 58.5t30 87
q0 24 -15 38.5t-40 14.5h-158v74h173q27 0 56 -14t48.5 -41t19.5 -65v-240h-79v122q-16 -38 -49.5 -67.5t-78 -46t-95.5 -16.5q-89 0 -166 41zM413 795h-92v112h92v-112z" />
    <glyph glyph-name="gdotaccent" unicode="&#x121;" horiz-adv-x="601" 
d="M531 504v-526q0 -53 -23.5 -94.5t-66 -64.5t-96.5 -23h-238v69h233q32 0 57.5 15t39.5 41.5t14 59.5v89q-18 -35 -64 -56.5t-103 -21.5q-76 0 -131 34t-83.5 93t-28.5 133t28.5 133t83.5 93t131 34q51 0 97.5 -23t69.5 -59v74h80zM379 87q38 23 58.5 66t20.5 99t-20.5 99
t-58.5 66t-88 23q-51 0 -89 -23t-58.5 -66t-20.5 -99t20.5 -99t58.5 -66t89 -23q50 0 88 23zM342 599h-92v112h92v-112z" />
    <glyph glyph-name="uni0122" unicode="&#x122;" horiz-adv-x="730" 
d="M212 33q-77 41 -123.5 121.5t-46.5 195.5t47 195.5t124 121.5t167 41q79 0 145 -29.5t107 -81.5t49 -118h-90q-8 44 -38 78.5t-75.5 54t-98.5 19.5q-73 0 -129.5 -32.5t-88.5 -96t-32 -152.5q0 -88 32 -152t88.5 -97.5t129.5 -33.5q58 0 107.5 20.5t79.5 58.5t30 87
q0 24 -15 38.5t-40 14.5h-158v74h173q27 0 56 -14t48.5 -41t19.5 -65v-240h-79v122q-16 -38 -49.5 -67.5t-78 -46t-95.5 -16.5q-89 0 -166 41zM420 -68l-74 -149h-71l55 149h90z" />
    <glyph glyph-name="uni0123" unicode="&#x123;" horiz-adv-x="601" 
d="M531 504v-526q0 -53 -23.5 -94.5t-66 -64.5t-96.5 -23h-238v69h233q32 0 57.5 15t39.5 41.5t14 59.5v89q-18 -35 -64 -56.5t-103 -21.5q-76 0 -131 34t-83.5 93t-28.5 133t28.5 133t83.5 93t131 34q51 0 97.5 -23t69.5 -59v74h80zM379 87q38 23 58.5 66t20.5 99t-20.5 99
t-58.5 66t-88 23q-51 0 -89 -23t-58.5 -66t-20.5 -99t20.5 -99t58.5 -66t89 -23q50 0 88 23zM266 562l58 150h58l-30 -150h-86z" />
    <glyph glyph-name="Hcircumflex" unicode="&#x124;" horiz-adv-x="689" 
d="M615 700v-700h-85v323h-371v-323h-85v700h85v-300h371v300h85zM489 755h-76l-67 84l-69 -84h-74l109 140h67z" />
    <glyph glyph-name="hcircumflex" unicode="&#x125;" horiz-adv-x="570" 
d="M150 711v-304q19 51 63 78t103 27q56 0 99 -25.5t66 -71.5t23 -107v-308h-80v295q0 43 -15.5 75.5t-44 50.5t-66.5 18q-43 0 -76.5 -21.5t-52.5 -59.5t-19 -86v-272h-80v711h80zM254 755h-76l-67 84l-69 -84h-74l109 140h67z" />
    <glyph glyph-name="Hbar" unicode="&#x126;" horiz-adv-x="689" 
d="M684 559h-69v-559h-85v323h-371v-323h-85v559h-70v69h70v72h85v-72h371v72h85v-72h69v-69zM530 559h-371v-159h371v159z" />
    <glyph glyph-name="hbar" unicode="&#x127;" horiz-adv-x="570" 
d="M415 486.5q43 -25.5 66 -71.5t23 -107v-308h-80v295q0 43 -15.5 75.5t-44 50.5t-66.5 18q-43 0 -76.5 -21.5t-52.5 -59.5t-19 -86v-272h-80v577h-86v62h86v72h80v-72h174v-62h-174v-170q19 51 63 78t103 27q56 0 99 -25.5z" />
    <glyph glyph-name="Itilde" unicode="&#x128;" horiz-adv-x="233" 
d="M159 700v-700h-85v700h85zM140 788q-16 6 -36 18q-11 6 -22.5 11t-21.5 5q-15 0 -25.5 -9.5t-13.5 -25.5h-62q2 30 15 53t33.5 36t45.5 13q22 0 37.5 -6t37.5 -18q2 -1 11 -6q10 -5 17.5 -7.5t14.5 -2.5q15 0 25.5 9.5t14.5 25.5h61q-3 -46 -29 -74t-65 -28q-22 0 -38 6z
" />
    <glyph glyph-name="itilde" unicode="&#x129;" horiz-adv-x="212" 
d="M146 504v-504h-80v504h80zM130 592q-16 6 -36 18q-11 6 -22.5 11t-21.5 5q-15 0 -25.5 -9.5t-13.5 -25.5h-62q2 30 15 53t33.5 36t45.5 13q22 0 37.5 -6t37.5 -18q2 -1 11 -6q10 -5 17.5 -7.5t14.5 -2.5q15 0 25.5 9.5t14.5 25.5h61q-3 -46 -29 -74t-65 -28q-22 0 -38 6z
" />
    <glyph glyph-name="Imacron" unicode="&#x12a;" horiz-adv-x="233" 
d="M159 700v-700h-85v700h85zM248 854v-67h-266v67h266z" />
    <glyph glyph-name="imacron" unicode="&#x12b;" horiz-adv-x="212" 
d="M146 504v-504h-80v504h80zM238 658v-67h-266v67h266z" />
    <glyph glyph-name="Ibreve" unicode="&#x12c;" horiz-adv-x="233" 
d="M159 700v-700h-85v700h85zM43.5 775q-32.5 18 -50.5 49.5t-18 71.5h67q0 -34 21 -55t53 -21t53 21.5t21 54.5h66q0 -39 -18.5 -71t-50.5 -50t-71 -18q-40 0 -72.5 18z" />
    <glyph glyph-name="ibreve" unicode="&#x12d;" horiz-adv-x="212" 
d="M146 504v-504h-80v504h80zM33.5 579q-32.5 18 -50.5 49.5t-18 71.5h67q0 -34 21 -55t53 -21t53 21.5t21 54.5h66q0 -39 -18.5 -71t-50.5 -50t-71 -18q-40 0 -72.5 18z" />
    <glyph glyph-name="Iogonek" unicode="&#x12e;" horiz-adv-x="233" 
d="M159 700v-700h-85v700h85zM167 -166q-22 -10 -51 -10q-41 0 -65 22t-24 58q0 26 16.5 51.5t48.5 44.5h63q-32 -26 -46 -44t-14 -35q0 -15 9 -23.5t25 -8.5q13 0 23.5 6t22.5 19l34 -49q-20 -21 -42 -31z" />
    <glyph glyph-name="iogonek" unicode="&#x12f;" horiz-adv-x="212" 
d="M146 504v-504h-80v504h80zM152 599h-92v112h92v-112zM158 -166q-22 -10 -51 -10q-41 0 -65 22t-24 58q0 26 16.5 51.5t48.5 44.5h63q-32 -26 -46 -44t-14 -35q0 -15 9 -23.5t25 -8.5q13 0 23.5 6t22.5 19l34 -49q-20 -21 -42 -31z" />
    <glyph glyph-name="Idotaccent" unicode="&#x130;" horiz-adv-x="233" 
d="M159 700v-700h-85v700h85zM162 795h-92v112h92v-112z" />
    <glyph glyph-name="dotlessi" unicode="&#x131;" horiz-adv-x="212" 
d="M146 504v-504h-80v504h80z" />
    <glyph glyph-name="IJ" unicode="&#x132;" horiz-adv-x="548" 
d="M159 700v-700h-85v700h85zM388 103q17 26 17 76v521h85v-523q0 -87 -37.5 -132t-108.5 -45h-93v77h87q33 0 50 26z" />
    <glyph glyph-name="ij" unicode="&#x133;" horiz-adv-x="424" 
d="M146 504v-504h-80v504h80zM152 599h-92v112h92v-112zM358 504v-543q0 -55 -13.5 -91t-45.5 -55t-86 -19h-46v69h41q32 0 46.5 10.5t19 30.5t4.5 58v540h80zM363 599h-92v112h92v-112z" />
    <glyph glyph-name="Jcircumflex" unicode="&#x134;" horiz-adv-x="316" 
d="M155 103q17 26 17 76v521h85v-523q0 -87 -37.5 -132t-108.5 -45h-93v77h87q33 0 50 26zM359 755h-76l-67 84l-69 -84h-74l109 140h67z" />
    <glyph glyph-name="jcircumflex" unicode="&#x135;" horiz-adv-x="212" 
d="M146 504v-543q0 -55 -13.5 -91t-45.5 -55t-86 -19h-46v69h41q32 0 46.5 10.5t19 30.5t4.5 58v540h80zM250 559h-76l-67 84l-69 -84h-74l109 140h67z" />
    <glyph glyph-name="uni0136" unicode="&#x136;" horiz-adv-x="635" 
d="M263 358l-103 -106v-252h-86v700h86v-333l325 333h108l-272 -282l303 -418h-103zM351 -68l-74 -149h-71l55 149h90z" />
    <glyph glyph-name="uni0137" unicode="&#x137;" horiz-adv-x="525" 
d="M217 252l-66 -60v-192h-81v711h81v-420l237 213h106l-216 -197l236 -307h-101zM299 -68l-74 -149h-71l55 149h90z" />
    <glyph glyph-name="kgreenlandic" unicode="&#x138;" horiz-adv-x="525" 
d="M217 252l-66 -60v-192h-81v504h81v-211l241 211h102l-216 -197l236 -307h-101z" />
    <glyph glyph-name="Lacute" unicode="&#x139;" horiz-adv-x="523" 
d="M159 700v-623h350v-77h-435v700h85zM272 903l-104 -148h-76l87 148h93z" />
    <glyph glyph-name="lacute" unicode="&#x13a;" horiz-adv-x="220" 
d="M150 711v-711h-80v711h80zM249 903l-104 -148h-76l87 148h93z" />
    <glyph glyph-name="uni013B" unicode="&#x13b;" horiz-adv-x="523" 
d="M159 700v-623h350v-77h-435v700h85zM369 -68l-74 -149h-71l55 149h90z" />
    <glyph glyph-name="uni013C" unicode="&#x13c;" horiz-adv-x="220" 
d="M150 711v-711h-80v711h80zM160 -68l-74 -149h-71l55 149h90z" />
    <glyph glyph-name="Lcaron" unicode="&#x13d;" horiz-adv-x="523" 
d="M159 700v-623h350v-77h-435v700h85zM411 733l-51 -173h-61l33 173h79z" />
    <glyph glyph-name="lcaron" unicode="&#x13e;" horiz-adv-x="294" 
d="M140 711v-711h-80v711h80zM278 733l-51 -173h-61l33 173h79z" />
    <glyph glyph-name="Ldot" unicode="&#x13f;" horiz-adv-x="523" 
d="M159 700v-623h350v-77h-435v700h85zM408 294h-92v112h92v-112z" />
    <glyph glyph-name="ldot" unicode="&#x140;" horiz-adv-x="340" 
d="M150 711v-711h-80v711h80zM294 290h-92v112h92v-112z" />
    <glyph glyph-name="Lslash" unicode="&#x141;" horiz-adv-x="523" 
d="M509 77v-77h-435v311l-75 -19v64l75 19v325h85v-303l80 20v-64l-80 -20v-256h350z" />
    <glyph glyph-name="lslash" unicode="&#x142;" horiz-adv-x="220" 
d="M229 344l-79 -20v-324h-80v303l-80 -20v63l80 20v345h80v-324l79 20v-63z" />
    <glyph glyph-name="Nacute" unicode="&#x143;" horiz-adv-x="691" 
d="M171 700l361 -570v570h85v-700h-98l-360 568v-568h-85v700h97zM489 903l-104 -148h-76l87 148h93z" />
    <glyph glyph-name="nacute" unicode="&#x144;" 
d="M146 504v-97q19 51 63 78t103 27q56 0 99 -25.5t66 -71.5t23 -107v-308h-80v295q0 43 -15.5 75.5t-44 50.5t-66.5 18q-43 0 -76.5 -21.5t-52.5 -59.5t-19 -86v-272h-80v504h80zM423 707l-104 -148h-76l87 148h93z" />
    <glyph glyph-name="uni0145" unicode="&#x145;" horiz-adv-x="691" 
d="M171 700l361 -570v570h85v-700h-98l-360 568v-568h-85v700h97zM399 -68l-74 -149h-71l55 149h90z" />
    <glyph glyph-name="uni0146" unicode="&#x146;" 
d="M146 504v-97q19 51 63 78t103 27q56 0 99 -25.5t66 -71.5t23 -107v-308h-80v295q0 43 -15.5 75.5t-44 50.5t-66.5 18q-43 0 -76.5 -21.5t-52.5 -59.5t-19 -86v-272h-80v504h80zM334 -68l-74 -149h-71l55 149h90z" />
    <glyph glyph-name="Ncaron" unicode="&#x147;" horiz-adv-x="691" 
d="M171 700l361 -570v570h85v-700h-98l-360 568v-568h-85v700h97zM278 896l68 -83l68 83h75l-109 -140h-68l-109 140h75z" />
    <glyph glyph-name="ncaron" unicode="&#x148;" 
d="M146 504v-97q19 51 63 78t103 27q56 0 99 -25.5t66 -71.5t23 -107v-308h-80v295q0 43 -15.5 75.5t-44 50.5t-66.5 18q-43 0 -76.5 -21.5t-52.5 -59.5t-19 -86v-272h-80v504h80zM212 700l68 -83l68 83h75l-109 -140h-68l-109 140h75z" />
    <glyph glyph-name="napostrophe" unicode="&#x149;" horiz-adv-x="568" 
d="M146 504v-97q19 51 63 78t103 27q56 0 99 -25.5t66 -71.5t23 -107v-308h-80v295q0 43 -15.5 75.5t-44 50.5t-66.5 18q-43 0 -76.5 -21.5t-52.5 -59.5t-19 -86v-272h-80v504h80zM182 733l-51 -173h-61l33 173h79z" />
    <glyph glyph-name="Eng" unicode="&#x14a;" horiz-adv-x="691" 
d="M617 700v-727q0 -87 -37.5 -132t-108.5 -45h-92v77h86q67 0 67 102v8l-373 581v-564h-85v700h97l361 -565v565h85z" />
    <glyph glyph-name="eng" unicode="&#x14b;" horiz-adv-x="569" 
d="M411 486.5q43 -25.5 66 -71.5t23 -107v-361q0 -48 -21 -85t-58 -56q-31 -15 -70 -15q-8 0 -17 1v74q86 -7 86 94v335q0 43 -15.5 75.5t-44 50.5t-66.5 18q-43 0 -76.5 -21.5t-52.5 -59.5t-19 -86v-272h-80v504h80v-97q19 51 63 78t103 27q56 0 99 -25.5z" />
    <glyph glyph-name="Omacron" unicode="&#x14c;" horiz-adv-x="770" 
d="M209.5 38.5q-78.5 46.5 -123 128t-44.5 183.5t44.5 183.5t123 128t175.5 46.5t175.5 -46.5t123.5 -128t45 -183.5t-45 -183.5t-123.5 -128t-175.5 -46.5t-175.5 46.5zM515.5 105.5q58.5 36.5 92 101t33.5 143.5t-33.5 143.5t-92 101t-130.5 36.5t-130.5 -36.5t-91.5 -101
t-33 -143.5t33 -143.5t91.5 -101t130.5 -36.5t130.5 36.5zM518 854v-67h-266v67h266z" />
    <glyph glyph-name="omacron" unicode="&#x14d;" horiz-adv-x="587" 
d="M161 25.5q-58 33.5 -91 92.5t-33 134t33 134t91 92.5t132 33.5t132.5 -33.5t91.5 -92.5t33 -134t-33 -134t-91.5 -92.5t-132.5 -33.5t-132 33.5zM384 88q40 24 62 67t22 97t-22 97t-62 67t-91 24t-90.5 -24t-61.5 -67t-22 -97t22 -97t61.5 -67t90.5 -24t91 24zM426 658
v-67h-266v67h266z" />
    <glyph glyph-name="Obreve" unicode="&#x14e;" horiz-adv-x="770" 
d="M209.5 38.5q-78.5 46.5 -123 128t-44.5 183.5t44.5 183.5t123 128t175.5 46.5t175.5 -46.5t123.5 -128t45 -183.5t-45 -183.5t-123.5 -128t-175.5 -46.5t-175.5 46.5zM515.5 105.5q58.5 36.5 92 101t33.5 143.5t-33.5 143.5t-92 101t-130.5 36.5t-130.5 -36.5t-91.5 -101
t-33 -143.5t33 -143.5t91.5 -101t130.5 -36.5t130.5 36.5zM313.5 775q-32.5 18 -50.5 49.5t-18 71.5h67q0 -34 21 -55t53 -21t53 21.5t21 54.5h66q0 -39 -18.5 -71t-50.5 -50t-71 -18q-40 0 -72.5 18z" />
    <glyph glyph-name="obreve" unicode="&#x14f;" horiz-adv-x="587" 
d="M161 25.5q-58 33.5 -91 92.5t-33 134t33 134t91 92.5t132 33.5t132.5 -33.5t91.5 -92.5t33 -134t-33 -134t-91.5 -92.5t-132.5 -33.5t-132 33.5zM384 88q40 24 62 67t22 97t-22 97t-62 67t-91 24t-90.5 -24t-61.5 -67t-22 -97t22 -97t61.5 -67t90.5 -24t91 24zM221.5 579
q-32.5 18 -50.5 49.5t-18 71.5h67q0 -34 21 -55t53 -21t53 21.5t21 54.5h66q0 -39 -18.5 -71t-50.5 -50t-71 -18q-40 0 -72.5 18z" />
    <glyph glyph-name="Ohungarumlaut" unicode="&#x150;" horiz-adv-x="770" 
d="M209.5 38.5q-78.5 46.5 -123 128t-44.5 183.5t44.5 183.5t123 128t175.5 46.5t175.5 -46.5t123.5 -128t45 -183.5t-45 -183.5t-123.5 -128t-175.5 -46.5t-175.5 46.5zM515.5 105.5q58.5 36.5 92 101t33.5 143.5t-33.5 143.5t-92 101t-130.5 36.5t-130.5 -36.5t-91.5 -101
t-33 -143.5t33 -143.5t91.5 -101t130.5 -36.5t130.5 36.5zM460 903l-104 -148h-76l87 148h93zM595 903l-104 -148h-76l87 148h93z" />
    <glyph glyph-name="ohungarumlaut" unicode="&#x151;" horiz-adv-x="587" 
d="M161 25.5q-58 33.5 -91 92.5t-33 134t33 134t91 92.5t132 33.5t132.5 -33.5t91.5 -92.5t33 -134t-33 -134t-91.5 -92.5t-132.5 -33.5t-132 33.5zM384 88q40 24 62 67t22 97t-22 97t-62 67t-91 24t-90.5 -24t-61.5 -67t-22 -97t22 -97t61.5 -67t90.5 -24t91 24zM368 707
l-104 -148h-76l87 148h93zM503 707l-104 -148h-76l87 148h93z" />
    <glyph glyph-name="OE" unicode="&#x152;" horiz-adv-x="1004" 
d="M961 77v-77h-570q-99 0 -178.5 41.5t-125 120.5t-45.5 188t45.5 188t125 120.5t178.5 41.5h559v-77h-352v-223h287v-77h-287v-246h363zM512 623h-119q-71 0 -130.5 -29t-95.5 -90.5t-36 -153.5t36 -153.5t95.5 -90.5t130.5 -29h119v546z" />
    <glyph glyph-name="oe" unicode="&#x153;" horiz-adv-x="1000" 
d="M161 25.5q-58 33.5 -91 92.5t-33 134t33 134t91 92.5t132 33.5t132.5 -33.5t91.5 -92.5t33 -134t-33 -134t-91.5 -92.5t-132.5 -33.5t-132 33.5zM384 88q40 24 62 67t22 97t-22 97t-62 67t-91 24t-90.5 -24t-61.5 -67t-22 -97t22 -97t61.5 -67t90.5 -24t91 24zM958 162
q-8 -51 -39.5 -89.5t-80.5 -59.5t-111 -21q-73 0 -129.5 35.5t-88 95.5t-31.5 132q0 74 29.5 132.5t83.5 91.5t127 33q72 0 125 -30.5t81.5 -84.5t28.5 -121q0 -21 -2 -35h-394q3 -52 25.5 -92.5t60 -63t84.5 -22.5q61 0 99.5 25.5t50.5 73.5h81zM613 408q-41 -36 -52 -103
h310q-3 42 -22.5 73.5t-53 48.5t-77.5 17q-64 0 -105 -36z" />
    <glyph glyph-name="Racute" unicode="&#x154;" horiz-adv-x="646" 
d="M517 268.5q24 -41.5 28 -94.5l12 -174h-82l-12 169q-2 34 -16.5 60.5t-40 41t-57.5 14.5h-190v-285h-85v700h265q68 0 118.5 -25.5t77.5 -72t27 -107.5q0 -56 -29.5 -97.5t-80.5 -65.5q41 -22 65 -63.5zM159 362h180q47 0 77 18t44 48t14 67q0 57 -33 93t-102 36h-180
v-262zM436 903l-104 -148h-76l87 148h93z" />
    <glyph glyph-name="racute" unicode="&#x155;" horiz-adv-x="366" 
d="M175.5 377q-29.5 -56 -29.5 -155v-222h-80v504h80v-102q16 52 49 77t88 25h64v-71h-70q-72 0 -101.5 -56zM352 707l-104 -148h-76l87 148h93z" />
    <glyph glyph-name="uni0156" unicode="&#x156;" horiz-adv-x="646" 
d="M517 268.5q24 -41.5 28 -94.5l12 -174h-82l-12 169q-2 34 -16.5 60.5t-40 41t-57.5 14.5h-190v-285h-85v700h265q68 0 118.5 -25.5t77.5 -72t27 -107.5q0 -56 -29.5 -97.5t-80.5 -65.5q41 -22 65 -63.5zM159 362h180q47 0 77 18t44 48t14 67q0 57 -33 93t-102 36h-180
v-262zM366 -68l-74 -149h-71l55 149h90z" />
    <glyph glyph-name="uni0157" unicode="&#x157;" horiz-adv-x="366" 
d="M175.5 377q-29.5 -56 -29.5 -155v-222h-80v504h80v-102q16 52 49 77t88 25h64v-71h-70q-72 0 -101.5 -56zM158 -68l-74 -149h-71l55 149h90z" />
    <glyph glyph-name="Rcaron" unicode="&#x158;" horiz-adv-x="646" 
d="M517 268.5q24 -41.5 28 -94.5l12 -174h-82l-12 169q-2 34 -16.5 60.5t-40 41t-57.5 14.5h-190v-285h-85v700h265q68 0 118.5 -25.5t77.5 -72t27 -107.5q0 -56 -29.5 -97.5t-80.5 -65.5q41 -22 65 -63.5zM159 362h180q47 0 77 18t44 48t14 67q0 57 -33 93t-102 36h-180
v-262zM225 896l68 -83l68 83h75l-109 -140h-68l-109 140h75z" />
    <glyph glyph-name="rcaron" unicode="&#x159;" horiz-adv-x="366" 
d="M175.5 377q-29.5 -56 -29.5 -155v-222h-80v504h80v-102q16 52 49 77t88 25h64v-71h-70q-72 0 -101.5 -56zM141 700l68 -83l68 83h75l-109 -140h-68l-109 140h75z" />
    <glyph glyph-name="Sacute" unicode="&#x15a;" horiz-adv-x="594" 
d="M165 21.5q-59 29.5 -92.5 83t-37.5 124.5h84q7 -74 54.5 -117t127.5 -43q76 0 121.5 30.5t45.5 91.5q0 39 -23.5 63.5t-58.5 38t-97 30.5q-75 21 -120.5 40.5t-77.5 57.5t-32 101q0 55 30 97t84 65.5t123 23.5t123.5 -25.5t86.5 -72.5t37 -109h-84q-4 39 -25 68.5
t-56.5 45.5t-81.5 16q-71 0 -111 -29t-40 -80q0 -38 23 -61.5t58 -36.5t95 -28q76 -20 123 -39t80 -59t33 -107q0 -62 -33 -107t-91 -68.5t-132 -23.5q-77 0 -136 29.5zM437 903l-104 -148h-76l87 148h93z" />
    <glyph glyph-name="sacute" unicode="&#x15b;" horiz-adv-x="470" 
d="M139 12.5q-44 20.5 -69.5 59t-29.5 90.5h77q5 -49 37 -74.5t87 -25.5q31 0 55 10.5t37 27.5t13 38q0 32 -16.5 49t-41 24.5t-68.5 14.5q-53 8 -86.5 19t-57 41t-23.5 85q0 42 22.5 74t62.5 49.5t93 17.5q55 0 97.5 -19t67 -54t27.5 -81h-78q-3 30 -21.5 49.5t-44 28
t-50.5 8.5q-44 0 -71 -19.5t-27 -52.5q0 -28 15.5 -43t39 -21t64.5 -12q56 -8 91 -19.5t60 -43.5t25 -93q0 -44 -23 -78t-65 -52t-97 -18q-58 0 -102 20.5zM372 707l-104 -148h-76l87 148h93z" />
    <glyph glyph-name="Scircumflex" unicode="&#x15c;" horiz-adv-x="594" 
d="M165 21.5q-59 29.5 -92.5 83t-37.5 124.5h84q7 -74 54.5 -117t127.5 -43q76 0 121.5 30.5t45.5 91.5q0 39 -23.5 63.5t-58.5 38t-97 30.5q-75 21 -120.5 40.5t-77.5 57.5t-32 101q0 55 30 97t84 65.5t123 23.5t123.5 -25.5t86.5 -72.5t37 -109h-84q-4 39 -25 68.5
t-56.5 45.5t-81.5 16q-71 0 -111 -29t-40 -80q0 -38 23 -61.5t58 -36.5t95 -28q76 -20 123 -39t80 -59t33 -107q0 -62 -33 -107t-91 -68.5t-132 -23.5q-77 0 -136 29.5zM439 755h-76l-67 84l-69 -84h-74l109 140h67z" />
    <glyph glyph-name="scircumflex" unicode="&#x15d;" horiz-adv-x="470" 
d="M139 12.5q-44 20.5 -69.5 59t-29.5 90.5h77q5 -49 37 -74.5t87 -25.5q31 0 55 10.5t37 27.5t13 38q0 32 -16.5 49t-41 24.5t-68.5 14.5q-53 8 -86.5 19t-57 41t-23.5 85q0 42 22.5 74t62.5 49.5t93 17.5q55 0 97.5 -19t67 -54t27.5 -81h-78q-3 30 -21.5 49.5t-44 28
t-50.5 8.5q-44 0 -71 -19.5t-27 -52.5q0 -28 15.5 -43t39 -21t64.5 -12q56 -8 91 -19.5t60 -43.5t25 -93q0 -44 -23 -78t-65 -52t-97 -18q-58 0 -102 20.5zM374 559h-76l-67 84l-69 -84h-74l109 140h67z" />
    <glyph glyph-name="Scedilla" unicode="&#x15e;" horiz-adv-x="594" 
d="M165 21.5q-59 29.5 -92.5 83t-37.5 124.5h84q7 -74 54.5 -117t127.5 -43q76 0 121.5 30.5t45.5 91.5q0 39 -23.5 63.5t-58.5 38t-97 30.5q-75 21 -120.5 40.5t-77.5 57.5t-32 101q0 55 30 97t84 65.5t123 23.5t123.5 -25.5t86.5 -72.5t37 -109h-84q-4 39 -25 68.5
t-56.5 45.5t-81.5 16q-71 0 -111 -29t-40 -80q0 -38 23 -61.5t58 -36.5t95 -28q76 -20 123 -39t80 -59t33 -107q0 -62 -33 -107t-91 -68.5t-132 -23.5q-77 0 -136 29.5zM319 17l-34 -77q6 1 17 1q30 0 54 -11.5t37 -31t13 -41.5q0 -26 -17 -46.5t-46.5 -32t-66.5 -11.5
q-29 0 -75 14v50q25 -9 43 -12t33 -3q29 0 48 11.5t19 28.5q0 19 -17.5 30t-43.5 11q-20 0 -35 -5l-28 20l45 105h54z" />
    <glyph glyph-name="scedilla" unicode="&#x15f;" horiz-adv-x="470" 
d="M139 12.5q-44 20.5 -69.5 59t-29.5 90.5h77q5 -49 37 -74.5t87 -25.5q31 0 55 10.5t37 27.5t13 38q0 32 -16.5 49t-41 24.5t-68.5 14.5q-53 8 -86.5 19t-57 41t-23.5 85q0 42 22.5 74t62.5 49.5t93 17.5q55 0 97.5 -19t67 -54t27.5 -81h-78q-3 30 -21.5 49.5t-44 28
t-50.5 8.5q-44 0 -71 -19.5t-27 -52.5q0 -28 15.5 -43t39 -21t64.5 -12q56 -8 91 -19.5t60 -43.5t25 -93q0 -44 -23 -78t-65 -52t-97 -18q-58 0 -102 20.5zM256 17l-34 -77q6 1 17 1q30 0 54 -11.5t37 -31t13 -41.5q0 -26 -17 -46.5t-46.5 -32t-66.5 -11.5q-29 0 -75 14v50
q25 -9 43 -12t33 -3q29 0 48 11.5t19 28.5q0 19 -17.5 30t-43.5 11q-20 0 -35 -5l-28 20l45 105h54z" />
    <glyph glyph-name="Scaron" unicode="&#x160;" horiz-adv-x="594" 
d="M165 21.5q-59 29.5 -92.5 83t-37.5 124.5h84q7 -74 54.5 -117t127.5 -43q76 0 121.5 30.5t45.5 91.5q0 39 -23.5 63.5t-58.5 38t-97 30.5q-75 21 -120.5 40.5t-77.5 57.5t-32 101q0 55 30 97t84 65.5t123 23.5t123.5 -25.5t86.5 -72.5t37 -109h-84q-4 39 -25 68.5
t-56.5 45.5t-81.5 16q-71 0 -111 -29t-40 -80q0 -38 23 -61.5t58 -36.5t95 -28q76 -20 123 -39t80 -59t33 -107q0 -62 -33 -107t-91 -68.5t-132 -23.5q-77 0 -136 29.5zM226 896l68 -83l68 83h75l-109 -140h-68l-109 140h75z" />
    <glyph glyph-name="scaron" unicode="&#x161;" horiz-adv-x="470" 
d="M139 12.5q-44 20.5 -69.5 59t-29.5 90.5h77q5 -49 37 -74.5t87 -25.5q31 0 55 10.5t37 27.5t13 38q0 32 -16.5 49t-41 24.5t-68.5 14.5q-53 8 -86.5 19t-57 41t-23.5 85q0 42 22.5 74t62.5 49.5t93 17.5q55 0 97.5 -19t67 -54t27.5 -81h-78q-3 30 -21.5 49.5t-44 28
t-50.5 8.5q-44 0 -71 -19.5t-27 -52.5q0 -28 15.5 -43t39 -21t64.5 -12q56 -8 91 -19.5t60 -43.5t25 -93q0 -44 -23 -78t-65 -52t-97 -18q-58 0 -102 20.5zM161 700l68 -83l68 83h75l-109 -140h-68l-109 140h75z" />
    <glyph glyph-name="uni0162" unicode="&#x162;" horiz-adv-x="557" 
d="M12 623v77h533v-77h-223v-623h-86v623h-224zM297 17l-34 -77q6 1 17 1q30 0 54 -11.5t37 -31t13 -41.5q0 -26 -17 -46.5t-46.5 -32t-66.5 -11.5q-29 0 -75 14v50q25 -9 43 -12t33 -3q29 0 48 11.5t19 28.5q0 19 -17.5 30t-43.5 11q-20 0 -35 -5l-28 20l45 105h54z" />
    <glyph glyph-name="uni0163" unicode="&#x163;" horiz-adv-x="377" 
d="M201 504h155v-71h-155v-273q0 -42 22 -65.5t59 -23.5h74v-71h-77q-48 0 -83.5 19t-55 55t-19.5 84v275h-105v71h105v161h80v-161zM232 17l-34 -77q6 1 17 1q30 0 54 -11.5t37 -31t13 -41.5q0 -26 -17 -46.5t-46.5 -32t-66.5 -11.5q-29 0 -75 14v50q25 -9 43 -12t33 -3
q29 0 48 11.5t19 28.5q0 19 -17.5 30t-43.5 11q-20 0 -35 -5l-28 20l45 105h54z" />
    <glyph glyph-name="Tcaron" unicode="&#x164;" horiz-adv-x="557" 
d="M12 623v77h533v-77h-223v-623h-86v623h-224zM210 896l68 -83l68 83h75l-109 -140h-68l-109 140h75z" />
    <glyph glyph-name="tcaron" unicode="&#x165;" horiz-adv-x="377" 
d="M201 504h155v-71h-155v-273q0 -42 22 -65.5t59 -23.5h74v-71h-77q-48 0 -83.5 19t-55 55t-19.5 84v275h-105v71h105v161h80v-161zM390 733l-51 -173h-61l33 173h79z" />
    <glyph glyph-name="Tbar" unicode="&#x166;" horiz-adv-x="557" 
d="M322 623v-240h142v-65h-142v-318h-86v318h-144v65h144v240h-224v77h533v-77h-223z" />
    <glyph glyph-name="tbar" unicode="&#x167;" horiz-adv-x="377" 
d="M201 433v-150h153v-61h-153v-62q0 -42 22 -65.5t59 -23.5h74v-71h-77q-48 0 -83.5 19t-55 55t-19.5 84v64h-107v61h107v150h-105v71h105v161h80v-161h155v-71h-155z" />
    <glyph glyph-name="Utilde" unicode="&#x168;" horiz-adv-x="652" 
d="M187 22q-60 30 -92.5 86t-32.5 132v460h84v-464q0 -51 22.5 -88.5t63 -58t94.5 -20.5t95 20.5t63.5 58t22.5 88.5v464h83v-460q0 -76 -32.5 -132t-92.5 -86t-139 -30t-139 30zM350 788q-16 6 -36 18q-11 6 -22.5 11t-21.5 5q-15 0 -25.5 -9.5t-13.5 -25.5h-62q2 30 15 53
t33.5 36t45.5 13q22 0 37.5 -6t37.5 -18q2 -1 11 -6q10 -5 17.5 -7.5t14.5 -2.5q15 0 25.5 9.5t14.5 25.5h61q-3 -46 -29 -74t-65 -28q-22 0 -38 6z" />
    <glyph glyph-name="utilde" unicode="&#x169;" 
d="M420 97q-19 -52 -62.5 -78.5t-103.5 -26.5q-56 0 -99 25.5t-66 71.5t-23 107v308h80v-295q0 -43 15.5 -75.5t44 -50.5t66.5 -18q43 0 76.5 21.5t52.5 59.5t19 86v272h80v-504h-80v97zM306 592q-16 6 -36 18q-11 6 -22.5 11t-21.5 5q-15 0 -25.5 -9.5t-13.5 -25.5h-62
q2 30 15 53t33.5 36t45.5 13q22 0 37.5 -6t37.5 -18q2 -1 11 -6q10 -5 17.5 -7.5t14.5 -2.5q15 0 25.5 9.5t14.5 25.5h61q-3 -46 -29 -74t-65 -28q-22 0 -38 6z" />
    <glyph glyph-name="Umacron" unicode="&#x16a;" horiz-adv-x="652" 
d="M187 22q-60 30 -92.5 86t-32.5 132v460h84v-464q0 -51 22.5 -88.5t63 -58t94.5 -20.5t95 20.5t63.5 58t22.5 88.5v464h83v-460q0 -76 -32.5 -132t-92.5 -86t-139 -30t-139 30zM459 854v-67h-266v67h266z" />
    <glyph glyph-name="umacron" unicode="&#x16b;" 
d="M420 97q-19 -52 -62.5 -78.5t-103.5 -26.5q-56 0 -99 25.5t-66 71.5t-23 107v308h80v-295q0 -43 15.5 -75.5t44 -50.5t66.5 -18q43 0 76.5 21.5t52.5 59.5t19 86v272h80v-504h-80v97zM415 658v-67h-266v67h266z" />
    <glyph glyph-name="Ubreve" unicode="&#x16c;" horiz-adv-x="652" 
d="M187 22q-60 30 -92.5 86t-32.5 132v460h84v-464q0 -51 22.5 -88.5t63 -58t94.5 -20.5t95 20.5t63.5 58t22.5 88.5v464h83v-460q0 -76 -32.5 -132t-92.5 -86t-139 -30t-139 30zM254.5 775q-32.5 18 -50.5 49.5t-18 71.5h67q0 -34 21 -55t53 -21t53 21.5t21 54.5h66
q0 -39 -18.5 -71t-50.5 -50t-71 -18q-40 0 -72.5 18z" />
    <glyph glyph-name="ubreve" unicode="&#x16d;" 
d="M420 97q-19 -52 -62.5 -78.5t-103.5 -26.5q-56 0 -99 25.5t-66 71.5t-23 107v308h80v-295q0 -43 15.5 -75.5t44 -50.5t66.5 -18q43 0 76.5 21.5t52.5 59.5t19 86v272h80v-504h-80v97zM210.5 579q-32.5 18 -50.5 49.5t-18 71.5h67q0 -34 21 -55t53 -21t53 21.5t21 54.5h66
q0 -39 -18.5 -71t-50.5 -50t-71 -18q-40 0 -72.5 18z" />
    <glyph glyph-name="Uring" unicode="&#x16e;" horiz-adv-x="652" 
d="M187 22q-60 30 -92.5 86t-32.5 132v460h84v-464q0 -51 22.5 -88.5t63 -58t94.5 -20.5t95 20.5t63.5 58t22.5 88.5v464h83v-460q0 -76 -32.5 -132t-92.5 -86t-139 -30t-139 30zM263.5 755.5q-27.5 14.5 -43 39.5t-15.5 57q0 31 15.5 55.5t43 39t61.5 14.5t61.5 -14.5
t43.5 -39t16 -55.5q0 -32 -16 -57t-43.5 -39.5t-61.5 -14.5t-61.5 14.5zM371 809q18 17 18 43t-18 42.5t-46 16.5q-27 0 -44.5 -16.5t-17.5 -42.5t17.5 -43t44.5 -17q28 0 46 17z" />
    <glyph glyph-name="uring" unicode="&#x16f;" 
d="M420 97q-19 -52 -62.5 -78.5t-103.5 -26.5q-56 0 -99 25.5t-66 71.5t-23 107v308h80v-295q0 -43 15.5 -75.5t44 -50.5t66.5 -18q43 0 76.5 21.5t52.5 59.5t19 86v272h80v-504h-80v97zM219.5 559.5q-27.5 14.5 -43 39.5t-15.5 57q0 31 15.5 55.5t43 39t61.5 14.5
t61.5 -14.5t43.5 -39t16 -55.5q0 -32 -16 -57t-43.5 -39.5t-61.5 -14.5t-61.5 14.5zM327 613q18 17 18 43t-18 42.5t-46 16.5q-27 0 -44.5 -16.5t-17.5 -42.5t17.5 -43t44.5 -17q28 0 46 17z" />
    <glyph glyph-name="Uhungarumlaut" unicode="&#x170;" horiz-adv-x="652" 
d="M187 22q-60 30 -92.5 86t-32.5 132v460h84v-464q0 -51 22.5 -88.5t63 -58t94.5 -20.5t95 20.5t63.5 58t22.5 88.5v464h83v-460q0 -76 -32.5 -132t-92.5 -86t-139 -30t-139 30zM401 903l-104 -148h-76l87 148h93zM536 903l-104 -148h-76l87 148h93z" />
    <glyph glyph-name="uhungarumlaut" unicode="&#x171;" 
d="M420 97q-19 -52 -62.5 -78.5t-103.5 -26.5q-56 0 -99 25.5t-66 71.5t-23 107v308h80v-295q0 -43 15.5 -75.5t44 -50.5t66.5 -18q43 0 76.5 21.5t52.5 59.5t19 86v272h80v-504h-80v97zM357 707l-104 -148h-76l87 148h93zM492 707l-104 -148h-76l87 148h93z" />
    <glyph glyph-name="Uogonek" unicode="&#x172;" horiz-adv-x="652" 
d="M187 22q-60 30 -92.5 86t-32.5 132v460h84v-464q0 -51 22.5 -88.5t63 -58t94.5 -20.5t95 20.5t63.5 58t22.5 88.5v464h83v-460q0 -76 -32.5 -132t-92.5 -86t-139 -30t-139 30zM383 -166q-22 -10 -51 -10q-41 0 -65 22t-24 58q0 26 16.5 51.5t48.5 44.5h63
q-32 -26 -46 -44t-14 -35q0 -15 9 -23.5t25 -8.5q13 0 23.5 6t22.5 19l34 -49q-20 -21 -42 -31z" />
    <glyph glyph-name="uogonek" unicode="&#x173;" 
d="M420 97q-19 -52 -62.5 -78.5t-103.5 -26.5q-56 0 -99 25.5t-66 71.5t-23 107v308h80v-295q0 -43 15.5 -75.5t44 -50.5t66.5 -18q43 0 76.5 21.5t52.5 59.5t19 86v272h80v-504h-80v97zM512 -166q-22 -10 -51 -10q-41 0 -65 22t-24 58q0 26 16.5 51.5t48.5 44.5h63
q-32 -26 -46 -44t-14 -35q0 -15 9 -23.5t25 -8.5q13 0 23.5 6t22.5 19l34 -49q-20 -21 -42 -31z" />
    <glyph glyph-name="Wcircumflex" unicode="&#x174;" horiz-adv-x="996" 
d="M111 700l172 -571l177 571h76l176 -571l174 571h87l-214 -700h-88l-173 569l-174 -569h-85l-217 700h89zM644 755h-76l-67 84l-69 -84h-74l109 140h67z" />
    <glyph glyph-name="wcircumflex" unicode="&#x175;" horiz-adv-x="743" 
d="M98 504l111 -400l124 400h78l122 -400l111 400h81l-153 -504h-77l-124 401l-123 -401h-77l-153 504h80zM516 559h-76l-67 84l-69 -84h-74l109 140h67z" />
    <glyph glyph-name="Ycircumflex" unicode="&#x176;" horiz-adv-x="590" 
d="M4 700h97l194 -325l193 325h97l-248 -407v-293h-85v293zM440 755h-76l-67 84l-69 -84h-74l109 140h67z" />
    <glyph glyph-name="ycircumflex" unicode="&#x177;" horiz-adv-x="479" 
d="M306 69l-92 -273h-77l64 196l-188 512h83l143 -400l143 400h84zM388 559h-76l-67 84l-69 -84h-74l109 140h67z" />
    <glyph glyph-name="Ydieresis" unicode="&#x178;" horiz-adv-x="590" 
d="M4 700h97l194 -325l193 325h97l-248 -407v-293h-85v293zM249 792h-76v93h76v-93zM413 792h-76v93h76v-93z" />
    <glyph glyph-name="Zacute" unicode="&#x179;" horiz-adv-x="597" 
d="M461 623h-405v77h503v-77l-427 -546h428v-77h-527v77zM437 903l-104 -148h-76l87 148h93z" />
    <glyph glyph-name="zacute" unicode="&#x17a;" horiz-adv-x="496" 
d="M353 433h-298v71h391v-71l-310 -362h324v-71h-419v71zM402 707l-104 -148h-76l87 148h93z" />
    <glyph glyph-name="Zdotaccent" unicode="&#x17b;" horiz-adv-x="597" 
d="M461 623h-405v77h503v-77l-427 -546h428v-77h-527v77zM341 795h-92v112h92v-112z" />
    <glyph glyph-name="zdotaccent" unicode="&#x17c;" horiz-adv-x="496" 
d="M353 433h-298v71h391v-71l-310 -362h324v-71h-419v71zM306 599h-92v112h92v-112z" />
    <glyph glyph-name="Zcaron" unicode="&#x17d;" horiz-adv-x="597" 
d="M461 623h-405v77h503v-77l-427 -546h428v-77h-527v77zM226 896l68 -83l68 83h75l-109 -140h-68l-109 140h75z" />
    <glyph glyph-name="zcaron" unicode="&#x17e;" horiz-adv-x="496" 
d="M353 433h-298v71h391v-71l-310 -362h324v-71h-419v71zM191 700l68 -83l68 83h75l-109 -140h-68l-109 140h75z" />
    <glyph glyph-name="longs" unicode="&#x17f;" horiz-adv-x="339" 
d="M16 433v71h105v51q0 48 19 83t54.5 54t83.5 19h80v-71h-76q-37 0 -59 -23t-22 -63v-554h-80v433h-105z" />
    <glyph glyph-name="uni018F" unicode="&#x18f;" horiz-adv-x="738" 
d="M530.5 659.5q77.5 -47.5 121.5 -131t44 -186.5q0 -105 -41 -185t-115.5 -124t-170.5 -44q-94 0 -166.5 40t-112.5 113t-40 168q0 11 1 24t2 22h558q-2 77 -36.5 140.5t-92 99.5t-126.5 36q-91 0 -150.5 -41.5t-76.5 -114.5h-87q11 69 53 121.5t109 81t152 28.5
q97 0 174.5 -47.5zM483 89q50 27 82 77t42 120h-471q0 -64 29.5 -115t82.5 -80t121 -29q64 0 114 27z" />
    <glyph glyph-name="florin" unicode="&#x192;" horiz-adv-x="536" 
d="M381 621.5q-27 -21.5 -37 -69.5l-10 -48h187v-71h-202l-98 -471q-13 -62 -39.5 -98.5t-66.5 -52t-97 -15.5h-56v70l70 -1q44 -1 71 20.5t37 70.5l100 477h-145v71h159l9 41q13 62 39.5 98.5t66 52t96.5 15.5h56v-69l-70 1q-43 0 -70 -21.5z" />
    <glyph glyph-name="Aringacute" unicode="&#x1fa;" horiz-adv-x="649" 
d="M481 189h-312l-73 -189h-89l279 700h77l279 -700h-89zM451 265l-126 330l-127 -330h253zM262.5 755.5q-27.5 14.5 -43 39.5t-15.5 57q0 31 15.5 55.5t43 39t61.5 14.5t61.5 -14.5t43.5 -39t16 -55.5q0 -32 -16 -57t-43.5 -39.5t-61.5 -14.5t-61.5 14.5zM370 809
q18 17 18 43t-18 42.5t-46 16.5q-27 0 -44.5 -16.5t-17.5 -42.5t17.5 -43t44.5 -17q28 0 46 17zM471 1103l-104 -148h-76l87 148h93z" />
    <glyph glyph-name="aringacute" unicode="&#x1fb;" horiz-adv-x="526" 
d="M374 488.5q48 -23.5 74 -65.5t26 -98v-325h-80v87q-20 -43 -66.5 -69t-105.5 -26q-52 0 -92 19t-61.5 53t-21.5 80q0 48 25 83.5t70 54.5t106 19h114q16 0 24 7.5t8 19.5q0 35 -16 61t-46.5 40.5t-72.5 14.5q-36 0 -66.5 -13.5t-49 -37t-20.5 -50.5h-76q4 48 33.5 86.5
t77 60.5t103.5 22q65 0 113 -23.5zM320 80q36 20 55 57.5t19 89.5v13h-141q-57 0 -90.5 -25.5t-33.5 -69.5q0 -39 28.5 -62t76.5 -23q50 0 86 20zM205.5 559.5q-27.5 14.5 -43 39.5t-15.5 57q0 31 15.5 55.5t43 39t61.5 14.5t61.5 -14.5t43.5 -39t16 -55.5q0 -32 -16 -57
t-43.5 -39.5t-61.5 -14.5t-61.5 14.5zM313 613q18 17 18 43t-18 42.5t-46 16.5q-27 0 -44.5 -16.5t-17.5 -42.5t17.5 -43t44.5 -17q28 0 46 17zM413 907l-104 -148h-76l87 148h93z" />
    <glyph glyph-name="AEacute" unicode="&#x1fc;" horiz-adv-x="939" 
d="M895 77v-77h-399v189h-276l-119 -189h-94l452 700h425v-77h-302v-223h237v-77h-237v-246h313zM496 266v362l-228 -362h228zM797 903l-104 -148h-76l87 148h93z" />
    <glyph glyph-name="aeacute" unicode="&#x1fd;" horiz-adv-x="865" 
d="M874 162q-8 -51 -39.5 -89.5t-80.5 -59.5t-111 -21q-69 0 -123.5 31.5t-86.5 85.5q-57 -117 -206 -117q-54 0 -95 19.5t-63 54t-22 77.5q0 78 50.5 120t150.5 42h117q14 0 21.5 7t7.5 19v1q0 34 -18 59.5t-49.5 39t-69.5 13.5q-36 0 -66 -14t-48 -37t-21 -51h-75
q4 48 33 87t75.5 61t100.5 22q62 0 112 -23.5t77 -65.5q32 42 80.5 65.5t108.5 23.5q72 0 125 -30.5t81.5 -84.5t28.5 -121q0 -21 -2 -35h-394q3 -52 25.5 -92.5t60 -63t84.5 -22.5q61 0 99.5 25.5t50.5 73.5h81zM529 408q-41 -36 -52 -103h310q-3 42 -22.5 73.5t-53 48.5
t-77.5 17q-64 0 -105 -36zM319.5 80q36.5 20 55.5 57.5t19 89.5v18h-141q-64 0 -94 -25.5t-30 -75.5q0 -24 13.5 -43t37 -30t53.5 -11q50 0 86.5 20zM581 707l-104 -148h-76l87 148h93z" />
    <glyph glyph-name="uni0218" unicode="&#x218;" horiz-adv-x="594" 
d="M165 21.5q-59 29.5 -92.5 83t-37.5 124.5h84q7 -74 54.5 -117t127.5 -43q76 0 121.5 30.5t45.5 91.5q0 39 -23.5 63.5t-58.5 38t-97 30.5q-75 21 -120.5 40.5t-77.5 57.5t-32 101q0 55 30 97t84 65.5t123 23.5t123.5 -25.5t86.5 -72.5t37 -109h-84q-4 39 -25 68.5
t-56.5 45.5t-81.5 16q-71 0 -111 -29t-40 -80q0 -38 23 -61.5t58 -36.5t95 -28q76 -20 123 -39t80 -59t33 -107q0 -62 -33 -107t-91 -68.5t-132 -23.5q-77 0 -136 29.5zM346 -68l-74 -149h-71l55 149h90z" />
    <glyph glyph-name="uni0219" unicode="&#x219;" horiz-adv-x="470" 
d="M139 12.5q-44 20.5 -69.5 59t-29.5 90.5h77q5 -49 37 -74.5t87 -25.5q31 0 55 10.5t37 27.5t13 38q0 32 -16.5 49t-41 24.5t-68.5 14.5q-53 8 -86.5 19t-57 41t-23.5 85q0 42 22.5 74t62.5 49.5t93 17.5q55 0 97.5 -19t67 -54t27.5 -81h-78q-3 30 -21.5 49.5t-44 28
t-50.5 8.5q-44 0 -71 -19.5t-27 -52.5q0 -28 15.5 -43t39 -21t64.5 -12q56 -8 91 -19.5t60 -43.5t25 -93q0 -44 -23 -78t-65 -52t-97 -18q-58 0 -102 20.5zM282 -68l-74 -149h-71l55 149h90z" />
    <glyph glyph-name="uni021A" unicode="&#x21a;" horiz-adv-x="557" 
d="M12 623v77h533v-77h-223v-623h-86v623h-224zM332 -68l-74 -149h-71l55 149h90z" />
    <glyph glyph-name="uni021B" unicode="&#x21b;" horiz-adv-x="377" 
d="M201 504h155v-71h-155v-273q0 -42 22 -65.5t59 -23.5h74v-71h-77q-48 0 -83.5 19t-55 55t-19.5 84v275h-105v71h105v161h80v-161zM254 -68l-74 -149h-71l55 149h90z" />
    <glyph glyph-name="uni0237" unicode="&#x237;" horiz-adv-x="212" 
d="M146 504v-543q0 -55 -13.5 -91t-45.5 -55t-86 -19h-46v69h41q32 0 46.5 10.5t19 30.5t4.5 58v540h80z" />
    <glyph glyph-name="uni0259" unicode="&#x259;" horiz-adv-x="554" 
d="M397 477q57 -35 88.5 -95.5t31.5 -132.5q0 -74 -29.5 -132.5t-84 -91.5t-127.5 -33q-71 0 -124 30.5t-81.5 84.5t-28.5 121q0 20 2 36h394q-3 51 -26 91.5t-61 63.5t-84 23q-60 0 -98.5 -26t-50.5 -74h-81q8 51 39 89.5t80 59.5t111 21q73 0 130 -35zM382 96
q41 36 52 103h-310q3 -42 22 -73.5t52.5 -48.5t77.5 -17q65 0 106 36z" />
    <glyph glyph-name="circumflex" unicode="&#x2c6;" horiz-adv-x="386" 
d="M336 559h-76l-67 84l-69 -84h-74l109 140h67z" />
    <glyph glyph-name="caron" unicode="&#x2c7;" horiz-adv-x="386" 
d="M125 700l68 -83l68 83h75l-109 -140h-68l-109 140h75z" />
    <glyph glyph-name="breve" unicode="&#x2d8;" horiz-adv-x="382" 
d="M118.5 579q-32.5 18 -50.5 49.5t-18 71.5h67q0 -34 21 -55t53 -21t53 21.5t21 54.5h66q0 -39 -18.5 -71t-50.5 -50t-71 -18q-40 0 -72.5 18z" />
    <glyph glyph-name="dotaccent" unicode="&#x2d9;" horiz-adv-x="192" 
d="M142 599h-92v112h92v-112z" />
    <glyph glyph-name="ring" unicode="&#x2da;" horiz-adv-x="341" 
d="M108.5 559.5q-27.5 14.5 -43 39.5t-15.5 57q0 31 15.5 55.5t43 39t61.5 14.5t61.5 -14.5t43.5 -39t16 -55.5q0 -32 -16 -57t-43.5 -39.5t-61.5 -14.5t-61.5 14.5zM216 613q18 17 18 43t-18 42.5t-46 16.5q-27 0 -44.5 -16.5t-17.5 -42.5t17.5 -43t44.5 -17q28 0 46 17z
" />
    <glyph glyph-name="ogonek" unicode="&#x2db;" horiz-adv-x="282" 
d="M191 -166q-22 -10 -51 -10q-41 0 -65 22t-24 58q0 26 16.5 51.5t48.5 44.5h63q-32 -26 -46 -44t-14 -35q0 -15 9 -23.5t25 -8.5q13 0 23.5 6t22.5 19l34 -49q-20 -21 -42 -31z" />
    <glyph glyph-name="tilde" unicode="&#x2dc;" horiz-adv-x="413" 
d="M231 592q-16 6 -36 18q-11 6 -22.5 11t-21.5 5q-15 0 -25.5 -9.5t-13.5 -25.5h-62q2 30 15 53t33.5 36t45.5 13q22 0 37.5 -6t37.5 -18q2 -1 11 -6q10 -5 17.5 -7.5t14.5 -2.5q15 0 25.5 9.5t14.5 25.5h61q-3 -46 -29 -74t-65 -28q-22 0 -38 6z" />
    <glyph glyph-name="hungarumlaut" unicode="&#x2dd;" horiz-adv-x="415" 
d="M230 707l-104 -148h-76l87 148h93zM365 707l-104 -148h-76l87 148h93z" />
    <glyph glyph-name="gravecomb" unicode="&#x300;" horiz-adv-x="0" 
d="M-189 707h93l87 -148h-76z" />
    <glyph glyph-name="acutecomb" unicode="&#x301;" horiz-adv-x="0" 
d="M-10 707l-104 -148h-76l87 148h93z" />
    <glyph glyph-name="uni0302" unicode="&#x302;" horiz-adv-x="0" 
d="M-52 559h-76l-67 84l-69 -84h-74l109 140h67z" />
    <glyph glyph-name="tildecomb" unicode="&#x303;" horiz-adv-x="0" 
d="M-163 592q-16 6 -36 18q-11 6 -22.5 11t-21.5 5q-15 0 -25.5 -9.5t-13.5 -25.5h-62q2 30 15 53t33.5 36t45.5 13q22 0 37.5 -6t37.5 -18q2 -1 11 -6q10 -5 17.5 -7.5t14.5 -2.5q15 0 25.5 9.5t14.5 25.5h61q-3 -46 -29 -74t-65 -28q-22 0 -38 6z" />
    <glyph glyph-name="uni0304" unicode="&#x304;" horiz-adv-x="0" 
d="M-50 658v-67h-266v67h266z" />
    <glyph glyph-name="uni0306" unicode="&#x306;" horiz-adv-x="0" 
d="M-286.5 579q-32.5 18 -50.5 49.5t-18 71.5h67q0 -34 21 -55t53 -21t53 21.5t21 54.5h66q0 -39 -18.5 -71t-50.5 -50t-71 -18q-40 0 -72.5 18z" />
    <glyph glyph-name="uni0307" unicode="&#x307;" horiz-adv-x="0" 
d="M-66 599h-92v112h92v-112z" />
    <glyph glyph-name="uni0308" unicode="&#x308;" horiz-adv-x="0" 
d="M-253 596h-76v93h76v-93zM-89 596h-76v93h76v-93z" />
    <glyph glyph-name="uni030A" unicode="&#x30a;" horiz-adv-x="0" 
d="M-204.5 559.5q-27.5 14.5 -43 39.5t-15.5 57q0 31 15.5 55.5t43 39t61.5 14.5t61.5 -14.5t43.5 -39t16 -55.5q0 -32 -16 -57t-43.5 -39.5t-61.5 -14.5t-61.5 14.5zM-97 613q18 17 18 43t-18 42.5t-46 16.5q-27 0 -44.5 -16.5t-17.5 -42.5t17.5 -43t44.5 -17q28 0 46 17z
" />
    <glyph glyph-name="uni030B" unicode="&#x30b;" horiz-adv-x="0" 
d="M-123 707l-104 -148h-76l87 148h93zM12 707l-104 -148h-76l87 148h93z" />
    <glyph glyph-name="uni030C" unicode="&#x30c;" horiz-adv-x="0" 
d="M-262 700l68 -83l68 83h75l-109 -140h-68l-109 140h75z" />
    <glyph glyph-name="uni0312" unicode="&#x312;" horiz-adv-x="0" 
d="M-168 562l58 150h58l-30 -150h-86z" />
    <glyph glyph-name="uni0326" unicode="&#x326;" horiz-adv-x="0" 
d="M-50 -68l-74 -149h-71l55 149h90z" />
    <glyph glyph-name="uni0327" unicode="&#x327;" horiz-adv-x="0" 
d="M-137 17l-34 -77q6 1 17 1q30 0 54 -11.5t37 -31t13 -41.5q0 -26 -17 -46.5t-46.5 -32t-66.5 -11.5q-29 0 -75 14v50q25 -9 43 -12t33 -3q29 0 48 11.5t19 28.5q0 19 -17.5 30t-43.5 11q-20 0 -35 -5l-28 20l45 105h54z" />
    <glyph glyph-name="uni0328" unicode="&#x328;" horiz-adv-x="0" 
d="M-76 -166q-22 -10 -51 -10q-41 0 -65 22t-24 58q0 26 16.5 51.5t48.5 44.5h63q-32 -26 -46 -44t-14 -35q0 -15 9 -23.5t25 -8.5q13 0 23.5 6t22.5 19l34 -49q-20 -21 -42 -31z" />
    <glyph glyph-name="uni0335" unicode="&#x335;" horiz-adv-x="0" 
d="M-74 453v-65h-372v65h372z" />
    <glyph glyph-name="uni0336" unicode="&#x336;" horiz-adv-x="0" 
d="M-50 594v-69h-680v69h680z" />
    <glyph glyph-name="uni0337" unicode="&#x337;" horiz-adv-x="0" 
d="M-74 330l-239 -61v64l239 61v-64z" />
    <glyph glyph-name="uni0338" unicode="&#x338;" horiz-adv-x="0" 
d="M-614 -21l-49 42l564 700l49 -42z" />
    <glyph glyph-name="uni0394" unicode="&#x394;" horiz-adv-x="653" 
d="M9 0l279 700h77l279 -700h-635zM327 587l-200 -511h399z" />
    <glyph glyph-name="uni03A9" unicode="&#x3a9;" horiz-adv-x="735" 
d="M674.5 258.5q-20.5 -56.5 -57.5 -103t-86 -78.5h149v-77h-238v97q51 28 88 71.5t57 96t20 108.5q0 75 -31 135t-85.5 93.5t-123.5 33.5q-68 0 -122.5 -34t-85.5 -93.5t-31 -134.5q0 -56 20 -108.5t57 -95.5t88 -72v-97h-238v77h150q-50 32 -87.5 79t-58 103.5
t-20.5 115.5q0 94 43 170.5t118 119.5t167 43t167 -43t118 -119t43 -171q0 -60 -20.5 -116.5z" />
    <glyph glyph-name="uni03BC" unicode="&#x3bc;" horiz-adv-x="568" 
d="M500 504v-504h-80v97q-18 -51 -60 -78t-100 -27q-32 0 -61 12.5t-53 35.5v-244h-80v708h80v-295q0 -43 15.5 -75.5t44 -50.5t66.5 -18q43 0 76.5 21.5t52.5 59.5t19 86v272h80z" />
    <glyph glyph-name="pi" unicode="&#x3c0;" horiz-adv-x="615" 
d="M42 434v70h531v-70h-97v-434h-78v434h-182v-434h-79v434h-95z" />
    <glyph glyph-name="uni0E3F" unicode="&#xe3f;" horiz-adv-x="611" 
d="M535.5 319q33.5 -45 33.5 -115q0 -63 -27.5 -109t-79 -70.5t-122.5 -24.5h-14v-117h-78v117h-174v700h174v115h78v-115q66 0 113.5 -21.5t73 -62t25.5 -96.5q0 -31 -13 -58.5t-34.5 -48t-45.5 -30.5q57 -19 90.5 -64zM159 410h163q64 0 97.5 27.5t33.5 80.5t-33.5 80
t-97.5 27h-163v-215zM442.5 109.5q39.5 32.5 39.5 95.5t-39.5 96t-116.5 33h-167v-257h167q77 0 116.5 32.5z" />
    <glyph glyph-name="Wgrave" unicode="&#x1e80;" horiz-adv-x="996" 
d="M111 700l172 -571l177 571h76l176 -571l174 571h87l-214 -700h-88l-173 569l-174 -569h-85l-217 700h89zM357 903h93l87 -148h-76z" />
    <glyph glyph-name="wgrave" unicode="&#x1e81;" horiz-adv-x="743" 
d="M98 504l111 -400l124 400h78l122 -400l111 400h81l-153 -504h-77l-124 401l-123 -401h-77l-153 504h80zM229 707h93l87 -148h-76z" />
    <glyph glyph-name="Wacute" unicode="&#x1e82;" horiz-adv-x="996" 
d="M111 700l172 -571l177 571h76l176 -571l174 571h87l-214 -700h-88l-173 569l-174 -569h-85l-217 700h89zM642 903l-104 -148h-76l87 148h93z" />
    <glyph glyph-name="wacute" unicode="&#x1e83;" horiz-adv-x="743" 
d="M98 504l111 -400l124 400h78l122 -400l111 400h81l-153 -504h-77l-124 401l-123 -401h-77l-153 504h80zM514 707l-104 -148h-76l87 148h93z" />
    <glyph glyph-name="Wdieresis" unicode="&#x1e84;" horiz-adv-x="996" 
d="M111 700l172 -571l177 571h76l176 -571l174 571h87l-214 -700h-88l-173 569l-174 -569h-85l-217 700h89zM454 792h-76v93h76v-93zM618 792h-76v93h76v-93z" />
    <glyph glyph-name="wdieresis" unicode="&#x1e85;" horiz-adv-x="743" 
d="M98 504l111 -400l124 400h78l122 -400l111 400h81l-153 -504h-77l-124 401l-123 -401h-77l-153 504h80zM326 596h-76v93h76v-93zM490 596h-76v93h76v-93z" />
    <glyph glyph-name="uni1E9E" unicode="&#x1e9e;" horiz-adv-x="619" 
d="M103.5 588.5q29.5 57.5 84 88.5t127.5 31q64 0 115.5 -26t83.5 -72.5t37 -107.5l-136 -105q84 -22 123 -70.5t39 -122.5q0 -63 -27 -109t-78.5 -70.5t-122.5 -24.5h-115v77h100q77 0 117 33t40 95t-43.5 95.5t-121.5 33.5h-21v62l156 124q-4 34 -23.5 59.5t-51 39.5
t-70.5 14q-48 0 -83.5 -22t-54.5 -63t-19 -95v-453h-85v454q0 77 29.5 134.5z" />
    <glyph glyph-name="Ygrave" unicode="&#x1ef2;" horiz-adv-x="590" 
d="M4 700h97l194 -325l193 325h97l-248 -407v-293h-85v293zM152 903h93l87 -148h-76z" />
    <glyph glyph-name="ygrave" unicode="&#x1ef3;" horiz-adv-x="479" 
d="M306 69l-92 -273h-77l64 196l-188 512h83l143 -400l143 400h84zM101 707h93l87 -148h-76z" />
    <glyph glyph-name="uni2011" unicode="&#x2011;" horiz-adv-x="469" 
d="M417 352v-70h-365v70h365z" />
    <glyph glyph-name="endash" unicode="&#x2013;" horiz-adv-x="559" 
d="M504 352v-70h-452v70h452z" />
    <glyph glyph-name="emdash" unicode="&#x2014;" horiz-adv-x="818" 
d="M744 352v-70h-670v70h670z" />
    <glyph glyph-name="quoteleft" unicode="&#x2018;" horiz-adv-x="244" 
d="M133 637q-12 -13 -12 -36v-97h-75v100q0 32 13 57t36.5 39t53.5 14h29v-64h-13q-20 0 -32 -13z" />
    <glyph glyph-name="quoteright" unicode="&#x2019;" horiz-adv-x="244" 
d="M91 579.5q12 13.5 12 35.5v97h75v-100q0 -32 -13 -57t-36.5 -39t-53.5 -14h-29v64h13q20 0 32 13.5z" />
    <glyph glyph-name="quotesinglbase" unicode="&#x201a;" horiz-adv-x="244" 
d="M91 -57q12 13 12 35v98h75v-101q0 -32 -13 -57t-36.5 -38.5t-53.5 -13.5h-29v64h13q20 0 32 13z" />
    <glyph glyph-name="quotedblleft" unicode="&#x201c;" horiz-adv-x="409" 
d="M133 637q-12 -13 -12 -36v-97h-75v100q0 32 13 57t36.5 39t53.5 14h29v-64h-13q-20 0 -32 -13zM298 636.5q-12 -13.5 -12 -35.5v-97h-75v100q0 32 13 57t36.5 39t53.5 14h29v-64h-13q-20 0 -32 -13.5z" />
    <glyph glyph-name="quotedblright" unicode="&#x201d;" horiz-adv-x="409" 
d="M91 579.5q12 13.5 12 35.5v97h75v-100q0 -32 -13 -57t-36.5 -39t-53.5 -14h-29v64h13q20 0 32 13.5zM256 579q12 13 12 36v97h75v-100q0 -32 -13 -57t-36.5 -39t-53.5 -14h-29v64h13q20 0 32 13z" />
    <glyph glyph-name="quotedblbase" unicode="&#x201e;" horiz-adv-x="409" 
d="M91 -57q12 13 12 35v98h75v-101q0 -32 -13 -57t-36.5 -38.5t-53.5 -13.5h-29v64h13q20 0 32 13zM256 -57q12 13 12 35v98h75v-101q0 -32 -13 -57t-36.5 -38.5t-53.5 -13.5h-29v64h13q20 0 32 13z" />
    <glyph glyph-name="dagger" unicode="&#x2020;" horiz-adv-x="466" 
d="M47 435v69h147v246h78v-246h147v-69h-147v-485h-78v485h-147z" />
    <glyph glyph-name="daggerdbl" unicode="&#x2021;" horiz-adv-x="466" 
d="M272 435v-366h147v-69h-147v-246h-78v246h-147v69h147v366h-147v69h147v246h78v-246h147v-69h-147z" />
    <glyph glyph-name="bullet" unicode="&#x2022;" horiz-adv-x="260" 
d="M85 232.5q-19 18.5 -19 46.5q0 17 8.5 31.5t23.5 23t33 8.5q17 0 32 -8.5t23.5 -23t8.5 -31.5q0 -18 -8.5 -33t-23.5 -23.5t-32 -8.5q-27 0 -46 18.5z" />
    <glyph glyph-name="ellipsis" unicode="&#x2026;" horiz-adv-x="567" 
d="M157 0h-91v93h91v-93zM502 0h-91v93h91v-93zM329 0h-91v93h91v-93z" />
    <glyph glyph-name="perthousand" unicode="&#x2030;" horiz-adv-x="1097" 
d="M664 700l-509 -700h-74l508 700h75zM124 409.5q-35 21.5 -54.5 58t-19.5 80.5t19.5 80.5t54.5 58t78 21.5t77 -21.5t53.5 -58t19.5 -80.5t-19.5 -80.5t-53.5 -58t-77 -21.5t-78 21.5zM247.5 460q19.5 13 30.5 36.5t11 51.5q0 29 -11 52t-30.5 36.5t-45.5 13.5t-46 -13.5
t-31 -36.5t-11 -52t11 -52t31 -36t46 -13t45.5 13zM468 13.5q-35 21.5 -54.5 58t-19.5 80.5t19.5 80.5t54.5 58t78 21.5t77 -21.5t53.5 -58t19.5 -80.5t-19.5 -80.5t-53.5 -58t-77 -21.5t-78 21.5zM591.5 64q19.5 13 30.5 36.5t11 51.5q0 29 -11 52t-30.5 36.5t-45.5 13.5
t-46 -13.5t-31 -36.5t-11 -52t11 -52t31 -36t46 -13t45.5 13zM819 13.5q-35 21.5 -54.5 58t-19.5 80.5t19.5 80.5t54.5 58t78 21.5t77 -21.5t53.5 -58t19.5 -80.5t-19.5 -80.5t-53.5 -58t-77 -21.5t-78 21.5zM942.5 64q19.5 13 30.5 36.5t11 51.5q0 29 -11 52t-30.5 36.5
t-45.5 13.5t-46 -13.5t-31 -36.5t-11 -52t11 -52t31 -36t46 -13t45.5 13z" />
    <glyph glyph-name="guilsinglleft" unicode="&#x2039;" horiz-adv-x="372" 
d="M37 335l292 201v-84l-210 -142l210 -142v-84l-292 201v50z" />
    <glyph glyph-name="guilsinglright" unicode="&#x203a;" horiz-adv-x="358" 
d="M56 168l210 142l-210 142v84l293 -201v-50l-293 -201v84z" />
    <glyph glyph-name="fraction" unicode="&#x2044;" horiz-adv-x="266" 
d="M425 700l-509 -700h-74l508 700h75z" />
    <glyph glyph-name="uni2070" unicode="&#x2070;" horiz-adv-x="374" 
d="M64 365.5q-36 50.5 -36 148.5v32q0 98 36 148.5t112 50.5h22q76 0 112 -50.5t36 -148.5v-32q0 -98 -36 -148.5t-112 -50.5h-22q-76 0 -112 50.5zM261 403.5q21 32.5 21 98.5v57q0 65 -21 97.5t-65 32.5h-17q-88 0 -88 -130v-57q0 -131 88 -131h17q44 0 65 32.5z" />
    <glyph glyph-name="uni2074" unicode="&#x2074;" horiz-adv-x="391" 
d="M20 418v56l213 266h71v-266h60v-56h-60v-98h-64v98h-220zM240 667l-155 -193h155v193z" />
    <glyph glyph-name="uni2075" unicode="&#x2075;" horiz-adv-x="359" 
d="M107.5 332q-31.5 17 -51.5 46t-23 63h58q4 -33 27 -52t59 -19q42 0 67.5 24t25.5 64q0 41 -25.5 66t-67.5 25q-31 0 -52.5 -11.5t-31.5 -33.5h-51l33 236h228v-56h-181l-17 -112q15 12 36.5 20t42.5 8q43 0 77 -18t52.5 -50t18.5 -74t-19.5 -74.5t-55 -50.5t-80.5 -18
q-38 0 -69.5 17z" />
    <glyph glyph-name="uni2076" unicode="&#x2076;" horiz-adv-x="380" 
d="M273.5 582.5q33.5 -18.5 52 -51t18.5 -73.5q0 -40 -20 -73t-55 -51.5t-78 -18.5q-49 0 -84.5 24.5t-54.5 69t-19 102.5q0 75 21.5 127.5t59 79.5t85.5 27q40 0 71.5 -14.5t51.5 -41t25 -59.5h-60q-6 28 -29.5 45t-56.5 17q-32 0 -56 -20t-38 -54t-16 -77q13 26 43.5 43
t62.5 17q43 0 76.5 -18.5zM240 379.5q21 11.5 32.5 32.5t11.5 47t-11.5 46t-32.5 31.5t-48 11.5t-48 -11.5t-32.5 -31.5t-11.5 -46t11.5 -47t32.5 -32.5t48 -11.5t48 11.5z" />
    <glyph glyph-name="uni2077" unicode="&#x2077;" horiz-adv-x="314" 
d="M115.5 426.5q13.5 49.5 49.5 107.5l94 150h-235v56h306v-51l-113 -183q-31 -50 -41 -92t-10 -94h-64q0 57 13.5 106.5z" />
    <glyph glyph-name="uni2078" unicode="&#x2078;" horiz-adv-x="370" 
d="M108 330q-35 15 -55 43.5t-20 66.5t21 65.5t54 40.5q-26 14 -41.5 36t-15.5 51q0 33 17 58.5t47.5 39.5t70.5 14t70.5 -14t47.5 -39.5t17 -58.5q0 -28 -16 -51t-42 -36q33 -12 53.5 -40.5t20.5 -65.5q0 -38 -20 -66.5t-54.5 -43.5t-76.5 -15q-43 0 -78 15zM240.5 586.5
q20.5 16.5 20.5 44.5t-20.5 44.5t-54.5 16.5q-35 0 -55 -16.5t-20 -44.5t20.5 -44.5t54.5 -16.5t54.5 16.5zM251 389q24 19 24 53t-24 53.5t-65 19.5t-66 -19.5t-25 -53.5q0 -33 25 -52.5t66 -19.5t65 19z" />
    <glyph glyph-name="uni2079" unicode="&#x2079;" horiz-adv-x="381" 
d="M107.5 477.5q-33.5 18.5 -52 51.5t-18.5 73t20 73t54.5 51.5t77.5 18.5q49 0 85 -24.5t55 -68.5t19 -102q0 -75 -21.5 -128t-59 -80t-85.5 -27q-40 0 -71.5 14.5t-51.5 41t-25 59.5h60q6 -28 29 -45t57 -17q32 0 56 20t38 54t16 77q-13 -26 -43.5 -43t-62.5 -17
q-43 0 -76.5 18.5zM141 680.5q-21 -11.5 -33 -32.5t-12 -47t12 -46t33 -31.5t48 -11.5t48 11.5t32.5 31.5t11.5 46t-11.5 47t-32.5 32.5t-48 11.5t-48 -11.5z" />
    <glyph glyph-name="Euro" unicode="&#x20ac;" horiz-adv-x="648" 
d="M599 165q-15 -81 -68.5 -127t-141.5 -46h-37q-216 0 -245 244h-86v70h81v16v56v24h-81v69h87q32 237 244 237h37q87 0 140 -44.5t68 -123.5h-89q-11 42 -42 66.5t-78 24.5h-34q-137 0 -161 -160h247v-69h-253v-14v-76v-6h253v-70h-248q23 -167 162 -167h34q49 0 80.5 26
t42.5 70h88z" />
    <glyph glyph-name="uni20BF" unicode="&#x20bf;" horiz-adv-x="611" 
d="M528 76q-41 -51 -115 -68v-125h-71v117h-2h-95v-117h-71v117h-100v700h100v115h71v-115h79h18v115h71v-127q60 -18 92.5 -61t32.5 -107q0 -31 -13 -58.5t-34.5 -48t-45.5 -30.5q57 -19 90.5 -64t33.5 -115q0 -77 -41 -128zM159 410h163q64 0 97.5 27.5t33.5 80.5
t-33.5 80t-97.5 27h-163v-215zM442.5 109.5q39.5 32.5 39.5 95.5t-39.5 96t-116.5 33h-167v-257h167q77 0 116.5 32.5z" />
    <glyph glyph-name="uni2113" unicode="&#x2113;" horiz-adv-x="472" 
d="M380 36q-45 -44 -116 -44q-79 0 -123.5 44t-44.5 123v102l-80 -23v74l80 22v180q0 59 22.5 103t64 67.5t97.5 23.5q48 0 85 -22.5t57.5 -64.5t20.5 -97q0 -79 -45 -137.5t-142 -84.5l-75 -20v-116q0 -44 22.5 -70t65.5 -26q36 0 58.5 24t27.5 66h79q-9 -80 -54 -124z
M358 520q0 52 -21 81.5t-57 29.5q-45 0 -72 -34t-27 -95v-146l59 16q118 34 118 148z" />
    <glyph glyph-name="trademark" unicode="&#x2122;" horiz-adv-x="903" 
d="M12 644v56h326v-56h-131v-364h-64v364h-131zM482 700l137 -329l137 329h74v-420h-60v301l-126 -301h-50l-125 301v-301h-61v420h74z" />
    <glyph glyph-name="uni2126" unicode="&#x2126;" horiz-adv-x="735" 
d="M674.5 258.5q-20.5 -56.5 -57.5 -103t-86 -78.5h149v-77h-238v97q51 28 88 71.5t57 96t20 108.5q0 75 -31 135t-85.5 93.5t-123.5 33.5q-68 0 -122.5 -34t-85.5 -93.5t-31 -134.5q0 -56 20 -108.5t57 -95.5t88 -72v-97h-238v77h150q-50 32 -87.5 79t-58 103.5
t-20.5 115.5q0 94 43 170.5t118 119.5t167 43t167 -43t118 -119t43 -171q0 -60 -20.5 -116.5z" />
    <glyph glyph-name="uni2153" unicode="&#x2153;" horiz-adv-x="832" 
d="M110 280v322q-5 -7 -17 -11t-26 -4h-37v56h33q23 0 34.5 12.5t14.5 44.5h61v-420h-63zM665 700l-509 -700h-74l508 700h75zM577 12q-35 17 -55 48t-20 72h62q0 -24 12 -42.5t32.5 -28.5t46.5 -10q40 0 63.5 19t23.5 52t-23.5 50.5t-63.5 17.5h-36v54h35q33 0 52.5 18.5
t19.5 48.5q0 28 -20.5 44t-55.5 16q-32 0 -52.5 -19t-22.5 -52h-58q1 37 18.5 65.5t48 44t68.5 15.5q39 0 70 -14.5t49 -40t18 -57.5q0 -28 -16 -53.5t-41 -38.5q34 -13 54 -38.5t20 -61.5q0 -39 -20.5 -67.5t-55 -43.5t-75.5 -15q-43 0 -78 17z" />
    <glyph glyph-name="uni2154" unicode="&#x2154;" horiz-adv-x="952" 
d="M50.5 637q17.5 33 50 50.5t76.5 17.5q41 0 73 -16t50 -45t18 -67q0 -41 -25 -74.5t-74 -58.5l-56 -28q-28 -14 -47.5 -34.5t-19.5 -45.5h223v-56h-288v45q0 49 30 84t70 55l65 33q30 15 44 35.5t14 45.5q0 33 -22 53t-55 20q-37 0 -58 -25t-20 -66h-65q-1 44 16.5 77z
M785 700l-509 -700h-74l508 700h75zM697 12q-35 17 -55 48t-20 72h62q0 -24 12 -42.5t32.5 -28.5t46.5 -10q40 0 63.5 19t23.5 52t-23.5 50.5t-63.5 17.5h-36v54h35q33 0 52.5 18.5t19.5 48.5q0 28 -20.5 44t-55.5 16q-32 0 -52.5 -19t-22.5 -52h-58q1 37 18.5 65.5t48 44
t68.5 15.5q39 0 70 -14.5t49 -40t18 -57.5q0 -28 -16 -53.5t-41 -38.5q34 -13 54 -38.5t20 -61.5q0 -39 -20.5 -67.5t-55 -43.5t-75.5 -15q-43 0 -78 17z" />
    <glyph glyph-name="oneeighth" unicode="&#x215b;" horiz-adv-x="839" 
d="M110 280v322q-5 -7 -17 -11t-26 -4h-37v56h33q23 0 34.5 12.5t14.5 44.5h61v-420h-63zM665 700l-509 -700h-74l508 700h75zM577 10q-35 15 -55 43.5t-20 66.5t21 65.5t54 40.5q-26 14 -41.5 36t-15.5 51q0 33 17 58.5t47.5 39.5t70.5 14t70.5 -14t47.5 -39.5t17 -58.5
q0 -28 -16 -51t-42 -36q33 -12 53.5 -40.5t20.5 -65.5q0 -38 -20 -66.5t-54.5 -43.5t-76.5 -15q-43 0 -78 15zM709.5 266.5q20.5 16.5 20.5 44.5t-20.5 44.5t-54.5 16.5q-35 0 -55 -16.5t-20 -44.5t20.5 -44.5t54.5 -16.5t54.5 16.5zM720 69q24 19 24 53t-24 53.5t-65 19.5
t-66 -19.5t-25 -53.5q0 -33 25 -52.5t66 -19.5t65 19z" />
    <glyph glyph-name="threeeighths" unicode="&#x215c;" horiz-adv-x="962" 
d="M108 292q-35 17 -55 48t-20 72h62q0 -24 12 -42.5t32.5 -28.5t46.5 -10q40 0 63.5 19t23.5 52t-23.5 50.5t-63.5 17.5h-36v54h35q33 0 52.5 18.5t19.5 48.5q0 28 -20.5 44t-55.5 16q-32 0 -52.5 -19t-22.5 -52h-58q1 37 18.5 65.5t48 44t68.5 15.5q39 0 70 -14.5t49 -40
t18 -57.5q0 -28 -16 -53.5t-41 -38.5q34 -13 54 -38.5t20 -61.5q0 -39 -20.5 -67.5t-55 -43.5t-75.5 -15q-43 0 -78 17zM788 700l-509 -700h-74l508 700h75zM700 10q-35 15 -55 43.5t-20 66.5t21 65.5t54 40.5q-26 14 -41.5 36t-15.5 51q0 33 17 58.5t47.5 39.5t70.5 14
t70.5 -14t47.5 -39.5t17 -58.5q0 -28 -16 -51t-42 -36q33 -12 53.5 -40.5t20.5 -65.5q0 -38 -20 -66.5t-54.5 -43.5t-76.5 -15q-43 0 -78 15zM832.5 266.5q20.5 16.5 20.5 44.5t-20.5 44.5t-54.5 16.5q-35 0 -55 -16.5t-20 -44.5t20.5 -44.5t54.5 -16.5t54.5 16.5zM843 69
q24 19 24 53t-24 53.5t-65 19.5t-66 -19.5t-25 -53.5q0 -33 25 -52.5t66 -19.5t65 19z" />
    <glyph glyph-name="fiveeighths" unicode="&#x215d;" horiz-adv-x="958" 
d="M107.5 292q-31.5 17 -51.5 46t-23 63h58q4 -33 27 -52t59 -19q42 0 67.5 24t25.5 64q0 41 -25.5 66t-67.5 25q-31 0 -52.5 -11.5t-31.5 -33.5h-51l33 236h228v-56h-181l-17 -112q15 12 36.5 20t42.5 8q43 0 77 -18t52.5 -50t18.5 -74t-19.5 -74.5t-55 -50.5t-80.5 -18
q-38 0 -69.5 17zM784 700l-509 -700h-74l508 700h75zM696 10q-35 15 -55 43.5t-20 66.5t21 65.5t54 40.5q-26 14 -41.5 36t-15.5 51q0 33 17 58.5t47.5 39.5t70.5 14t70.5 -14t47.5 -39.5t17 -58.5q0 -28 -16 -51t-42 -36q33 -12 53.5 -40.5t20.5 -65.5q0 -38 -20 -66.5
t-54.5 -43.5t-76.5 -15q-43 0 -78 15zM828.5 266.5q20.5 16.5 20.5 44.5t-20.5 44.5t-54.5 16.5q-35 0 -55 -16.5t-20 -44.5t20.5 -44.5t54.5 -16.5t54.5 16.5zM839 69q24 19 24 53t-24 53.5t-65 19.5t-66 -19.5t-25 -53.5q0 -33 25 -52.5t66 -19.5t65 19z" />
    <glyph glyph-name="seveneighths" unicode="&#x215e;" horiz-adv-x="843" 
d="M115.5 386.5q13.5 49.5 49.5 107.5l94 150h-235v56h306v-51l-113 -183q-31 -50 -41 -92t-10 -94h-64q0 57 13.5 106.5zM669 700l-509 -700h-74l508 700h75zM581 10q-35 15 -55 43.5t-20 66.5t21 65.5t54 40.5q-26 14 -41.5 36t-15.5 51q0 33 17 58.5t47.5 39.5t70.5 14
t70.5 -14t47.5 -39.5t17 -58.5q0 -28 -16 -51t-42 -36q33 -12 53.5 -40.5t20.5 -65.5q0 -38 -20 -66.5t-54.5 -43.5t-76.5 -15q-43 0 -78 15zM713.5 266.5q20.5 16.5 20.5 44.5t-20.5 44.5t-54.5 16.5q-35 0 -55 -16.5t-20 -44.5t20.5 -44.5t54.5 -16.5t54.5 16.5zM724 69
q24 19 24 53t-24 53.5t-65 19.5t-66 -19.5t-25 -53.5q0 -33 25 -52.5t66 -19.5t65 19z" />
    <glyph glyph-name="arrowleft" unicode="&#x2190;" horiz-adv-x="710" 
d="M672 224h-507l193 -193l-46 -46l-274 274l275 275l46 -47l-194 -193h507v-70z" />
    <glyph glyph-name="arrowup" unicode="&#x2191;" horiz-adv-x="626" 
d="M541 323l-193 193v-507h-70v507l-193 -194l-47 46l275 275l274 -274z" />
    <glyph glyph-name="arrowright" unicode="&#x2192;" horiz-adv-x="710" 
d="M672 259l-274 -274l-46 46l193 193h-507v70h507l-194 193l46 47z" />
    <glyph glyph-name="arrowdown" unicode="&#x2193;" horiz-adv-x="626" 
d="M587 274l-275 -274l-274 273l46 46l193 -193v507h70v-507l194 194z" />
    <glyph glyph-name="arrowboth" unicode="&#x2194;" horiz-adv-x="1029" 
d="M991 259l-274 -274l-46 46l193 193h-507v70h507l-194 193l46 47zM672 224h-507l193 -193l-46 -46l-274 274l275 275l46 -47l-194 -193h507v-70z" />
    <glyph glyph-name="arrowupdn" unicode="&#x2195;" horiz-adv-x="626" 
d="M541 152l46 -46l-275 -274l-274 273l46 46l193 -193v700l-193 -193l-46 46l274 273l275 -274l-46 -46l-194 194v-700z" />
    <glyph glyph-name="uni2196" unicode="&#x2196;" horiz-adv-x="581" 
d="M493 16l-358 359v-273h-65v387h388v-65h-274l358 -358z" />
    <glyph glyph-name="uni2197" unicode="&#x2197;" horiz-adv-x="575" 
d="M505 489v-387h-65v273l-358 -359l-50 50l358 358h-273l-1 65h389z" />
    <glyph glyph-name="uni2198" unicode="&#x2198;" horiz-adv-x="581" 
d="M511 393v-389h-387v65h273l-359 358l50 50l358 -358v273z" />
    <glyph glyph-name="uni2199" unicode="&#x2199;" horiz-adv-x="581" 
d="M184 64h273v-65h-388v389l66 -1l-1 -273l358 358l50 -50z" />
    <glyph glyph-name="partialdiff" unicode="&#x2202;" horiz-adv-x="595" 
d="M185.5 24q-56.5 32 -90 87t-33.5 120q0 64 32.5 118t88 86t122.5 32q39 0 77 -14t67.5 -39t44.5 -56q0 86 -35.5 151t-92.5 100.5t-120 35.5q-38 0 -75.5 -14t-69.5 -41l-44 62q38 31 86 47t99 16q84 0 158.5 -43.5t121 -134.5t46.5 -226q0 -96 -31.5 -168t-90 -111.5
t-137.5 -39.5q-67 0 -123.5 32zM398 88q39 21 61 59t22 85q0 46 -22 83t-61 58t-89 21q-49 0 -88 -21t-60.5 -57.5t-21.5 -83.5t21.5 -85t60.5 -59t88 -21q50 0 89 21z" />
    <glyph glyph-name="uni2206" unicode="&#x2206;" horiz-adv-x="653" 
d="M9 0l279 700h77l279 -700h-635zM327 587l-200 -511h399z" />
    <glyph glyph-name="product" unicode="&#x220f;" horiz-adv-x="644" 
d="M570 700v-700h-90v623h-318v-623h-88v700h496z" />
    <glyph glyph-name="summation" unicode="&#x2211;" horiz-adv-x="548" 
d="M284 350l-241 275v75h456v-77h-351l213 -239v-68l-214 -239h352v-77h-456v75z" />
    <glyph glyph-name="minus" unicode="&#x2212;" horiz-adv-x="608" 
d="M534 352v-70h-460v70h460z" />
    <glyph glyph-name="radical" unicode="&#x221a;" horiz-adv-x="549" 
d="M28 314v77h158l89 -287l185 596h84l-223 -700h-88l-101 314h-104z" />
    <glyph glyph-name="infinity" unicode="&#x221e;" horiz-adv-x="910" 
d="M138 191.5q-46 24.5 -70.5 68t-24.5 99.5t24.5 99.5t70.5 68t107 24.5q59 0 115 -31.5t95 -90.5q39 59 95.5 90.5t115.5 31.5q61 0 106.5 -24.5t70 -68t24.5 -99.5t-24.5 -99.5t-70 -68t-106.5 -24.5q-59 0 -115.5 32t-95.5 90q-39 -58 -95.5 -90t-114.5 -32
q-61 0 -107 24.5zM340.5 268.5q43.5 32.5 75.5 90.5q-32 58 -75.5 90.5t-93.5 32.5q-37 0 -65.5 -15t-44.5 -42.5t-16 -65.5t16 -65.5t44.5 -42.5t65.5 -15q50 0 93.5 32.5zM728.5 251q28.5 15 44.5 42.5t16 65.5t-16 65.5t-44.5 42.5t-65.5 15q-49 0 -92.5 -32t-76.5 -91
q33 -59 76.5 -91t92.5 -32q37 0 65.5 15z" />
    <glyph glyph-name="integral" unicode="&#x222b;" horiz-adv-x="387" 
d="M358 640h-76q-37 0 -59 -23t-22 -63v-602q0 -48 -19 -83t-54.5 -54t-83.5 -19h-79v71h76q37 0 58.5 23.5t21.5 63.5v601q0 48 19 83t54.5 54t83.5 19h80v-71z" />
    <glyph glyph-name="approxequal" unicode="&#x2248;" horiz-adv-x="629" 
d="M355 152q-25 12 -57 34q-26 18 -43 26.5t-38 8.5q-30 0 -48.5 -21t-20.5 -55h-74q3 46 22 80.5t50 53t69 18.5q24 0 44 -6.5t35.5 -15.5t37.5 -24q26 -18 43 -26.5t38 -8.5q27 0 46 19.5t23 56.5h73q-4 -47 -23 -81t-49.5 -52.5t-68.5 -18.5q-34 0 -59 12zM355 367
q-25 12 -57 34q-26 18 -43 26.5t-38 8.5q-30 0 -48.5 -21t-20.5 -55h-74q3 46 22 80.5t50 53t69 18.5q24 0 44 -6.5t35.5 -15.5t37.5 -24q26 -18 43 -26.5t38 -8.5q27 0 46 19.5t23 56.5h73q-4 -47 -23 -81t-49.5 -52.5t-68.5 -18.5q-34 0 -59 12z" />
    <glyph glyph-name="notequal" unicode="&#x2260;" horiz-adv-x="587" 
d="M386 374l-85 -154h233v-70h-271l-69 -125h-80l69 125h-109v70h147l85 154h-232v70h271l69 126h80l-69 -126h109v-70h-148z" />
    <glyph glyph-name="lessequal" unicode="&#x2264;" horiz-adv-x="459" 
d="M415 105l-372 186v79l372 185v-79l-299 -146l299 -145v-80zM414 0h-369v70h369v-70z" />
    <glyph glyph-name="greaterequal" unicode="&#x2265;" horiz-adv-x="459" 
d="M44 476v79l372 -185v-79l-372 -186v80l299 145zM414 0h-368v70h368v-70z" />
    <glyph glyph-name="lozenge" unicode="&#x25ca;" horiz-adv-x="567" 
d="M245 700h77l195 -350l-195 -350h-77l-196 350zM283 624l-153 -274l153 -274l154 274z" />
    <glyph glyph-name="uni25CF" unicode="&#x25cf;" horiz-adv-x="799" 
d="M90 529.5q48 82.5 130.5 130.5t179.5 48t179.5 -48t130.5 -130.5t48 -179.5q0 -98 -48 -180t-130.5 -130t-179.5 -48t-179.5 48t-130.5 130t-48 180q0 97 48 179.5z" />
    <glyph glyph-name="uniFEFF" unicode="&#xfeff;" horiz-adv-x="0" 
d="M0 0z" />
    <glyph glyph-name="NULL" horiz-adv-x="0" 
d="M0 0z" />
    <glyph glyph-name="i.loclTRK" horiz-adv-x="212" 
d="M146 504v-504h-80v504h80zM152 599h-92v112h92v-112z" />
    <glyph glyph-name="germandbls.calt" horiz-adv-x="619" 
d="M103.5 588.5q29.5 57.5 84 88.5t127.5 31q64 0 115.5 -26t83.5 -72.5t37 -107.5l-136 -105q84 -22 123 -70.5t39 -122.5q0 -63 -27 -109t-78.5 -70.5t-122.5 -24.5h-115v77h100q77 0 117 33t40 95t-43.5 95.5t-121.5 33.5h-21v62l156 124q-4 34 -23.5 59.5t-51 39.5
t-70.5 14q-48 0 -83.5 -22t-54.5 -63t-19 -95v-453h-85v454q0 77 29.5 134.5z" />
    <glyph glyph-name="T_T.dlig" horiz-adv-x="982" 
d="M12 623v77h533v-77h-223v-623h-86v623h-224zM437 623v77h533v-77h-223v-623h-86v623h-224z" />
    <glyph glyph-name="T_h.dlig" horiz-adv-x="1040" 
d="M885 486.5q43 -25.5 66 -71.5t23 -107v-308h-80v295q0 43 -15.5 75.5t-44 50.5t-66.5 18q-43 0 -76.5 -21.5t-52.5 -59.5t-19 -86v-272h-80v623h-218v-623h-86v623h-224v77h608v-293q19 51 63 78t103 27q56 0 99 -25.5z" />
    <glyph glyph-name="T_i.dlig" horiz-adv-x="674" 
d="M12 623v77h533v-77h-223v-623h-86v623h-224zM608 504v-504h-80v504h80z" />
    <glyph glyph-name="zero.inferior" horiz-adv-x="374" 
d="M64 45.5q-36 50.5 -36 148.5v32q0 98 36 148.5t112 50.5h22q76 0 112 -50.5t36 -148.5v-32q0 -98 -36 -148.5t-112 -50.5h-22q-76 0 -112 50.5zM261 83.5q21 32.5 21 98.5v57q0 65 -21 97.5t-65 32.5h-17q-88 0 -88 -130v-57q0 -131 88 -131h17q44 0 65 32.5z" />
    <glyph glyph-name="one.inferior" horiz-adv-x="218" 
d="M110 0v322q-5 -7 -17 -11t-26 -4h-37v56h33q23 0 34.5 12.5t14.5 44.5h61v-420h-63z" />
    <glyph glyph-name="two.inferior" horiz-adv-x="340" 
d="M50.5 357q17.5 33 50 50.5t76.5 17.5q41 0 73 -16t50 -45t18 -67q0 -41 -25 -74.5t-74 -58.5l-56 -28q-28 -14 -47.5 -34.5t-19.5 -45.5h223v-56h-288v45q0 49 30 84t70 55l65 33q30 15 44 35.5t14 45.5q0 33 -22 53t-55 20q-37 0 -58 -25t-20 -66h-65q-1 44 16.5 77z
" />
    <glyph glyph-name="three.inferior" horiz-adv-x="363" 
d="M108 12q-35 17 -55 48t-20 72h62q0 -24 12 -42.5t32.5 -28.5t46.5 -10q40 0 63.5 19t23.5 52t-23.5 50.5t-63.5 17.5h-36v54h35q33 0 52.5 18.5t19.5 48.5q0 28 -20.5 44t-55.5 16q-32 0 -52.5 -19t-22.5 -52h-58q1 37 18.5 65.5t48 44t68.5 15.5q39 0 70 -14.5t49 -40
t18 -57.5q0 -28 -16 -53.5t-41 -38.5q34 -13 54 -38.5t20 -61.5q0 -39 -20.5 -67.5t-55 -43.5t-75.5 -15q-43 0 -78 17z" />
    <glyph glyph-name="four.inferior" horiz-adv-x="391" 
d="M20 98v56l213 266h71v-266h60v-56h-60v-98h-64v98h-220zM240 347l-155 -193h155v193z" />
    <glyph glyph-name="five.inferior" horiz-adv-x="359" 
d="M107.5 12q-31.5 17 -51.5 46t-23 63h58q4 -33 27 -52t59 -19q42 0 67.5 24t25.5 64q0 41 -25.5 66t-67.5 25q-31 0 -52.5 -11.5t-31.5 -33.5h-51l33 236h228v-56h-181l-17 -112q15 12 36.5 20t42.5 8q43 0 77 -18t52.5 -50t18.5 -74t-19.5 -74.5t-55 -50.5t-80.5 -18
q-38 0 -69.5 17z" />
    <glyph glyph-name="six.inferior" horiz-adv-x="380" 
d="M273.5 262.5q33.5 -18.5 52 -51t18.5 -73.5q0 -40 -20 -73t-55 -51.5t-78 -18.5q-49 0 -84.5 24.5t-54.5 69t-19 102.5q0 75 21.5 127.5t59 79.5t85.5 27q40 0 71.5 -14.5t51.5 -41t25 -59.5h-60q-6 28 -29.5 45t-56.5 17q-32 0 -56 -20t-38 -54t-16 -77q13 26 43.5 43
t62.5 17q43 0 76.5 -18.5zM240 59.5q21 11.5 32.5 32.5t11.5 47t-11.5 46t-32.5 31.5t-48 11.5t-48 -11.5t-32.5 -31.5t-11.5 -46t11.5 -47t32.5 -32.5t48 -11.5t48 11.5z" />
    <glyph glyph-name="seven.inferior" horiz-adv-x="314" 
d="M115.5 106.5q13.5 49.5 49.5 107.5l94 150h-235v56h306v-51l-113 -183q-31 -50 -41 -92t-10 -94h-64q0 57 13.5 106.5z" />
    <glyph glyph-name="eight.inferior" horiz-adv-x="370" 
d="M108 10q-35 15 -55 43.5t-20 66.5t21 65.5t54 40.5q-26 14 -41.5 36t-15.5 51q0 33 17 58.5t47.5 39.5t70.5 14t70.5 -14t47.5 -39.5t17 -58.5q0 -28 -16 -51t-42 -36q33 -12 53.5 -40.5t20.5 -65.5q0 -38 -20 -66.5t-54.5 -43.5t-76.5 -15q-43 0 -78 15zM240.5 266.5
q20.5 16.5 20.5 44.5t-20.5 44.5t-54.5 16.5q-35 0 -55 -16.5t-20 -44.5t20.5 -44.5t54.5 -16.5t54.5 16.5zM251 69q24 19 24 53t-24 53.5t-65 19.5t-66 -19.5t-25 -53.5q0 -33 25 -52.5t66 -19.5t65 19z" />
    <glyph glyph-name="nine.inferior" horiz-adv-x="381" 
d="M107.5 157.5q-33.5 18.5 -52 51.5t-18.5 73t20 73t54.5 51.5t77.5 18.5q49 0 85 -24.5t55 -68.5t19 -102q0 -75 -21.5 -128t-59 -80t-85.5 -27q-40 0 -71.5 14.5t-51.5 41t-25 59.5h60q6 -28 29 -45t57 -17q32 0 56 20t38 54t16 77q-13 -26 -43.5 -43t-62.5 -17
q-43 0 -76.5 18.5zM141 360.5q-21 -11.5 -33 -32.5t-12 -47t12 -46t33 -31.5t48 -11.5t48 11.5t32.5 31.5t11.5 46t-11.5 47t-32.5 32.5t-48 11.5t-48 -11.5z" />
    <glyph glyph-name="zero.tf" horiz-adv-x="638" 
d="M120 75q-57 83 -57 247v56q0 164 57 247t181 83h35q125 0 182 -82.5t57 -247.5v-56q0 -165 -57 -247.5t-182 -82.5h-35q-124 0 -181 83zM453 129q37 60 37 183v76q0 123 -37 183t-118 60h-31q-81 0 -118 -60t-37 -183v-76q0 -123 37 -183t118 -60h31q81 0 118 60z" />
    <glyph glyph-name="one.tf" horiz-adv-x="638" 
d="M518 77v-77h-403v77h169v477q-8 -12 -25 -18t-38 -6h-67v77h57q23 0 38.5 8t24.5 28.5t11 56.5h84v-623h149z" />
    <glyph glyph-name="two.tf" horiz-adv-x="638" 
d="M113.5 597q27.5 53 81 82t124.5 29q66 0 117.5 -26t80.5 -73.5t29 -109.5q0 -68 -41.5 -124.5t-121.5 -96.5l-100 -51q-50 -25 -85.5 -64t-35.5 -86h388v-77h-471v61q0 84 51 144t119 94l107 55q54 28 78 63.5t24 83.5q0 39 -18 69t-49.5 46.5t-71.5 16.5q-45 0 -78 -20
t-50 -56t-15 -84h-88q-2 71 25.5 124z" />
    <glyph glyph-name="three.tf" horiz-adv-x="638" 
d="M196.5 20.5q-57.5 28.5 -90.5 80.5t-33 119h84q0 -45 22 -79t60 -53t85 -19q74 0 117 34t43 96q0 61 -42.5 93.5t-117.5 32.5h-56v75h55q41 0 71 15.5t46 43t16 62.5q0 51 -37.5 80.5t-100.5 29.5q-60 0 -96.5 -34t-40.5 -96h-83q2 62 31 109t78.5 72.5t111.5 25.5
q64 0 115 -23.5t80 -65.5t29 -95q0 -34 -13.5 -65.5t-36.5 -54.5t-51 -36q37 -12 66.5 -36.5t46 -58.5t16.5 -75q0 -65 -33.5 -111.5t-90 -70.5t-123.5 -24q-70 0 -127.5 28.5z" />
    <glyph glyph-name="four.tf" horiz-adv-x="638" 
d="M36 175v77l361 448h100v-448h109v-77h-109v-175h-85v175h-376zM412 606l-285 -354h285v354z" />
    <glyph glyph-name="five.tf" horiz-adv-x="638" 
d="M200.5 18.5q-51.5 26.5 -83.5 73t-38 105.5h82q8 -61 49 -94.5t105 -33.5q51 0 89.5 19t59 55.5t20.5 85.5q0 50 -20.5 87.5t-59 58t-88.5 20.5q-57 0 -97 -21.5t-56 -60.5h-70l54 387h375v-77h-310l-31 -211q26 25 66 41t79 16q72 0 128 -30.5t87 -85t31 -124.5
t-32.5 -124t-91 -83.5t-133.5 -29.5q-63 0 -114.5 26.5z" />
    <glyph glyph-name="six.tf" horiz-adv-x="638" 
d="M453 437q56 -31 87.5 -85t31.5 -122t-32.5 -122.5t-89.5 -85t-128 -30.5q-79 0 -138 40t-90.5 112.5t-31.5 168.5q0 128 35.5 217t97 134t140.5 45q64 0 115.5 -23.5t84.5 -66t42 -97.5h-86q-11 51 -52 81t-103 30q-55 0 -97.5 -36t-67.5 -98.5t-29 -139.5q15 32 43.5 57
t65 38.5t75.5 13.5q71 0 127 -31zM406 90q37 21 57.5 58t20.5 83t-20.5 82.5t-57.5 57t-84 20.5q-46 0 -83 -20.5t-58 -57t-21 -82.5t21 -83t58 -58t83 -21q47 0 84 21z" />
    <glyph glyph-name="seven.tf" horiz-adv-x="638" 
d="M226 113q8 52 31.5 114t68.5 135l161 261h-408v77h505v-70l-192 -317q-37 -63 -56.5 -116t-26 -98.5t-6.5 -98.5h-86q1 61 9 113z" />
    <glyph glyph-name="eight.tf" horiz-adv-x="638" 
d="M192.5 16.5q-56.5 24.5 -90 71.5t-33.5 111q0 41 17 77t46.5 62t66.5 39q-45 22 -73.5 59.5t-28.5 87.5q0 53 28 95t78 65.5t115 23.5t115 -23.5t78 -65.5t28 -95q0 -50 -28.5 -87.5t-73.5 -59.5q37 -13 66 -39t46 -62t17 -77q0 -64 -33 -111t-89.5 -71.5t-125.5 -24.5
t-125.5 24.5zM390 423.5q31 13.5 47.5 39t16.5 60.5q0 51 -36.5 80.5t-99.5 29.5t-99.5 -29.5t-36.5 -80.5q0 -35 16.5 -60.5t47.5 -39t72 -13.5t72 13.5zM403.5 84.5q36.5 15.5 56 45t19.5 69.5q0 41 -19.5 71t-56 46t-85.5 16t-85.5 -16t-56.5 -46t-20 -71q0 -40 20 -69.5
t56.5 -45t85.5 -15.5t85.5 15.5z" />
    <glyph glyph-name="nine.tf" horiz-adv-x="638" 
d="M186 269.5q-56 30.5 -87.5 84.5t-31.5 122q0 69 32.5 123.5t89.5 85t128 30.5q79 0 138 -40t90.5 -112.5t31.5 -168.5q0 -128 -35.5 -217t-97 -134t-140.5 -45q-64 0 -115.5 23.5t-84.5 66t-42 97.5h86q11 -52 52 -81.5t103 -29.5q55 0 97.5 36t67.5 98.5t29 139.5
q-15 -32 -43.5 -57t-65 -38.5t-75.5 -13.5q-71 0 -127 30.5zM233 617q-37 -21 -57.5 -58t-20.5 -83t20.5 -82.5t57.5 -57t84 -20.5t83.5 20.5t57.5 57t21 82.5t-21 83t-58 58t-83 21q-47 0 -84 -21z" />
    <glyph glyph-name="zero.dnom" horiz-adv-x="374" 
d="M64 45.5q-36 50.5 -36 148.5v32q0 98 36 148.5t112 50.5h22q76 0 112 -50.5t36 -148.5v-32q0 -98 -36 -148.5t-112 -50.5h-22q-76 0 -112 50.5zM261 83.5q21 32.5 21 98.5v57q0 65 -21 97.5t-65 32.5h-17q-88 0 -88 -130v-57q0 -131 88 -131h17q44 0 65 32.5z" />
    <glyph glyph-name="one.dnom" horiz-adv-x="213" 
d="M110 0v322q-5 -7 -17 -11t-26 -4h-37v56h33q23 0 34.5 12.5t14.5 44.5h61v-420h-63z" />
    <glyph glyph-name="two.dnom" horiz-adv-x="305" 
d="M50.5 357q17.5 33 50 50.5t76.5 17.5q41 0 73 -16t50 -45t18 -67q0 -41 -25 -74.5t-74 -58.5l-56 -28q-28 -14 -47.5 -34.5t-19.5 -45.5h223v-56h-288v45q0 49 30 84t70 55l65 33q30 15 44 35.5t14 45.5q0 33 -22 53t-55 20q-37 0 -58 -25t-20 -66h-65q-1 44 16.5 77z
" />
    <glyph glyph-name="three.dnom" horiz-adv-x="363" 
d="M108 12q-35 17 -55 48t-20 72h62q0 -24 12 -42.5t32.5 -28.5t46.5 -10q40 0 63.5 19t23.5 52t-23.5 50.5t-63.5 17.5h-36v54h35q33 0 52.5 18.5t19.5 48.5q0 28 -20.5 44t-55.5 16q-32 0 -52.5 -19t-22.5 -52h-58q1 37 18.5 65.5t48 44t68.5 15.5q39 0 70 -14.5t49 -40
t18 -57.5q0 -28 -16 -53.5t-41 -38.5q34 -13 54 -38.5t20 -61.5q0 -39 -20.5 -67.5t-55 -43.5t-75.5 -15q-43 0 -78 17z" />
    <glyph glyph-name="four.dnom" horiz-adv-x="391" 
d="M20 98v56l213 266h71v-266h60v-56h-60v-98h-64v98h-220zM240 347l-155 -193h155v193z" />
    <glyph glyph-name="five.dnom" horiz-adv-x="317" 
d="M107.5 12q-31.5 17 -51.5 46t-23 63h58q4 -33 27 -52t59 -19q42 0 67.5 24t25.5 64q0 41 -25.5 66t-67.5 25q-31 0 -52.5 -11.5t-31.5 -33.5h-51l33 236h228v-56h-181l-17 -112q15 12 36.5 20t42.5 8q43 0 77 -18t52.5 -50t18.5 -74t-19.5 -74.5t-55 -50.5t-80.5 -18
q-38 0 -69.5 17z" />
    <glyph glyph-name="six.dnom" horiz-adv-x="337" 
d="M273.5 262.5q33.5 -18.5 52 -51t18.5 -73.5q0 -40 -20 -73t-55 -51.5t-78 -18.5q-49 0 -84.5 24.5t-54.5 69t-19 102.5q0 75 21.5 127.5t59 79.5t85.5 27q40 0 71.5 -14.5t51.5 -41t25 -59.5h-60q-6 28 -29.5 45t-56.5 17q-32 0 -56 -20t-38 -54t-16 -77q13 26 43.5 43
t62.5 17q43 0 76.5 -18.5zM240 59.5q21 11.5 32.5 32.5t11.5 47t-11.5 46t-32.5 31.5t-48 11.5t-48 -11.5t-32.5 -31.5t-11.5 -46t11.5 -47t32.5 -32.5t48 -11.5t48 11.5z" />
    <glyph glyph-name="seven.dnom" horiz-adv-x="301" 
d="M115.5 106.5q13.5 49.5 49.5 107.5l94 150h-235v56h306v-51l-113 -183q-31 -50 -41 -92t-10 -94h-64q0 57 13.5 106.5z" />
    <glyph glyph-name="eight.dnom" horiz-adv-x="370" 
d="M108 10q-35 15 -55 43.5t-20 66.5t21 65.5t54 40.5q-26 14 -41.5 36t-15.5 51q0 33 17 58.5t47.5 39.5t70.5 14t70.5 -14t47.5 -39.5t17 -58.5q0 -28 -16 -51t-42 -36q33 -12 53.5 -40.5t20.5 -65.5q0 -38 -20 -66.5t-54.5 -43.5t-76.5 -15q-43 0 -78 15zM240.5 266.5
q20.5 16.5 20.5 44.5t-20.5 44.5t-54.5 16.5q-35 0 -55 -16.5t-20 -44.5t20.5 -44.5t54.5 -16.5t54.5 16.5zM251 69q24 19 24 53t-24 53.5t-65 19.5t-66 -19.5t-25 -53.5q0 -33 25 -52.5t66 -19.5t65 19z" />
    <glyph glyph-name="nine.dnom" horiz-adv-x="381" 
d="M107.5 157.5q-33.5 18.5 -52 51.5t-18.5 73t20 73t54.5 51.5t77.5 18.5q49 0 85 -24.5t55 -68.5t19 -102q0 -75 -21.5 -128t-59 -80t-85.5 -27q-40 0 -71.5 14.5t-51.5 41t-25 59.5h60q6 -28 29 -45t57 -17q32 0 56 20t38 54t16 77q-13 -26 -43.5 -43t-62.5 -17
q-43 0 -76.5 18.5zM141 360.5q-21 -11.5 -33 -32.5t-12 -47t12 -46t33 -31.5t48 -11.5t48 11.5t32.5 31.5t11.5 46t-11.5 47t-32.5 32.5t-48 11.5t-48 -11.5z" />
    <glyph glyph-name="zero.numr" horiz-adv-x="374" 
d="M64 325.5q-36 50.5 -36 148.5v32q0 98 36 148.5t112 50.5h22q76 0 112 -50.5t36 -148.5v-32q0 -98 -36 -148.5t-112 -50.5h-22q-76 0 -112 50.5zM261 363.5q21 32.5 21 98.5v57q0 65 -21 97.5t-65 32.5h-17q-88 0 -88 -130v-57q0 -131 88 -131h17q44 0 65 32.5z" />
    <glyph glyph-name="one.numr" horiz-adv-x="218" 
d="M110 280v322q-5 -7 -17 -11t-26 -4h-37v56h33q23 0 34.5 12.5t14.5 44.5h61v-420h-63z" />
    <glyph glyph-name="two.numr" horiz-adv-x="340" 
d="M50.5 637q17.5 33 50 50.5t76.5 17.5q41 0 73 -16t50 -45t18 -67q0 -41 -25 -74.5t-74 -58.5l-56 -28q-28 -14 -47.5 -34.5t-19.5 -45.5h223v-56h-288v45q0 49 30 84t70 55l65 33q30 15 44 35.5t14 45.5q0 33 -22 53t-55 20q-37 0 -58 -25t-20 -66h-65q-1 44 16.5 77z
" />
    <glyph glyph-name="three.numr" horiz-adv-x="363" 
d="M108 292q-35 17 -55 48t-20 72h62q0 -24 12 -42.5t32.5 -28.5t46.5 -10q40 0 63.5 19t23.5 52t-23.5 50.5t-63.5 17.5h-36v54h35q33 0 52.5 18.5t19.5 48.5q0 28 -20.5 44t-55.5 16q-32 0 -52.5 -19t-22.5 -52h-58q1 37 18.5 65.5t48 44t68.5 15.5q39 0 70 -14.5t49 -40
t18 -57.5q0 -28 -16 -53.5t-41 -38.5q34 -13 54 -38.5t20 -61.5q0 -39 -20.5 -67.5t-55 -43.5t-75.5 -15q-43 0 -78 17z" />
    <glyph glyph-name="four.numr" horiz-adv-x="391" 
d="M20 378v56l213 266h71v-266h60v-56h-60v-98h-64v98h-220zM240 627l-155 -193h155v193z" />
    <glyph glyph-name="five.numr" horiz-adv-x="359" 
d="M107.5 292q-31.5 17 -51.5 46t-23 63h58q4 -33 27 -52t59 -19q42 0 67.5 24t25.5 64q0 41 -25.5 66t-67.5 25q-31 0 -52.5 -11.5t-31.5 -33.5h-51l33 236h228v-56h-181l-17 -112q15 12 36.5 20t42.5 8q43 0 77 -18t52.5 -50t18.5 -74t-19.5 -74.5t-55 -50.5t-80.5 -18
q-38 0 -69.5 17z" />
    <glyph glyph-name="six.numr" horiz-adv-x="380" 
d="M273.5 542.5q33.5 -18.5 52 -51t18.5 -73.5q0 -40 -20 -73t-55 -51.5t-78 -18.5q-49 0 -84.5 24.5t-54.5 69t-19 102.5q0 75 21.5 127.5t59 79.5t85.5 27q40 0 71.5 -14.5t51.5 -41t25 -59.5h-60q-6 28 -29.5 45t-56.5 17q-32 0 -56 -20t-38 -54t-16 -77q13 26 43.5 43
t62.5 17q43 0 76.5 -18.5zM240 339.5q21 11.5 32.5 32.5t11.5 47t-11.5 46t-32.5 31.5t-48 11.5t-48 -11.5t-32.5 -31.5t-11.5 -46t11.5 -47t32.5 -32.5t48 -11.5t48 11.5z" />
    <glyph glyph-name="seven.numr" horiz-adv-x="314" 
d="M115.5 386.5q13.5 49.5 49.5 107.5l94 150h-235v56h306v-51l-113 -183q-31 -50 -41 -92t-10 -94h-64q0 57 13.5 106.5z" />
    <glyph glyph-name="eight.numr" horiz-adv-x="370" 
d="M108 290q-35 15 -55 43.5t-20 66.5t21 65.5t54 40.5q-26 14 -41.5 36t-15.5 51q0 33 17 58.5t47.5 39.5t70.5 14t70.5 -14t47.5 -39.5t17 -58.5q0 -28 -16 -51t-42 -36q33 -12 53.5 -40.5t20.5 -65.5q0 -38 -20 -66.5t-54.5 -43.5t-76.5 -15q-43 0 -78 15zM240.5 546.5
q20.5 16.5 20.5 44.5t-20.5 44.5t-54.5 16.5q-35 0 -55 -16.5t-20 -44.5t20.5 -44.5t54.5 -16.5t54.5 16.5zM251 349q24 19 24 53t-24 53.5t-65 19.5t-66 -19.5t-25 -53.5q0 -33 25 -52.5t66 -19.5t65 19z" />
    <glyph glyph-name="nine.numr" horiz-adv-x="381" 
d="M107.5 437.5q-33.5 18.5 -52 51.5t-18.5 73t20 73t54.5 51.5t77.5 18.5q49 0 85 -24.5t55 -68.5t19 -102q0 -75 -21.5 -128t-59 -80t-85.5 -27q-40 0 -71.5 14.5t-51.5 41t-25 59.5h60q6 -28 29 -45t57 -17q32 0 56 20t38 54t16 77q-13 -26 -43.5 -43t-62.5 -17
q-43 0 -76.5 18.5zM141 640.5q-21 -11.5 -33 -32.5t-12 -47t12 -46t33 -31.5t48 -11.5t48 11.5t32.5 31.5t11.5 46t-11.5 47t-32.5 32.5t-48 11.5t-48 -11.5z" />
    <glyph glyph-name="colon.cap" horiz-adv-x="250" 
d="M157 478h-91v93h91v-93zM157 112h-91v93h91v-93z" />
    <glyph glyph-name="bullet.case" horiz-adv-x="263" 
d="M85 330.5q-19 18.5 -19 46.5q0 17 8.5 31.5t23.5 23t33 8.5q17 0 32 -8.5t23.5 -23t8.5 -31.5q0 -18 -8.5 -33t-23.5 -23.5t-32 -8.5q-27 0 -46 18.5z" />
    <glyph glyph-name="emdash.alt" horiz-adv-x="1147" 
d="M1074 352v-70h-1000v70h1000z" />
    <glyph glyph-name="percent.part" horiz-adv-x="402" 
d="M124 13.5q-35 21.5 -54.5 58t-19.5 80.5t19.5 80.5t54.5 58t78 21.5t77 -21.5t53.5 -58t19.5 -80.5t-19.5 -80.5t-53.5 -58t-77 -21.5t-78 21.5zM247.5 64q19.5 13 30.5 36.5t11 51.5q0 29 -11 52t-30.5 36.5t-45.5 13.5t-46 -13.5t-31 -36.5t-11 -52t11 -52t31 -36
t46 -13t45.5 13z" />
    <glyph glyph-name="percent.part2" horiz-adv-x="746" 
d="M124 409.5q-35 21.5 -54.5 58t-19.5 80.5t19.5 80.5t54.5 58t78 21.5t77 -21.5t53.5 -58t19.5 -80.5t-19.5 -80.5t-53.5 -58t-77 -21.5t-78 21.5zM247.5 460q19.5 13 30.5 36.5t11 51.5q0 29 -11 52t-30.5 36.5t-45.5 13.5t-46 -13.5t-31 -36.5t-11 -52t11 -52t31 -36
t46 -13t45.5 13zM468 13.5q-35 21.5 -54.5 58t-19.5 80.5t19.5 80.5t54.5 58t78 21.5t77 -21.5t53.5 -58t19.5 -80.5t-19.5 -80.5t-53.5 -58t-77 -21.5t-78 21.5zM591.5 64q19.5 13 30.5 36.5t11 51.5q0 29 -11 52t-30.5 36.5t-45.5 13.5t-46 -13.5t-31 -36.5t-11 -52
t11 -52t31 -36t46 -13t45.5 13z" />
    <glyph glyph-name="uni030C.alt" horiz-adv-x="0" 
d="M-47 733l-51 -173h-61l33 173h79z" />
    <glyph glyph-name="uni0335.alt" horiz-adv-x="0" 
d="M-73 452v-62h-340v62h340z" />
    <glyph glyph-name="uni0338.alt" horiz-adv-x="0" 
d="M-479 -30l-42 36l429 529l42 -36z" />
    </font>
</defs>
</svg>
