<?xml version="1.0" standalone="no"?>
<!DOCTYPE svg PUBLIC "-//W3C//DTD SVG 1.1//EN" "http://www.w3.org/Graphics/SVG/1.1/DTD/svg11.dtd" >
<svg xmlns="http://www.w3.org/2000/svg" xmlns:xlink="http://www.w3.org/1999/xlink" version="1.1">
<metadata>
Created by FontForge 20200427 at Thu Aug 22 05:06:58 2019
 By www
Copyright (c) 2019 by Martin Va'cha. All rights reserved.
</metadata>
<defs>
<font id="RoobertTWHINT-Bold" horiz-adv-x="0" >
  <font-face 
    font-family="Roobert TWHINT"
    font-weight="700"
    font-stretch="normal"
    units-per-em="975"
    panose-1="0 0 8 0 0 0 0 0 0 0"
    ascent="780"
    descent="-195"
    x-height="504"
    cap-height="700"
    bbox="-761 -251 1065 1129"
    underline-thickness="50"
    underline-position="-150"
    unicode-range="U+000D-FEFF"
  />
<missing-glyph horiz-adv-x="1067" 
d="M517 796v-1000q-132 4 -243 72.5t-175.5 181.5t-64.5 245q0 131 65 244.5t176 183t242 73.5zM551 -201v994q41 -12 76 -82.5t55.5 -180.5t20.5 -235t-20.5 -234.5t-55.5 -179.5t-76 -82zM735 295q0 106 -14 200.5t-39.5 167.5t-59.5 115q73 -28 131 -99.5t90.5 -171.5
t32.5 -212q0 -113 -32.5 -213t-90.5 -170.5t-131 -97.5q34 42 59.5 114.5t39.5 166.5t14 200zM720 -168q57 46 100 118t66 160.5t23 184.5t-23.5 185t-66.5 161t-102 119q93 -37 165 -107.5t112 -163.5t40 -194t-39.5 -193.5t-111 -162.5t-163.5 -107z" />
    <glyph glyph-name="f_f.liga" unicode="ff" horiz-adv-x="752" 
d="M19 388v116h97v45q0 52 23.5 91.5t66 61t98.5 21.5h95v-116h-76q-31 0 -49.5 -18t-18.5 -48v-37h144v-116h-144v-388h-139v388h-97zM349 388v116h97v45q0 52 23.5 91.5t66 61t98.5 21.5h95v-116h-76q-31 0 -49.5 -18t-18.5 -48v-37h144v-116h-144v-388h-139v388h-97z" />
    <glyph glyph-name="f_f_i.liga" unicode="ffi" horiz-adv-x="963" 
d="M916 0h-139v388h-192v-388h-140v388h-190v-388h-139v388h-97v116h97v45q0 52 23.5 91.5t66 61t98.5 21.5h95v-116h-76q-31 0 -49.5 -18t-18.5 -48v-37h190v45q0 52 23.5 91.5t66.5 61t99 21.5h94v-116h-76q-30 0 -48.5 -18t-18.5 -48v-37h331v-504z" />
    <glyph glyph-name="f_f_l.liga" unicode="ffl" horiz-adv-x="973" 
d="M914 0h-139v388h-190v-388h-140v388h-190v-388h-139v388h-97v116h97v45q0 52 23.5 91.5t66 61t98.5 21.5h95v-116h-76q-31 0 -49.5 -18t-18.5 -48v-37h190v45q0 52 23.5 91.5t66.5 61t99 21.5h67v-116h-49q-30 0 -48.5 -18t-18.5 -48v-37h190v219h139v-723z" />
    <glyph glyph-name="f_i.liga" unicode="fi" horiz-adv-x="631" 
d="M585 0h-140v388h-190v-388h-139v388h-97v116h97v45q0 52 23.5 91.5t66 61t98.5 21.5h95v-116h-76q-31 0 -49.5 -18t-18.5 -48v-37h330v-504z" />
    <glyph glyph-name="f_l.liga" unicode="fl" horiz-adv-x="643" 
d="M585 0h-140v388h-190v-388h-139v388h-97v116h97v45q0 52 23.5 91.5t66 61t98.5 21.5h67v-116h-48q-31 0 -49.5 -18t-18.5 -48v-37h190v219h140v-723z" />
    <glyph glyph-name="r_f.liga" unicode="rf" horiz-adv-x="696" 
d="M413.5 640.5q23.5 39.5 66 61t98.5 21.5h95v-116h-76q-31 0 -49.5 -18t-18.5 -48v-37h144v-116h-144v-388h-139v549q0 52 23.5 91.5zM216 350q-25 -38 -25 -105v-245h-140v504h140v-84q20 46 49.5 65t76.5 19h34v-116h-60q-50 0 -75 -38z" />
    <glyph glyph-name="r_t.liga" unicode="rt" horiz-adv-x="688" 
d="M529 504h135v-116h-135v-199q0 -36 18.5 -54t52.5 -18h64v-117h-83q-58 0 -101 21.5t-66.5 62.5t-23.5 99v470h139v-149zM216 350q-25 -38 -25 -105v-245h-140v504h140v-84q20 46 49.5 65t76.5 19h34v-116h-60q-50 0 -75 -38z" />
    <glyph glyph-name="t_t.liga" unicode="tt" horiz-adv-x="769" 
d="M255 504h135v-116h-135v-199q0 -36 18.5 -54t52.5 -18h64v-117h-83q-58 0 -101 21.5t-66.5 62.5t-23.5 99v205h-97v116h97v149h139v-149zM610 504h135v-116h-135v-199q0 -36 18.5 -54t52.5 -18h64v-117h-83q-58 0 -101 21.5t-66.5 62.5t-23.5 99v205h-97v116h97v149h139
v-149z" />
    <glyph glyph-name=".notdef" horiz-adv-x="1067" 
d="M517 796v-1000q-132 4 -243 72.5t-175.5 181.5t-64.5 245q0 131 65 244.5t176 183t242 73.5zM551 -201v994q41 -12 76 -82.5t55.5 -180.5t20.5 -235t-20.5 -234.5t-55.5 -179.5t-76 -82zM735 295q0 106 -14 200.5t-39.5 167.5t-59.5 115q73 -28 131 -99.5t90.5 -171.5
t32.5 -212q0 -113 -32.5 -213t-90.5 -170.5t-131 -97.5q34 42 59.5 114.5t39.5 166.5t14 200zM720 -168q57 46 100 118t66 160.5t23 184.5t-23.5 185t-66.5 161t-102 119q93 -37 165 -107.5t112 -163.5t40 -194t-39.5 -193.5t-111 -162.5t-163.5 -107z" />
    <glyph glyph-name=".null" 
 />
    <glyph glyph-name="nonmarkingreturn" unicode="&#xd;" horiz-adv-x="211" 
d="M0 0z" />
    <glyph glyph-name="space" unicode=" " horiz-adv-x="211" 
d="M0 0z" />
    <glyph glyph-name="exclam" unicode="!" horiz-adv-x="298" 
d="M238 700l-34 -501h-110l-33 501h177zM74 0v144h151v-144h-151z" />
    <glyph glyph-name="quotedbl" unicode="&#x22;" horiz-adv-x="470" 
d="M411 723l-30 -258h-85l-30 258h145zM204 723l-30 -258h-85l-30 258h145z" />
    <glyph glyph-name="numbersign" unicode="#" horiz-adv-x="733" 
d="M48 191v102h140l26 114h-124v102h145l41 191h106l-41 -191h119l42 191h106l-42 -191h120v-102h-140l-26 -114h124v-102h-146l-41 -191h-105l41 191h-120l-42 -191h-106l43 191h-120zM440 407h-121l-25 -114h120z" />
    <glyph glyph-name="dollar" unicode="$" horiz-adv-x="603" 
d="M534.5 108q-23.5 -43 -67 -71.5t-102.5 -38.5v-103h-129v102q-63 10 -110 42.5t-73.5 83.5t-28.5 115h144q5 -54 38.5 -85t88.5 -31q51 0 81.5 21t30.5 60q0 27 -17.5 43.5t-43.5 25.5t-74 21q-71 17 -116.5 36.5t-78.5 62.5t-33 118q0 50 24 91t67.5 68t100.5 35v92h129
v-97q53 -12 93 -41.5t62 -73t23 -96.5h-143q-4 42 -34 66.5t-80 24.5q-44 0 -70 -19t-26 -50q0 -29 18 -46t46 -26.5t77 -20.5q72 -17 117 -35t77.5 -60.5t32.5 -116.5q0 -54 -23.5 -97z" />
    <glyph glyph-name="percent" unicode="%" horiz-adv-x="754" 
d="M693 700l-508 -700h-124l509 700h123zM124 409q-35 21 -54.5 57.5t-19.5 81.5t19.5 81.5t54.5 57.5t79 21q45 0 79.5 -21t54 -57.5t19.5 -81.5t-19.5 -81.5t-54 -57.5t-79.5 -21q-44 0 -79 21zM245.5 496q16.5 20 16.5 52t-16.5 52t-42.5 20q-25 0 -41 -20t-16 -52
t16 -52t41 -20q26 0 42.5 20zM474 13q-35 21 -54.5 57.5t-19.5 81.5t19.5 81.5t54.5 57.5t79 21q45 0 79.5 -21t54 -57.5t19.5 -81.5t-19.5 -81.5t-54 -57.5t-79.5 -21q-44 0 -79 21zM595.5 100q16.5 20 16.5 52t-16.5 52t-42.5 20q-25 0 -41 -20t-16 -52t16 -52t41 -20
q26 0 42.5 20z" />
    <glyph glyph-name="ampersand" unicode="&#x26;" horiz-adv-x="679" 
d="M513 0l-54 59q-40 -34 -85.5 -50.5t-100.5 -16.5q-69 0 -122.5 25.5t-83.5 73t-30 112.5q0 68 34 111.5t93 73.5q-30 37 -46 70.5t-16 66.5q0 54 23.5 95.5t67 64.5t100.5 23q56 0 99.5 -22.5t67 -64t23.5 -94.5q0 -69 -35.5 -110.5t-97.5 -71.5l106 -116l59 70
q30 39 60.5 52.5t75.5 13.5v-129q-29 0 -51 -17.5t-43 -44.5l-23 -31l130 -143h-151zM270 436q46 21 70 43t24 55q0 31 -19.5 49.5t-51.5 18.5t-51 -19.5t-19 -51.5q0 -36 47 -95zM327 122.5q27 8.5 52 25.5l-135 148q-36 -19 -55 -41t-19 -53q0 -41 27.5 -64.5t76.5 -23.5
q26 0 53 8.5z" />
    <glyph glyph-name="quotesingle" unicode="'" horiz-adv-x="263" 
d="M204 723l-30 -258h-85l-30 258h145z" />
    <glyph glyph-name="parenleft" unicode="(" horiz-adv-x="299" 
d="M69.5 84q-42.5 117 -42.5 251t42.5 251t126.5 213l95 -71q-68 -90 -101 -187.5t-33 -205.5t33 -205.5t101 -187.5l-95 -71q-84 96 -126.5 213z" />
    <glyph glyph-name="parenright" unicode=")" horiz-adv-x="299" 
d="M109 129.5q33 97.5 33 205.5t-33 205.5t-101 187.5l95 71q84 -96 126.5 -213t42.5 -251t-42.5 -251t-126.5 -213l-95 71q68 90 101 187.5z" />
    <glyph glyph-name="asterisk" unicode="*" horiz-adv-x="465" 
d="M156 506l-120 40l30 90l119 -39v126h95v-126l119 39l30 -90l-119 -40l74 -102l-77 -56l-75 103l-74 -103l-77 56z" />
    <glyph glyph-name="plus" unicode="+" horiz-adv-x="653" 
d="M588 258h-202v-202h-119v202h-202v119h202v202h119v-202h202v-119z" />
    <glyph glyph-name="comma" unicode="," horiz-adv-x="297" 
d="M90 -35q14 17 14 45v134h142v-149q0 -48 -19.5 -84.5t-55 -57t-81.5 -20.5h-59v115h22q23 0 37 17z" />
    <glyph glyph-name="hyphen" unicode="-" horiz-adv-x="487" 
d="M441 377v-119h-394v119h394z" />
    <glyph glyph-name="period" unicode="." horiz-adv-x="253" 
d="M202 0h-151v144h151v-144z" />
    <glyph glyph-name="slash" unicode="/" horiz-adv-x="459" 
d="M451 700l-315 -701h-127l314 701h128z" />
    <glyph glyph-name="zero" unicode="0" horiz-adv-x="645" 
d="M107 78.5q-65 86.5 -65 249.5v45q0 163 65 249t195 86h41q130 0 195 -86.5t65 -248.5v-45q0 -163 -65 -249.5t-195 -86.5h-41q-130 0 -195 86.5zM396.5 140q26.5 18 41.5 54.5t15 88.5v135q0 52 -15 88.5t-41.5 54.5t-60.5 18h-27q-34 0 -60 -18t-41 -54t-15 -89v-135
q0 -53 15 -89t41 -54t60 -18h27q34 0 60.5 18z" />
    <glyph glyph-name="one" unicode="1" horiz-adv-x="394" 
d="M179 0v499q-9 -13 -37 -20.5t-54 -7.5h-50v129h47q46 0 71 22t32 78h142v-700h-151z" />
    <glyph glyph-name="two" unicode="2" horiz-adv-x="575" 
d="M74 588q31 58 88.5 89t135.5 31q74 0 131 -27.5t88.5 -77t31.5 -115.5q0 -71 -41.5 -127t-125.5 -98l-111 -56q-33 -17 -54 -36t-21 -41h351v-130h-500l-1 111q0 51 24.5 93t60 71.5t73.5 48.5l114 57q39 18 59.5 45t20.5 62q0 45 -26.5 71.5t-73.5 26.5q-51 0 -78 -37
t-25 -98h-151q-1 79 30 137z" />
    <glyph glyph-name="three" unicode="3" horiz-adv-x="620" 
d="M180 19.5q-60 27.5 -95 79.5t-35 122h145q0 -32 16 -54.5t43 -33.5t60 -11q52 0 82.5 24t30.5 66q0 40 -30.5 63.5t-82.5 23.5h-67v123h64q41 0 66 22.5t25 57.5t-27 56t-71 21q-45 0 -72 -23t-28 -70h-142q0 68 34.5 118t90 77t120.5 27q67 0 122 -25.5t86.5 -69.5
t31.5 -95q0 -48 -22.5 -88t-60.5 -61q52 -19 82 -62t30 -99q0 -66 -35.5 -115t-95.5 -75t-131 -26q-74 0 -134 27.5z" />
    <glyph glyph-name="four" unicode="4" horiz-adv-x="656" 
d="M31 138v129l341 433h161v-433h82v-129h-82v-138h-151v138h-351zM383 517l-204 -250h204v250z" />
    <glyph glyph-name="five" unicode="5" horiz-adv-x="611" 
d="M177.5 20.5q-56.5 28.5 -90 78t-36.5 110.5h142q6 -41 34 -64t74 -23q35 0 61.5 14t41 39t14.5 59t-14.5 60t-40.5 40.5t-61 14.5q-39 0 -65 -13.5t-42 -40.5h-132l59 405h400v-129h-289l-21 -136q20 17 50.5 27.5t70.5 10.5q66 0 120 -31.5t85 -86t31 -121.5
q0 -69 -35 -124t-96 -86.5t-136 -31.5q-68 0 -124.5 28.5z" />
    <glyph glyph-name="six" unicode="6" horiz-adv-x="649" 
d="M472.5 436q55.5 -31 86 -85t30.5 -120t-35 -121t-95.5 -86.5t-132.5 -31.5q-88 0 -150 44t-94 120.5t-32 173.5q0 117 35.5 202t100.5 130.5t150 45.5q73 0 130 -27t91.5 -73.5t41.5 -103.5h-139q-8 35 -40 57.5t-78 22.5q-43 0 -76.5 -24.5t-53 -68t-22.5 -98.5
q22 32 66 53t89 21q72 0 127.5 -31zM386.5 135.5q24.5 13.5 38 38.5t13.5 57q0 31 -13.5 55.5t-38.5 38.5t-57 14q-33 0 -58 -14t-39 -38.5t-14 -55.5q0 -32 14 -57t39 -38.5t58 -13.5t57.5 13.5z" />
    <glyph glyph-name="seven" unicode="7" horiz-adv-x="566" 
d="M170.5 180q21.5 79 75.5 165l144 226h-353v129h519v-117l-179 -279q-44 -68 -61 -137.5t-17 -166.5h-150q0 101 21.5 180z" />
    <glyph glyph-name="eight" unicode="8" horiz-adv-x="620" 
d="M174.5 19q-60.5 27 -95 76t-34.5 112q0 59 31 102.5t83 67.5q-38 25 -60.5 62t-22.5 80q0 54 30 97.5t83.5 67.5t121.5 24t121.5 -24t83.5 -67.5t30 -97.5q0 -44 -23 -80.5t-63 -61.5q54 -23 85 -67t31 -103q0 -63 -34.5 -112t-95 -76t-135.5 -27q-76 0 -136.5 27z
M381 456.5q26 20.5 26 55.5q0 34 -26 55t-70 21t-70 -20.5t-26 -55.5t26 -55.5t70 -20.5t70 20.5zM396.5 145q31.5 24 31.5 66t-31.5 66.5t-85.5 24.5t-87 -24.5t-33 -66.5t33 -66t87 -24t85.5 24z" />
    <glyph glyph-name="nine" unicode="9" horiz-adv-x="647" 
d="M174.5 264q-55.5 31 -86 85t-30.5 120t35 121t95.5 86.5t132.5 31.5q88 0 150 -44t94 -120.5t32 -173.5q0 -117 -35.5 -202t-100 -130.5t-150.5 -45.5q-73 0 -130 27t-91 73.5t-41 103.5h139q5 -23 21 -41t41 -28.5t56 -10.5q42 0 75.5 25t53 68.5t22.5 98.5
q-22 -33 -66 -54t-89 -21q-72 0 -127.5 31zM261 565q-25 -14 -38.5 -39t-13.5 -57q0 -31 13.5 -55.5t38.5 -38t57 -13.5q33 0 58 13.5t39 38t14 55.5q0 32 -14 57t-39 39t-58 14q-32 0 -57 -14z" />
    <glyph glyph-name="colon" unicode=":" horiz-adv-x="253" 
d="M202 353h-151v144h151v-144zM202 0h-151v144h151v-144z" />
    <glyph glyph-name="semicolon" unicode=";" horiz-adv-x="301" 
d="M90 -35q14 17 14 45v134h142v-149q0 -48 -19.5 -84.5t-55 -57t-81.5 -20.5h-59v115h22q23 0 37 17zM250 353h-151v144h151v-144z" />
    <glyph glyph-name="less" unicode="&#x3c;" horiz-adv-x="482" 
d="M34 368l411 206v-142l-259 -122l259 -122v-141l-411 205v116z" />
    <glyph glyph-name="equal" unicode="=" horiz-adv-x="653" 
d="M588 245v-119h-523v119h523zM588 469v-119h-523v119h523z" />
    <glyph glyph-name="greater" unicode="&#x3e;" horiz-adv-x="482" 
d="M296 310l-258 122v142l410 -206v-116l-410 -205v141z" />
    <glyph glyph-name="question" unicode="?" horiz-adv-x="593" 
d="M216 310.5q16 29.5 38.5 48t58.5 40.5q30 19 46 31.5t27.5 31t11.5 42.5q0 23 -12 42t-35 30t-54 11q-49 0 -75.5 -33.5t-26.5 -90.5h-151q2 79 34 134t88.5 83t130.5 28t131.5 -26t89 -72.5t31.5 -105.5q0 -49 -18 -82t-42.5 -52t-64.5 -42q-29 -17 -45.5 -28.5
t-27.5 -28t-11 -39.5v-19h-140v26q0 42 16 71.5zM195 0v144h150v-144h-150z" />
    <glyph glyph-name="at" unicode="@" horiz-adv-x="930" 
d="M716.5 684q80.5 -43 125.5 -119t45 -172v-72q0 -67 -20.5 -116.5t-58.5 -76t-88 -26.5q-51 0 -89 18.5t-48 49.5q-13 -33 -48 -53.5t-93 -20.5q-59 0 -102 25.5t-65.5 72.5t-22.5 110q0 62 22.5 109t65 72.5t100.5 25.5q36 0 65 -12.5t46 -33.5v39h114v-241q0 -21 14 -34
t35 -13q27 0 40.5 24t13.5 81v72q0 63 -30 113t-83 78.5t-121 28.5h-128q-70 0 -125 -30t-86.5 -82.5t-31.5 -118.5v-136q0 -73 30.5 -131t85 -90.5t122.5 -32.5h249v-114l-249 -1q-103 0 -184 47t-127 131t-46 191v136q0 99 46.5 177.5t129 123t186.5 44.5h128
q102 0 182.5 -43zM510.5 206.5q22.5 13.5 35 38.5t12.5 59q0 33 -12 58t-34.5 38.5t-51.5 13.5t-51 -13.5t-34 -38.5t-12 -58t12 -58t33.5 -39t49.5 -14q30 0 52.5 13.5z" />
    <glyph glyph-name="A" unicode="A" horiz-adv-x="685" 
d="M469 153h-253l-55 -153h-156l266 700h143l266 -700h-156zM424 279l-81 227l-82 -227h163z" />
    <glyph glyph-name="B" unicode="B" horiz-adv-x="633" 
d="M343 700q64 0 114.5 -21t79 -61.5t28.5 -97.5q0 -46 -24 -83t-58 -55q52 -20 85 -64t33 -109t-31.5 -112.5t-88 -72t-130.5 -24.5h-286v700h278zM402.5 452q23.5 19 23.5 55q0 74 -97 74h-116v-148h119q47 0 70.5 19zM428.5 152q29.5 22 29.5 65q0 89 -120 89h-125v-176
h125q61 0 90.5 22z" />
    <glyph glyph-name="C" unicode="C" horiz-adv-x="734" 
d="M208 33q-80 41 -127 122t-47 195t47.5 195t127.5 122t176 41q87 0 157.5 -31t114 -88t52.5 -132h-157q-5 36 -28 63.5t-59 43t-80 15.5q-57 0 -102.5 -26.5t-71.5 -78t-26 -124.5t26 -124.5t71.5 -77.5t102.5 -26q45 0 81.5 15t60 42.5t29.5 63.5h150q-6 -74 -48.5 -131
t-113 -88.5t-159.5 -31.5q-97 0 -177 41z" />
    <glyph glyph-name="D" unicode="D" horiz-adv-x="696" 
d="M300 700q100 0 182 -38.5t131 -117.5t49 -194q0 -114 -49 -193t-131 -118t-182 -39h-235v700h235zM397.5 151.5q50.5 21.5 81.5 71t31 127.5t-31 127.5t-81.5 71.5t-112.5 22h-70v-441h70q62 0 112.5 21.5z" />
    <glyph glyph-name="E" unicode="E" horiz-adv-x="586" 
d="M541 700v-129h-326v-148h260v-130h-260v-163h337v-130h-487v700h476z" />
    <glyph glyph-name="F" unicode="F" horiz-adv-x="575" 
d="M541 700v-129h-326v-156h260v-130h-260v-285h-150v700h476z" />
    <glyph glyph-name="G" unicode="G" horiz-adv-x="746" 
d="M207.5 33q-78.5 41 -126 121.5t-47.5 195.5t49 195.5t130 121.5t176 41q87 0 156 -32t110 -89.5t45 -131.5h-149q-5 37 -27 65t-57 43.5t-79 15.5q-60 0 -108 -27.5t-75.5 -79t-27.5 -122.5t27.5 -124.5t75 -82.5t105.5 -29q43 0 83 18.5t65 48t25 61.5q0 13 -7.5 20.5
t-20.5 7.5h-135v113h190q32 0 57.5 -15.5t40.5 -41.5t15 -56v-270h-133v107q-11 -34 -38.5 -60t-65.5 -40.5t-83 -14.5q-92 0 -170.5 41z" />
    <glyph glyph-name="H" unicode="H" horiz-adv-x="718" 
d="M654 700v-700h-151v293h-288v-293h-150v700h150v-278h288v278h151z" />
    <glyph glyph-name="I" unicode="I" horiz-adv-x="281" 
d="M216 700v-700h-151v700h151z" />
    <glyph glyph-name="J" unicode="J" horiz-adv-x="363" 
d="M148 150q15 20 15 66v484h150v-491q0 -104 -48.5 -156.5t-138.5 -52.5h-103v130h73q37 0 52 20z" />
    <glyph glyph-name="K" unicode="K" horiz-adv-x="697" 
d="M312 311l-96 -105v-206h-151v700h151v-292l264 292h187l-252 -277l277 -423h-189z" />
    <glyph glyph-name="L" unicode="L" horiz-adv-x="545" 
d="M216 700v-570h318v-130h-469v700h151z" />
    <glyph glyph-name="M" unicode="M" horiz-adv-x="876" 
d="M234 700l204 -489l205 489h168v-700h-140v427l-177 -427h-111l-178 427v-427h-140v700h169z" />
    <glyph glyph-name="N" unicode="N" horiz-adv-x="721" 
d="M225 700l281 -463v463h150v-700h-160l-281 463v-463h-150v700h160z" />
    <glyph glyph-name="O" unicode="O" horiz-adv-x="782" 
d="M208.5 38.5q-81.5 46.5 -128 128t-46.5 183.5t46.5 183.5t128 128t183.5 46.5q101 0 182.5 -46.5t128 -128t46.5 -183.5t-46.5 -183.5t-128 -128t-182.5 -46.5q-102 0 -183.5 46.5zM497.5 151.5q47.5 29.5 74 81.5t26.5 117t-26.5 117t-74 82t-106.5 30t-106 -30
t-73.5 -82t-26.5 -117t26.5 -117t73.5 -81.5t106 -29.5t106.5 29.5z" />
    <glyph glyph-name="P" unicode="P" horiz-adv-x="606" 
d="M353 700q73 0 126.5 -28t81.5 -78t28 -115q0 -64 -28 -114t-81.5 -78.5t-126.5 -28.5h-137v-258h-151v700h288zM419 410.5q25 27.5 25 68.5t-25 68.5t-75 27.5h-128v-192h128q50 0 75 27.5z" />
    <glyph glyph-name="Q" unicode="Q" horiz-adv-x="782" 
d="M712 185q-37 -75 -103 -124t-150 -63v-29q0 -35 16 -49.5t52 -14.5h89v-109h-97q-67 0 -109 17t-62 53t-20 95v36q-86 14 -152.5 63t-104 124t-37.5 166q0 102 46.5 183.5t128 128t183.5 46.5q101 0 182.5 -46.5t128 -128t46.5 -183.5q0 -90 -37 -165zM211.5 233
q26.5 -52 73.5 -81.5t106 -29.5t106.5 29.5t74 81.5t26.5 117t-26.5 117t-74 82t-106.5 30t-106 -30t-73.5 -82t-26.5 -117t26.5 -117z" />
    <glyph glyph-name="R" unicode="R" horiz-adv-x="669" 
d="M607 0h-150l-19 173q-4 36 -27.5 58.5t-58.5 22.5h-136v-254h-151v700h295q73 0 126.5 -28t81.5 -78t28 -114q0 -51 -23 -87.5t-65 -58.5q34 -24 55 -60t25 -81zM216 383h136q49 0 74 28t25 69t-25 68t-74 27h-136v-192z" />
    <glyph glyph-name="S" unicode="S" horiz-adv-x="583" 
d="M156 22.5q-60 30.5 -94.5 86t-37.5 129.5h144q5 -54 38.5 -85t88.5 -31q51 0 81.5 21t30.5 60q0 27 -17.5 43.5t-43.5 25.5t-74 21q-71 17 -116.5 36.5t-78.5 62.5t-33 118q0 57 31 102t86 70.5t125 25.5q75 0 132.5 -27t90 -77t34.5 -116h-143q-4 42 -34 66.5t-80 24.5
q-44 0 -70 -19t-26 -50q0 -29 18 -46t46 -26.5t77 -20.5q72 -17 117 -35t77.5 -60.5t32.5 -116.5q0 -65 -33 -113t-92.5 -74t-137.5 -26q-79 0 -139 30.5z" />
    <glyph glyph-name="T" unicode="T" horiz-adv-x="580" 
d="M8 571v129h564v-129h-207v-571h-150v571h-207z" />
    <glyph glyph-name="U" unicode="U" horiz-adv-x="660" 
d="M183.5 22q-62.5 30 -97.5 89.5t-35 146.5v442h141v-442q0 -67 37.5 -101t100.5 -34t101 34t38 101v442h140v-442q0 -87 -34.5 -146.5t-97.5 -89.5t-147 -30t-146.5 30z" />
    <glyph glyph-name="V" unicode="V" horiz-adv-x="659" 
d="M157 700l172 -512l174 512h151l-252 -700h-145l-252 700h152z" />
    <glyph glyph-name="W" unicode="W" horiz-adv-x="1018" 
d="M168 700l134 -479l143 479h127l144 -479l135 479h152l-207 -700h-148l-139 466l-139 -466h-146l-208 700h152z" />
    <glyph glyph-name="X" unicode="X" horiz-adv-x="625" 
d="M446 0l-133 220l-133 -220h-160l214 350l-212 350h156l134 -221l135 221h156l-212 -350l213 -350h-158z" />
    <glyph glyph-name="Y" unicode="Y" horiz-adv-x="630" 
d="M1 700h161l153 -270l153 270h161l-239 -410v-290h-151v290z" />
    <glyph glyph-name="Z" unicode="Z" horiz-adv-x="592" 
d="M396 572h-353v128h521v-128l-371 -444h372v-128h-541v128z" />
    <glyph glyph-name="bracketleft" unicode="[" horiz-adv-x="317" 
d="M293 752v-113h-103v-578h103v-113h-227v804h227z" />
    <glyph glyph-name="backslash" unicode="\" horiz-adv-x="460" 
d="M324 -1l-315 701h128l314 -701h-127z" />
    <glyph glyph-name="bracketright" unicode="]" horiz-adv-x="317" 
d="M24 -52v113h103v578h-103v113h228v-804h-228z" />
    <glyph glyph-name="asciicircum" unicode="^" horiz-adv-x="594" 
d="M355 700l203 -290h-137l-123 172l-125 -172h-137l204 290h115z" />
    <glyph glyph-name="underscore" unicode="_" horiz-adv-x="653" 
d="M588 0v-119h-523v119h523z" />
    <glyph glyph-name="grave" unicode="`" horiz-adv-x="318" 
d="M50 708h149l69 -148h-117z" />
    <glyph glyph-name="a" unicode="a" horiz-adv-x="524" 
d="M373 488.5q50 -23.5 78.5 -66t28.5 -98.5v-324h-138v70q-13 -35 -51.5 -56.5t-90.5 -21.5q-48 0 -85.5 19.5t-58.5 54t-21 77.5q0 49 23 85t64.5 55t96.5 19h85q18 0 28 10.5t10 26.5q0 32 -24 51.5t-66 19.5q-29 0 -50 -11t-32 -29t-12 -40h-124q3 51 31 92.5t78 65.5
t117 24q63 0 113 -23.5zM292.5 108q24.5 15 37 41t12.5 58v7h-102q-32 0 -52 -18t-20 -47q0 -25 19 -40.5t48 -15.5q33 0 57.5 15z" />
    <glyph glyph-name="b" unicode="b" horiz-adv-x="599" 
d="M256 9q-37 17 -58 46v-55h-139v723h139v-272q22 28 58 44.5t82 16.5q73 0 126 -32t81.5 -91t28.5 -137t-28.5 -137t-82 -91t-127.5 -32q-43 0 -80 17zM378 129.5q28 17.5 43.5 49.5t15.5 73q0 42 -15.5 74t-43.5 49.5t-64 17.5q-37 0 -65 -17.5t-43.5 -49.5t-15.5 -74
t15.5 -73.5t43.5 -49t65 -17.5q36 0 64 17.5z" />
    <glyph glyph-name="c" unicode="c" horiz-adv-x="555" 
d="M149.5 26q-59.5 34 -92 93.5t-32.5 132.5t32.5 132.5t92 93.5t135.5 34q66 0 120.5 -25t88 -70t37.5 -102h-140q-4 22 -18.5 40t-36.5 28t-47 10q-37 0 -64 -18t-41 -50t-14 -73t14.5 -73t42 -49.5t64.5 -17.5q38 0 66 21t36 55h142q-7 -55 -42 -100t-89.5 -70.5
t-118.5 -25.5q-76 0 -135.5 34z" />
    <glyph glyph-name="d" unicode="d" horiz-adv-x="599" 
d="M136 24q-54 32 -82.5 91t-28.5 137t28.5 137t82 91t125.5 32q46 0 82 -16.5t58 -44.5v272h139v-723h-139v55q-21 -29 -58 -46t-80 -17q-73 0 -127 32zM350.5 129.5q27.5 17.5 43 49t15.5 73.5t-15.5 74t-43 49.5t-64.5 17.5t-64.5 -17.5t-43 -49.5t-15.5 -74t15.5 -73.5
t43 -49t64.5 -17.5t64.5 17.5z" />
    <glyph glyph-name="e" unicode="e" horiz-adv-x="549" 
d="M524 171q-10 -54 -43 -94.5t-84 -62.5t-113 -22q-82 0 -140.5 37.5t-88.5 97.5t-30 126q0 67 27.5 126t84 96t137.5 37q84 0 140 -36t82.5 -92t26.5 -118q0 -23 -2 -45h-362q8 -54 40.5 -84.5t84.5 -30.5q42 0 69 16.5t35 48.5h136zM198 385.5q-28 -24.5 -37 -76.5h223
q-2 28 -15.5 51t-38 36.5t-56.5 13.5q-48 0 -76 -24.5z" />
    <glyph glyph-name="f" unicode="f" horiz-adv-x="422" 
d="M19 388v116h97v45q0 52 23.5 91.5t66 61t98.5 21.5h95v-116h-76q-31 0 -49.5 -18t-18.5 -48v-37h144v-116h-144v-388h-139v388h-97z" />
    <glyph glyph-name="g" unicode="g" horiz-adv-x="607" 
d="M548 504v-534q0 -52 -23.5 -91.5t-67 -61t-99.5 -21.5h-254v109h232q32 0 52.5 22.5t20.5 57.5v66q-19 -28 -56 -43.5t-82 -15.5q-74 0 -127.5 32t-82 91t-28.5 137t28.5 137t81.5 91t126 32q45 0 81.5 -15.5t57.5 -42.5v50h140zM358 129.5q28 17.5 43.5 49t15.5 73.5
t-15.5 74t-43.5 49.5t-65 17.5t-64.5 -17.5t-43 -49.5t-15.5 -74t15.5 -73.5t43 -49t64.5 -17.5t65 17.5z" />
    <glyph glyph-name="h" unicode="h" horiz-adv-x="590" 
d="M198 723v-289q22 37 62 57.5t92 20.5q56 0 98.5 -25t65.5 -70t23 -103v-314h-139v283q0 30 -12.5 54t-34.5 37.5t-51 13.5q-30 0 -53.5 -14.5t-37 -40t-13.5 -57.5v-276h-139v723h139z" />
    <glyph glyph-name="i" unicode="i" horiz-adv-x="242" 
d="M191 504v-504h-140v504h140zM195 576h-148v147h148v-147z" />
    <glyph glyph-name="j" unicode="j" horiz-adv-x="241" 
d="M190 504v-539q0 -79 -46 -124t-131 -45h-56v109h33q61 0 61 75v524h139zM196 576h-148v147h148v-147z" />
    <glyph glyph-name="k" unicode="k" horiz-adv-x="571" 
d="M255 213l-56 -55v-158h-140v723h140v-391l175 172h176l-201 -198l217 -306h-168z" />
    <glyph glyph-name="l" unicode="l" horiz-adv-x="257" 
d="M198 723v-723h-139v723h139z" />
    <glyph glyph-name="m" unicode="m" horiz-adv-x="888" 
d="M191 504v-71q21 36 57.5 57.5t85.5 21.5q117 0 154 -92q12 25 36.5 46t58.5 33.5t73 12.5q54 0 95 -24t63.5 -65.5t22.5 -92.5v-330h-139v286q0 49 -24.5 78.5t-64.5 29.5q-43 0 -69 -29.5t-26 -78.5v-286h-140v286q0 49 -24 78.5t-64 29.5q-43 0 -69 -29.5t-26 -78.5
v-286h-140v504h140z" />
    <glyph glyph-name="n" unicode="n" horiz-adv-x="583" 
d="M191 504v-70q21 37 61 57.5t92 20.5q56 0 98.5 -25t66 -70t23.5 -103v-314h-140v283q0 30 -12 54t-34 37.5t-51 13.5q-30 0 -53.5 -14.5t-37 -40t-13.5 -57.5v-276h-140v504h140z" />
    <glyph glyph-name="o" unicode="o" horiz-adv-x="582" 
d="M154 25.5q-61 33.5 -95 93t-34 133.5t34 133.5t95 93t137 33.5t137 -33.5t95 -93t34 -133.5t-34 -133.5t-95 -93t-137 -33.5t-137 33.5zM356.5 129.5q28.5 17.5 44.5 49.5t16 73q0 42 -16 74t-44.5 49.5t-65.5 17.5t-65.5 -17.5t-44.5 -49.5t-16 -74q0 -41 16 -73
t44.5 -49.5t65.5 -17.5t65.5 17.5z" />
    <glyph glyph-name="p" unicode="p" horiz-adv-x="599" 
d="M198 504v-55q23 30 60 46.5t85 16.5q70 0 122 -32t80.5 -91t28.5 -137t-30.5 -136.5t-85.5 -91t-127 -32.5q-43 0 -78 14t-55 39v-249h-139v708h139zM378 129.5q28 17.5 43.5 49.5t15.5 73q0 42 -15.5 74t-43.5 49.5t-64 17.5q-37 0 -65 -17.5t-43.5 -49.5t-15.5 -74
t15.5 -73.5t43.5 -49t65 -17.5q36 0 64 17.5z" />
    <glyph glyph-name="q" unicode="q" horiz-adv-x="599" 
d="M401 -204v249q-20 -25 -55 -39t-78 -14q-72 0 -127 32.5t-85.5 91t-30.5 136.5t28.5 137t81 91t122.5 32q48 0 84.5 -16.5t59.5 -46.5v55h139v-708h-139zM350.5 129.5q27.5 17.5 43 49t15.5 73.5t-15.5 74t-43 49.5t-64.5 17.5t-64.5 -17.5t-43 -49.5t-15.5 -74
t15.5 -73.5t43 -49t64.5 -17.5t64.5 17.5z" />
    <glyph glyph-name="r" unicode="r" horiz-adv-x="388" 
d="M216 350q-25 -38 -25 -105v-245h-140v504h140v-84q20 46 49.5 65t76.5 19h57v-116h-83q-50 0 -75 -38z" />
    <glyph glyph-name="s" unicode="s" horiz-adv-x="458" 
d="M127 14q-47 22 -74.5 62t-29.5 94h120q4 -34 28.5 -53.5t63.5 -19.5q32 0 52.5 14t20.5 35q0 20 -13 31t-32.5 16.5t-54.5 11.5q-54 10 -88 22t-58.5 43.5t-24.5 89.5q0 44 23.5 78.5t64.5 54t92 19.5q60 0 106 -20.5t73 -57.5t29 -86h-121q-4 31 -28.5 48.5t-54.5 17.5
t-48 -13t-18 -36q0 -19 12.5 -29.5t32 -15t53.5 -9.5q55 -8 90.5 -19.5t61.5 -44.5t26 -96q0 -48 -24.5 -84t-69 -55.5t-102.5 -19.5q-61 0 -108 22z" />
    <glyph glyph-name="t" unicode="t" horiz-adv-x="414" 
d="M255 504h135v-116h-135v-199q0 -36 18.5 -54t52.5 -18h64v-117h-83q-58 0 -101 21.5t-66.5 62.5t-23.5 99v205h-97v116h97v149h139v-149z" />
    <glyph glyph-name="u" unicode="u" horiz-adv-x="583" 
d="M392 70q-21 -36 -61.5 -57t-91.5 -21q-56 0 -98 25.5t-65.5 70.5t-23.5 102v314h139v-283q0 -30 12.5 -54t34.5 -37.5t50 -13.5q30 0 53.5 14.5t37 40t13.5 57.5v276h140v-504h-140v70z" />
    <glyph glyph-name="v" unicode="v" horiz-adv-x="508" 
d="M148 504l106 -326l105 326h143l-184 -504h-128l-184 504h142z" />
    <glyph glyph-name="w" unicode="w" horiz-adv-x="777" 
d="M151 504l85 -311l89 311h127l90 -311l85 311h139l-163 -504h-122l-92 314l-93 -314h-121l-164 504h140z" />
    <glyph glyph-name="x" unicode="x" horiz-adv-x="530" 
d="M374 0l-108 155l-109 -155h-149l182 263l-169 241h152l92 -133l92 133h153l-169 -242l181 -262h-148z" />
    <glyph glyph-name="y" unicode="y" horiz-adv-x="508" 
d="M319 2l-71 -206h-133l74 208l-183 500h142l106 -325l105 325h143z" />
    <glyph glyph-name="z" unicode="z" horiz-adv-x="499" 
d="M296 388h-247v116h406v-116l-261 -271h276v-117h-438v117z" />
    <glyph glyph-name="braceleft" unicode="{" horiz-adv-x="337" 
d="M169.5 -37.5q-23.5 12.5 -36.5 35.5t-13 53v170q0 42 -18 59.5t-60 17.5v104q42 0 60 17.5t18 59.5v170q0 30 13 53t36.5 35.5t54.5 12.5h96v-114h-27q-27 0 -37 -10.5t-10 -36.5v-141q0 -47 -19 -69.5t-56 -28.5q37 -6 56 -28.5t19 -69.5v-141q0 -26 10 -36t37 -10h27
v-115h-96q-31 0 -54.5 12.5z" />
    <glyph glyph-name="bar" unicode="|" horiz-adv-x="267" 
d="M202 750v-800h-137v800h137z" />
    <glyph glyph-name="braceright" unicode="}" horiz-adv-x="337" 
d="M18 65h27q26 0 36 10t10 36v141q0 47 19 69.5t56 28.5q-37 6 -56 28.5t-19 69.5v141q0 26 -10 36.5t-36 10.5h-27v114h95q47 0 75.5 -27.5t28.5 -73.5v-170q0 -42 18 -59.5t61 -17.5v-104q-43 0 -61 -17.5t-18 -59.5v-170q0 -46 -28.5 -73.5t-75.5 -27.5h-95v115z" />
    <glyph glyph-name="asciitilde" unicode="~" horiz-adv-x="697" 
d="M387 238q-26 11 -57 31q-24 15 -40 22.5t-33 7.5q-27 0 -42.5 -20t-18.5 -55h-131q2 62 27 110t67 74t93 26q36 0 62.5 -11t58.5 -32q25 -15 39 -22t30 -7q25 0 40.5 18.5t19.5 56.5h130q-3 -64 -28 -111.5t-66 -73t-90 -25.5q-35 0 -61 11z" />
    <glyph glyph-name="uni00A0" unicode="&#xa0;" horiz-adv-x="211" 
d="M0 0z" />
    <glyph glyph-name="exclamdown" unicode="&#xa1;" horiz-adv-x="314" 
d="M65 352v144h150v-144h-150zM195 298l33 -502h-177l34 502h110z" />
    <glyph glyph-name="cent" unicode="&#xa2;" horiz-adv-x="555" 
d="M504.5 104.5q-24.5 -38.5 -63.5 -65.5t-87 -39v-105l-129 1v102q-60 12 -105.5 48t-70 89.5t-24.5 116.5t24.5 116.5t70 89.5t105.5 48v102h129v-104q49 -11 88 -37.5t62.5 -65.5t26.5 -86h-140q-4 22 -18.5 40t-36.5 28t-47 10q-37 0 -64 -18t-41 -50t-14 -73t14.5 -73
t42 -49.5t64.5 -17.5q38 0 66 21t36 55h142q-6 -45 -30.5 -83.5z" />
    <glyph glyph-name="sterling" unicode="&#xa3;" horiz-adv-x="626" 
d="M593 203v-69q0 -65 -34.5 -99.5t-99.5 -34.5h-403v121q51 25 72.5 67t21.5 96q0 7 -1 11h-116v114h72q-9 23 -14.5 44t-5.5 42q0 64 29.5 112.5t83.5 74.5t125 26q73 0 126 -27.5t83 -76.5t35 -111h-150q-3 41 -28.5 63.5t-65.5 22.5t-65 -24.5t-25 -67.5q0 -38 21 -78
h219v-114h-173v-11q0 -41 -19 -83t-48 -71h175q17 0 26 9.5t9 25.5v38h150z" />
    <glyph glyph-name="currency" unicode="&#xa4;" horiz-adv-x="654" 
d="M583 176.5q-10 -36.5 -29 -66.5l67 -67l-86 -86l-69 70q-61 -35 -139 -35t-139 35l-69 -70l-86 86l67 68q-39 62 -39 141t39 141l-67 68l85 85l69 -69q64 35 140 35t140 -35l69 69l85 -85l-67 -68q39 -62 39 -141q0 -39 -10 -75.5zM392.5 129.5q28.5 17.5 44.5 49.5
t16 73q0 42 -16 74t-44.5 49.5t-65.5 17.5t-65.5 -17.5t-44.5 -49.5t-16 -74q0 -41 16 -73t44.5 -49.5t65.5 -17.5t65.5 17.5z" />
    <glyph glyph-name="yen" unicode="&#xa5;" horiz-adv-x="630" 
d="M444 382h125v-95h-179v-73h179v-95h-179v-119h-151v119h-177v95h177v73h-177v95h124l-185 318h161l153 -270l153 270h161z" />
    <glyph glyph-name="brokenbar" unicode="&#xa6;" horiz-adv-x="267" 
d="M202 750v-349h-137v349h137zM202 299v-349h-137v349h137z" />
    <glyph glyph-name="section" unicode="&#xa7;" horiz-adv-x="567" 
d="M526.5 170q-15.5 -31 -41.5 -57q40 -45 40 -122q0 -62 -30.5 -108t-86 -70.5t-128.5 -24.5q-74 0 -130.5 29t-88.5 81.5t-34 122.5h142q4 -47 33.5 -75t77.5 -28q43 0 69 18.5t26 51.5q0 24 -16 38t-40.5 22.5t-69.5 18.5q-69 16 -113 34t-76.5 59.5t-32.5 113.5
q0 62 61 119q-43 48 -43 127q0 54 28.5 97t80 67t117.5 24q70 0 124 -26t84.5 -73t31.5 -110h-140q-4 36 -30.5 57.5t-69.5 21.5q-37 0 -59.5 -16t-22.5 -42t17 -41.5t43 -23.5t72 -18q69 -14 113 -31.5t76 -58t32 -111.5q0 -35 -15.5 -66zM189 233q17 -15 42 -23t72 -18
q38 -8 57 -13q15 11 23.5 25t8.5 30q0 23 -16 37.5t-41 23t-68 17.5q-19 4 -57 14q-18 -9 -28 -23t-10 -29q0 -26 17 -41z" />
    <glyph glyph-name="dieresis" unicode="&#xa8;" horiz-adv-x="422" 
d="M173 579h-122v122h122v-122zM372 580h-122v121h122v-121z" />
    <glyph glyph-name="copyright" unicode="&#xa9;" horiz-adv-x="897" 
d="M254 10.5q-89 50.5 -139.5 139.5t-50.5 200t50.5 200t139.5 139.5t200 50.5t200 -50.5t139.5 -139.5t50.5 -200t-50.5 -200t-139.5 -139.5t-200 -50.5t-200 50.5zM614 75.5q71 40.5 111.5 112.5t40.5 162t-40.5 162t-111.5 113t-160 41t-160.5 -41t-111.5 -113t-40 -162
t40 -161.5t111.5 -112.5t160.5 -41t160 40.5zM346.5 161.5q-48.5 24.5 -77 73t-28.5 117.5q0 68 29 116.5t77.5 73.5t106.5 25q53 0 96 -19t70 -54t33 -82h-105q-4 31 -30 50t-64 19q-32 0 -57.5 -15t-40.5 -44t-15 -70q0 -42 15 -71t40.5 -44t57.5 -15q38 0 64.5 18.5
t33.5 50.5h99q-4 -46 -30 -81t-69 -54t-98 -19q-59 0 -107.5 24.5z" />
    <glyph glyph-name="ordfeminine" unicode="&#xaa;" horiz-adv-x="309" 
d="M219.5 694q30.5 -14 47.5 -39t17 -59v-195h-86v43q-6 -20 -29 -34t-53 -14q-28 0 -50.5 12t-35 33t-12.5 46q0 44 29.5 69t79.5 25h49q10 0 16 5.5t6 15.5v1q0 17 -13.5 28t-34.5 11q-25 0 -37.5 -13.5t-12.5 -31.5h-82q2 31 18 56t45 40t67 15q41 0 71.5 -14zM198 527
h-52q-20 0 -30.5 -9.5t-10.5 -25.5q0 -13 10.5 -21.5t24.5 -8.5q26 0 42 16.5t16 42.5v6z" />
    <glyph glyph-name="guillemotleft" unicode="&#xab;" horiz-adv-x="666" 
d="M312 351l322 220v-140l-182 -121l182 -121v-140l-322 221v81zM17 351l322 220v-140l-182 -121l182 -121v-140l-322 221v81z" />
    <glyph glyph-name="logicalnot" unicode="&#xac;" horiz-adv-x="599" 
d="M43 290v124h505v-288h-139v164h-366z" />
    <glyph glyph-name="uni00AD" unicode="&#xad;" horiz-adv-x="600" 
d="M441 377v-119h-394v119h394z" />
    <glyph glyph-name="registered" unicode="&#xae;" horiz-adv-x="895" 
d="M254 10.5q-89 50.5 -139.5 139.5t-50.5 200t50.5 200t139.5 139.5t200 50.5t200 -50.5t139.5 -139.5t50.5 -200t-50.5 -200t-139.5 -139.5t-200 -50.5t-200 50.5zM614 75.5q71 40.5 111.5 112.5t40.5 162t-40.5 162t-111.5 113t-160 41t-160.5 -41t-111.5 -113t-40 -162
t40 -161.5t111.5 -112.5t160.5 -41t160 40.5zM472 565q45 0 77.5 -17.5t50 -47.5t17.5 -69q0 -30 -13 -51.5t-37 -33.5q39 -28 45 -82l12 -119h-99l-12 104q-2 19 -15.5 31.5t-31.5 12.5h-74v-148h-101v420h181zM507 393.5q14 15.5 14 37.5t-14.5 37t-40.5 15h-74v-105h74
q27 0 41 15.5z" />
    <glyph glyph-name="macron" unicode="&#xaf;" horiz-adv-x="381" 
d="M331 688v-106h-281v106h281z" />
    <glyph glyph-name="degree" unicode="&#xb0;" horiz-adv-x="365" 
d="M110.5 460.5q-31.5 17.5 -49.5 48t-18 68.5t18 69t49.5 48.5t71.5 17.5t72 -17.5t50.5 -48.5t18.5 -69t-18.5 -68.5t-50.5 -48t-72 -17.5t-71.5 17.5zM221.5 540q14.5 14 14.5 37t-14.5 37t-39.5 14q-23 0 -38 -14t-15 -37q0 -22 15 -36.5t38 -14.5q25 0 39.5 14z" />
    <glyph glyph-name="plusminus" unicode="&#xb1;" horiz-adv-x="599" 
d="M588 415h-202v-202h-119v202h-202v119h202v202h119v-202h202v-119zM588 119v-119h-523v119h523z" />
    <glyph glyph-name="uni00B2" unicode="&#xb2;" horiz-adv-x="354" 
d="M42.5 671.5q18.5 35.5 54 54.5t83.5 19q45 0 80 -16.5t54.5 -47t19.5 -70.5q0 -42 -24 -74t-77 -60l-44 -23q-21 -12 -35.5 -23.5t-16.5 -24.5h195v-86h-304l-1 69q-1 44 28 77t67 52l69 34q20 10 31.5 26t11.5 35q0 24 -15 38t-39 14q-28 0 -43 -21t-13 -57h-100
q0 49 18.5 84.5z" />
    <glyph glyph-name="uni00B3" unicode="&#xb3;" horiz-adv-x="376" 
d="M108 331.5q-36 16.5 -57.5 48t-21.5 74.5h95q0 -26 18.5 -39.5t46.5 -13.5t44.5 13t16.5 35t-16.5 34.5t-44.5 12.5h-41v80h38q22 0 35.5 13t13.5 34q0 19 -14.5 30.5t-38.5 11.5q-22 0 -38 -13t-16 -37h-89q0 38 19.5 67.5t53 46t72.5 16.5q41 0 74.5 -15.5t53 -42
t19.5 -57.5q0 -25 -13 -49t-34 -38q31 -16 48 -39.5t17 -57.5q0 -39 -21.5 -69t-58.5 -46t-80 -16q-45 0 -81 16.5z" />
    <glyph glyph-name="acute" unicode="&#xb4;" horiz-adv-x="318" 
d="M268 708l-100 -148h-118l70 148h148z" />
    <glyph glyph-name="uni00B5" unicode="&#xb5;" horiz-adv-x="583" 
d="M532 504v-504h-140v70q-16 -36 -49.5 -57t-73.5 -21q-38 0 -78 24v-220h-140v708h140v-283q0 -30 12 -54t34 -37.5t51 -13.5q30 0 53.5 14.5t37 40t13.5 57.5v276h140z" />
    <glyph glyph-name="paragraph" unicode="&#xb6;" horiz-adv-x="738" 
d="M155.5 279.5q-53.5 30.5 -85 82.5t-31.5 113t31.5 112.5t85 82t116.5 30.5h423v-108h-64v-796h-123v796h-113v-796h-123v453q-63 0 -116.5 30.5z" />
    <glyph glyph-name="periodcentered" unicode="&#xb7;" horiz-adv-x="282" 
d="M200 275h-148v147h148v-147z" />
    <glyph glyph-name="cedilla" unicode="&#xb8;" horiz-adv-x="326" 
d="M190 17l-36 -79q7 1 20 1q31 0 54.5 -12.5t35.5 -33t12 -43.5q0 -29 -18.5 -52t-51.5 -36t-73 -13q-38 0 -83 14v70q44 -15 82 -15q23 0 38 8.5t15 22.5t-15 23.5t-39 9.5q-15 0 -30 -4l-31 29l46 110h74z" />
    <glyph glyph-name="uni00B9" unicode="&#xb9;" horiz-adv-x="251" 
d="M107 320v292q-6 -8 -24.5 -13.5t-34.5 -5.5h-28v86h28q28 0 43.5 13t21.5 48h93v-420h-99z" />
    <glyph glyph-name="ordmasculine" unicode="&#xba;" horiz-adv-x="360" 
d="M97 416.5q-37 20.5 -57.5 56t-20.5 79.5q0 45 20.5 80.5t57.5 55.5t83 20t82.5 -20t57.5 -56t21 -80t-21 -79.5t-57.5 -56t-82.5 -20.5t-83 20.5zM229.5 496q18.5 21 18.5 56t-18.5 56.5t-49.5 21.5t-50 -21.5t-19 -56.5q0 -34 19 -55.5t50 -21.5t49.5 21z" />
    <glyph glyph-name="guillemotright" unicode="&#xbb;" horiz-adv-x="667" 
d="M325 189l181 121l-181 121v140l322 -220v-81l-322 -221v140zM30 189l181 121l-181 121v140l322 -220v-81l-322 -221v140z" />
    <glyph glyph-name="onequarter" unicode="&#xbc;" horiz-adv-x="859" 
d="M107 280v292q-6 -8 -24.5 -13.5t-34.5 -5.5h-28v86h28q28 0 43.5 13t21.5 48h93v-420h-99zM723 700l-508 -700h-124l509 700h123zM481 78v84l202 258h105v-258h44v-84h-44v-78h-100v78h-207zM688 297l-110 -135h110v135z" />
    <glyph glyph-name="onehalf" unicode="&#xbd;" horiz-adv-x="879" 
d="M107 280v292q-6 -8 -24.5 -13.5t-34.5 -5.5h-28v86h28q28 0 43.5 13t21.5 48h93v-420h-99zM723 700l-508 -700h-124l509 700h123zM577.5 351.5q18.5 35.5 54 54.5t83.5 19q45 0 80 -16.5t54.5 -47t19.5 -70.5q0 -42 -24 -74t-77 -60l-44 -23q-21 -12 -35.5 -23.5
t-16.5 -24.5h195v-86h-304l-1 69q-1 44 28 77t67 52l69 34q20 10 31.5 26t11.5 35q0 24 -15 38t-39 14q-28 0 -43 -21t-13 -57h-100q0 49 18.5 84.5z" />
    <glyph glyph-name="threequarters" unicode="&#xbe;" horiz-adv-x="956" 
d="M108 291.5q-36 16.5 -57.5 48t-21.5 74.5h95q0 -26 18.5 -39.5t46.5 -13.5t44.5 13t16.5 35t-16.5 34.5t-44.5 12.5h-41v80h38q22 0 35.5 13t13.5 34q0 19 -14.5 30.5t-38.5 11.5q-22 0 -38 -13t-16 -37h-89q0 38 19.5 67.5t53 46t72.5 16.5q41 0 74.5 -15.5t53 -42
t19.5 -57.5q0 -25 -13 -49t-34 -38q31 -16 48 -39.5t17 -57.5q0 -39 -21.5 -69t-58.5 -46t-80 -16q-45 0 -81 16.5zM820 700l-508 -700h-124l509 700h123zM578 78v84l202 258h105v-258h44v-84h-44v-78h-100v78h-207zM785 297l-110 -135h110v135z" />
    <glyph glyph-name="questiondown" unicode="&#xbf;" horiz-adv-x="468" 
d="M291 352h-151v144h151v-144zM270.5 186.5q-15.5 -29.5 -38 -48t-58.5 -41.5q-30 -19 -46.5 -31.5t-28 -31t-11.5 -42.5q0 -23 12 -42t34.5 -30t53.5 -11q49 0 75.5 34t27.5 91h151q-2 -79 -34.5 -134.5t-89 -83.5t-130.5 -28q-73 0 -130.5 26t-89.5 72.5t-32 105.5
q0 49 18 82t42.5 52t64.5 42q29 17 45.5 28.5t27.5 28t11 39.5v19h141v-26q0 -41 -15.5 -70.5z" />
    <glyph glyph-name="Agrave" unicode="&#xc0;" horiz-adv-x="685" 
d="M469 153h-253l-55 -153h-156l266 700h143l266 -700h-156zM424 279l-81 227l-82 -227h163zM182 904h149l69 -148h-117z" />
    <glyph glyph-name="Aacute" unicode="&#xc1;" horiz-adv-x="685" 
d="M469 153h-253l-55 -153h-156l266 700h143l266 -700h-156zM424 279l-81 227l-82 -227h163zM503 904l-100 -148h-118l70 148h148z" />
    <glyph glyph-name="Acircumflex" unicode="&#xc2;" horiz-adv-x="685" 
d="M469 153h-253l-55 -153h-156l266 700h143l266 -700h-156zM424 279l-81 227l-82 -227h163zM512 756h-117l-52 60l-53 -60h-115l107 140h123z" />
    <glyph glyph-name="Atilde" unicode="&#xc3;" horiz-adv-x="685" 
d="M469 153h-253l-55 -153h-156l266 700h143l266 -700h-156zM424 279l-81 227l-82 -227h163zM364 768q-15 6 -32 17q-10 6 -20.5 10.5t-19.5 4.5q-15 0 -25 -9.5t-12 -25.5h-88q0 38 15.5 69t42.5 49t59 18q20 0 34 -5.5t33 -16.5q13 -8 22 -12t19 -4q16 0 26.5 10t13.5 26
h86q0 -41 -16 -72t-43 -48t-59 -17q-21 0 -36 6z" />
    <glyph glyph-name="Adieresis" unicode="&#xc4;" horiz-adv-x="685" 
d="M469 153h-253l-55 -153h-156l266 700h143l266 -700h-156zM424 279l-81 227l-82 -227h163zM302 775h-122v122h122v-122zM501 776h-122v121h122v-121z" />
    <glyph glyph-name="Aring" unicode="&#xc5;" horiz-adv-x="685" 
d="M469 153h-253l-55 -153h-156l266 700h143l266 -700h-156zM424 279l-81 227l-82 -227h163zM271.5 758q-31.5 16 -49 44.5t-17.5 64.5t18 64.5t49 45t70 16.5q40 0 71.5 -16.5t49.5 -45t18 -64.5t-18 -64.5t-49.5 -44.5t-71.5 -16q-39 0 -70.5 16zM384 829q16 15 16 38
t-16 38t-42 15q-25 0 -40.5 -15t-15.5 -38t15.5 -38t40.5 -15q26 0 42 15z" />
    <glyph glyph-name="AE" unicode="&#xc6;" horiz-adv-x="968" 
d="M935 130v-130h-437v154h-244l-89 -154h-160l427 700h492v-129h-276v-148h210v-130h-210v-163h287zM498 284v294l-169 -294h169z" />
    <glyph glyph-name="Ccedilla" unicode="&#xc7;" horiz-adv-x="734" 
d="M208 33q-80 41 -127 122t-47 195t47.5 195t127.5 122t176 41q87 0 157.5 -31t114 -88t52.5 -132h-157q-5 36 -28 63.5t-59 43t-80 15.5q-57 0 -102.5 -26.5t-71.5 -78t-26 -124.5t26 -124.5t71.5 -77.5t102.5 -26q45 0 81.5 15t60 42.5t29.5 63.5h150q-6 -74 -48.5 -131
t-113 -88.5t-159.5 -31.5q-97 0 -177 41zM404 17l-36 -79q7 1 20 1q31 0 54.5 -12.5t35.5 -33t12 -43.5q0 -29 -18.5 -52t-51.5 -36t-73 -13q-38 0 -83 14v70q44 -15 82 -15q23 0 38 8.5t15 22.5t-15 23.5t-39 9.5q-15 0 -30 -4l-31 29l46 110h74z" />
    <glyph glyph-name="Egrave" unicode="&#xc8;" horiz-adv-x="586" 
d="M541 700v-129h-326v-148h260v-130h-260v-163h337v-130h-487v700h476zM146 904h149l69 -148h-117z" />
    <glyph glyph-name="Eacute" unicode="&#xc9;" horiz-adv-x="586" 
d="M541 700v-129h-326v-148h260v-130h-260v-163h337v-130h-487v700h476zM467 904l-100 -148h-118l70 148h148z" />
    <glyph glyph-name="Ecircumflex" unicode="&#xca;" horiz-adv-x="586" 
d="M541 700v-129h-326v-148h260v-130h-260v-163h337v-130h-487v700h476zM476 756h-117l-52 60l-53 -60h-115l107 140h123z" />
    <glyph glyph-name="Edieresis" unicode="&#xcb;" horiz-adv-x="586" 
d="M541 700v-129h-326v-148h260v-130h-260v-163h337v-130h-487v700h476zM266 775h-122v122h122v-122zM465 776h-122v121h122v-121z" />
    <glyph glyph-name="Igrave" unicode="&#xcc;" horiz-adv-x="281" 
d="M216 700v-700h-151v700h151zM-21 904h149l69 -148h-117z" />
    <glyph glyph-name="Iacute" unicode="&#xcd;" horiz-adv-x="281" 
d="M216 700v-700h-151v700h151zM300 904l-100 -148h-118l70 148h148z" />
    <glyph glyph-name="Icircumflex" unicode="&#xce;" horiz-adv-x="281" 
d="M216 700v-700h-151v700h151zM309 756h-117l-52 60l-53 -60h-115l107 140h123z" />
    <glyph glyph-name="Idieresis" unicode="&#xcf;" horiz-adv-x="281" 
d="M216 700v-700h-151v700h151zM99 775h-122v122h122v-122zM298 776h-122v121h122v-121z" />
    <glyph glyph-name="Eth" unicode="&#xd0;" horiz-adv-x="776" 
d="M562 661.5q82 -38.5 131 -117.5t49 -194q0 -114 -49 -193t-131 -118t-182 -39h-235v297h-100v110h100v293h235q100 0 182 -38.5zM477.5 151.5q50.5 21.5 81.5 71t31 127.5t-31 127.5t-81.5 71.5t-112.5 22h-70v-164h149v-110h-149v-167h70q62 0 112.5 21.5z" />
    <glyph glyph-name="Ntilde" unicode="&#xd1;" horiz-adv-x="721" 
d="M225 700l281 -463v463h150v-700h-160l-281 463v-463h-150v700h160zM382 768q-15 6 -32 17q-10 6 -20.5 10.5t-19.5 4.5q-15 0 -25 -9.5t-12 -25.5h-88q0 38 15.5 69t42.5 49t59 18q20 0 34 -5.5t33 -16.5q13 -8 22 -12t19 -4q16 0 26.5 10t13.5 26h86q0 -41 -16 -72
t-43 -48t-59 -17q-21 0 -36 6z" />
    <glyph glyph-name="Ograve" unicode="&#xd2;" horiz-adv-x="782" 
d="M208.5 38.5q-81.5 46.5 -128 128t-46.5 183.5t46.5 183.5t128 128t183.5 46.5q101 0 182.5 -46.5t128 -128t46.5 -183.5t-46.5 -183.5t-128 -128t-182.5 -46.5q-102 0 -183.5 46.5zM497.5 151.5q47.5 29.5 74 81.5t26.5 117t-26.5 117t-74 82t-106.5 30t-106 -30
t-73.5 -82t-26.5 -117t26.5 -117t73.5 -81.5t106 -29.5t106.5 29.5zM232 904h149l69 -148h-117z" />
    <glyph glyph-name="Oacute" unicode="&#xd3;" horiz-adv-x="782" 
d="M208.5 38.5q-81.5 46.5 -128 128t-46.5 183.5t46.5 183.5t128 128t183.5 46.5q101 0 182.5 -46.5t128 -128t46.5 -183.5t-46.5 -183.5t-128 -128t-182.5 -46.5q-102 0 -183.5 46.5zM497.5 151.5q47.5 29.5 74 81.5t26.5 117t-26.5 117t-74 82t-106.5 30t-106 -30
t-73.5 -82t-26.5 -117t26.5 -117t73.5 -81.5t106 -29.5t106.5 29.5zM552 904l-100 -148h-118l70 148h148z" />
    <glyph glyph-name="Ocircumflex" unicode="&#xd4;" horiz-adv-x="782" 
d="M208.5 38.5q-81.5 46.5 -128 128t-46.5 183.5t46.5 183.5t128 128t183.5 46.5q101 0 182.5 -46.5t128 -128t46.5 -183.5t-46.5 -183.5t-128 -128t-182.5 -46.5q-102 0 -183.5 46.5zM497.5 151.5q47.5 29.5 74 81.5t26.5 117t-26.5 117t-74 82t-106.5 30t-106 -30
t-73.5 -82t-26.5 -117t26.5 -117t73.5 -81.5t106 -29.5t106.5 29.5zM562 756h-117l-52 60l-53 -60h-115l107 140h123z" />
    <glyph glyph-name="Otilde" unicode="&#xd5;" horiz-adv-x="782" 
d="M208.5 38.5q-81.5 46.5 -128 128t-46.5 183.5t46.5 183.5t128 128t183.5 46.5q101 0 182.5 -46.5t128 -128t46.5 -183.5t-46.5 -183.5t-128 -128t-182.5 -46.5q-102 0 -183.5 46.5zM497.5 151.5q47.5 29.5 74 81.5t26.5 117t-26.5 117t-74 82t-106.5 30t-106 -30
t-73.5 -82t-26.5 -117t26.5 -117t73.5 -81.5t106 -29.5t106.5 29.5zM413 768q-15 6 -32 17q-10 6 -20.5 10.5t-19.5 4.5q-15 0 -25 -9.5t-12 -25.5h-88q0 38 15.5 69t42.5 49t59 18q20 0 34 -5.5t33 -16.5q13 -8 22 -12t19 -4q16 0 26.5 10t13.5 26h86q0 -41 -16 -72
t-43 -48t-59 -17q-21 0 -36 6z" />
    <glyph glyph-name="Odieresis" unicode="&#xd6;" horiz-adv-x="782" 
d="M208.5 38.5q-81.5 46.5 -128 128t-46.5 183.5t46.5 183.5t128 128t183.5 46.5q101 0 182.5 -46.5t128 -128t46.5 -183.5t-46.5 -183.5t-128 -128t-182.5 -46.5q-102 0 -183.5 46.5zM497.5 151.5q47.5 29.5 74 81.5t26.5 117t-26.5 117t-74 82t-106.5 30t-106 -30
t-73.5 -82t-26.5 -117t26.5 -117t73.5 -81.5t106 -29.5t106.5 29.5zM351 775h-122v122h122v-122zM550 776h-122v121h122v-121z" />
    <glyph glyph-name="multiply" unicode="&#xd7;" horiz-adv-x="613" 
d="M463 100l-157 157l-156 -157l-85 85l156 157l-156 156l85 85l156 -156l156 156l85 -85l-156 -156l157 -157z" />
    <glyph glyph-name="Oslash" unicode="&#xd8;" horiz-adv-x="782" 
d="M726 482q23 -62 23 -132q0 -102 -46.5 -183.5t-128 -128t-182.5 -46.5q-97 0 -179 44l-59 -74l-88 75l57 70q-43 48 -66 110t-23 133q0 102 46.5 183.5t128 128t183.5 46.5q97 0 179 -44l59 73l88 -75l-57 -70q42 -48 65 -110zM217 224l268 332q-43 23 -94 23
q-59 0 -106 -30t-73.5 -82t-26.5 -117q0 -73 32 -126zM497.5 151.5q47.5 29.5 74 81.5t26.5 117q0 69 -31 125l-267 -332q41 -21 91 -21q59 0 106.5 29.5z" />
    <glyph glyph-name="Ugrave" unicode="&#xd9;" horiz-adv-x="660" 
d="M183.5 22q-62.5 30 -97.5 89.5t-35 146.5v442h141v-442q0 -67 37.5 -101t100.5 -34t101 34t38 101v442h140v-442q0 -87 -34.5 -146.5t-97.5 -89.5t-147 -30t-146.5 30zM170 904h149l69 -148h-117z" />
    <glyph glyph-name="Uacute" unicode="&#xda;" horiz-adv-x="660" 
d="M183.5 22q-62.5 30 -97.5 89.5t-35 146.5v442h141v-442q0 -67 37.5 -101t100.5 -34t101 34t38 101v442h140v-442q0 -87 -34.5 -146.5t-97.5 -89.5t-147 -30t-146.5 30zM491 904l-100 -148h-118l70 148h148z" />
    <glyph glyph-name="Ucircumflex" unicode="&#xdb;" horiz-adv-x="660" 
d="M183.5 22q-62.5 30 -97.5 89.5t-35 146.5v442h141v-442q0 -67 37.5 -101t100.5 -34t101 34t38 101v442h140v-442q0 -87 -34.5 -146.5t-97.5 -89.5t-147 -30t-146.5 30zM500 756h-117l-52 60l-53 -60h-115l107 140h123z" />
    <glyph glyph-name="Udieresis" unicode="&#xdc;" horiz-adv-x="660" 
d="M183.5 22q-62.5 30 -97.5 89.5t-35 146.5v442h141v-442q0 -67 37.5 -101t100.5 -34t101 34t38 101v442h140v-442q0 -87 -34.5 -146.5t-97.5 -89.5t-147 -30t-146.5 30zM290 775h-122v122h122v-122zM489 776h-122v121h122v-121z" />
    <glyph glyph-name="Yacute" unicode="&#xdd;" horiz-adv-x="630" 
d="M1 700h161l153 -270l153 270h161l-239 -410v-290h-151v290zM475 904l-100 -148h-118l70 148h148z" />
    <glyph glyph-name="Thorn" unicode="&#xde;" horiz-adv-x="606" 
d="M216 700v-139h137q74 0 127 -25.5t81 -73.5t28 -112t-28 -111.5t-81 -73.5t-127 -26h-137v-139h-151v700h151zM419.5 287q24.5 23 24.5 63t-24.5 63t-75.5 23h-128v-172h128q51 0 75.5 23z" />
    <glyph glyph-name="germandbls" unicode="&#xdf;" horiz-adv-x="617" 
d="M552.5 318q31.5 -44 31.5 -109t-30.5 -112.5t-85.5 -72t-126 -24.5h-71v130h58q57 0 86 21t29 66t-29.5 67.5t-85.5 22.5h-58v125h52q44 0 66.5 20t22.5 58q0 35 -22.5 57.5t-66.5 22.5q-33 0 -57.5 -16t-37.5 -46t-13 -69v-459h-146v307h-61v125h61v33q0 73 32 128
t89.5 85t131.5 30q68 0 119.5 -22.5t80 -64.5t28.5 -98q0 -48 -23 -85.5t-56 -55.5q50 -20 81.5 -64z" />
    <glyph glyph-name="agrave" unicode="&#xe0;" horiz-adv-x="524" 
d="M373 488.5q50 -23.5 78.5 -66t28.5 -98.5v-324h-138v70q-13 -35 -51.5 -56.5t-90.5 -21.5q-48 0 -85.5 19.5t-58.5 54t-21 77.5q0 49 23 85t64.5 55t96.5 19h85q18 0 28 10.5t10 26.5q0 32 -24 51.5t-66 19.5q-29 0 -50 -11t-32 -29t-12 -40h-124q3 51 31 92.5t78 65.5
t117 24q63 0 113 -23.5zM292.5 108q24.5 15 37 41t12.5 58v7h-102q-32 0 -52 -18t-20 -47q0 -25 19 -40.5t48 -15.5q33 0 57.5 15zM103 708h149l69 -148h-117z" />
    <glyph glyph-name="aacute" unicode="&#xe1;" horiz-adv-x="524" 
d="M373 488.5q50 -23.5 78.5 -66t28.5 -98.5v-324h-138v70q-13 -35 -51.5 -56.5t-90.5 -21.5q-48 0 -85.5 19.5t-58.5 54t-21 77.5q0 49 23 85t64.5 55t96.5 19h85q18 0 28 10.5t10 26.5q0 32 -24 51.5t-66 19.5q-29 0 -50 -11t-32 -29t-12 -40h-124q3 51 31 92.5t78 65.5
t117 24q63 0 113 -23.5zM292.5 108q24.5 15 37 41t12.5 58v7h-102q-32 0 -52 -18t-20 -47q0 -25 19 -40.5t48 -15.5q33 0 57.5 15zM424 708l-100 -148h-118l70 148h148z" />
    <glyph glyph-name="acircumflex" unicode="&#xe2;" horiz-adv-x="524" 
d="M373 488.5q50 -23.5 78.5 -66t28.5 -98.5v-324h-138v70q-13 -35 -51.5 -56.5t-90.5 -21.5q-48 0 -85.5 19.5t-58.5 54t-21 77.5q0 49 23 85t64.5 55t96.5 19h85q18 0 28 10.5t10 26.5q0 32 -24 51.5t-66 19.5q-29 0 -50 -11t-32 -29t-12 -40h-124q3 51 31 92.5t78 65.5
t117 24q63 0 113 -23.5zM292.5 108q24.5 15 37 41t12.5 58v7h-102q-32 0 -52 -18t-20 -47q0 -25 19 -40.5t48 -15.5q33 0 57.5 15zM434 560h-117l-52 60l-53 -60h-115l107 140h123z" />
    <glyph glyph-name="atilde" unicode="&#xe3;" horiz-adv-x="524" 
d="M373 488.5q50 -23.5 78.5 -66t28.5 -98.5v-324h-138v70q-13 -35 -51.5 -56.5t-90.5 -21.5q-48 0 -85.5 19.5t-58.5 54t-21 77.5q0 49 23 85t64.5 55t96.5 19h85q18 0 28 10.5t10 26.5q0 32 -24 51.5t-66 19.5q-29 0 -50 -11t-32 -29t-12 -40h-124q3 51 31 92.5t78 65.5
t117 24q63 0 113 -23.5zM292.5 108q24.5 15 37 41t12.5 58v7h-102q-32 0 -52 -18t-20 -47q0 -25 19 -40.5t48 -15.5q33 0 57.5 15zM285 572q-15 6 -32 17q-10 6 -20.5 10.5t-19.5 4.5q-15 0 -25 -9.5t-12 -25.5h-88q0 38 15.5 69t42.5 49t59 18q20 0 34 -5.5t33 -16.5
q13 -8 22 -12t19 -4q16 0 26.5 10t13.5 26h86q0 -41 -16 -72t-43 -48t-59 -17q-21 0 -36 6z" />
    <glyph glyph-name="adieresis" unicode="&#xe4;" horiz-adv-x="524" 
d="M373 488.5q50 -23.5 78.5 -66t28.5 -98.5v-324h-138v70q-13 -35 -51.5 -56.5t-90.5 -21.5q-48 0 -85.5 19.5t-58.5 54t-21 77.5q0 49 23 85t64.5 55t96.5 19h85q18 0 28 10.5t10 26.5q0 32 -24 51.5t-66 19.5q-29 0 -50 -11t-32 -29t-12 -40h-124q3 51 31 92.5t78 65.5
t117 24q63 0 113 -23.5zM292.5 108q24.5 15 37 41t12.5 58v7h-102q-32 0 -52 -18t-20 -47q0 -25 19 -40.5t48 -15.5q33 0 57.5 15zM223 579h-122v122h122v-122zM422 580h-122v121h122v-121z" />
    <glyph glyph-name="aring" unicode="&#xe5;" horiz-adv-x="524" 
d="M373 488.5q50 -23.5 78.5 -66t28.5 -98.5v-324h-138v70q-13 -35 -51.5 -56.5t-90.5 -21.5q-48 0 -85.5 19.5t-58.5 54t-21 77.5q0 49 23 85t64.5 55t96.5 19h85q18 0 28 10.5t10 26.5q0 32 -24 51.5t-66 19.5q-29 0 -50 -11t-32 -29t-12 -40h-124q3 51 31 92.5t78 65.5
t117 24q63 0 113 -23.5zM292.5 108q24.5 15 37 41t12.5 58v7h-102q-32 0 -52 -18t-20 -47q0 -25 19 -40.5t48 -15.5q33 0 57.5 15zM192.5 562q-31.5 16 -49 44.5t-17.5 64.5t18 64.5t49 45t70 16.5q40 0 71.5 -16.5t49.5 -45t18 -64.5t-18 -64.5t-49.5 -44.5t-71.5 -16
q-39 0 -70.5 16zM305 633q16 15 16 38t-16 38t-42 15q-25 0 -40.5 -15t-15.5 -38t15.5 -38t40.5 -15q26 0 42 15z" />
    <glyph glyph-name="ae" unicode="&#xe6;" horiz-adv-x="864" 
d="M839 171q-10 -54 -43 -94.5t-84 -62.5t-113 -22q-63 0 -113 23.5t-85 64.5q-55 -88 -176 -88q-62 0 -105 19.5t-64 54t-21 77.5q0 50 22 86t63.5 55t98.5 19h88q17 0 26 9.5t9 25.5v3q0 31 -25 50t-66 19q-43 0 -67 -23.5t-26 -57.5h-124q3 51 30 93t75 66t110 24
q54 0 98 -15.5t74 -44.5q31 29 73.5 44.5t94.5 15.5q84 0 140 -36t82.5 -92t26.5 -118q0 -23 -2 -45h-362q8 -54 40.5 -84.5t84.5 -30.5q42 0 69 16.5t35 48.5h136zM513 385.5q-28 -24.5 -37 -76.5h223q-2 28 -15.5 51t-38 36.5t-56.5 13.5q-48 0 -76 -24.5zM292.5 108
q24.5 15 37 41t12.5 58v8h-102q-34 0 -53 -18t-19 -48q0 -25 19 -40.5t48 -15.5q33 0 57.5 15z" />
    <glyph glyph-name="ccedilla" unicode="&#xe7;" horiz-adv-x="555" 
d="M149.5 26q-59.5 34 -92 93.5t-32.5 132.5t32.5 132.5t92 93.5t135.5 34q66 0 120.5 -25t88 -70t37.5 -102h-140q-4 22 -18.5 40t-36.5 28t-47 10q-37 0 -64 -18t-41 -50t-14 -73t14.5 -73t42 -49.5t64.5 -17.5q38 0 66 21t36 55h142q-7 -55 -42 -100t-89.5 -70.5
t-118.5 -25.5q-76 0 -135.5 34zM310 17l-36 -79q7 1 20 1q31 0 54.5 -12.5t35.5 -33t12 -43.5q0 -29 -18.5 -52t-51.5 -36t-73 -13q-38 0 -83 14v70q44 -15 82 -15q23 0 38 8.5t15 22.5t-15 23.5t-39 9.5q-15 0 -30 -4l-31 29l46 110h74z" />
    <glyph glyph-name="egrave" unicode="&#xe8;" horiz-adv-x="549" 
d="M524 171q-10 -54 -43 -94.5t-84 -62.5t-113 -22q-82 0 -140.5 37.5t-88.5 97.5t-30 126q0 67 27.5 126t84 96t137.5 37q84 0 140 -36t82.5 -92t26.5 -118q0 -23 -2 -45h-362q8 -54 40.5 -84.5t84.5 -30.5q42 0 69 16.5t35 48.5h136zM198 385.5q-28 -24.5 -37 -76.5h223
q-2 28 -15.5 51t-38 36.5t-56.5 13.5q-48 0 -76 -24.5zM118 708h149l69 -148h-117z" />
    <glyph glyph-name="eacute" unicode="&#xe9;" horiz-adv-x="549" 
d="M524 171q-10 -54 -43 -94.5t-84 -62.5t-113 -22q-82 0 -140.5 37.5t-88.5 97.5t-30 126q0 67 27.5 126t84 96t137.5 37q84 0 140 -36t82.5 -92t26.5 -118q0 -23 -2 -45h-362q8 -54 40.5 -84.5t84.5 -30.5q42 0 69 16.5t35 48.5h136zM198 385.5q-28 -24.5 -37 -76.5h223
q-2 28 -15.5 51t-38 36.5t-56.5 13.5q-48 0 -76 -24.5zM439 708l-100 -148h-118l70 148h148z" />
    <glyph glyph-name="ecircumflex" unicode="&#xea;" horiz-adv-x="549" 
d="M524 171q-10 -54 -43 -94.5t-84 -62.5t-113 -22q-82 0 -140.5 37.5t-88.5 97.5t-30 126q0 67 27.5 126t84 96t137.5 37q84 0 140 -36t82.5 -92t26.5 -118q0 -23 -2 -45h-362q8 -54 40.5 -84.5t84.5 -30.5q42 0 69 16.5t35 48.5h136zM198 385.5q-28 -24.5 -37 -76.5h223
q-2 28 -15.5 51t-38 36.5t-56.5 13.5q-48 0 -76 -24.5zM448 560h-117l-52 60l-53 -60h-115l107 140h123z" />
    <glyph glyph-name="edieresis" unicode="&#xeb;" horiz-adv-x="549" 
d="M524 171q-10 -54 -43 -94.5t-84 -62.5t-113 -22q-82 0 -140.5 37.5t-88.5 97.5t-30 126q0 67 27.5 126t84 96t137.5 37q84 0 140 -36t82.5 -92t26.5 -118q0 -23 -2 -45h-362q8 -54 40.5 -84.5t84.5 -30.5q42 0 69 16.5t35 48.5h136zM198 385.5q-28 -24.5 -37 -76.5h223
q-2 28 -15.5 51t-38 36.5t-56.5 13.5q-48 0 -76 -24.5zM238 579h-122v122h122v-122zM437 580h-122v121h122v-121z" />
    <glyph glyph-name="igrave" unicode="&#xec;" horiz-adv-x="242" 
d="M191 504v-504h-140v504h140zM-40 708h149l69 -148h-117z" />
    <glyph glyph-name="iacute" unicode="&#xed;" horiz-adv-x="242" 
d="M191 504v-504h-140v504h140zM281 708l-100 -148h-118l70 148h148z" />
    <glyph glyph-name="icircumflex" unicode="&#xee;" horiz-adv-x="242" 
d="M191 504v-504h-140v504h140zM290 560h-117l-52 60l-53 -60h-115l107 140h123z" />
    <glyph glyph-name="idieresis" unicode="&#xef;" horiz-adv-x="242" 
d="M191 504v-504h-140v504h140zM80 579h-122v122h122v-122zM279 580h-122v121h122v-121z" />
    <glyph glyph-name="eth" unicode="&#xf0;" horiz-adv-x="576" 
d="M496.5 454q48.5 -92 48.5 -194q0 -76 -31.5 -137t-90 -96t-135.5 -35q-80 0 -138.5 32.5t-89 87.5t-30.5 123q0 64 31 120t85 89.5t119 33.5q32 0 60.5 -7.5t49.5 -22.5q-41 55 -105 118l-83 -56l-51 69l69 47q-61 52 -125 95h161q30 -20 51 -37l74 50l53 -67l-59 -40
q88 -81 136.5 -173zM352 127q26 17 39 45t13 63q0 34 -13 62t-39 45t-64 17t-64 -17t-39 -45t-13 -62q0 -35 13 -63t39 -45t64 -17t64 17z" />
    <glyph glyph-name="ntilde" unicode="&#xf1;" horiz-adv-x="583" 
d="M191 504v-70q21 37 61 57.5t92 20.5q56 0 98.5 -25t66 -70t23.5 -103v-314h-140v283q0 30 -12 54t-34 37.5t-51 13.5q-30 0 -53.5 -14.5t-37 -40t-13.5 -57.5v-276h-140v504h140zM311 572q-15 6 -32 17q-10 6 -20.5 10.5t-19.5 4.5q-15 0 -25 -9.5t-12 -25.5h-88
q0 38 15.5 69t42.5 49t59 18q20 0 34 -5.5t33 -16.5q13 -8 22 -12t19 -4q16 0 26.5 10t13.5 26h86q0 -41 -16 -72t-43 -48t-59 -17q-21 0 -36 6z" />
    <glyph glyph-name="ograve" unicode="&#xf2;" horiz-adv-x="582" 
d="M154 25.5q-61 33.5 -95 93t-34 133.5t34 133.5t95 93t137 33.5t137 -33.5t95 -93t34 -133.5t-34 -133.5t-95 -93t-137 -33.5t-137 33.5zM356.5 129.5q28.5 17.5 44.5 49.5t16 73q0 42 -16 74t-44.5 49.5t-65.5 17.5t-65.5 -17.5t-44.5 -49.5t-16 -74q0 -41 16 -73
t44.5 -49.5t65.5 -17.5t65.5 17.5zM131 708h149l69 -148h-117z" />
    <glyph glyph-name="oacute" unicode="&#xf3;" horiz-adv-x="582" 
d="M154 25.5q-61 33.5 -95 93t-34 133.5t34 133.5t95 93t137 33.5t137 -33.5t95 -93t34 -133.5t-34 -133.5t-95 -93t-137 -33.5t-137 33.5zM356.5 129.5q28.5 17.5 44.5 49.5t16 73q0 42 -16 74t-44.5 49.5t-65.5 17.5t-65.5 -17.5t-44.5 -49.5t-16 -74q0 -41 16 -73
t44.5 -49.5t65.5 -17.5t65.5 17.5zM451 708l-100 -148h-118l70 148h148z" />
    <glyph glyph-name="ocircumflex" unicode="&#xf4;" horiz-adv-x="582" 
d="M154 25.5q-61 33.5 -95 93t-34 133.5t34 133.5t95 93t137 33.5t137 -33.5t95 -93t34 -133.5t-34 -133.5t-95 -93t-137 -33.5t-137 33.5zM356.5 129.5q28.5 17.5 44.5 49.5t16 73q0 42 -16 74t-44.5 49.5t-65.5 17.5t-65.5 -17.5t-44.5 -49.5t-16 -74q0 -41 16 -73
t44.5 -49.5t65.5 -17.5t65.5 17.5zM461 560h-117l-52 60l-53 -60h-115l107 140h123z" />
    <glyph glyph-name="otilde" unicode="&#xf5;" horiz-adv-x="582" 
d="M154 25.5q-61 33.5 -95 93t-34 133.5t34 133.5t95 93t137 33.5t137 -33.5t95 -93t34 -133.5t-34 -133.5t-95 -93t-137 -33.5t-137 33.5zM356.5 129.5q28.5 17.5 44.5 49.5t16 73q0 42 -16 74t-44.5 49.5t-65.5 17.5t-65.5 -17.5t-44.5 -49.5t-16 -74q0 -41 16 -73
t44.5 -49.5t65.5 -17.5t65.5 17.5zM312 572q-15 6 -32 17q-10 6 -20.5 10.5t-19.5 4.5q-15 0 -25 -9.5t-12 -25.5h-88q0 38 15.5 69t42.5 49t59 18q20 0 34 -5.5t33 -16.5q13 -8 22 -12t19 -4q16 0 26.5 10t13.5 26h86q0 -41 -16 -72t-43 -48t-59 -17q-21 0 -36 6z" />
    <glyph glyph-name="odieresis" unicode="&#xf6;" horiz-adv-x="582" 
d="M154 25.5q-61 33.5 -95 93t-34 133.5t34 133.5t95 93t137 33.5t137 -33.5t95 -93t34 -133.5t-34 -133.5t-95 -93t-137 -33.5t-137 33.5zM356.5 129.5q28.5 17.5 44.5 49.5t16 73q0 42 -16 74t-44.5 49.5t-65.5 17.5t-65.5 -17.5t-44.5 -49.5t-16 -74q0 -41 16 -73
t44.5 -49.5t65.5 -17.5t65.5 17.5zM250 579h-122v122h122v-122zM449 580h-122v121h122v-121z" />
    <glyph glyph-name="divide" unicode="&#xf7;" horiz-adv-x="653" 
d="M588 377v-119h-523v119h523zM387 23h-151v144h151v-144zM387 464h-151v144h151v-144z" />
    <glyph glyph-name="oslash" unicode="&#xf8;" horiz-adv-x="582" 
d="M539 352.5q18 -46.5 18 -100.5q0 -74 -34 -133.5t-95 -93t-137 -33.5q-73 0 -134 32l-44 -54l-60 49l42 52q-34 35 -52 81.5t-18 99.5q0 74 34 133.5t95 93t137 33.5t134 -32l44 54l59 -49l-41 -51q34 -35 52 -81.5zM181 178l165 203q-26 12 -55 12q-37 0 -65.5 -17.5
t-44.5 -49.5t-16 -74q0 -40 16 -74zM356.5 129.5q28.5 17.5 44.5 49.5t16 73t-16 75l-164 -203q24 -12 54 -12q37 0 65.5 17.5z" />
    <glyph glyph-name="ugrave" unicode="&#xf9;" horiz-adv-x="583" 
d="M392 70q-21 -36 -61.5 -57t-91.5 -21q-56 0 -98 25.5t-65.5 70.5t-23.5 102v314h139v-283q0 -30 12.5 -54t34.5 -37.5t50 -13.5q30 0 53.5 14.5t37 40t13.5 57.5v276h140v-504h-140v70zM133 708h149l69 -148h-117z" />
    <glyph glyph-name="uacute" unicode="&#xfa;" horiz-adv-x="583" 
d="M392 70q-21 -36 -61.5 -57t-91.5 -21q-56 0 -98 25.5t-65.5 70.5t-23.5 102v314h139v-283q0 -30 12.5 -54t34.5 -37.5t50 -13.5q30 0 53.5 14.5t37 40t13.5 57.5v276h140v-504h-140v70zM454 708l-100 -148h-118l70 148h148z" />
    <glyph glyph-name="ucircumflex" unicode="&#xfb;" horiz-adv-x="583" 
d="M392 70q-21 -36 -61.5 -57t-91.5 -21q-56 0 -98 25.5t-65.5 70.5t-23.5 102v314h139v-283q0 -30 12.5 -54t34.5 -37.5t50 -13.5q30 0 53.5 14.5t37 40t13.5 57.5v276h140v-504h-140v70zM463 560h-117l-52 60l-53 -60h-115l107 140h123z" />
    <glyph glyph-name="udieresis" unicode="&#xfc;" horiz-adv-x="583" 
d="M392 70q-21 -36 -61.5 -57t-91.5 -21q-56 0 -98 25.5t-65.5 70.5t-23.5 102v314h139v-283q0 -30 12.5 -54t34.5 -37.5t50 -13.5q30 0 53.5 14.5t37 40t13.5 57.5v276h140v-504h-140v70zM253 579h-122v122h122v-122zM452 580h-122v121h122v-121z" />
    <glyph glyph-name="yacute" unicode="&#xfd;" horiz-adv-x="508" 
d="M319 2l-71 -206h-133l74 208l-183 500h142l106 -325l105 325h143zM420 708l-100 -148h-118l70 148h148z" />
    <glyph glyph-name="thorn" unicode="&#xfe;" horiz-adv-x="607" 
d="M199 702v-248q25 28 62 43t82 15q70 0 122 -32t80.5 -91t28.5 -137t-30 -136.5t-85 -91t-127 -32.5q-44 0 -79 12.5t-54 34.5v-243h-140v906h140zM403.5 148.5q33.5 36.5 33.5 103.5t-33.5 104t-90.5 37t-90 -37t-33 -104t33 -103.5t90 -36.5t90.5 36.5z" />
    <glyph glyph-name="ydieresis" unicode="&#xff;" horiz-adv-x="508" 
d="M319 2l-71 -206h-133l74 208l-183 500h142l106 -325l105 325h143zM219 579h-122v122h122v-122zM418 580h-122v121h122v-121z" />
    <glyph glyph-name="Amacron" unicode="&#x100;" horiz-adv-x="685" 
d="M469 153h-253l-55 -153h-156l266 700h143l266 -700h-156zM424 279l-81 227l-82 -227h163zM483 884v-106h-281v106h281z" />
    <glyph glyph-name="amacron" unicode="&#x101;" horiz-adv-x="524" 
d="M373 488.5q50 -23.5 78.5 -66t28.5 -98.5v-324h-138v70q-13 -35 -51.5 -56.5t-90.5 -21.5q-48 0 -85.5 19.5t-58.5 54t-21 77.5q0 49 23 85t64.5 55t96.5 19h85q18 0 28 10.5t10 26.5q0 32 -24 51.5t-66 19.5q-29 0 -50 -11t-32 -29t-12 -40h-124q3 51 31 92.5t78 65.5
t117 24q63 0 113 -23.5zM292.5 108q24.5 15 37 41t12.5 58v7h-102q-32 0 -52 -18t-20 -47q0 -25 19 -40.5t48 -15.5q33 0 57.5 15zM404 688v-106h-281v106h281z" />
    <glyph glyph-name="Abreve" unicode="&#x102;" horiz-adv-x="685" 
d="M469 153h-253l-55 -153h-156l266 700h143l266 -700h-156zM424 279l-81 227l-82 -227h163zM262 771q-35 20 -54 53.5t-19 71.5h108q0 -26 12 -39.5t33 -13.5q22 0 34.5 13.5t12.5 39.5h108q0 -38 -19 -71.5t-54.5 -53.5t-81.5 -20q-45 0 -80 20z" />
    <glyph glyph-name="abreve" unicode="&#x103;" horiz-adv-x="524" 
d="M373 488.5q50 -23.5 78.5 -66t28.5 -98.5v-324h-138v70q-13 -35 -51.5 -56.5t-90.5 -21.5q-48 0 -85.5 19.5t-58.5 54t-21 77.5q0 49 23 85t64.5 55t96.5 19h85q18 0 28 10.5t10 26.5q0 32 -24 51.5t-66 19.5q-29 0 -50 -11t-32 -29t-12 -40h-124q3 51 31 92.5t78 65.5
t117 24q63 0 113 -23.5zM292.5 108q24.5 15 37 41t12.5 58v7h-102q-32 0 -52 -18t-20 -47q0 -25 19 -40.5t48 -15.5q33 0 57.5 15zM184 575q-35 20 -54 53.5t-19 71.5h108q0 -26 12 -39.5t33 -13.5q22 0 34.5 13.5t12.5 39.5h108q0 -38 -19 -71.5t-54.5 -53.5t-81.5 -20
q-45 0 -80 20z" />
    <glyph glyph-name="Aogonek" unicode="&#x104;" horiz-adv-x="685" 
d="M469 153h-253l-55 -153h-156l266 700h143l266 -700h-156zM424 279l-81 227l-82 -227h163zM627 -201q-31 0 -55 11.5t-37 32t-13 46.5q0 33 21 64t54 47h83q-32 -22 -44.5 -40t-12.5 -35q0 -13 7.5 -20t19.5 -7q20 0 41 27l52 -62q-45 -64 -116 -64z" />
    <glyph glyph-name="aogonek" unicode="&#x105;" horiz-adv-x="524" 
d="M373 488.5q50 -23.5 78.5 -66t28.5 -98.5v-324h-138v70q-13 -35 -51.5 -56.5t-90.5 -21.5q-48 0 -85.5 19.5t-58.5 54t-21 77.5q0 49 23 85t64.5 55t96.5 19h85q18 0 28 10.5t10 26.5q0 32 -24 51.5t-66 19.5q-29 0 -50 -11t-32 -29t-12 -40h-124q3 51 31 92.5t78 65.5
t117 24q63 0 113 -23.5zM292.5 108q24.5 15 37 41t12.5 58v7h-102q-32 0 -52 -18t-20 -47q0 -25 19 -40.5t48 -15.5q33 0 57.5 15zM427 -201q-31 0 -55 11.5t-37 32t-13 46.5q0 33 21 64t54 47h83q-32 -22 -44.5 -40t-12.5 -35q0 -13 7.5 -20t19.5 -7q20 0 41 27l52 -62
q-45 -64 -116 -64z" />
    <glyph glyph-name="Cacute" unicode="&#x106;" horiz-adv-x="734" 
d="M208 33q-80 41 -127 122t-47 195t47.5 195t127.5 122t176 41q87 0 157.5 -31t114 -88t52.5 -132h-157q-5 36 -28 63.5t-59 43t-80 15.5q-57 0 -102.5 -26.5t-71.5 -78t-26 -124.5t26 -124.5t71.5 -77.5t102.5 -26q45 0 81.5 15t60 42.5t29.5 63.5h150q-6 -74 -48.5 -131
t-113 -88.5t-159.5 -31.5q-97 0 -177 41zM541 904l-100 -148h-118l70 148h148z" />
    <glyph glyph-name="cacute" unicode="&#x107;" horiz-adv-x="555" 
d="M149.5 26q-59.5 34 -92 93.5t-32.5 132.5t32.5 132.5t92 93.5t135.5 34q66 0 120.5 -25t88 -70t37.5 -102h-140q-4 22 -18.5 40t-36.5 28t-47 10q-37 0 -64 -18t-41 -50t-14 -73t14.5 -73t42 -49.5t64.5 -17.5q38 0 66 21t36 55h142q-7 -55 -42 -100t-89.5 -70.5
t-118.5 -25.5q-76 0 -135.5 34zM436 708l-100 -148h-118l70 148h148z" />
    <glyph glyph-name="Ccircumflex" unicode="&#x108;" horiz-adv-x="734" 
d="M208 33q-80 41 -127 122t-47 195t47.5 195t127.5 122t176 41q87 0 157.5 -31t114 -88t52.5 -132h-157q-5 36 -28 63.5t-59 43t-80 15.5q-57 0 -102.5 -26.5t-71.5 -78t-26 -124.5t26 -124.5t71.5 -77.5t102.5 -26q45 0 81.5 15t60 42.5t29.5 63.5h150q-6 -74 -48.5 -131
t-113 -88.5t-159.5 -31.5q-97 0 -177 41zM551 756h-117l-52 60l-53 -60h-115l107 140h123z" />
    <glyph glyph-name="ccircumflex" unicode="&#x109;" horiz-adv-x="555" 
d="M149.5 26q-59.5 34 -92 93.5t-32.5 132.5t32.5 132.5t92 93.5t135.5 34q66 0 120.5 -25t88 -70t37.5 -102h-140q-4 22 -18.5 40t-36.5 28t-47 10q-37 0 -64 -18t-41 -50t-14 -73t14.5 -73t42 -49.5t64.5 -17.5q38 0 66 21t36 55h142q-7 -55 -42 -100t-89.5 -70.5
t-118.5 -25.5q-76 0 -135.5 34zM445 560h-117l-52 60l-53 -60h-115l107 140h123z" />
    <glyph glyph-name="Cdotaccent" unicode="&#x10a;" horiz-adv-x="734" 
d="M208 33q-80 41 -127 122t-47 195t47.5 195t127.5 122t176 41q87 0 157.5 -31t114 -88t52.5 -132h-157q-5 36 -28 63.5t-59 43t-80 15.5q-57 0 -102.5 -26.5t-71.5 -78t-26 -124.5t26 -124.5t71.5 -77.5t102.5 -26q45 0 81.5 15t60 42.5t29.5 63.5h150q-6 -74 -48.5 -131
t-113 -88.5t-159.5 -31.5q-97 0 -177 41zM456 772h-148v147h148v-147z" />
    <glyph glyph-name="cdotaccent" unicode="&#x10b;" horiz-adv-x="555" 
d="M149.5 26q-59.5 34 -92 93.5t-32.5 132.5t32.5 132.5t92 93.5t135.5 34q66 0 120.5 -25t88 -70t37.5 -102h-140q-4 22 -18.5 40t-36.5 28t-47 10q-37 0 -64 -18t-41 -50t-14 -73t14.5 -73t42 -49.5t64.5 -17.5q38 0 66 21t36 55h142q-7 -55 -42 -100t-89.5 -70.5
t-118.5 -25.5q-76 0 -135.5 34zM350 576h-148v147h148v-147z" />
    <glyph glyph-name="Ccaron" unicode="&#x10c;" horiz-adv-x="734" 
d="M208 33q-80 41 -127 122t-47 195t47.5 195t127.5 122t176 41q87 0 157.5 -31t114 -88t52.5 -132h-157q-5 36 -28 63.5t-59 43t-80 15.5q-57 0 -102.5 -26.5t-71.5 -78t-26 -124.5t26 -124.5t71.5 -77.5t102.5 -26q45 0 81.5 15t60 42.5t29.5 63.5h150q-6 -74 -48.5 -131
t-113 -88.5t-159.5 -31.5q-97 0 -177 41zM328 896l52 -60l52 60h118l-107 -140h-124l-107 140h116z" />
    <glyph glyph-name="ccaron" unicode="&#x10d;" horiz-adv-x="555" 
d="M149.5 26q-59.5 34 -92 93.5t-32.5 132.5t32.5 132.5t92 93.5t135.5 34q66 0 120.5 -25t88 -70t37.5 -102h-140q-4 22 -18.5 40t-36.5 28t-47 10q-37 0 -64 -18t-41 -50t-14 -73t14.5 -73t42 -49.5t64.5 -17.5q38 0 66 21t36 55h142q-7 -55 -42 -100t-89.5 -70.5
t-118.5 -25.5q-76 0 -135.5 34zM222 700l52 -60l52 60h118l-107 -140h-124l-107 140h116z" />
    <glyph glyph-name="Dcaron" unicode="&#x10e;" horiz-adv-x="696" 
d="M300 700q100 0 182 -38.5t131 -117.5t49 -194q0 -114 -49 -193t-131 -118t-182 -39h-235v700h235zM397.5 151.5q50.5 21.5 81.5 71t31 127.5t-31 127.5t-81.5 71.5t-112.5 22h-70v-441h70q62 0 112.5 21.5zM240 896l52 -60l52 60h118l-107 -140h-124l-107 140h116z" />
    <glyph glyph-name="dcaron" unicode="&#x10f;" horiz-adv-x="729" 
d="M136 24q-54 32 -82.5 91t-28.5 137t28.5 137t82 91t125.5 32q46 0 82 -16.5t58 -44.5v272h139v-723h-139v55q-21 -29 -58 -46t-80 -17q-73 0 -127 32zM350.5 129.5q27.5 17.5 43 49t15.5 73.5t-15.5 74t-43 49.5t-64.5 17.5t-64.5 -17.5t-43 -49.5t-15.5 -74t15.5 -73.5
t43 -49t64.5 -17.5t64.5 17.5zM745 750l-57 -190h-104l30 190h131z" />
    <glyph glyph-name="Dcroat" unicode="&#x110;" horiz-adv-x="776" 
d="M562 661.5q82 -38.5 131 -117.5t49 -194q0 -114 -49 -193t-131 -118t-182 -39h-235v297h-100v110h100v293h235q100 0 182 -38.5zM477.5 151.5q50.5 21.5 81.5 71t31 127.5t-31 127.5t-81.5 71.5t-112.5 22h-70v-164h149v-110h-149v-167h70q62 0 112.5 21.5z" />
    <glyph glyph-name="dcroat" unicode="&#x111;" horiz-adv-x="599" 
d="M612 559h-72v-559h-139v55q-21 -29 -58 -46t-80 -17q-73 0 -127 32t-82.5 91t-28.5 137t28.5 137t82 91t125.5 32q46 0 82 -16.5t58 -44.5v108h-161v95h161v69h139v-69h72v-95zM350.5 129.5q27.5 17.5 43 49t15.5 73.5t-15.5 74t-43 49.5t-64.5 17.5t-64.5 -17.5
t-43 -49.5t-15.5 -74t15.5 -73.5t43 -49t64.5 -17.5t64.5 17.5z" />
    <glyph glyph-name="Emacron" unicode="&#x112;" horiz-adv-x="586" 
d="M541 700v-129h-326v-148h260v-130h-260v-163h337v-130h-487v700h476zM447 884v-106h-281v106h281z" />
    <glyph glyph-name="emacron" unicode="&#x113;" horiz-adv-x="549" 
d="M524 171q-10 -54 -43 -94.5t-84 -62.5t-113 -22q-82 0 -140.5 37.5t-88.5 97.5t-30 126q0 67 27.5 126t84 96t137.5 37q84 0 140 -36t82.5 -92t26.5 -118q0 -23 -2 -45h-362q8 -54 40.5 -84.5t84.5 -30.5q42 0 69 16.5t35 48.5h136zM198 385.5q-28 -24.5 -37 -76.5h223
q-2 28 -15.5 51t-38 36.5t-56.5 13.5q-48 0 -76 -24.5zM419 688v-106h-281v106h281z" />
    <glyph glyph-name="Ebreve" unicode="&#x114;" horiz-adv-x="586" 
d="M541 700v-129h-326v-148h260v-130h-260v-163h337v-130h-487v700h476zM226 771q-35 20 -54 53.5t-19 71.5h108q0 -26 12 -39.5t33 -13.5q22 0 34.5 13.5t12.5 39.5h108q0 -38 -19 -71.5t-54.5 -53.5t-81.5 -20q-45 0 -80 20z" />
    <glyph glyph-name="ebreve" unicode="&#x115;" horiz-adv-x="549" 
d="M524 171q-10 -54 -43 -94.5t-84 -62.5t-113 -22q-82 0 -140.5 37.5t-88.5 97.5t-30 126q0 67 27.5 126t84 96t137.5 37q84 0 140 -36t82.5 -92t26.5 -118q0 -23 -2 -45h-362q8 -54 40.5 -84.5t84.5 -30.5q42 0 69 16.5t35 48.5h136zM198 385.5q-28 -24.5 -37 -76.5h223
q-2 28 -15.5 51t-38 36.5t-56.5 13.5q-48 0 -76 -24.5zM198 575q-35 20 -54 53.5t-19 71.5h108q0 -26 12 -39.5t33 -13.5q22 0 34.5 13.5t12.5 39.5h108q0 -38 -19 -71.5t-54.5 -53.5t-81.5 -20q-45 0 -80 20z" />
    <glyph glyph-name="Edotaccent" unicode="&#x116;" horiz-adv-x="586" 
d="M541 700v-129h-326v-148h260v-130h-260v-163h337v-130h-487v700h476zM381 772h-148v147h148v-147z" />
    <glyph glyph-name="edotaccent" unicode="&#x117;" horiz-adv-x="549" 
d="M524 171q-10 -54 -43 -94.5t-84 -62.5t-113 -22q-82 0 -140.5 37.5t-88.5 97.5t-30 126q0 67 27.5 126t84 96t137.5 37q84 0 140 -36t82.5 -92t26.5 -118q0 -23 -2 -45h-362q8 -54 40.5 -84.5t84.5 -30.5q42 0 69 16.5t35 48.5h136zM198 385.5q-28 -24.5 -37 -76.5h223
q-2 28 -15.5 51t-38 36.5t-56.5 13.5q-48 0 -76 -24.5zM353 576h-148v147h148v-147z" />
    <glyph glyph-name="Eogonek" unicode="&#x118;" horiz-adv-x="586" 
d="M541 700v-129h-326v-148h260v-130h-260v-163h337v-130h-487v700h476zM500 -201q-31 0 -55 11.5t-37 32t-13 46.5q0 33 21 64t54 47h83q-32 -22 -44.5 -40t-12.5 -35q0 -13 7.5 -20t19.5 -7q20 0 41 27l52 -62q-45 -64 -116 -64z" />
    <glyph glyph-name="eogonek" unicode="&#x119;" horiz-adv-x="549" 
d="M524 171q-10 -54 -43 -94.5t-84 -62.5t-113 -22q-82 0 -140.5 37.5t-88.5 97.5t-30 126q0 67 27.5 126t84 96t137.5 37q84 0 140 -36t82.5 -92t26.5 -118q0 -23 -2 -45h-362q8 -54 40.5 -84.5t84.5 -30.5q42 0 69 16.5t35 48.5h136zM198 385.5q-28 -24.5 -37 -76.5h223
q-2 28 -15.5 51t-38 36.5t-56.5 13.5q-48 0 -76 -24.5zM300 -201q-31 0 -55 11.5t-37 32t-13 46.5q0 33 21 64t54 47h83q-32 -22 -44.5 -40t-12.5 -35q0 -13 7.5 -20t19.5 -7q20 0 41 27l52 -62q-45 -64 -116 -64z" />
    <glyph glyph-name="Ecaron" unicode="&#x11a;" horiz-adv-x="586" 
d="M541 700v-129h-326v-148h260v-130h-260v-163h337v-130h-487v700h476zM254 896l52 -60l52 60h118l-107 -140h-124l-107 140h116z" />
    <glyph glyph-name="ecaron" unicode="&#x11b;" horiz-adv-x="549" 
d="M524 171q-10 -54 -43 -94.5t-84 -62.5t-113 -22q-82 0 -140.5 37.5t-88.5 97.5t-30 126q0 67 27.5 126t84 96t137.5 37q84 0 140 -36t82.5 -92t26.5 -118q0 -23 -2 -45h-362q8 -54 40.5 -84.5t84.5 -30.5q42 0 69 16.5t35 48.5h136zM198 385.5q-28 -24.5 -37 -76.5h223
q-2 28 -15.5 51t-38 36.5t-56.5 13.5q-48 0 -76 -24.5zM226 700l52 -60l52 60h118l-107 -140h-124l-107 140h116z" />
    <glyph glyph-name="Gcircumflex" unicode="&#x11c;" horiz-adv-x="746" 
d="M207.5 33q-78.5 41 -126 121.5t-47.5 195.5t49 195.5t130 121.5t176 41q87 0 156 -32t110 -89.5t45 -131.5h-149q-5 37 -27 65t-57 43.5t-79 15.5q-60 0 -108 -27.5t-75.5 -79t-27.5 -122.5t27.5 -124.5t75 -82.5t105.5 -29q43 0 83 18.5t65 48t25 61.5q0 13 -7.5 20.5
t-20.5 7.5h-135v113h190q32 0 57.5 -15.5t40.5 -41.5t15 -56v-270h-133v107q-11 -34 -38.5 -60t-65.5 -40.5t-83 -14.5q-92 0 -170.5 41zM544 756h-117l-52 60l-53 -60h-115l107 140h123z" />
    <glyph glyph-name="gcircumflex" unicode="&#x11d;" horiz-adv-x="607" 
d="M548 504v-534q0 -52 -23.5 -91.5t-67 -61t-99.5 -21.5h-254v109h232q32 0 52.5 22.5t20.5 57.5v66q-19 -28 -56 -43.5t-82 -15.5q-74 0 -127.5 32t-82 91t-28.5 137t28.5 137t81.5 91t126 32q45 0 81.5 -15.5t57.5 -42.5v50h140zM358 129.5q28 17.5 43.5 49t15.5 73.5
t-15.5 74t-43.5 49.5t-65 17.5t-64.5 -17.5t-43 -49.5t-15.5 -74t15.5 -73.5t43 -49t64.5 -17.5t65 17.5zM464 560h-117l-52 60l-53 -60h-115l107 140h123z" />
    <glyph glyph-name="Gbreve" unicode="&#x11e;" horiz-adv-x="746" 
d="M207.5 33q-78.5 41 -126 121.5t-47.5 195.5t49 195.5t130 121.5t176 41q87 0 156 -32t110 -89.5t45 -131.5h-149q-5 37 -27 65t-57 43.5t-79 15.5q-60 0 -108 -27.5t-75.5 -79t-27.5 -122.5t27.5 -124.5t75 -82.5t105.5 -29q43 0 83 18.5t65 48t25 61.5q0 13 -7.5 20.5
t-20.5 7.5h-135v113h190q32 0 57.5 -15.5t40.5 -41.5t15 -56v-270h-133v107q-11 -34 -38.5 -60t-65.5 -40.5t-83 -14.5q-92 0 -170.5 41zM294 771q-35 20 -54 53.5t-19 71.5h108q0 -26 12 -39.5t33 -13.5q22 0 34.5 13.5t12.5 39.5h108q0 -38 -19 -71.5t-54.5 -53.5
t-81.5 -20q-45 0 -80 20z" />
    <glyph glyph-name="gbreve" unicode="&#x11f;" horiz-adv-x="607" 
d="M548 504v-534q0 -52 -23.5 -91.5t-67 -61t-99.5 -21.5h-254v109h232q32 0 52.5 22.5t20.5 57.5v66q-19 -28 -56 -43.5t-82 -15.5q-74 0 -127.5 32t-82 91t-28.5 137t28.5 137t81.5 91t126 32q45 0 81.5 -15.5t57.5 -42.5v50h140zM358 129.5q28 17.5 43.5 49t15.5 73.5
t-15.5 74t-43.5 49.5t-65 17.5t-64.5 -17.5t-43 -49.5t-15.5 -74t15.5 -73.5t43 -49t64.5 -17.5t65 17.5zM214 575q-35 20 -54 53.5t-19 71.5h108q0 -26 12 -39.5t33 -13.5q22 0 34.5 13.5t12.5 39.5h108q0 -38 -19 -71.5t-54.5 -53.5t-81.5 -20q-45 0 -80 20z" />
    <glyph glyph-name="Gdotaccent" unicode="&#x120;" horiz-adv-x="746" 
d="M207.5 33q-78.5 41 -126 121.5t-47.5 195.5t49 195.5t130 121.5t176 41q87 0 156 -32t110 -89.5t45 -131.5h-149q-5 37 -27 65t-57 43.5t-79 15.5q-60 0 -108 -27.5t-75.5 -79t-27.5 -122.5t27.5 -124.5t75 -82.5t105.5 -29q43 0 83 18.5t65 48t25 61.5q0 13 -7.5 20.5
t-20.5 7.5h-135v113h190q32 0 57.5 -15.5t40.5 -41.5t15 -56v-270h-133v107q-11 -34 -38.5 -60t-65.5 -40.5t-83 -14.5q-92 0 -170.5 41zM449 772h-148v147h148v-147z" />
    <glyph glyph-name="gdotaccent" unicode="&#x121;" horiz-adv-x="607" 
d="M548 504v-534q0 -52 -23.5 -91.5t-67 -61t-99.5 -21.5h-254v109h232q32 0 52.5 22.5t20.5 57.5v66q-19 -28 -56 -43.5t-82 -15.5q-74 0 -127.5 32t-82 91t-28.5 137t28.5 137t81.5 91t126 32q45 0 81.5 -15.5t57.5 -42.5v50h140zM358 129.5q28 17.5 43.5 49t15.5 73.5
t-15.5 74t-43.5 49.5t-65 17.5t-64.5 -17.5t-43 -49.5t-15.5 -74t15.5 -73.5t43 -49t64.5 -17.5t65 17.5zM368 576h-148v147h148v-147z" />
    <glyph glyph-name="uni0122" unicode="&#x122;" horiz-adv-x="746" 
d="M207.5 33q-78.5 41 -126 121.5t-47.5 195.5t49 195.5t130 121.5t176 41q87 0 156 -32t110 -89.5t45 -131.5h-149q-5 37 -27 65t-57 43.5t-79 15.5q-60 0 -108 -27.5t-75.5 -79t-27.5 -122.5t27.5 -124.5t75 -82.5t105.5 -29q43 0 83 18.5t65 48t25 61.5q0 13 -7.5 20.5
t-20.5 7.5h-135v113h190q32 0 57.5 -15.5t40.5 -41.5t15 -56v-270h-133v107q-11 -34 -38.5 -60t-65.5 -40.5t-83 -14.5q-92 0 -170.5 41zM459 -68l-85 -167h-122l49 167h158z" />
    <glyph glyph-name="uni0123" unicode="&#x123;" horiz-adv-x="607" 
d="M548 504v-534q0 -52 -23.5 -91.5t-67 -61t-99.5 -21.5h-254v109h232q32 0 52.5 22.5t20.5 57.5v66q-19 -28 -56 -43.5t-82 -15.5q-74 0 -127.5 32t-82 91t-28.5 137t28.5 137t81.5 91t126 32q45 0 81.5 -15.5t57.5 -42.5v50h140zM358 129.5q28 17.5 43.5 49t15.5 73.5
t-15.5 74t-43.5 49.5t-65 17.5t-64.5 -17.5t-43 -49.5t-15.5 -74t15.5 -73.5t43 -49t64.5 -17.5t65 17.5zM223 570l64 157h126l-29 -157h-161z" />
    <glyph glyph-name="Hcircumflex" unicode="&#x124;" horiz-adv-x="718" 
d="M654 700v-700h-151v293h-288v-293h-150v700h150v-278h288v278h151zM529 756h-117l-52 60l-53 -60h-115l107 140h123z" />
    <glyph glyph-name="hcircumflex" unicode="&#x125;" horiz-adv-x="590" 
d="M198 723v-289q22 37 62 57.5t92 20.5q56 0 98.5 -25t65.5 -70t23 -103v-314h-139v283q0 30 -12.5 54t-34.5 37.5t-51 13.5q-30 0 -53.5 -14.5t-37 -40t-13.5 -57.5v-276h-139v723h139zM298 756h-117l-52 60l-53 -60h-115l107 140h123z" />
    <glyph glyph-name="Hbar" unicode="&#x126;" horiz-adv-x="718" 
d="M715 530h-61v-530h-151v293h-288v-293h-150v530h-62v110h62v60h150v-60h288v60h151v-60h61v-110zM503 530h-288v-108h288v108z" />
    <glyph glyph-name="hbar" unicode="&#x127;" horiz-adv-x="590" 
d="M450.5 487q42.5 -25 65.5 -70t23 -103v-314h-139v283q0 30 -12.5 54t-34.5 37.5t-51 13.5q-30 0 -53.5 -14.5t-37 -40t-13.5 -57.5v-276h-139v559h-72v95h72v69h139v-69h161v-95h-161v-125q22 37 62 57.5t92 20.5q56 0 98.5 -25z" />
    <glyph glyph-name="Itilde" unicode="&#x128;" horiz-adv-x="281" 
d="M216 700v-700h-151v700h151zM161 768q-15 6 -32 17q-10 6 -20.5 10.5t-19.5 4.5q-15 0 -25 -9.5t-12 -25.5h-88q0 38 15.5 69t42.5 49t59 18q20 0 34 -5.5t33 -16.5q13 -8 22 -12t19 -4q16 0 26.5 10t13.5 26h86q0 -41 -16 -72t-43 -48t-59 -17q-21 0 -36 6z" />
    <glyph glyph-name="itilde" unicode="&#x129;" horiz-adv-x="242" 
d="M191 504v-504h-140v504h140zM142 572q-15 6 -32 17q-10 6 -20.5 10.5t-19.5 4.5q-15 0 -25 -9.5t-12 -25.5h-88q0 38 15.5 69t42.5 49t59 18q20 0 34 -5.5t33 -16.5q13 -8 22 -12t19 -4q16 0 26.5 10t13.5 26h86q0 -41 -16 -72t-43 -48t-59 -17q-21 0 -36 6z" />
    <glyph glyph-name="Imacron" unicode="&#x12a;" horiz-adv-x="281" 
d="M216 700v-700h-151v700h151zM280 884v-106h-281v106h281z" />
    <glyph glyph-name="imacron" unicode="&#x12b;" horiz-adv-x="242" 
d="M191 504v-504h-140v504h140zM260 688v-106h-281v106h281z" />
    <glyph glyph-name="Ibreve" unicode="&#x12c;" horiz-adv-x="281" 
d="M216 700v-700h-151v700h151zM59 771q-35 20 -54 53.5t-19 71.5h108q0 -26 12 -39.5t33 -13.5q22 0 34.5 13.5t12.5 39.5h108q0 -38 -19 -71.5t-54.5 -53.5t-81.5 -20q-45 0 -80 20z" />
    <glyph glyph-name="ibreve" unicode="&#x12d;" horiz-adv-x="242" 
d="M191 504v-504h-140v504h140zM40 575q-35 20 -54 53.5t-19 71.5h108q0 -26 12 -39.5t33 -13.5q22 0 34.5 13.5t12.5 39.5h108q0 -38 -19 -71.5t-54.5 -53.5t-81.5 -20q-45 0 -80 20z" />
    <glyph glyph-name="Iogonek" unicode="&#x12e;" horiz-adv-x="281" 
d="M216 700v-700h-151v700h151zM144 -201q-31 0 -55 11.5t-37 32t-13 46.5q0 33 21 64t54 47h83q-32 -22 -44.5 -40t-12.5 -35q0 -13 7.5 -20t19.5 -7q20 0 41 27l52 -62q-45 -64 -116 -64z" />
    <glyph glyph-name="iogonek" unicode="&#x12f;" horiz-adv-x="242" 
d="M191 504v-504h-140v504h140zM195 576h-148v147h148v-147zM139 -201q-31 0 -55 11.5t-37 32t-13 46.5q0 33 21 64t54 47h83q-32 -22 -44.5 -40t-12.5 -35q0 -13 7.5 -20t19.5 -7q20 0 41 27l52 -62q-45 -64 -116 -64z" />
    <glyph glyph-name="Idotaccent" unicode="&#x130;" horiz-adv-x="281" 
d="M216 700v-700h-151v700h151zM214 772h-148v147h148v-147z" />
    <glyph glyph-name="dotlessi" unicode="&#x131;" horiz-adv-x="242" 
d="M191 504v-504h-140v504h140z" />
    <glyph glyph-name="IJ" unicode="&#x132;" horiz-adv-x="643" 
d="M216 700v-700h-151v700h151zM429 150q15 20 15 66v484h150v-491q0 -104 -48.5 -156.5t-138.5 -52.5h-103v130h73q37 0 52 20z" />
    <glyph glyph-name="ij" unicode="&#x133;" horiz-adv-x="483" 
d="M191 504v-504h-140v504h140zM195 576h-148v147h148v-147zM432 504v-539q0 -79 -46 -124t-131 -45h-56v109h33q61 0 61 75v524h139zM438 576h-148v147h148v-147z" />
    <glyph glyph-name="Jcircumflex" unicode="&#x134;" horiz-adv-x="363" 
d="M148 150q15 20 15 66v484h150v-491q0 -104 -48.5 -156.5t-138.5 -52.5h-103v130h73q37 0 52 20zM407 756h-117l-52 60l-53 -60h-115l107 140h123z" />
    <glyph glyph-name="jcircumflex" unicode="&#x135;" horiz-adv-x="241" 
d="M190 504v-539q0 -79 -46 -124t-131 -45h-56v109h33q61 0 61 75v524h139zM291 560h-117l-52 60l-53 -60h-115l107 140h123z" />
    <glyph glyph-name="uni0136" unicode="&#x136;" horiz-adv-x="697" 
d="M312 311l-96 -105v-206h-151v700h151v-292l264 292h187l-252 -277l277 -423h-189zM418 -68l-85 -167h-122l49 167h158z" />
    <glyph glyph-name="uni0137" unicode="&#x137;" horiz-adv-x="571" 
d="M255 213l-56 -55v-158h-140v723h140v-391l175 172h176l-201 -198l217 -306h-168zM356 -68l-85 -167h-122l49 167h158z" />
    <glyph glyph-name="kgreenlandic" unicode="&#x138;" horiz-adv-x="571" 
d="M255 213l-56 -55v-158h-140v504h140v-171l176 171h175l-201 -198l217 -306h-168z" />
    <glyph glyph-name="Lacute" unicode="&#x139;" horiz-adv-x="545" 
d="M216 700v-570h318v-130h-469v700h151zM313 904l-100 -148h-118l70 148h148z" />
    <glyph glyph-name="lacute" unicode="&#x13a;" horiz-adv-x="257" 
d="M198 723v-723h-139v723h139zM288 904l-100 -148h-118l70 148h148z" />
    <glyph glyph-name="uni013B" unicode="&#x13b;" horiz-adv-x="545" 
d="M216 700v-570h318v-130h-469v700h151zM366 -68l-85 -167h-122l49 167h158z" />
    <glyph glyph-name="uni013C" unicode="&#x13c;" horiz-adv-x="257" 
d="M198 723v-723h-139v723h139zM211 -68l-85 -167h-122l49 167h158z" />
    <glyph glyph-name="Lcaron" unicode="&#x13d;" horiz-adv-x="545" 
d="M216 700v-570h318v-130h-469v700h151zM504 750l-57 -190h-104l30 190h131z" />
    <glyph glyph-name="lcaron" unicode="&#x13e;" horiz-adv-x="355" 
d="M189 723v-723h-139v723h139zM392 750l-57 -190h-104l30 190h131z" />
    <glyph glyph-name="Ldot" unicode="&#x13f;" horiz-adv-x="545" 
d="M216 700v-570h318v-130h-469v700h151zM474 275h-148v147h148v-147z" />
    <glyph glyph-name="ldot" unicode="&#x140;" horiz-adv-x="443" 
d="M198 723v-723h-139v723h139zM405 273h-148v147h148v-147z" />
    <glyph glyph-name="Lslash" unicode="&#x141;" horiz-adv-x="545" 
d="M534 130v-130h-469v297l-70 -18v111l70 18v292h151v-254l73 19v-111l-73 -19v-205h318z" />
    <glyph glyph-name="lslash" unicode="&#x142;" horiz-adv-x="257" 
d="M272 332l-74 -19v-313h-139v278l-81 -21v112l81 21v333h139v-298l74 19v-112z" />
    <glyph glyph-name="Nacute" unicode="&#x143;" horiz-adv-x="721" 
d="M225 700l281 -463v463h150v-700h-160l-281 463v-463h-150v700h160zM521 904l-100 -148h-118l70 148h148z" />
    <glyph glyph-name="nacute" unicode="&#x144;" horiz-adv-x="583" 
d="M191 504v-70q21 37 61 57.5t92 20.5q56 0 98.5 -25t66 -70t23.5 -103v-314h-140v283q0 30 -12 54t-34 37.5t-51 13.5q-30 0 -53.5 -14.5t-37 -40t-13.5 -57.5v-276h-140v504h140zM450 708l-100 -148h-118l70 148h148z" />
    <glyph glyph-name="uni0145" unicode="&#x145;" horiz-adv-x="721" 
d="M225 700l281 -463v463h150v-700h-160l-281 463v-463h-150v700h160zM445 -68l-85 -167h-122l49 167h158z" />
    <glyph glyph-name="uni0146" unicode="&#x146;" horiz-adv-x="583" 
d="M191 504v-70q21 37 61 57.5t92 20.5q56 0 98.5 -25t66 -70t23.5 -103v-314h-140v283q0 30 -12 54t-34 37.5t-51 13.5q-30 0 -53.5 -14.5t-37 -40t-13.5 -57.5v-276h-140v504h140zM374 -68l-85 -167h-122l49 167h158z" />
    <glyph glyph-name="Ncaron" unicode="&#x147;" horiz-adv-x="721" 
d="M225 700l281 -463v463h150v-700h-160l-281 463v-463h-150v700h160zM308 896l52 -60l52 60h118l-107 -140h-124l-107 140h116z" />
    <glyph glyph-name="ncaron" unicode="&#x148;" horiz-adv-x="583" 
d="M191 504v-70q21 37 61 57.5t92 20.5q56 0 98.5 -25t66 -70t23.5 -103v-314h-140v283q0 30 -12 54t-34 37.5t-51 13.5q-30 0 -53.5 -14.5t-37 -40t-13.5 -57.5v-276h-140v504h140zM236 700l52 -60l52 60h118l-107 -140h-124l-107 140h116z" />
    <glyph glyph-name="napostrophe" unicode="&#x149;" horiz-adv-x="590" 
d="M191 504v-70q21 37 61 57.5t92 20.5q56 0 98.5 -25t66 -70t23.5 -103v-314h-140v283q0 30 -12 54t-34 37.5t-51 13.5q-30 0 -53.5 -14.5t-37 -40t-13.5 -57.5v-276h-140v504h140zM224 750l-57 -190h-104l30 190h131z" />
    <glyph glyph-name="Eng" unicode="&#x14a;" horiz-adv-x="721" 
d="M656 700v-695q0 -104 -48.5 -156.5t-138.5 -52.5h-103v129h73q34 0 49.5 17.5t17.5 55.5l-291 464v-462h-150v700h160l281 -462v462h150z" />
    <glyph glyph-name="eng" unicode="&#x14b;" horiz-adv-x="593" 
d="M442.5 487q42.5 -25 66 -70t23.5 -103v-330q0 -59 -29.5 -104t-82.5 -69q-44 -19 -100 -19q-11 0 -24 1v120l15 -1q40 0 60 21t22 67h-1v283q0 30 -12 54t-34 37.5t-51 13.5q-30 0 -53.5 -14.5t-37 -40t-13.5 -57.5v-276h-140v504h140v-70q21 37 61 57.5t92 20.5
q56 0 98.5 -25z" />
    <glyph glyph-name="Omacron" unicode="&#x14c;" horiz-adv-x="782" 
d="M208.5 38.5q-81.5 46.5 -128 128t-46.5 183.5t46.5 183.5t128 128t183.5 46.5q101 0 182.5 -46.5t128 -128t46.5 -183.5t-46.5 -183.5t-128 -128t-182.5 -46.5q-102 0 -183.5 46.5zM497.5 151.5q47.5 29.5 74 81.5t26.5 117t-26.5 117t-74 82t-106.5 30t-106 -30
t-73.5 -82t-26.5 -117t26.5 -117t73.5 -81.5t106 -29.5t106.5 29.5zM532 884v-106h-281v106h281z" />
    <glyph glyph-name="omacron" unicode="&#x14d;" horiz-adv-x="582" 
d="M154 25.5q-61 33.5 -95 93t-34 133.5t34 133.5t95 93t137 33.5t137 -33.5t95 -93t34 -133.5t-34 -133.5t-95 -93t-137 -33.5t-137 33.5zM356.5 129.5q28.5 17.5 44.5 49.5t16 73q0 42 -16 74t-44.5 49.5t-65.5 17.5t-65.5 -17.5t-44.5 -49.5t-16 -74q0 -41 16 -73
t44.5 -49.5t65.5 -17.5t65.5 17.5zM431 688v-106h-281v106h281z" />
    <glyph glyph-name="Obreve" unicode="&#x14e;" horiz-adv-x="782" 
d="M208.5 38.5q-81.5 46.5 -128 128t-46.5 183.5t46.5 183.5t128 128t183.5 46.5q101 0 182.5 -46.5t128 -128t46.5 -183.5t-46.5 -183.5t-128 -128t-182.5 -46.5q-102 0 -183.5 46.5zM497.5 151.5q47.5 29.5 74 81.5t26.5 117t-26.5 117t-74 82t-106.5 30t-106 -30
t-73.5 -82t-26.5 -117t26.5 -117t73.5 -81.5t106 -29.5t106.5 29.5zM312 771q-35 20 -54 53.5t-19 71.5h108q0 -26 12 -39.5t33 -13.5q22 0 34.5 13.5t12.5 39.5h108q0 -38 -19 -71.5t-54.5 -53.5t-81.5 -20q-45 0 -80 20z" />
    <glyph glyph-name="obreve" unicode="&#x14f;" horiz-adv-x="582" 
d="M154 25.5q-61 33.5 -95 93t-34 133.5t34 133.5t95 93t137 33.5t137 -33.5t95 -93t34 -133.5t-34 -133.5t-95 -93t-137 -33.5t-137 33.5zM356.5 129.5q28.5 17.5 44.5 49.5t16 73q0 42 -16 74t-44.5 49.5t-65.5 17.5t-65.5 -17.5t-44.5 -49.5t-16 -74q0 -41 16 -73
t44.5 -49.5t65.5 -17.5t65.5 17.5zM211 575q-35 20 -54 53.5t-19 71.5h108q0 -26 12 -39.5t33 -13.5q22 0 34.5 13.5t12.5 39.5h108q0 -38 -19 -71.5t-54.5 -53.5t-81.5 -20q-45 0 -80 20z" />
    <glyph glyph-name="Ohungarumlaut" unicode="&#x150;" horiz-adv-x="782" 
d="M208.5 38.5q-81.5 46.5 -128 128t-46.5 183.5t46.5 183.5t128 128t183.5 46.5q101 0 182.5 -46.5t128 -128t46.5 -183.5t-46.5 -183.5t-128 -128t-182.5 -46.5q-102 0 -183.5 46.5zM497.5 151.5q47.5 29.5 74 81.5t26.5 117t-26.5 117t-74 82t-106.5 30t-106 -30
t-73.5 -82t-26.5 -117t26.5 -117t73.5 -81.5t106 -29.5t106.5 29.5zM472 904l-100 -148h-118l70 148h148zM653 904l-100 -148h-118l70 148h148z" />
    <glyph glyph-name="ohungarumlaut" unicode="&#x151;" horiz-adv-x="582" 
d="M154 25.5q-61 33.5 -95 93t-34 133.5t34 133.5t95 93t137 33.5t137 -33.5t95 -93t34 -133.5t-34 -133.5t-95 -93t-137 -33.5t-137 33.5zM356.5 129.5q28.5 17.5 44.5 49.5t16 73q0 42 -16 74t-44.5 49.5t-65.5 17.5t-65.5 -17.5t-44.5 -49.5t-16 -74q0 -41 16 -73
t44.5 -49.5t65.5 -17.5t65.5 17.5zM371 708l-100 -148h-118l70 148h148zM552 708l-100 -148h-118l70 148h148z" />
    <glyph glyph-name="OE" unicode="&#x152;" horiz-adv-x="1001" 
d="M968 130v-130h-573q-99 0 -181 39t-131 118t-49 193q0 115 49 193.5t131 117.5t181 39h562v-129h-326v-148h260v-130h-260v-163h337zM481 571h-70q-62 0 -112.5 -22t-81.5 -71.5t-31 -127.5t31 -127.5t81.5 -71t112.5 -21.5h70v441z" />
    <glyph glyph-name="oe" unicode="&#x153;" horiz-adv-x="960" 
d="M154 25.5q-61 33.5 -95 93t-34 133.5t34 133.5t95 93t137 33.5t137 -33.5t95 -93t34 -133.5t-34 -133.5t-95 -93t-137 -33.5t-137 33.5zM356.5 129.5q28.5 17.5 44.5 49.5t16 73q0 42 -16 74t-44.5 49.5t-65.5 17.5t-65.5 -17.5t-44.5 -49.5t-16 -74q0 -41 16 -73
t44.5 -49.5t65.5 -17.5t65.5 17.5zM926 171q-10 -54 -43 -94.5t-84 -62.5t-113 -22q-82 0 -140.5 37.5t-88.5 97.5t-30 126q0 67 27.5 126t84 96t137.5 37q84 0 140 -36t82.5 -92t26.5 -118q0 -23 -2 -45h-362q8 -54 40.5 -84.5t84.5 -30.5q42 0 69 16.5t35 48.5h136z
M600 385.5q-28 -24.5 -37 -76.5h223q-2 28 -15.5 51t-38 36.5t-56.5 13.5q-48 0 -76 -24.5z" />
    <glyph glyph-name="Racute" unicode="&#x154;" horiz-adv-x="669" 
d="M607 0h-150l-19 173q-4 36 -27.5 58.5t-58.5 22.5h-136v-254h-151v700h295q73 0 126.5 -28t81.5 -78t28 -114q0 -51 -23 -87.5t-65 -58.5q34 -24 55 -60t25 -81zM216 383h136q49 0 74 28t25 69t-25 68t-74 27h-136v-192zM470 904l-100 -148h-118l70 148h148z" />
    <glyph glyph-name="racute" unicode="&#x155;" horiz-adv-x="388" 
d="M216 350q-25 -38 -25 -105v-245h-140v504h140v-84q20 46 49.5 65t76.5 19h57v-116h-83q-50 0 -75 -38zM381 708l-100 -148h-118l70 148h148z" />
    <glyph glyph-name="uni0156" unicode="&#x156;" horiz-adv-x="669" 
d="M607 0h-150l-19 173q-4 36 -27.5 58.5t-58.5 22.5h-136v-254h-151v700h295q73 0 126.5 -28t81.5 -78t28 -114q0 -51 -23 -87.5t-65 -58.5q34 -24 55 -60t25 -81zM216 383h136q49 0 74 28t25 69t-25 68t-74 27h-136v-192zM402 -68l-85 -167h-122l49 167h158z" />
    <glyph glyph-name="uni0157" unicode="&#x157;" horiz-adv-x="388" 
d="M216 350q-25 -38 -25 -105v-245h-140v504h140v-84q20 46 49.5 65t76.5 19h57v-116h-83q-50 0 -75 -38zM199 -68l-85 -167h-122l49 167h158z" />
    <glyph glyph-name="Rcaron" unicode="&#x158;" horiz-adv-x="669" 
d="M607 0h-150l-19 173q-4 36 -27.5 58.5t-58.5 22.5h-136v-254h-151v700h295q73 0 126.5 -28t81.5 -78t28 -114q0 -51 -23 -87.5t-65 -58.5q34 -24 55 -60t25 -81zM216 383h136q49 0 74 28t25 69t-25 68t-74 27h-136v-192zM257 896l52 -60l52 60h118l-107 -140h-124
l-107 140h116z" />
    <glyph glyph-name="rcaron" unicode="&#x159;" horiz-adv-x="388" 
d="M216 350q-25 -38 -25 -105v-245h-140v504h140v-84q20 46 49.5 65t76.5 19h57v-116h-83q-50 0 -75 -38zM168 700l52 -60l52 60h118l-107 -140h-124l-107 140h116z" />
    <glyph glyph-name="Sacute" unicode="&#x15a;" horiz-adv-x="583" 
d="M156 22.5q-60 30.5 -94.5 86t-37.5 129.5h144q5 -54 38.5 -85t88.5 -31q51 0 81.5 21t30.5 60q0 27 -17.5 43.5t-43.5 25.5t-74 21q-71 17 -116.5 36.5t-78.5 62.5t-33 118q0 57 31 102t86 70.5t125 25.5q75 0 132.5 -27t90 -77t34.5 -116h-143q-4 42 -34 66.5t-80 24.5
q-44 0 -70 -19t-26 -50q0 -29 18 -46t46 -26.5t77 -20.5q72 -17 117 -35t77.5 -60.5t32.5 -116.5q0 -65 -33 -113t-92.5 -74t-137.5 -26q-79 0 -139 30.5zM445 904l-100 -148h-118l70 148h148z" />
    <glyph glyph-name="sacute" unicode="&#x15b;" horiz-adv-x="458" 
d="M127 14q-47 22 -74.5 62t-29.5 94h120q4 -34 28.5 -53.5t63.5 -19.5q32 0 52.5 14t20.5 35q0 20 -13 31t-32.5 16.5t-54.5 11.5q-54 10 -88 22t-58.5 43.5t-24.5 89.5q0 44 23.5 78.5t64.5 54t92 19.5q60 0 106 -20.5t73 -57.5t29 -86h-121q-4 31 -28.5 48.5t-54.5 17.5
t-48 -13t-18 -36q0 -19 12.5 -29.5t32 -15t53.5 -9.5q55 -8 90.5 -19.5t61.5 -44.5t26 -96q0 -48 -24.5 -84t-69 -55.5t-102.5 -19.5q-61 0 -108 22zM384 708l-100 -148h-118l70 148h148z" />
    <glyph glyph-name="Scircumflex" unicode="&#x15c;" horiz-adv-x="583" 
d="M156 22.5q-60 30.5 -94.5 86t-37.5 129.5h144q5 -54 38.5 -85t88.5 -31q51 0 81.5 21t30.5 60q0 27 -17.5 43.5t-43.5 25.5t-74 21q-71 17 -116.5 36.5t-78.5 62.5t-33 118q0 57 31 102t86 70.5t125 25.5q75 0 132.5 -27t90 -77t34.5 -116h-143q-4 42 -34 66.5t-80 24.5
q-44 0 -70 -19t-26 -50q0 -29 18 -46t46 -26.5t77 -20.5q72 -17 117 -35t77.5 -60.5t32.5 -116.5q0 -65 -33 -113t-92.5 -74t-137.5 -26q-79 0 -139 30.5zM455 756h-117l-52 60l-53 -60h-115l107 140h123z" />
    <glyph glyph-name="scircumflex" unicode="&#x15d;" horiz-adv-x="458" 
d="M127 14q-47 22 -74.5 62t-29.5 94h120q4 -34 28.5 -53.5t63.5 -19.5q32 0 52.5 14t20.5 35q0 20 -13 31t-32.5 16.5t-54.5 11.5q-54 10 -88 22t-58.5 43.5t-24.5 89.5q0 44 23.5 78.5t64.5 54t92 19.5q60 0 106 -20.5t73 -57.5t29 -86h-121q-4 31 -28.5 48.5t-54.5 17.5
t-48 -13t-18 -36q0 -19 12.5 -29.5t32 -15t53.5 -9.5q55 -8 90.5 -19.5t61.5 -44.5t26 -96q0 -48 -24.5 -84t-69 -55.5t-102.5 -19.5q-61 0 -108 22zM394 560h-117l-52 60l-53 -60h-115l107 140h123z" />
    <glyph glyph-name="Scedilla" unicode="&#x15e;" horiz-adv-x="583" 
d="M156 22.5q-60 30.5 -94.5 86t-37.5 129.5h144q5 -54 38.5 -85t88.5 -31q51 0 81.5 21t30.5 60q0 27 -17.5 43.5t-43.5 25.5t-74 21q-71 17 -116.5 36.5t-78.5 62.5t-33 118q0 57 31 102t86 70.5t125 25.5q75 0 132.5 -27t90 -77t34.5 -116h-143q-4 42 -34 66.5t-80 24.5
q-44 0 -70 -19t-26 -50q0 -29 18 -46t46 -26.5t77 -20.5q72 -17 117 -35t77.5 -60.5t32.5 -116.5q0 -65 -33 -113t-92.5 -74t-137.5 -26q-79 0 -139 30.5zM317 17l-36 -79q7 1 20 1q31 0 54.5 -12.5t35.5 -33t12 -43.5q0 -29 -18.5 -52t-51.5 -36t-73 -13q-38 0 -83 14v70
q44 -15 82 -15q23 0 38 8.5t15 22.5t-15 23.5t-39 9.5q-15 0 -30 -4l-31 29l46 110h74z" />
    <glyph glyph-name="scedilla" unicode="&#x15f;" horiz-adv-x="458" 
d="M127 14q-47 22 -74.5 62t-29.5 94h120q4 -34 28.5 -53.5t63.5 -19.5q32 0 52.5 14t20.5 35q0 20 -13 31t-32.5 16.5t-54.5 11.5q-54 10 -88 22t-58.5 43.5t-24.5 89.5q0 44 23.5 78.5t64.5 54t92 19.5q60 0 106 -20.5t73 -57.5t29 -86h-121q-4 31 -28.5 48.5t-54.5 17.5
t-48 -13t-18 -36q0 -19 12.5 -29.5t32 -15t53.5 -9.5q55 -8 90.5 -19.5t61.5 -44.5t26 -96q0 -48 -24.5 -84t-69 -55.5t-102.5 -19.5q-61 0 -108 22zM263 17l-36 -79q7 1 20 1q31 0 54.5 -12.5t35.5 -33t12 -43.5q0 -29 -18.5 -52t-51.5 -36t-73 -13q-38 0 -83 14v70
q44 -15 82 -15q23 0 38 8.5t15 22.5t-15 23.5t-39 9.5q-15 0 -30 -4l-31 29l46 110h74z" />
    <glyph glyph-name="Scaron" unicode="&#x160;" horiz-adv-x="583" 
d="M156 22.5q-60 30.5 -94.5 86t-37.5 129.5h144q5 -54 38.5 -85t88.5 -31q51 0 81.5 21t30.5 60q0 27 -17.5 43.5t-43.5 25.5t-74 21q-71 17 -116.5 36.5t-78.5 62.5t-33 118q0 57 31 102t86 70.5t125 25.5q75 0 132.5 -27t90 -77t34.5 -116h-143q-4 42 -34 66.5t-80 24.5
q-44 0 -70 -19t-26 -50q0 -29 18 -46t46 -26.5t77 -20.5q72 -17 117 -35t77.5 -60.5t32.5 -116.5q0 -65 -33 -113t-92.5 -74t-137.5 -26q-79 0 -139 30.5zM232 896l52 -60l52 60h118l-107 -140h-124l-107 140h116z" />
    <glyph glyph-name="scaron" unicode="&#x161;" horiz-adv-x="458" 
d="M127 14q-47 22 -74.5 62t-29.5 94h120q4 -34 28.5 -53.5t63.5 -19.5q32 0 52.5 14t20.5 35q0 20 -13 31t-32.5 16.5t-54.5 11.5q-54 10 -88 22t-58.5 43.5t-24.5 89.5q0 44 23.5 78.5t64.5 54t92 19.5q60 0 106 -20.5t73 -57.5t29 -86h-121q-4 31 -28.5 48.5t-54.5 17.5
t-48 -13t-18 -36q0 -19 12.5 -29.5t32 -15t53.5 -9.5q55 -8 90.5 -19.5t61.5 -44.5t26 -96q0 -48 -24.5 -84t-69 -55.5t-102.5 -19.5q-61 0 -108 22zM171 700l52 -60l52 60h118l-107 -140h-124l-107 140h116z" />
    <glyph glyph-name="uni0162" unicode="&#x162;" horiz-adv-x="580" 
d="M8 571v129h564v-129h-207v-571h-150v571h-207zM337 17l-36 -79q7 1 20 1q31 0 54.5 -12.5t35.5 -33t12 -43.5q0 -29 -18.5 -52t-51.5 -36t-73 -13q-38 0 -83 14v70q44 -15 82 -15q23 0 38 8.5t15 22.5t-15 23.5t-39 9.5q-15 0 -30 -4l-31 29l46 110h74z" />
    <glyph glyph-name="uni0163" unicode="&#x163;" horiz-adv-x="414" 
d="M255 504h135v-116h-135v-199q0 -36 18.5 -54t52.5 -18h64v-117h-83q-58 0 -101 21.5t-66.5 62.5t-23.5 99v205h-97v116h97v149h139v-149zM294 17l-36 -79q7 1 20 1q31 0 54.5 -12.5t35.5 -33t12 -43.5q0 -29 -18.5 -52t-51.5 -36t-73 -13q-38 0 -83 14v70q44 -15 82 -15
q23 0 38 8.5t15 22.5t-15 23.5t-39 9.5q-15 0 -30 -4l-31 29l46 110h74z" />
    <glyph glyph-name="Tcaron" unicode="&#x164;" horiz-adv-x="580" 
d="M8 571v129h564v-129h-207v-571h-150v571h-207zM237 896l52 -60l52 60h118l-107 -140h-124l-107 140h116z" />
    <glyph glyph-name="tcaron" unicode="&#x165;" horiz-adv-x="414" 
d="M255 504h135v-116h-135v-199q0 -36 18.5 -54t52.5 -18h64v-117h-83q-58 0 -101 21.5t-66.5 62.5t-23.5 99v205h-97v116h97v149h139v-149zM488 750l-57 -190h-104l30 190h131z" />
    <glyph glyph-name="Tbar" unicode="&#x166;" horiz-adv-x="580" 
d="M365 571v-166h124v-110h-124v-295h-150v295h-124v110h124v166h-207v129h564v-129h-207z" />
    <glyph glyph-name="tbar" unicode="&#x167;" horiz-adv-x="414" 
d="M255 388v-86h126v-95h-126v-18q0 -36 18.5 -54t52.5 -18h64v-117h-83q-58 0 -101 21.5t-66.5 62.5t-23.5 99v24h-107v95h107v86h-97v116h97v149h139v-149h135v-116h-135z" />
    <glyph glyph-name="Utilde" unicode="&#x168;" horiz-adv-x="660" 
d="M183.5 22q-62.5 30 -97.5 89.5t-35 146.5v442h141v-442q0 -67 37.5 -101t100.5 -34t101 34t38 101v442h140v-442q0 -87 -34.5 -146.5t-97.5 -89.5t-147 -30t-146.5 30zM352 768q-15 6 -32 17q-10 6 -20.5 10.5t-19.5 4.5q-15 0 -25 -9.5t-12 -25.5h-88q0 38 15.5 69
t42.5 49t59 18q20 0 34 -5.5t33 -16.5q13 -8 22 -12t19 -4q16 0 26.5 10t13.5 26h86q0 -41 -16 -72t-43 -48t-59 -17q-21 0 -36 6z" />
    <glyph glyph-name="utilde" unicode="&#x169;" horiz-adv-x="583" 
d="M392 70q-21 -36 -61.5 -57t-91.5 -21q-56 0 -98 25.5t-65.5 70.5t-23.5 102v314h139v-283q0 -30 12.5 -54t34.5 -37.5t50 -13.5q30 0 53.5 14.5t37 40t13.5 57.5v276h140v-504h-140v70zM315 572q-15 6 -32 17q-10 6 -20.5 10.5t-19.5 4.5q-15 0 -25 -9.5t-12 -25.5h-88
q0 38 15.5 69t42.5 49t59 18q20 0 34 -5.5t33 -16.5q13 -8 22 -12t19 -4q16 0 26.5 10t13.5 26h86q0 -41 -16 -72t-43 -48t-59 -17q-21 0 -36 6z" />
    <glyph glyph-name="Umacron" unicode="&#x16a;" horiz-adv-x="660" 
d="M183.5 22q-62.5 30 -97.5 89.5t-35 146.5v442h141v-442q0 -67 37.5 -101t100.5 -34t101 34t38 101v442h140v-442q0 -87 -34.5 -146.5t-97.5 -89.5t-147 -30t-146.5 30zM470 884v-106h-281v106h281z" />
    <glyph glyph-name="umacron" unicode="&#x16b;" horiz-adv-x="583" 
d="M392 70q-21 -36 -61.5 -57t-91.5 -21q-56 0 -98 25.5t-65.5 70.5t-23.5 102v314h139v-283q0 -30 12.5 -54t34.5 -37.5t50 -13.5q30 0 53.5 14.5t37 40t13.5 57.5v276h140v-504h-140v70zM433 688v-106h-281v106h281z" />
    <glyph glyph-name="Ubreve" unicode="&#x16c;" horiz-adv-x="660" 
d="M183.5 22q-62.5 30 -97.5 89.5t-35 146.5v442h141v-442q0 -67 37.5 -101t100.5 -34t101 34t38 101v442h140v-442q0 -87 -34.5 -146.5t-97.5 -89.5t-147 -30t-146.5 30zM250 771q-35 20 -54 53.5t-19 71.5h108q0 -26 12 -39.5t33 -13.5q22 0 34.5 13.5t12.5 39.5h108
q0 -38 -19 -71.5t-54.5 -53.5t-81.5 -20q-45 0 -80 20z" />
    <glyph glyph-name="ubreve" unicode="&#x16d;" horiz-adv-x="583" 
d="M392 70q-21 -36 -61.5 -57t-91.5 -21q-56 0 -98 25.5t-65.5 70.5t-23.5 102v314h139v-283q0 -30 12.5 -54t34.5 -37.5t50 -13.5q30 0 53.5 14.5t37 40t13.5 57.5v276h140v-504h-140v70zM213 575q-35 20 -54 53.5t-19 71.5h108q0 -26 12 -39.5t33 -13.5q22 0 34.5 13.5
t12.5 39.5h108q0 -38 -19 -71.5t-54.5 -53.5t-81.5 -20q-45 0 -80 20z" />
    <glyph glyph-name="Uring" unicode="&#x16e;" horiz-adv-x="660" 
d="M183.5 22q-62.5 30 -97.5 89.5t-35 146.5v442h141v-442q0 -67 37.5 -101t100.5 -34t101 34t38 101v442h140v-442q0 -87 -34.5 -146.5t-97.5 -89.5t-147 -30t-146.5 30zM258.5 758q-31.5 16 -49 44.5t-17.5 64.5t18 64.5t49 45t70 16.5q40 0 71.5 -16.5t49.5 -45t18 -64.5
t-18 -64.5t-49.5 -44.5t-71.5 -16q-39 0 -70.5 16zM371 829q16 15 16 38t-16 38t-42 15q-25 0 -40.5 -15t-15.5 -38t15.5 -38t40.5 -15q26 0 42 15z" />
    <glyph glyph-name="uring" unicode="&#x16f;" horiz-adv-x="583" 
d="M392 70q-21 -36 -61.5 -57t-91.5 -21q-56 0 -98 25.5t-65.5 70.5t-23.5 102v314h139v-283q0 -30 12.5 -54t34.5 -37.5t50 -13.5q30 0 53.5 14.5t37 40t13.5 57.5v276h140v-504h-140v70zM221.5 562q-31.5 16 -49 44.5t-17.5 64.5t18 64.5t49 45t70 16.5q40 0 71.5 -16.5
t49.5 -45t18 -64.5t-18 -64.5t-49.5 -44.5t-71.5 -16q-39 0 -70.5 16zM334 633q16 15 16 38t-16 38t-42 15q-25 0 -40.5 -15t-15.5 -38t15.5 -38t40.5 -15q26 0 42 15z" />
    <glyph glyph-name="Uhungarumlaut" unicode="&#x170;" horiz-adv-x="660" 
d="M183.5 22q-62.5 30 -97.5 89.5t-35 146.5v442h141v-442q0 -67 37.5 -101t100.5 -34t101 34t38 101v442h140v-442q0 -87 -34.5 -146.5t-97.5 -89.5t-147 -30t-146.5 30zM411 904l-100 -148h-118l70 148h148zM592 904l-100 -148h-118l70 148h148z" />
    <glyph glyph-name="uhungarumlaut" unicode="&#x171;" horiz-adv-x="583" 
d="M392 70q-21 -36 -61.5 -57t-91.5 -21q-56 0 -98 25.5t-65.5 70.5t-23.5 102v314h139v-283q0 -30 12.5 -54t34.5 -37.5t50 -13.5q30 0 53.5 14.5t37 40t13.5 57.5v276h140v-504h-140v70zM374 708l-100 -148h-118l70 148h148zM555 708l-100 -148h-118l70 148h148z" />
    <glyph glyph-name="Uogonek" unicode="&#x172;" horiz-adv-x="660" 
d="M183.5 22q-62.5 30 -97.5 89.5t-35 146.5v442h141v-442q0 -67 37.5 -101t100.5 -34t101 34t38 101v442h140v-442q0 -87 -34.5 -146.5t-97.5 -89.5t-147 -30t-146.5 30zM328 -201q-31 0 -55 11.5t-37 32t-13 46.5q0 33 21 64t54 47h83q-32 -22 -44.5 -40t-12.5 -35
q0 -13 7.5 -20t19.5 -7q20 0 41 27l52 -62q-45 -64 -116 -64z" />
    <glyph glyph-name="uogonek" unicode="&#x173;" horiz-adv-x="583" 
d="M392 70q-21 -36 -61.5 -57t-91.5 -21q-56 0 -98 25.5t-65.5 70.5t-23.5 102v314h139v-283q0 -30 12.5 -54t34.5 -37.5t50 -13.5q30 0 53.5 14.5t37 40t13.5 57.5v276h140v-504h-140v70zM479 -201q-31 0 -55 11.5t-37 32t-13 46.5q0 33 21 64t54 47h83q-32 -22 -44.5 -40
t-12.5 -35q0 -13 7.5 -20t19.5 -7q20 0 41 27l52 -62q-45 -64 -116 -64z" />
    <glyph glyph-name="Wcircumflex" unicode="&#x174;" horiz-adv-x="1018" 
d="M168 700l134 -479l143 479h127l144 -479l135 479h152l-207 -700h-148l-139 466l-139 -466h-146l-208 700h152zM679 756h-117l-52 60l-53 -60h-115l107 140h123z" />
    <glyph glyph-name="wcircumflex" unicode="&#x175;" horiz-adv-x="777" 
d="M151 504l85 -311l89 311h127l90 -311l85 311h139l-163 -504h-122l-92 314l-93 -314h-121l-164 504h140zM559 560h-117l-52 60l-53 -60h-115l107 140h123z" />
    <glyph glyph-name="Ycircumflex" unicode="&#x176;" horiz-adv-x="630" 
d="M1 700h161l153 -270l153 270h161l-239 -410v-290h-151v290zM484 756h-117l-52 60l-53 -60h-115l107 140h123z" />
    <glyph glyph-name="ycircumflex" unicode="&#x177;" horiz-adv-x="508" 
d="M319 2l-71 -206h-133l74 208l-183 500h142l106 -325l105 325h143zM429 560h-117l-52 60l-53 -60h-115l107 140h123z" />
    <glyph glyph-name="Ydieresis" unicode="&#x178;" horiz-adv-x="630" 
d="M1 700h161l153 -270l153 270h161l-239 -410v-290h-151v290zM274 775h-122v122h122v-122zM473 776h-122v121h122v-121z" />
    <glyph glyph-name="Zacute" unicode="&#x179;" horiz-adv-x="592" 
d="M396 572h-353v128h521v-128l-371 -444h372v-128h-541v128zM452 904l-100 -148h-118l70 148h148z" />
    <glyph glyph-name="zacute" unicode="&#x17a;" horiz-adv-x="499" 
d="M296 388h-247v116h406v-116l-261 -271h276v-117h-438v117zM427 708l-100 -148h-118l70 148h148z" />
    <glyph glyph-name="Zdotaccent" unicode="&#x17b;" horiz-adv-x="592" 
d="M396 572h-353v128h521v-128l-371 -444h372v-128h-541v128zM366 772h-148v147h148v-147z" />
    <glyph glyph-name="zdotaccent" unicode="&#x17c;" horiz-adv-x="499" 
d="M296 388h-247v116h406v-116l-261 -271h276v-117h-438v117zM341 576h-148v147h148v-147z" />
    <glyph glyph-name="Zcaron" unicode="&#x17d;" horiz-adv-x="592" 
d="M396 572h-353v128h521v-128l-371 -444h372v-128h-541v128zM238 896l52 -60l52 60h118l-107 -140h-124l-107 140h116z" />
    <glyph glyph-name="zcaron" unicode="&#x17e;" horiz-adv-x="499" 
d="M296 388h-247v116h406v-116l-261 -271h276v-117h-438v117zM214 700l52 -60l52 60h118l-107 -140h-124l-107 140h116z" />
    <glyph glyph-name="longs" unicode="&#x17f;" horiz-adv-x="382" 
d="M19 388v116h97v45q0 52 23.5 91.5t66 61t98.5 21.5h95v-116h-76q-31 0 -49.5 -18t-18.5 -48v-541h-139v388h-97z" />
    <glyph glyph-name="uni018F" unicode="&#x18f;" horiz-adv-x="740" 
d="M542.5 657q79.5 -50 122 -133.5t42.5 -179.5q0 -97 -39.5 -178t-116 -129t-181.5 -48t-180 45.5t-113.5 121t-38.5 164.5q0 22 3 55h526q-5 62 -33 110t-73.5 74.5t-102.5 26.5q-74 0 -121 -31t-61 -88h-142q12 72 56 126.5t113 84t155 29.5q105 0 184.5 -50zM499.5 145
q49.5 44 63.5 130h-380q3 -49 26 -89t64.5 -62.5t96.5 -22.5q80 0 129.5 44z" />
    <glyph glyph-name="florin" unicode="&#x192;" horiz-adv-x="545" 
d="M402 597q-20 -16 -27 -53l-8 -40h172v-116h-196l-84 -418q-19 -91 -75.5 -132.5t-149.5 -41.5h-78v110h88q30 0 50 16t27 53l83 413h-125v116h149l9 45q19 91 75.5 132.5t149.5 41.5h78v-110h-88q-30 0 -50 -16z" />
    <glyph glyph-name="Aringacute" unicode="&#x1fa;" horiz-adv-x="685" 
d="M469 153h-253l-55 -153h-156l266 700h143l266 -700h-156zM424 279l-81 227l-82 -227h163zM271.5 758q-31.5 16 -49 44.5t-17.5 64.5t18 64.5t49 45t70 16.5q40 0 71.5 -16.5t49.5 -45t18 -64.5t-18 -64.5t-49.5 -44.5t-71.5 -16q-39 0 -70.5 16zM384 829q16 15 16 38
t-16 38t-42 15q-25 0 -40.5 -15t-15.5 -38t15.5 -38t40.5 -15q26 0 42 15zM516 1129l-100 -148h-118l70 148h148z" />
    <glyph glyph-name="aringacute" unicode="&#x1fb;" horiz-adv-x="524" 
d="M373 488.5q50 -23.5 78.5 -66t28.5 -98.5v-324h-138v70q-13 -35 -51.5 -56.5t-90.5 -21.5q-48 0 -85.5 19.5t-58.5 54t-21 77.5q0 49 23 85t64.5 55t96.5 19h85q18 0 28 10.5t10 26.5q0 32 -24 51.5t-66 19.5q-29 0 -50 -11t-32 -29t-12 -40h-124q3 51 31 92.5t78 65.5
t117 24q63 0 113 -23.5zM292.5 108q24.5 15 37 41t12.5 58v7h-102q-32 0 -52 -18t-20 -47q0 -25 19 -40.5t48 -15.5q33 0 57.5 15zM192.5 562q-31.5 16 -49 44.5t-17.5 64.5t18 64.5t49 45t70 16.5q40 0 71.5 -16.5t49.5 -45t18 -64.5t-18 -64.5t-49.5 -44.5t-71.5 -16
q-39 0 -70.5 16zM305 633q16 15 16 38t-16 38t-42 15q-25 0 -40.5 -15t-15.5 -38t15.5 -38t40.5 -15q26 0 42 15zM438 933l-100 -148h-118l70 148h148z" />
    <glyph glyph-name="AEacute" unicode="&#x1fc;" horiz-adv-x="968" 
d="M935 130v-130h-437v154h-244l-89 -154h-160l427 700h492v-129h-276v-148h210v-130h-210v-163h287zM498 284v294l-169 -294h169zM860 904l-100 -148h-118l70 148h148z" />
    <glyph glyph-name="aeacute" unicode="&#x1fd;" horiz-adv-x="860" 
d="M839 171q-10 -54 -43 -94.5t-84 -62.5t-113 -22q-63 0 -113 23.5t-85 64.5q-55 -88 -176 -88q-62 0 -105 19.5t-64 54t-21 77.5q0 50 22 86t63.5 55t98.5 19h88q17 0 26 9.5t9 25.5v3q0 31 -25 50t-66 19q-43 0 -67 -23.5t-26 -57.5h-124q3 51 30 93t75 66t110 24
q54 0 98 -15.5t74 -44.5q31 29 73.5 44.5t94.5 15.5q84 0 140 -36t82.5 -92t26.5 -118q0 -23 -2 -45h-362q8 -54 40.5 -84.5t84.5 -30.5q42 0 69 16.5t35 48.5h136zM513 385.5q-28 -24.5 -37 -76.5h223q-2 28 -15.5 51t-38 36.5t-56.5 13.5q-48 0 -76 -24.5zM292.5 108
q24.5 15 37 41t12.5 58v8h-102q-34 0 -53 -18t-19 -48q0 -25 19 -40.5t48 -15.5q33 0 57.5 15zM616 708l-100 -148h-118l70 148h148z" />
    <glyph glyph-name="uni0218" unicode="&#x218;" horiz-adv-x="583" 
d="M156 22.5q-60 30.5 -94.5 86t-37.5 129.5h144q5 -54 38.5 -85t88.5 -31q51 0 81.5 21t30.5 60q0 27 -17.5 43.5t-43.5 25.5t-74 21q-71 17 -116.5 36.5t-78.5 62.5t-33 118q0 57 31 102t86 70.5t125 25.5q75 0 132.5 -27t90 -77t34.5 -116h-143q-4 42 -34 66.5t-80 24.5
q-44 0 -70 -19t-26 -50q0 -29 18 -46t46 -26.5t77 -20.5q72 -17 117 -35t77.5 -60.5t32.5 -116.5q0 -65 -33 -113t-92.5 -74t-137.5 -26q-79 0 -139 30.5zM362 -68l-85 -167h-122l49 167h158z" />
    <glyph glyph-name="uni0219" unicode="&#x219;" horiz-adv-x="458" 
d="M127 14q-47 22 -74.5 62t-29.5 94h120q4 -34 28.5 -53.5t63.5 -19.5q32 0 52.5 14t20.5 35q0 20 -13 31t-32.5 16.5t-54.5 11.5q-54 10 -88 22t-58.5 43.5t-24.5 89.5q0 44 23.5 78.5t64.5 54t92 19.5q60 0 106 -20.5t73 -57.5t29 -86h-121q-4 31 -28.5 48.5t-54.5 17.5
t-48 -13t-18 -36q0 -19 12.5 -29.5t32 -15t53.5 -9.5q55 -8 90.5 -19.5t61.5 -44.5t26 -96q0 -48 -24.5 -84t-69 -55.5t-102.5 -19.5q-61 0 -108 22zM308 -68l-85 -167h-122l49 167h158z" />
    <glyph glyph-name="uni021A" unicode="&#x21a;" horiz-adv-x="580" 
d="M8 571v129h564v-129h-207v-571h-150v571h-207zM374 -68l-85 -167h-122l49 167h158z" />
    <glyph glyph-name="uni021B" unicode="&#x21b;" horiz-adv-x="414" 
d="M255 504h135v-116h-135v-199q0 -36 18.5 -54t52.5 -18h64v-117h-83q-58 0 -101 21.5t-66.5 62.5t-23.5 99v205h-97v116h97v149h139v-149zM316 -68l-85 -167h-122l49 167h158z" />
    <glyph glyph-name="uni0237" unicode="&#x237;" horiz-adv-x="241" 
d="M190 504v-539q0 -79 -46 -124t-131 -45h-56v109h33q61 0 61 75v524h139z" />
    <glyph glyph-name="uni0259" unicode="&#x259;" horiz-adv-x="549" 
d="M405.5 474.5q58.5 -37.5 88.5 -97.5t30 -126q0 -67 -27.5 -126t-84 -96t-137.5 -37q-84 0 -140 36t-82 92.5t-26 117.5q0 23 2 45h362q-8 54 -41 84.5t-85 30.5q-42 0 -69 -16.5t-35 -48.5h-136q10 54 43 94.5t84 62.5t113 22q82 0 140.5 -37.5zM351 118.5
q28 24.5 37 76.5h-223q2 -28 15.5 -51t38 -36.5t56.5 -13.5q48 0 76 24.5z" />
    <glyph glyph-name="circumflex" unicode="&#x2c6;" horiz-adv-x="438" 
d="M387 560h-117l-52 60l-53 -60h-115l107 140h123z" />
    <glyph glyph-name="caron" unicode="&#x2c7;" horiz-adv-x="438" 
d="M166 700l52 -60l52 60h118l-107 -140h-124l-107 140h116z" />
    <glyph glyph-name="breve" unicode="&#x2d8;" horiz-adv-x="408" 
d="M124 575q-35 20 -54 53.5t-19 71.5h108q0 -26 12 -39.5t33 -13.5q22 0 34.5 13.5t12.5 39.5h108q0 -38 -19 -71.5t-54.5 -53.5t-81.5 -20q-45 0 -80 20z" />
    <glyph glyph-name="dotaccent" unicode="&#x2d9;" horiz-adv-x="248" 
d="M197 576h-148v147h148v-147z" />
    <glyph glyph-name="ring" unicode="&#x2da;" horiz-adv-x="375" 
d="M115.5 562q-31.5 16 -49 44.5t-17.5 64.5t18 64.5t49 45t70 16.5q40 0 71.5 -16.5t49.5 -45t18 -64.5t-18 -64.5t-49.5 -44.5t-71.5 -16q-39 0 -70.5 16zM228 633q16 15 16 38t-16 38t-42 15q-25 0 -40.5 -15t-15.5 -38t15.5 -38t40.5 -15q26 0 42 15z" />
    <glyph glyph-name="ogonek" unicode="&#x2db;" horiz-adv-x="321" 
d="M156 -201q-31 0 -55 11.5t-37 32t-13 46.5q0 33 21 64t54 47h83q-32 -22 -44.5 -40t-12.5 -35q0 -13 7.5 -20t19.5 -7q20 0 41 27l52 -62q-45 -64 -116 -64z" />
    <glyph glyph-name="tilde" unicode="&#x2dc;" horiz-adv-x="451" 
d="M247 572q-15 6 -32 17q-10 6 -20.5 10.5t-19.5 4.5q-15 0 -25 -9.5t-12 -25.5h-88q0 38 15.5 69t42.5 49t59 18q20 0 34 -5.5t33 -16.5q13 -8 22 -12t19 -4q16 0 26.5 10t13.5 26h86q0 -41 -16 -72t-43 -48t-59 -17q-21 0 -36 6z" />
    <glyph glyph-name="hungarumlaut" unicode="&#x2dd;" horiz-adv-x="498" 
d="M268 708l-100 -148h-118l70 148h148zM449 708l-100 -148h-118l70 148h148z" />
    <glyph glyph-name="gravecomb" unicode="&#x300;" 
d="M-215 708h149l69 -148h-117z" />
    <glyph glyph-name="acutecomb" unicode="&#x301;" 
d="M-14 708l-100 -148h-118l70 148h148z" />
    <glyph glyph-name="uni0302" unicode="&#x302;" 
d="M-62 560h-117l-52 60l-53 -60h-115l107 140h123z" />
    <glyph glyph-name="tildecomb" unicode="&#x303;" 
d="M-188 572q-15 6 -32 17q-10 6 -20.5 10.5t-19.5 4.5q-15 0 -25 -9.5t-12 -25.5h-88q0 38 15.5 69t42.5 49t59 18q20 0 34 -5.5t33 -16.5q13 -8 22 -12t19 -4q16 0 26.5 10t13.5 26h86q0 -41 -16 -72t-43 -48t-59 -17q-21 0 -36 6z" />
    <glyph glyph-name="uni0304" unicode="&#x304;" 
d="M-50 688v-106h-281v106h281z" />
    <glyph glyph-name="uni0306" unicode="&#x306;" 
d="M-299 575q-35 20 -54 53.5t-19 71.5h108q0 -26 12 -39.5t33 -13.5q22 0 34.5 13.5t12.5 39.5h108q0 -38 -19 -71.5t-54.5 -53.5t-81.5 -20q-45 0 -80 20z" />
    <glyph glyph-name="uni0307" unicode="&#x307;" 
d="M-59 576h-148v147h148v-147z" />
    <glyph glyph-name="uni0308" unicode="&#x308;" 
d="M-284 579h-122v122h122v-122zM-85 580h-122v121h122v-121z" />
    <glyph glyph-name="uni030A" unicode="&#x30a;" 
d="M-243.5 562q-31.5 16 -49 44.5t-17.5 64.5t18 64.5t49 45t70 16.5q40 0 71.5 -16.5t49.5 -45t18 -64.5t-18 -64.5t-49.5 -44.5t-71.5 -16q-39 0 -70.5 16zM-131 633q16 15 16 38t-16 38t-42 15q-25 0 -40.5 -15t-15.5 -38t15.5 -38t40.5 -15q26 0 42 15z" />
    <glyph glyph-name="uni030B" unicode="&#x30b;" 
d="M-150 708l-100 -148h-118l70 148h148zM31 708l-100 -148h-118l70 148h148z" />
    <glyph glyph-name="uni030C" unicode="&#x30c;" 
d="M-268 700l52 -60l52 60h118l-107 -140h-124l-107 140h116z" />
    <glyph glyph-name="uni0312" unicode="&#x312;" 
d="M-238 570l64 157h126l-29 -157h-161z" />
    <glyph glyph-name="uni0326" unicode="&#x326;" 
d="M-50 -68l-85 -167h-122l49 167h158z" />
    <glyph glyph-name="uni0327" unicode="&#x327;" 
d="M-136 17l-36 -79q7 1 20 1q31 0 54.5 -12.5t35.5 -33t12 -43.5q0 -29 -18.5 -52t-51.5 -36t-73 -13q-38 0 -83 14v70q44 -15 82 -15q23 0 38 8.5t15 22.5t-15 23.5t-39 9.5q-15 0 -30 -4l-31 29l46 110h74z" />
    <glyph glyph-name="uni0328" unicode="&#x328;" 
d="M-138 -201q-31 0 -55 11.5t-37 32t-13 46.5q0 33 21 64t54 47h83q-32 -22 -44.5 -40t-12.5 -35q0 -13 7.5 -20t19.5 -7q20 0 41 27l52 -62q-45 -64 -116 -64z" />
    <glyph glyph-name="uni0335" unicode="&#x335;" 
d="M-64 455v-111h-399v111h399z" />
    <glyph glyph-name="uni0336" unicode="&#x336;" 
d="M-50 630v-111h-711v111h711z" />
    <glyph glyph-name="uni0337" unicode="&#x337;" 
d="M-64 300l-294 -75v112l294 75v-112z" />
    <glyph glyph-name="uni0338" unicode="&#x338;" 
d="M-614 -37l-89 75l564 700l89 -75z" />
    <glyph glyph-name="uni0394" unicode="&#x394;" horiz-adv-x="687" 
d="M6 0l267 700h142l266 -700h-675zM344 503l-137 -376h274z" />
    <glyph glyph-name="uni03A9" unicode="&#x3a9;" horiz-adv-x="735" 
d="M666.5 237.5q-35.5 -64.5 -98.5 -107.5h128v-130h-258v172q50 34 81 89.5t31 113.5q0 61 -22.5 107.5t-64 72t-95.5 25.5t-95.5 -25.5t-64.5 -72t-23 -107.5q0 -58 31 -113.5t82 -89.5v-172h-258v130h129q-64 43 -100 107.5t-36 144.5q0 93 43.5 167.5t120.5 116.5
t172 42q94 0 170 -42t119.5 -116.5t43.5 -167.5q0 -80 -35.5 -144.5z" />
    <glyph glyph-name="uni03BC" unicode="&#x3bc;" horiz-adv-x="591" 
d="M532 504v-504h-140v70q-16 -36 -49.5 -57t-73.5 -21q-38 0 -78 24v-220h-140v708h140v-283q0 -30 12 -54t34 -37.5t51 -13.5q30 0 53.5 14.5t37 40t13.5 57.5v276h140z" />
    <glyph glyph-name="pi" unicode="&#x3c0;" horiz-adv-x="642" 
d="M36 385v119h569v-119h-92v-385h-135v385h-116v-385h-135v385h-91z" />
    <glyph glyph-name="uni0E3F" unicode="&#xe3f;" horiz-adv-x="633" 
d="M570.5 98q-30.5 -47 -86 -72t-128.5 -26v-105h-144v105h-147v700h147v96h144v-96q61 -2 108 -23.5t74 -61.5t27 -95q0 -46 -24 -83t-58 -55q52 -20 85 -64t33 -109q0 -64 -30.5 -111zM329 581h-116v-148h119q47 0 70.5 19t23.5 55q0 74 -97 74zM428.5 152
q29.5 22 29.5 65q0 89 -120 89h-125v-176h125q61 0 90.5 22z" />
    <glyph glyph-name="Wgrave" unicode="&#x1e80;" horiz-adv-x="1018" 
d="M168 700l134 -479l143 479h127l144 -479l135 479h152l-207 -700h-148l-139 466l-139 -466h-146l-208 700h152zM349 904h149l69 -148h-117z" />
    <glyph glyph-name="wgrave" unicode="&#x1e81;" horiz-adv-x="777" 
d="M151 504l85 -311l89 311h127l90 -311l85 311h139l-163 -504h-122l-92 314l-93 -314h-121l-164 504h140zM229 708h149l69 -148h-117z" />
    <glyph glyph-name="Wacute" unicode="&#x1e82;" horiz-adv-x="1018" 
d="M168 700l134 -479l143 479h127l144 -479l135 479h152l-207 -700h-148l-139 466l-139 -466h-146l-208 700h152zM670 904l-100 -148h-118l70 148h148z" />
    <glyph glyph-name="wacute" unicode="&#x1e83;" horiz-adv-x="777" 
d="M151 504l85 -311l89 311h127l90 -311l85 311h139l-163 -504h-122l-92 314l-93 -314h-121l-164 504h140zM550 708l-100 -148h-118l70 148h148z" />
    <glyph glyph-name="Wdieresis" unicode="&#x1e84;" horiz-adv-x="1018" 
d="M168 700l134 -479l143 479h127l144 -479l135 479h152l-207 -700h-148l-139 466l-139 -466h-146l-208 700h152zM469 775h-122v122h122v-122zM668 776h-122v121h122v-121z" />
    <glyph glyph-name="wdieresis" unicode="&#x1e85;" horiz-adv-x="777" 
d="M151 504l85 -311l89 311h127l90 -311l85 311h139l-163 -504h-122l-92 314l-93 -314h-121l-164 504h140zM349 579h-122v122h122v-122zM548 580h-122v121h122v-121z" />
    <glyph glyph-name="uni1E9E" unicode="&#x1e9e;" horiz-adv-x="636" 
d="M98 593q33 55 92.5 85t136.5 30q70 0 127 -27.5t91 -78t35 -116.5l-122 -87q79 -20 112 -68t33 -122q0 -65 -31.5 -112.5t-87.5 -72t-130 -24.5h-81v130h67q62 0 91.5 22t29.5 65t-31 66t-92 23h-44v93l138 110q-4 36 -32.5 58t-72.5 22q-34 0 -60 -16t-40 -45.5
t-14 -68.5v-459h-148v465q0 73 33 128z" />
    <glyph glyph-name="Ygrave" unicode="&#x1ef2;" horiz-adv-x="630" 
d="M1 700h161l153 -270l153 270h161l-239 -410v-290h-151v290zM154 904h149l69 -148h-117z" />
    <glyph glyph-name="ygrave" unicode="&#x1ef3;" horiz-adv-x="508" 
d="M319 2l-71 -206h-133l74 208l-183 500h142l106 -325l105 325h143zM99 708h149l69 -148h-117z" />
    <glyph glyph-name="uni2011" unicode="&#x2011;" horiz-adv-x="487" 
d="M441 377v-119h-394v119h394z" />
    <glyph glyph-name="endash" unicode="&#x2013;" horiz-adv-x="575" 
d="M527 377v-119h-480v119h480z" />
    <glyph glyph-name="emdash" unicode="&#x2014;" horiz-adv-x="813" 
d="M748 377v-119h-683v119h683z" />
    <glyph glyph-name="quoteleft" unicode="&#x2018;" horiz-adv-x="281" 
d="M176 601.5q-13 -15.5 -13 -40.5v-125h-132v137q0 45 18 79t51 53t76 19h54v-107h-20q-21 0 -34 -15.5z" />
    <glyph glyph-name="quoteright" unicode="&#x2019;" horiz-adv-x="281" 
d="M85.5 557.5q12.5 15.5 12.5 41.5v124h132v-137q0 -44 -18 -78t-51 -53t-75 -19h-55v106h20q22 0 34.5 15.5z" />
    <glyph glyph-name="quotesinglbase" unicode="&#x201a;" horiz-adv-x="281" 
d="M85.5 -45q12.5 15 12.5 41v125h132v-138q0 -44 -18 -78t-51 -53t-75 -19h-55v107h20q22 0 34.5 15z" />
    <glyph glyph-name="quotedblleft" unicode="&#x201c;" horiz-adv-x="517" 
d="M176 601.5q-13 -15.5 -13 -40.5v-125h-132v137q0 45 18 79t51 53t76 19h54v-107h-20q-21 0 -34 -15.5zM411.5 602q-12.5 -15 -12.5 -41v-125h-132v137q0 45 18 79t50.5 53t75.5 19h55v-107h-20q-22 0 -34.5 -15z" />
    <glyph glyph-name="quotedblright" unicode="&#x201d;" horiz-adv-x="517" 
d="M85.5 557.5q12.5 15.5 12.5 41.5v124h132v-137q0 -44 -18 -78t-51 -53t-75 -19h-55v106h20q22 0 34.5 15.5zM321 558q13 16 13 41v124h132v-137q0 -44 -18 -78t-51 -53t-76 -19h-54v106h20q21 0 34 16z" />
    <glyph glyph-name="quotedblbase" unicode="&#x201e;" horiz-adv-x="516" 
d="M85.5 -45q12.5 15 12.5 41v125h132v-138q0 -44 -18 -78t-51 -53t-75 -19h-55v107h20q22 0 34.5 15zM320.5 -45q12.5 15 12.5 41v125h132v-138q0 -44 -18 -78t-51 -53t-75 -19h-55v107h20q22 0 34.5 15z" />
    <glyph glyph-name="dagger" unicode="&#x2020;" horiz-adv-x="514" 
d="M39 388v116h150v246h137v-246h150v-116h-150v-438h-137v438h-150z" />
    <glyph glyph-name="daggerdbl" unicode="&#x2021;" horiz-adv-x="514" 
d="M326 388v-272h150v-116h-150v-246h-137v246h-150v116h150v272h-150v116h150v246h137v-246h150v-116h-150z" />
    <glyph glyph-name="bullet" unicode="&#x2022;" horiz-adv-x="307" 
d="M102.5 180q-23.5 14 -37.5 37.5t-14 52.5q0 27 14 50.5t38 37t52 13.5q27 0 50.5 -13.5t37 -37t13.5 -50.5q0 -28 -13.5 -52t-37 -38t-50.5 -14q-29 0 -52.5 14z" />
    <glyph glyph-name="ellipsis" unicode="&#x2026;" horiz-adv-x="705" 
d="M202 0h-151v144h151v-144zM654 0h-151v144h151v-144zM428 0h-151v144h151v-144z" />
    <glyph glyph-name="perthousand" unicode="&#x2030;" horiz-adv-x="1100" 
d="M693 700l-508 -700h-124l509 700h123zM124 409q-35 21 -54.5 57.5t-19.5 81.5t19.5 81.5t54.5 57.5t79 21q45 0 79.5 -21t54 -57.5t19.5 -81.5t-19.5 -81.5t-54 -57.5t-79.5 -21q-44 0 -79 21zM245.5 496q16.5 20 16.5 52t-16.5 52t-42.5 20q-25 0 -41 -20t-16 -52
t16 -52t41 -20q26 0 42.5 20zM474 13q-35 21 -54.5 57.5t-19.5 81.5t19.5 81.5t54.5 57.5t79 21q45 0 79.5 -21t54 -57.5t19.5 -81.5t-19.5 -81.5t-54 -57.5t-79.5 -21q-44 0 -79 21zM595.5 100q16.5 20 16.5 52t-16.5 52t-42.5 20q-25 0 -41 -20t-16 -52t16 -52t41 -20
q26 0 42.5 20zM818 13q-35 21 -54.5 57.5t-19.5 81.5t19.5 81.5t54.5 57.5t79 21q45 0 79.5 -21t54 -57.5t19.5 -81.5t-19.5 -81.5t-54 -57.5t-79.5 -21q-44 0 -79 21zM939.5 100q16.5 20 16.5 52t-16.5 52t-42.5 20q-25 0 -41 -20t-16 -52t16 -52t41 -20q26 0 42.5 20z" />
    <glyph glyph-name="guilsinglleft" unicode="&#x2039;" horiz-adv-x="390" 
d="M32 351l322 220v-140l-182 -121l182 -121v-140l-322 221v81z" />
    <glyph glyph-name="guilsinglright" unicode="&#x203a;" horiz-adv-x="381" 
d="M47 189l181 121l-181 121v140l322 -220v-81l-322 -221v140z" />
    <glyph glyph-name="fraction" unicode="&#x2044;" horiz-adv-x="256" 
d="M444 700l-508 -700h-124l509 700h123z" />
    <glyph glyph-name="uni2070" unicode="&#x2070;" horiz-adv-x="396" 
d="M64.5 367.5q-40.5 52.5 -40.5 150.5v25q0 97 40.5 149.5t120.5 52.5h26q80 0 121 -52.5t41 -149.5v-25q0 -98 -41 -150.5t-121 -52.5h-26q-80 0 -120.5 52.5zM254 423q19 22 19 63v89q0 40 -19 62.5t-48 22.5h-15q-29 0 -48 -22.5t-19 -62.5v-89q0 -41 19 -63t48 -22h15
q29 0 48 22z" />
    <glyph glyph-name="uni2074" unicode="&#x2074;" horiz-adv-x="397" 
d="M19 398v84l202 258h105v-258h44v-84h-44v-78h-100v78h-207zM226 617l-110 -135h110v135z" />
    <glyph glyph-name="uni2075" unicode="&#x2075;" horiz-adv-x="363" 
d="M107 334q-34 19 -54.5 49.5t-22.5 63.5h86q3 -22 21 -36t44 -14q30 0 47.5 17.5t17.5 44.5q0 29 -18.5 46.5t-48.5 17.5q-20 0 -34 -7t-24 -22h-83l35 246h238v-85h-164l-12 -71q26 15 59 15q41 0 74 -18t51.5 -50t18.5 -72q0 -42 -20 -74.5t-56 -51t-81 -18.5
q-40 0 -74 19z" />
    <glyph glyph-name="uni2076" unicode="&#x2076;" horiz-adv-x="391" 
d="M286 582q33 -19 51 -51t18 -72t-21 -73t-57.5 -52t-80.5 -19q-53 0 -90.5 27t-56.5 73t-19 104q0 70 21.5 121t60.5 78t91 27q44 0 78.5 -16.5t55 -45t24.5 -63.5h-87q-4 20 -23 33t-45 13q-38 0 -61.5 -30.5t-25.5 -76.5q13 18 39.5 30t51.5 12q43 0 76 -19z
M248.5 411.5q19.5 17.5 19.5 47.5q0 28 -19.5 45.5t-51.5 17.5t-51.5 -17.5t-19.5 -45.5q0 -30 19.5 -47.5t51.5 -17.5t51.5 17.5z" />
    <glyph glyph-name="uni2077" unicode="&#x2077;" horiz-adv-x="318" 
d="M97.5 430q12.5 47 43.5 95l84 130h-204v85h314v-78l-106 -161q-24 -38 -34 -79t-10 -102h-100q0 63 12.5 110z" />
    <glyph glyph-name="uni2078" unicode="&#x2078;" horiz-adv-x="382" 
d="M109 331.5q-37 16.5 -58 46.5t-21 67q0 34 18 60t48 41q-21 14 -34 36.5t-13 47.5q0 33 18 59.5t50.5 41t74.5 14.5q41 0 73.5 -14.5t50.5 -41t18 -59.5q0 -25 -12.5 -47t-35.5 -37q32 -15 49.5 -40.5t17.5 -60.5q0 -37 -21 -67t-57.5 -46.5t-82.5 -16.5t-83 16.5z
M232 595q15 12 15 31t-15 30.5t-40 11.5t-40 -11.5t-15 -30.5t15 -31t40 -12t40 12zM241 411.5q18 13.5 18 36.5t-18 37t-49 14t-50 -14t-19 -37t19 -36.5t50 -13.5t49 13.5z" />
    <glyph glyph-name="uni2079" unicode="&#x2079;" horiz-adv-x="391" 
d="M105 478q-33 19 -51 51t-18 72t21 73t57.5 52t80.5 19q53 0 90.5 -27t56.5 -73t19 -104q0 -70 -21.5 -121t-60.5 -78t-91 -27q-44 0 -78.5 16.5t-55 45t-24.5 63.5h87q4 -20 23 -33t45 -13q38 0 61.5 30.5t25.5 77.5q-13 -19 -39.5 -31t-51.5 -12q-43 0 -76 19z
M142.5 648.5q-19.5 -17.5 -19.5 -47.5q0 -28 19.5 -45.5t51.5 -17.5t51.5 17.5t19.5 45.5q0 30 -19.5 47.5t-51.5 17.5t-51.5 -17.5z" />
    <glyph glyph-name="Euro" unicode="&#x20ac;" horiz-adv-x="733" 
d="M687 208q-6 -65 -38.5 -113.5t-87 -75.5t-124.5 -27h-50q-113 0 -181 58t-89 170h-93v94h84v14v45v15h-84v94h93q21 111 89 168.5t181 57.5h50q69 0 122.5 -26t86 -73t39.5 -109h-152q-7 35 -34.5 57t-67.5 22h-37q-51 0 -83.5 -25t-44.5 -72h190v-94h-198v-74h198v-94
h-191q12 -48 45 -73t84 -25h37q42 0 70.5 23.5t35.5 62.5h150z" />
    <glyph glyph-name="uni20BF" unicode="&#x20bf;" horiz-adv-x="633" 
d="M562 85q-39 -50 -109 -71v-119h-113v105h-84v-105h-112v105h-79v700h79v96h112v-96h84v96h112v-115q53 -20 83 -61t30 -100q0 -46 -24 -83t-58 -55q52 -20 85 -64t33 -109q0 -74 -39 -124zM329 581h-116v-148h119q47 0 70.5 19t23.5 55q0 74 -97 74zM428.5 152
q29.5 22 29.5 65q0 89 -120 89h-125v-176h125q61 0 90.5 22z" />
    <glyph glyph-name="uni2113" unicode="&#x2113;" horiz-adv-x="539" 
d="M474 79.5q-28 -42.5 -72.5 -64.5t-99.5 -22q-62 0 -108.5 22.5t-72 65.5t-25.5 103v51l-77 -20v124l77 20v139q0 63 28 110.5t78.5 73.5t116.5 26q56 0 100 -25.5t68.5 -71.5t24.5 -107q0 -82 -48.5 -135.5t-142.5 -78.5l-78 -21v-71q0 -33 17 -52t52 -19q26 0 43 15
t20 40h133q-6 -60 -34 -102.5zM355 443q19 23 19 58t-15 55.5t-42 20.5q-34 0 -54 -26t-20 -76v-83l54 17q39 11 58 34z" />
    <glyph glyph-name="trademark" unicode="&#x2122;" horiz-adv-x="933" 
d="M8 615v85h343v-85h-122v-335h-99v335h-122zM521 700l119 -279l120 279h108v-420h-92v236l-100 -236h-71l-102 236v-236h-91v420h109z" />
    <glyph glyph-name="uni2126" unicode="&#x2126;" horiz-adv-x="735" 
d="M666.5 237.5q-35.5 -64.5 -98.5 -107.5h128v-130h-258v172q50 34 81 89.5t31 113.5q0 61 -22.5 107.5t-64 72t-95.5 25.5t-95.5 -25.5t-64.5 -72t-23 -107.5q0 -58 31 -113.5t82 -89.5v-172h-258v130h129q-64 43 -100 107.5t-36 144.5q0 93 43.5 167.5t120.5 116.5
t172 42q94 0 170 -42t119.5 -116.5t43.5 -167.5q0 -80 -35.5 -144.5z" />
    <glyph glyph-name="uni2153" unicode="&#x2153;" horiz-adv-x="886" 
d="M107 280v292q-6 -8 -24.5 -13.5t-34.5 -5.5h-28v86h28q28 0 43.5 13t21.5 48h93v-420h-99zM723 700l-508 -700h-124l509 700h123zM618 11.5q-36 16.5 -57.5 48t-21.5 74.5h95q0 -26 18.5 -39.5t46.5 -13.5t44.5 13t16.5 35t-16.5 34.5t-44.5 12.5h-41v80h38q22 0 35.5 13
t13.5 34q0 19 -14.5 30.5t-38.5 11.5q-22 0 -38 -13t-16 -37h-89q0 38 19.5 67.5t53 46t72.5 16.5q41 0 74.5 -15.5t53 -42t19.5 -57.5q0 -25 -13 -49t-34 -38q31 -16 48 -39.5t17 -57.5q0 -39 -21.5 -69t-58.5 -46t-80 -16q-45 0 -81 16.5z" />
    <glyph glyph-name="uni2154" unicode="&#x2154;" horiz-adv-x="981" 
d="M42.5 631.5q18.5 35.5 54 54.5t83.5 19q45 0 80 -16.5t54.5 -47t19.5 -70.5q0 -42 -24 -74t-77 -60l-44 -23q-21 -12 -35.5 -23.5t-16.5 -24.5h195v-86h-304l-1 69q-1 44 28 77t67 52l69 34q20 10 31.5 26t11.5 35q0 24 -15 38t-39 14q-28 0 -43 -21t-13 -57h-100
q0 49 18.5 84.5zM818 700l-508 -700h-124l509 700h123zM713 11.5q-36 16.5 -57.5 48t-21.5 74.5h95q0 -26 18.5 -39.5t46.5 -13.5t44.5 13t16.5 35t-16.5 34.5t-44.5 12.5h-41v80h38q22 0 35.5 13t13.5 34q0 19 -14.5 30.5t-38.5 11.5q-22 0 -38 -13t-16 -37h-89
q0 38 19.5 67.5t53 46t72.5 16.5q41 0 74.5 -15.5t53 -42t19.5 -57.5q0 -25 -13 -49t-34 -38q31 -16 48 -39.5t17 -57.5q0 -39 -21.5 -69t-58.5 -46t-80 -16q-45 0 -81 16.5z" />
    <glyph glyph-name="oneeighth" unicode="&#x215b;" horiz-adv-x="892" 
d="M107 280v292q-6 -8 -24.5 -13.5t-34.5 -5.5h-28v86h28q28 0 43.5 13t21.5 48h93v-420h-99zM723 700l-508 -700h-124l509 700h123zM619 11.5q-37 16.5 -58 46.5t-21 67q0 34 18 60t48 41q-21 14 -34 36.5t-13 47.5q0 33 18 59.5t50.5 41t74.5 14.5q41 0 73.5 -14.5
t50.5 -41t18 -59.5q0 -25 -12.5 -47t-35.5 -37q32 -15 49.5 -40.5t17.5 -60.5q0 -37 -21 -67t-57.5 -46.5t-82.5 -16.5t-83 16.5zM742 275q15 12 15 31t-15 30.5t-40 11.5t-40 -11.5t-15 -30.5t15 -31t40 -12t40 12zM751 91.5q18 13.5 18 36.5t-18 37t-49 14t-50 -14
t-19 -37t19 -36.5t50 -13.5t49 13.5z" />
    <glyph glyph-name="threeeighths" unicode="&#x215c;" horiz-adv-x="989" 
d="M108 291.5q-36 16.5 -57.5 48t-21.5 74.5h95q0 -26 18.5 -39.5t46.5 -13.5t44.5 13t16.5 35t-16.5 34.5t-44.5 12.5h-41v80h38q22 0 35.5 13t13.5 34q0 19 -14.5 30.5t-38.5 11.5q-22 0 -38 -13t-16 -37h-89q0 38 19.5 67.5t53 46t72.5 16.5q41 0 74.5 -15.5t53 -42
t19.5 -57.5q0 -25 -13 -49t-34 -38q31 -16 48 -39.5t17 -57.5q0 -39 -21.5 -69t-58.5 -46t-80 -16q-45 0 -81 16.5zM820 700l-508 -700h-124l509 700h123zM716 11.5q-37 16.5 -58 46.5t-21 67q0 34 18 60t48 41q-21 14 -34 36.5t-13 47.5q0 33 18 59.5t50.5 41t74.5 14.5
q41 0 73.5 -14.5t50.5 -41t18 -59.5q0 -25 -12.5 -47t-35.5 -37q32 -15 49.5 -40.5t17.5 -60.5q0 -37 -21 -67t-57.5 -46.5t-82.5 -16.5t-83 16.5zM839 275q15 12 15 31t-15 30.5t-40 11.5t-40 -11.5t-15 -30.5t15 -31t40 -12t40 12zM848 91.5q18 13.5 18 36.5t-18 37
t-49 14t-50 -14t-19 -37t19 -36.5t50 -13.5t49 13.5z" />
    <glyph glyph-name="fiveeighths" unicode="&#x215d;" horiz-adv-x="976" 
d="M107 294q-34 19 -54.5 49.5t-22.5 63.5h86q3 -22 21 -36t44 -14q30 0 47.5 17.5t17.5 44.5q0 29 -18.5 46.5t-48.5 17.5q-20 0 -34 -7t-24 -22h-83l35 246h238v-85h-164l-12 -71q26 15 59 15q41 0 74 -18t51.5 -50t18.5 -72q0 -42 -20 -74.5t-56 -51t-81 -18.5
q-40 0 -74 19zM807 700l-508 -700h-124l509 700h123zM703 11.5q-37 16.5 -58 46.5t-21 67q0 34 18 60t48 41q-21 14 -34 36.5t-13 47.5q0 33 18 59.5t50.5 41t74.5 14.5q41 0 73.5 -14.5t50.5 -41t18 -59.5q0 -25 -12.5 -47t-35.5 -37q32 -15 49.5 -40.5t17.5 -60.5
q0 -37 -21 -67t-57.5 -46.5t-82.5 -16.5t-83 16.5zM826 275q15 12 15 31t-15 30.5t-40 11.5t-40 -11.5t-15 -30.5t15 -31t40 -12t40 12zM835 91.5q18 13.5 18 36.5t-18 37t-49 14t-50 -14t-19 -37t19 -36.5t50 -13.5t49 13.5z" />
    <glyph glyph-name="seveneighths" unicode="&#x215e;" horiz-adv-x="861" 
d="M97.5 390q12.5 47 43.5 95l84 130h-204v85h314v-78l-106 -161q-24 -38 -34 -79t-10 -102h-100q0 63 12.5 110zM692 700l-508 -700h-124l509 700h123zM588 11.5q-37 16.5 -58 46.5t-21 67q0 34 18 60t48 41q-21 14 -34 36.5t-13 47.5q0 33 18 59.5t50.5 41t74.5 14.5
q41 0 73.5 -14.5t50.5 -41t18 -59.5q0 -25 -12.5 -47t-35.5 -37q32 -15 49.5 -40.5t17.5 -60.5q0 -37 -21 -67t-57.5 -46.5t-82.5 -16.5t-83 16.5zM711 275q15 12 15 31t-15 30.5t-40 11.5t-40 -11.5t-15 -30.5t15 -31t40 -12t40 12zM720 91.5q18 13.5 18 36.5t-18 37
t-49 14t-50 -14t-19 -37t19 -36.5t50 -13.5t49 13.5z" />
    <glyph glyph-name="arrowleft" unicode="&#x2190;" horiz-adv-x="724" 
d="M692 207h-453l161 -162l-73 -73l-294 295l295 295l73 -73l-163 -163h454v-119z" />
    <glyph glyph-name="arrowup" unicode="&#x2191;" horiz-adv-x="655" 
d="M550 280l-163 162v-453h-119v452l-162 -162l-73 74l295 295l295 -294z" />
    <glyph glyph-name="arrowright" unicode="&#x2192;" horiz-adv-x="724" 
d="M692 267l-295 -295l-73 73l161 162h-452v119h453l-163 163l73 73z" />
    <glyph glyph-name="arrowdown" unicode="&#x2193;" horiz-adv-x="655" 
d="M623 290l-295 -296l-295 295l73 73l162 -161v452h119v-453l162 163z" />
    <glyph glyph-name="arrowboth" unicode="&#x2194;" horiz-adv-x="1062" 
d="M1030 267l-295 -295l-73 73l161 162h-452v119h453l-163 163l73 73zM692 207h-453l161 -162l-73 -73l-294 295l295 295l73 -73l-163 -163h454v-119z" />
    <glyph glyph-name="arrowupdn" unicode="&#x2195;" horiz-adv-x="655" 
d="M549 185l74 -73l-295 -296l-295 295l73 73l162 -161v584l-162 -161l-73 73l295 295l295 -296l-74 -73l-162 163v-586z" />
    <glyph glyph-name="uni2196" unicode="&#x2196;" horiz-adv-x="600" 
d="M483 -14l-320 320l-1 -229h-103v417h418v-104h-230l320 -320z" />
    <glyph glyph-name="uni2197" unicode="&#x2197;" horiz-adv-x="598" 
d="M539 494v-417h-103l-1 229l-320 -320l-84 84l320 320h-230v104h418z" />
    <glyph glyph-name="uni2198" unicode="&#x2198;" horiz-adv-x="599" 
d="M540 413v-417l-416 -1v104h229l-321 321l84 84l321 -321v230h103z" />
    <glyph glyph-name="uni2199" unicode="&#x2199;" horiz-adv-x="599" 
d="M246 98l229 -1v-103h-416v418h103v-230l321 320l84 -84z" />
    <glyph glyph-name="partialdiff" unicode="&#x2202;" horiz-adv-x="614" 
d="M185 24q-59 32 -93.5 87.5t-34.5 121.5t30 121t84.5 86.5t124.5 31.5q29 0 60 -10t56 -28t39 -41q-2 67 -31.5 117t-76 77t-98.5 27q-34 0 -66.5 -12t-60.5 -35l-67 98q38 33 86.5 50t101.5 17q88 0 167 -46t129 -139t50 -226q0 -97 -31 -171t-92.5 -116t-147.5 -42
q-70 0 -129 32zM380.5 129q29.5 15 45.5 42t16 62t-16 61.5t-45.5 41.5t-67.5 15t-66.5 -15t-44 -41.5t-15.5 -61.5t15.5 -62t44 -42t66.5 -15t67.5 15z" />
    <glyph glyph-name="uni2206" unicode="&#x2206;" horiz-adv-x="687" 
d="M6 0l267 700h142l266 -700h-675zM344 503l-137 -376h274z" />
    <glyph glyph-name="product" unicode="&#x220f;" horiz-adv-x="688" 
d="M623 700v-700h-154v571h-249v-571h-155v700h558z" />
    <glyph glyph-name="summation" unicode="&#x2211;" horiz-adv-x="554" 
d="M248 350l-210 228v122h473v-129h-288l160 -164v-113l-161 -164h289v-130h-473v122z" />
    <glyph glyph-name="minus" unicode="&#x2212;" horiz-adv-x="653" 
d="M588 377v-119h-523v119h523z" />
    <glyph glyph-name="radical" unicode="&#x221a;" horiz-adv-x="595" 
d="M23 269v130h202l71 -211l156 512h139l-228 -700h-133l-94 269h-113z" />
    <glyph glyph-name="infinity" unicode="&#x221e;" horiz-adv-x="903" 
d="M133.5 189q-46.5 25 -71 69t-24.5 101t24.5 101.5t71 69.5t109.5 25q58 0 115 -26t94 -77q36 51 92.5 77t115.5 26q63 0 109.5 -25t71.5 -69.5t25 -101.5t-25 -101t-71.5 -69t-109.5 -25q-59 0 -115.5 25.5t-92.5 77.5q-37 -52 -93.5 -77.5t-115.5 -25.5q-63 0 -109.5 25
zM323 298.5q33 21.5 59 60.5q-26 40 -59 61.5t-67 21.5q-42 0 -67.5 -22t-25.5 -61t25 -60.5t68 -21.5q34 0 67 21.5zM714.5 298.5q24.5 21.5 24.5 60.5t-24.5 61t-66.5 22q-35 0 -68.5 -21.5t-58.5 -61.5q26 -39 59 -60.5t68 -21.5q42 0 66.5 21.5z" />
    <glyph glyph-name="integral" unicode="&#x222b;" horiz-adv-x="425" 
d="M399 607h-76q-31 0 -49.5 -18t-18.5 -48v-571q0 -52 -23.5 -91.5t-66 -61t-98.5 -21.5h-95v116h76q31 0 49.5 18t18.5 48v571q0 52 23.5 91.5t66 61t98.5 21.5h95v-116z" />
    <glyph glyph-name="approxequal" unicode="&#x2248;" horiz-adv-x="697" 
d="M387 104q-26 11 -57 31q-24 15 -40 22.5t-33 7.5q-27 0 -42.5 -20t-18.5 -55h-131q2 62 27 110t67 74t93 26q36 0 62.5 -11t58.5 -32q25 -15 39 -22t30 -7q25 0 40.5 18.5t19.5 56.5h130q-3 -64 -28 -111.5t-66 -73t-90 -25.5q-35 0 -61 11zM387 371q-26 11 -57 31
q-24 15 -40 22.5t-33 7.5q-27 0 -42.5 -20t-18.5 -55h-131q2 62 27 110t67 74t93 26q36 0 62.5 -11t58.5 -32q25 -15 39 -22t30 -7q25 0 40.5 18.5t19.5 56.5h130q-3 -64 -28 -111.5t-66 -73t-90 -25.5q-35 0 -61 11z" />
    <glyph glyph-name="notequal" unicode="&#x2260;" horiz-adv-x="647" 
d="M413 350l-47 -105h222v-119h-276l-54 -121h-125l54 121h-122v119h176l47 105h-223v119h277l53 119h125l-53 -119h121v-119h-175z" />
    <glyph glyph-name="lessequal" unicode="&#x2264;" horiz-adv-x="492" 
d="M454 138l-410 206v116l410 205v-141l-257 -122l257 -122v-142zM454 0h-419v119h419v-119z" />
    <glyph glyph-name="greaterequal" unicode="&#x2265;" horiz-adv-x="492" 
d="M38 524v141l410 -205v-116l-410 -206v142l258 122zM457 0h-419v119h419v-119z" />
    <glyph glyph-name="lozenge" unicode="&#x25ca;" horiz-adv-x="596" 
d="M236 700h125l192 -350l-192 -350h-125l-192 350zM298 581l-123 -231l123 -230l123 230z" />
    <glyph glyph-name="uni25CF" unicode="&#x25cf;" horiz-adv-x="783" 
d="M82 529.5q48 82.5 130.5 130.5t179.5 48t179.5 -48t130.5 -130.5t48 -179.5q0 -98 -48 -180t-130.5 -130t-179.5 -48t-179.5 48t-130.5 130t-48 180q0 97 48 179.5z" />
    <glyph glyph-name="uniFEFF" unicode="&#xfeff;" 
d="M0 0z" />
    <glyph glyph-name="NULL" 
d="M0 0z" />
    <glyph glyph-name="i.loclTRK" horiz-adv-x="242" 
d="M191 504v-504h-140v504h140zM195 576h-148v147h148v-147z" />
    <glyph glyph-name="germandbls.calt" horiz-adv-x="636" 
d="M98 593q33 55 92.5 85t136.5 30q70 0 127 -27.5t91 -78t35 -116.5l-122 -87q79 -20 112 -68t33 -122q0 -65 -31.5 -112.5t-87.5 -72t-130 -24.5h-81v130h67q62 0 91.5 22t29.5 65t-31 66t-92 23h-44v93l138 110q-4 36 -32.5 58t-72.5 22q-34 0 -60 -16t-40 -45.5
t-14 -68.5v-459h-148v465q0 73 33 128z" />
    <glyph glyph-name="T_T.dlig" horiz-adv-x="1005" 
d="M8 571v129h564v-129h-207v-571h-150v571h-207zM433 571v129h564v-129h-207v-571h-150v571h-207z" />
    <glyph glyph-name="T_h.dlig" horiz-adv-x="1099" 
d="M958.5 487q42.5 -25 66 -70t23.5 -103v-314h-140v283q0 30 -12 54t-34 37.5t-51 13.5q-30 0 -53.5 -14.5t-37 -40t-13.5 -57.5v-276h-140v571h-202v-571h-150v571h-207v129h699v-266q21 37 61 57.5t92 20.5q56 0 98.5 -25z" />
    <glyph glyph-name="T_i.dlig" horiz-adv-x="730" 
d="M8 571v129h564v-129h-207v-571h-150v571h-207zM679 504v-504h-140v504h140z" />
    <glyph glyph-name="zero.inferior" horiz-adv-x="396" 
d="M64.5 47.5q-40.5 52.5 -40.5 150.5v25q0 97 40.5 149.5t120.5 52.5h26q80 0 121 -52.5t41 -149.5v-25q0 -98 -41 -150.5t-121 -52.5h-26q-80 0 -120.5 52.5zM254 103q19 22 19 63v89q0 40 -19 62.5t-48 22.5h-15q-29 0 -48 -22.5t-19 -62.5v-89q0 -41 19 -63t48 -22h15
q29 0 48 22z" />
    <glyph glyph-name="one.inferior" horiz-adv-x="251" 
d="M107 0v292q-6 -8 -24.5 -13.5t-34.5 -5.5h-28v86h28q28 0 43.5 13t21.5 48h93v-420h-99z" />
    <glyph glyph-name="two.inferior" horiz-adv-x="354" 
d="M42.5 351.5q18.5 35.5 54 54.5t83.5 19q45 0 80 -16.5t54.5 -47t19.5 -70.5q0 -42 -24 -74t-77 -60l-44 -23q-21 -12 -35.5 -23.5t-16.5 -24.5h195v-86h-304l-1 69q-1 44 28 77t67 52l69 34q20 10 31.5 26t11.5 35q0 24 -15 38t-39 14q-28 0 -43 -21t-13 -57h-100
q0 49 18.5 84.5z" />
    <glyph glyph-name="three.inferior" horiz-adv-x="376" 
d="M108 11.5q-36 16.5 -57.5 48t-21.5 74.5h95q0 -26 18.5 -39.5t46.5 -13.5t44.5 13t16.5 35t-16.5 34.5t-44.5 12.5h-41v80h38q22 0 35.5 13t13.5 34q0 19 -14.5 30.5t-38.5 11.5q-22 0 -38 -13t-16 -37h-89q0 38 19.5 67.5t53 46t72.5 16.5q41 0 74.5 -15.5t53 -42
t19.5 -57.5q0 -25 -13 -49t-34 -38q31 -16 48 -39.5t17 -57.5q0 -39 -21.5 -69t-58.5 -46t-80 -16q-45 0 -81 16.5z" />
    <glyph glyph-name="four.inferior" horiz-adv-x="397" 
d="M19 78v84l202 258h105v-258h44v-84h-44v-78h-100v78h-207zM226 297l-110 -135h110v135z" />
    <glyph glyph-name="five.inferior" horiz-adv-x="363" 
d="M107 14q-34 19 -54.5 49.5t-22.5 63.5h86q3 -22 21 -36t44 -14q30 0 47.5 17.5t17.5 44.5q0 29 -18.5 46.5t-48.5 17.5q-20 0 -34 -7t-24 -22h-83l35 246h238v-85h-164l-12 -71q26 15 59 15q41 0 74 -18t51.5 -50t18.5 -72q0 -42 -20 -74.5t-56 -51t-81 -18.5
q-40 0 -74 19z" />
    <glyph glyph-name="six.inferior" horiz-adv-x="391" 
d="M286 262q33 -19 51 -51t18 -72t-21 -73t-57.5 -52t-80.5 -19q-53 0 -90.5 27t-56.5 73t-19 104q0 70 21.5 121t60.5 78t91 27q44 0 78.5 -16.5t55 -45t24.5 -63.5h-87q-4 20 -23 33t-45 13q-38 0 -61.5 -30.5t-25.5 -76.5q13 18 39.5 30t51.5 12q43 0 76 -19zM248.5 91.5
q19.5 17.5 19.5 47.5q0 28 -19.5 45.5t-51.5 17.5t-51.5 -17.5t-19.5 -45.5q0 -30 19.5 -47.5t51.5 -17.5t51.5 17.5z" />
    <glyph glyph-name="seven.inferior" horiz-adv-x="318" 
d="M97.5 110q12.5 47 43.5 95l84 130h-204v85h314v-78l-106 -161q-24 -38 -34 -79t-10 -102h-100q0 63 12.5 110z" />
    <glyph glyph-name="eight.inferior" horiz-adv-x="382" 
d="M109 11.5q-37 16.5 -58 46.5t-21 67q0 34 18 60t48 41q-21 14 -34 36.5t-13 47.5q0 33 18 59.5t50.5 41t74.5 14.5q41 0 73.5 -14.5t50.5 -41t18 -59.5q0 -25 -12.5 -47t-35.5 -37q32 -15 49.5 -40.5t17.5 -60.5q0 -37 -21 -67t-57.5 -46.5t-82.5 -16.5t-83 16.5z
M232 275q15 12 15 31t-15 30.5t-40 11.5t-40 -11.5t-15 -30.5t15 -31t40 -12t40 12zM241 91.5q18 13.5 18 36.5t-18 37t-49 14t-50 -14t-19 -37t19 -36.5t50 -13.5t49 13.5z" />
    <glyph glyph-name="nine.inferior" horiz-adv-x="391" 
d="M105 158q-33 19 -51 51t-18 72t21 73t57.5 52t80.5 19q53 0 90.5 -27t56.5 -73t19 -104q0 -70 -21.5 -121t-60.5 -78t-91 -27q-44 0 -78.5 16.5t-55 45t-24.5 63.5h87q4 -20 23 -33t45 -13q38 0 61.5 30.5t25.5 77.5q-13 -19 -39.5 -31t-51.5 -12q-43 0 -76 19z
M142.5 328.5q-19.5 -17.5 -19.5 -47.5q0 -28 19.5 -45.5t51.5 -17.5t51.5 17.5t19.5 45.5q0 30 -19.5 47.5t-51.5 17.5t-51.5 -17.5z" />
    <glyph glyph-name="zero.tf" horiz-adv-x="668" 
d="M119 78.5q-65 86.5 -65 249.5v45q0 163 65 249t195 86h41q130 0 195 -86.5t65 -248.5v-45q0 -163 -65 -249.5t-195 -86.5h-41q-130 0 -195 86.5zM408.5 140q26.5 18 41.5 54.5t15 88.5v135q0 52 -15 88.5t-41.5 54.5t-60.5 18h-27q-34 0 -60 -18t-41 -54t-15 -89v-135
q0 -53 15 -89t41 -54t60 -18h27q34 0 60.5 18z" />
    <glyph glyph-name="one.tf" horiz-adv-x="668" 
d="M555 130v-130h-443v130h159v369q-9 -13 -37 -20.5t-54 -7.5h-50v129h47q46 0 71 22t32 78h142v-570h133z" />
    <glyph glyph-name="two.tf" horiz-adv-x="668" 
d="M111 588q31 58 88.5 89t135.5 31q74 0 131 -27.5t88.5 -77t31.5 -115.5q0 -71 -41.5 -127t-125.5 -98l-111 -56q-33 -17 -54 -36t-21 -41h351v-130h-500l-1 111q0 51 24.5 93t60 71.5t73.5 48.5l114 57q39 18 59.5 45t20.5 62q0 45 -26.5 71.5t-73.5 26.5q-51 0 -78 -37
t-25 -98h-151q-1 79 30 137z" />
    <glyph glyph-name="three.tf" horiz-adv-x="668" 
d="M202 19.5q-60 27.5 -95 79.5t-35 122h145q0 -32 16 -54.5t43 -33.5t60 -11q52 0 82.5 24t30.5 66q0 40 -30.5 63.5t-82.5 23.5h-67v123h64q41 0 66 22.5t25 57.5t-27 56t-71 21q-45 0 -72 -23t-28 -70h-142q0 68 34.5 118t90 77t120.5 27q67 0 122 -25.5t86.5 -69.5
t31.5 -95q0 -48 -22.5 -88t-60.5 -61q52 -19 82 -62t30 -99q0 -66 -35.5 -115t-95.5 -75t-131 -26q-74 0 -134 27.5z" />
    <glyph glyph-name="four.tf" horiz-adv-x="668" 
d="M39 138v129l341 433h161v-433h82v-129h-82v-138h-151v138h-351zM391 517l-204 -250h204v250z" />
    <glyph glyph-name="five.tf" horiz-adv-x="668" 
d="M207.5 20.5q-56.5 28.5 -90 78t-36.5 110.5h142q6 -41 34 -64t74 -23q35 0 61.5 14t41 39t14.5 59t-14.5 60t-40.5 40.5t-61 14.5q-39 0 -65 -13.5t-42 -40.5h-132l59 405h400v-129h-289l-21 -136q20 17 50.5 27.5t70.5 10.5q66 0 120 -31.5t85 -86t31 -121.5
q0 -69 -35 -124t-96 -86.5t-136 -31.5q-68 0 -124.5 28.5z" />
    <glyph glyph-name="six.tf" horiz-adv-x="668" 
d="M483.5 436q55.5 -31 86 -85t30.5 -120t-35 -121t-95.5 -86.5t-132.5 -31.5q-88 0 -150 44t-94 120.5t-32 173.5q0 117 35.5 202t100.5 130.5t150 45.5q73 0 130 -27t91.5 -73.5t41.5 -103.5h-139q-8 35 -40 57.5t-78 22.5q-43 0 -76.5 -24.5t-53 -68t-22.5 -98.5
q22 32 66 53t89 21q72 0 127.5 -31zM397.5 135.5q24.5 13.5 38 38.5t13.5 57q0 31 -13.5 55.5t-38.5 38.5t-57 14q-33 0 -58 -14t-39 -38.5t-14 -55.5q0 -32 14 -57t39 -38.5t58 -13.5t57.5 13.5z" />
    <glyph glyph-name="seven.tf" horiz-adv-x="668" 
d="M215.5 180q21.5 79 75.5 165l144 226h-353v129h519v-117l-179 -279q-44 -68 -61 -137.5t-17 -166.5h-150q0 101 21.5 180z" />
    <glyph glyph-name="eight.tf" horiz-adv-x="668" 
d="M191.5 19q-60.5 27 -95 76t-34.5 112q0 59 31 102.5t83 67.5q-38 25 -60.5 62t-22.5 80q0 54 30 97.5t83.5 67.5t121.5 24t121.5 -24t83.5 -67.5t30 -97.5q0 -44 -23 -80.5t-63 -61.5q54 -23 85 -67t31 -103q0 -63 -34.5 -112t-95 -76t-135.5 -27q-76 0 -136.5 27z
M398 456.5q26 20.5 26 55.5q0 34 -26 55t-70 21t-70 -20.5t-26 -55.5t26 -55.5t70 -20.5t70 20.5zM413.5 145q31.5 24 31.5 66t-31.5 66.5t-85.5 24.5t-87 -24.5t-33 -66.5t33 -66t87 -24t85.5 24z" />
    <glyph glyph-name="nine.tf" horiz-adv-x="668" 
d="M185.5 266q-55.5 31 -86 85t-30.5 120t35 121t95.5 86.5t132.5 31.5q88 0 150 -44t94 -120.5t32 -173.5q0 -117 -35.5 -202t-100.5 -130.5t-150 -45.5q-73 0 -130 27t-91.5 73.5t-41.5 103.5h139q5 -23 21.5 -41t41.5 -28.5t55 -10.5q43 0 76.5 25t53 68.5t22.5 98.5
q-22 -33 -66 -54t-89 -21q-72 0 -127.5 31zM271.5 567q-24.5 -14 -38 -39t-13.5 -57q0 -31 13.5 -55.5t38 -38t57.5 -13.5t58 13.5t39 38t14 55.5q0 32 -14 57t-39 39t-58 14t-57.5 -14z" />
    <glyph glyph-name="zero.dnom" horiz-adv-x="396" 
d="M64.5 47.5q-40.5 52.5 -40.5 150.5v25q0 97 40.5 149.5t120.5 52.5h26q80 0 121 -52.5t41 -149.5v-25q0 -98 -41 -150.5t-121 -52.5h-26q-80 0 -120.5 52.5zM254 103q19 22 19 63v89q0 40 -19 62.5t-48 22.5h-15q-29 0 -48 -22.5t-19 -62.5v-89q0 -41 19 -63t48 -22h15
q29 0 48 22z" />
    <glyph glyph-name="one.dnom" horiz-adv-x="250" 
d="M107 0v292q-6 -8 -24.5 -13.5t-34.5 -5.5h-28v86h28q28 0 43.5 13t21.5 48h93v-420h-99z" />
    <glyph glyph-name="two.dnom" horiz-adv-x="344" 
d="M42.5 351.5q18.5 35.5 54 54.5t83.5 19q45 0 80 -16.5t54.5 -47t19.5 -70.5q0 -42 -24 -74t-77 -60l-44 -23q-21 -12 -35.5 -23.5t-16.5 -24.5h195v-86h-304l-1 69q-1 44 28 77t67 52l69 34q20 10 31.5 26t11.5 35q0 24 -15 38t-39 14q-28 0 -43 -21t-13 -57h-100
q0 49 18.5 84.5z" />
    <glyph glyph-name="three.dnom" horiz-adv-x="376" 
d="M108 11.5q-36 16.5 -57.5 48t-21.5 74.5h95q0 -26 18.5 -39.5t46.5 -13.5t44.5 13t16.5 35t-16.5 34.5t-44.5 12.5h-41v80h38q22 0 35.5 13t13.5 34q0 19 -14.5 30.5t-38.5 11.5q-22 0 -38 -13t-16 -37h-89q0 38 19.5 67.5t53 46t72.5 16.5q41 0 74.5 -15.5t53 -42
t19.5 -57.5q0 -25 -13 -49t-34 -38q31 -16 48 -39.5t17 -57.5q0 -39 -21.5 -69t-58.5 -46t-80 -16q-45 0 -81 16.5z" />
    <glyph glyph-name="four.dnom" horiz-adv-x="397" 
d="M19 78v84l202 258h105v-258h44v-84h-44v-78h-100v78h-207zM226 297l-110 -135h110v135z" />
    <glyph glyph-name="five.dnom" horiz-adv-x="350" 
d="M107 14q-34 19 -54.5 49.5t-22.5 63.5h86q3 -22 21 -36t44 -14q30 0 47.5 17.5t17.5 44.5q0 29 -18.5 46.5t-48.5 17.5q-20 0 -34 -7t-24 -22h-83l35 246h238v-85h-164l-12 -71q26 15 59 15q41 0 74 -18t51.5 -50t18.5 -72q0 -42 -20 -74.5t-56 -51t-81 -18.5
q-40 0 -74 19z" />
    <glyph glyph-name="six.dnom" horiz-adv-x="378" 
d="M286 262q33 -19 51 -51t18 -72t-21 -73t-57.5 -52t-80.5 -19q-53 0 -90.5 27t-56.5 73t-19 104q0 70 21.5 121t60.5 78t91 27q44 0 78.5 -16.5t55 -45t24.5 -63.5h-87q-4 20 -23 33t-45 13q-38 0 -61.5 -30.5t-25.5 -76.5q13 18 39.5 30t51.5 12q43 0 76 -19zM248.5 91.5
q19.5 17.5 19.5 47.5q0 28 -19.5 45.5t-51.5 17.5t-51.5 -17.5t-19.5 -45.5q0 -30 19.5 -47.5t51.5 -17.5t51.5 17.5z" />
    <glyph glyph-name="seven.dnom" horiz-adv-x="314" 
d="M97.5 110q12.5 47 43.5 95l84 130h-204v85h314v-78l-106 -161q-24 -38 -34 -79t-10 -102h-100q0 63 12.5 110z" />
    <glyph glyph-name="eight.dnom" horiz-adv-x="382" 
d="M109 11.5q-37 16.5 -58 46.5t-21 67q0 34 18 60t48 41q-21 14 -34 36.5t-13 47.5q0 33 18 59.5t50.5 41t74.5 14.5q41 0 73.5 -14.5t50.5 -41t18 -59.5q0 -25 -12.5 -47t-35.5 -37q32 -15 49.5 -40.5t17.5 -60.5q0 -37 -21 -67t-57.5 -46.5t-82.5 -16.5t-83 16.5z
M232 275q15 12 15 31t-15 30.5t-40 11.5t-40 -11.5t-15 -30.5t15 -31t40 -12t40 12zM241 91.5q18 13.5 18 36.5t-18 37t-49 14t-50 -14t-19 -37t19 -36.5t50 -13.5t49 13.5z" />
    <glyph glyph-name="nine.dnom" horiz-adv-x="391" 
d="M105 158q-33 19 -51 51t-18 72t21 73t57.5 52t80.5 19q53 0 90.5 -27t56.5 -73t19 -104q0 -70 -21.5 -121t-60.5 -78t-91 -27q-44 0 -78.5 16.5t-55 45t-24.5 63.5h87q4 -20 23 -33t45 -13q38 0 61.5 30.5t25.5 77.5q-13 -19 -39.5 -31t-51.5 -12q-43 0 -76 19z
M142.5 328.5q-19.5 -17.5 -19.5 -47.5q0 -28 19.5 -45.5t51.5 -17.5t51.5 17.5t19.5 45.5q0 30 -19.5 47.5t-51.5 17.5t-51.5 -17.5z" />
    <glyph glyph-name="zero.numr" horiz-adv-x="396" 
d="M64.5 327.5q-40.5 52.5 -40.5 150.5v25q0 97 40.5 149.5t120.5 52.5h26q80 0 121 -52.5t41 -149.5v-25q0 -98 -41 -150.5t-121 -52.5h-26q-80 0 -120.5 52.5zM254 383q19 22 19 63v89q0 40 -19 62.5t-48 22.5h-15q-29 0 -48 -22.5t-19 -62.5v-89q0 -41 19 -63t48 -22h15
q29 0 48 22z" />
    <glyph glyph-name="one.numr" horiz-adv-x="251" 
d="M107 280v292q-6 -8 -24.5 -13.5t-34.5 -5.5h-28v86h28q28 0 43.5 13t21.5 48h93v-420h-99z" />
    <glyph glyph-name="two.numr" horiz-adv-x="354" 
d="M42.5 631.5q18.5 35.5 54 54.5t83.5 19q45 0 80 -16.5t54.5 -47t19.5 -70.5q0 -42 -24 -74t-77 -60l-44 -23q-21 -12 -35.5 -23.5t-16.5 -24.5h195v-86h-304l-1 69q-1 44 28 77t67 52l69 34q20 10 31.5 26t11.5 35q0 24 -15 38t-39 14q-28 0 -43 -21t-13 -57h-100
q0 49 18.5 84.5z" />
    <glyph glyph-name="three.numr" horiz-adv-x="376" 
d="M108 291.5q-36 16.5 -57.5 48t-21.5 74.5h95q0 -26 18.5 -39.5t46.5 -13.5t44.5 13t16.5 35t-16.5 34.5t-44.5 12.5h-41v80h38q22 0 35.5 13t13.5 34q0 19 -14.5 30.5t-38.5 11.5q-22 0 -38 -13t-16 -37h-89q0 38 19.5 67.5t53 46t72.5 16.5q41 0 74.5 -15.5t53 -42
t19.5 -57.5q0 -25 -13 -49t-34 -38q31 -16 48 -39.5t17 -57.5q0 -39 -21.5 -69t-58.5 -46t-80 -16q-45 0 -81 16.5z" />
    <glyph glyph-name="four.numr" horiz-adv-x="397" 
d="M19 358v84l202 258h105v-258h44v-84h-44v-78h-100v78h-207zM226 577l-110 -135h110v135z" />
    <glyph glyph-name="five.numr" horiz-adv-x="363" 
d="M107 294q-34 19 -54.5 49.5t-22.5 63.5h86q3 -22 21 -36t44 -14q30 0 47.5 17.5t17.5 44.5q0 29 -18.5 46.5t-48.5 17.5q-20 0 -34 -7t-24 -22h-83l35 246h238v-85h-164l-12 -71q26 15 59 15q41 0 74 -18t51.5 -50t18.5 -72q0 -42 -20 -74.5t-56 -51t-81 -18.5
q-40 0 -74 19z" />
    <glyph glyph-name="six.numr" horiz-adv-x="391" 
d="M286 542q33 -19 51 -51t18 -72t-21 -73t-57.5 -52t-80.5 -19q-53 0 -90.5 27t-56.5 73t-19 104q0 70 21.5 121t60.5 78t91 27q44 0 78.5 -16.5t55 -45t24.5 -63.5h-87q-4 20 -23 33t-45 13q-38 0 -61.5 -30.5t-25.5 -76.5q13 18 39.5 30t51.5 12q43 0 76 -19z
M248.5 371.5q19.5 17.5 19.5 47.5q0 28 -19.5 45.5t-51.5 17.5t-51.5 -17.5t-19.5 -45.5q0 -30 19.5 -47.5t51.5 -17.5t51.5 17.5z" />
    <glyph glyph-name="seven.numr" horiz-adv-x="318" 
d="M97.5 390q12.5 47 43.5 95l84 130h-204v85h314v-78l-106 -161q-24 -38 -34 -79t-10 -102h-100q0 63 12.5 110z" />
    <glyph glyph-name="eight.numr" horiz-adv-x="382" 
d="M109 291.5q-37 16.5 -58 46.5t-21 67q0 34 18 60t48 41q-21 14 -34 36.5t-13 47.5q0 33 18 59.5t50.5 41t74.5 14.5q41 0 73.5 -14.5t50.5 -41t18 -59.5q0 -25 -12.5 -47t-35.5 -37q32 -15 49.5 -40.5t17.5 -60.5q0 -37 -21 -67t-57.5 -46.5t-82.5 -16.5t-83 16.5z
M232 555q15 12 15 31t-15 30.5t-40 11.5t-40 -11.5t-15 -30.5t15 -31t40 -12t40 12zM241 371.5q18 13.5 18 36.5t-18 37t-49 14t-50 -14t-19 -37t19 -36.5t50 -13.5t49 13.5z" />
    <glyph glyph-name="nine.numr" horiz-adv-x="391" 
d="M105 438q-33 19 -51 51t-18 72t21 73t57.5 52t80.5 19q53 0 90.5 -27t56.5 -73t19 -104q0 -70 -21.5 -121t-60.5 -78t-91 -27q-44 0 -78.5 16.5t-55 45t-24.5 63.5h87q4 -20 23 -33t45 -13q38 0 61.5 30.5t25.5 77.5q-13 -19 -39.5 -31t-51.5 -12q-43 0 -76 19z
M142.5 608.5q-19.5 -17.5 -19.5 -47.5q0 -28 19.5 -45.5t51.5 -17.5t51.5 17.5t19.5 45.5q0 30 -19.5 47.5t-51.5 17.5t-51.5 -17.5z" />
    <glyph glyph-name="colon.cap" horiz-adv-x="282" 
d="M202 436h-151v144h151v-144zM202 83h-151v144h151v-144z" />
    <glyph glyph-name="bullet.case" horiz-adv-x="320" 
d="M102.5 278q-23.5 14 -37.5 37.5t-14 52.5q0 27 14 50.5t38 37t52 13.5q27 0 50.5 -13.5t37 -37t13.5 -50.5q0 -28 -13.5 -52t-37 -38t-50.5 -14q-29 0 -52.5 14z" />
    <glyph glyph-name="emdash.alt" horiz-adv-x="1130" 
d="M1065 377v-119h-1000v119h1000z" />
    <glyph glyph-name="percent.part" horiz-adv-x="406" 
d="M124 13q-35 21 -54.5 57.5t-19.5 81.5t19.5 81.5t54.5 57.5t79 21q45 0 79.5 -21t54 -57.5t19.5 -81.5t-19.5 -81.5t-54 -57.5t-79.5 -21q-44 0 -79 21zM245.5 100q16.5 20 16.5 52t-16.5 52t-42.5 20q-25 0 -41 -20t-16 -52t16 -52t41 -20q26 0 42.5 20z" />
    <glyph glyph-name="percent.part2" horiz-adv-x="755" 
d="M124 409q-35 21 -54.5 57.5t-19.5 81.5t19.5 81.5t54.5 57.5t79 21q45 0 79.5 -21t54 -57.5t19.5 -81.5t-19.5 -81.5t-54 -57.5t-79.5 -21q-44 0 -79 21zM245.5 496q16.5 20 16.5 52t-16.5 52t-42.5 20q-25 0 -41 -20t-16 -52t16 -52t41 -20q26 0 42.5 20zM474 13
q-35 21 -54.5 57.5t-19.5 81.5t19.5 81.5t54.5 57.5t79 21q45 0 79.5 -21t54 -57.5t19.5 -81.5t-19.5 -81.5t-54 -57.5t-79.5 -21q-44 0 -79 21zM595.5 100q16.5 20 16.5 52t-16.5 52t-42.5 20q-25 0 -41 -20t-16 -52t16 -52t41 -20q26 0 42.5 20z" />
    <glyph glyph-name="uni030C.alt" 
d="M-41 750l-57 -190h-104l30 190h131z" />
    <glyph glyph-name="uni0335.alt" 
d="M-65 447v-95h-371v95h371z" />
    <glyph glyph-name="uni0338.alt" 
d="M-465 -30l-60 49l416 515l59 -49z" />
    </font>
</defs>
</svg>
